<svg width="34" height="34" viewBox="0 0 34 34" fill="none" xmlns="http://www.w3.org/2000/svg">
<path d="M23.126 11.5047C25.0996 14.4269 26.0742 17.723 25.7098 21.5176C25.7083 21.5337 25.7 21.5484 25.6869 21.5581C24.1924 22.6633 22.7444 23.334 21.3168 23.7788C21.3056 23.7822 21.2937 23.782 21.2827 23.7783C21.2717 23.7745 21.2622 23.7674 21.2554 23.7579C20.9255 23.2957 20.6259 22.8085 20.3633 22.2968C20.3482 22.2667 20.362 22.2304 20.393 22.2185C20.869 22.0379 21.3216 21.8214 21.7569 21.5652C21.7912 21.5449 21.7934 21.4954 21.7617 21.4717C21.6693 21.4026 21.5778 21.33 21.4902 21.2574C21.4738 21.244 21.4517 21.2414 21.4332 21.2504C18.6069 22.5647 15.5109 22.5647 12.6511 21.2504C12.6326 21.242 12.6105 21.2449 12.5946 21.2581C12.5072 21.3307 12.4155 21.4026 12.3239 21.4717C12.2923 21.4954 12.2949 21.5449 12.3294 21.5652C12.7647 21.8166 13.2173 22.0379 13.6926 22.2194C13.7234 22.2313 13.7381 22.2667 13.7228 22.2968C13.4659 22.8091 13.1662 23.2964 12.8303 23.7586C12.8156 23.7773 12.7916 23.7858 12.7689 23.7788C11.348 23.334 9.90001 22.6633 8.4055 21.5581C8.39305 21.5484 8.38409 21.533 8.38278 21.517C8.07829 18.2347 8.69885 14.9113 10.9642 11.504C10.9697 11.495 10.978 11.488 10.9876 11.4838C12.1022 10.9686 13.2964 10.5896 14.5445 10.3731C14.5672 10.3696 14.5899 10.3802 14.6017 10.4004C14.756 10.6754 14.9322 11.028 15.0515 11.3162C16.3671 11.1138 17.7032 11.1138 19.0464 11.3162C19.1656 11.0342 19.3358 10.6754 19.4894 10.4004C19.4948 10.3904 19.5033 10.3823 19.5136 10.3774C19.5239 10.3725 19.5354 10.371 19.5466 10.3731C20.7954 10.5902 21.9895 10.9693 23.1033 11.4838C23.1131 11.488 23.1212 11.495 23.126 11.5047ZM15.7203 17.7455C15.7341 16.7751 15.0316 15.9722 14.1498 15.9722C13.2752 15.9722 12.5795 16.7681 12.5795 17.7455C12.5795 18.7226 13.289 19.5185 14.1498 19.5185C15.0246 19.5185 15.7203 18.7226 15.7203 17.7455ZM21.5267 17.7455C21.5404 16.7751 20.838 15.9722 19.9564 15.9722C19.0815 15.9722 18.3858 16.7681 18.3858 17.7455C18.3858 18.7226 19.0953 19.5185 19.9564 19.5185C20.838 19.5185 21.5267 18.7226 21.5267 17.7455Z" fill="#EFEFEF"/>
<rect x="0.5" y="0.5" width="33" height="33" rx="1.5" stroke="#5B5B5B"/>
</svg>
