<svg width="34" height="34" viewBox="0 0 34 34" fill="none" xmlns="http://www.w3.org/2000/svg">
<path fill-rule="evenodd" clip-rule="evenodd" d="M16.9386 9.40271C12.5336 9.40271 8.96582 12.9104 8.96582 17.2412C8.96582 20.7097 11.248 23.6394 14.4172 24.678C14.8158 24.7465 14.9653 24.5114 14.9653 24.3056C14.9653 24.1195 14.9554 23.5022 14.9554 22.8457C12.9522 23.2082 12.434 22.3656 12.2745 21.9247C12.1848 21.6993 11.7961 21.0037 11.4573 20.8175C11.1783 20.6705 10.7796 20.308 11.4473 20.2982C12.0752 20.2884 12.5237 20.8665 12.6732 21.1016C13.3907 22.2872 14.5368 21.9541 14.9952 21.7483C15.065 21.2388 15.2743 20.8959 15.5035 20.6999C13.7295 20.504 11.8759 19.8279 11.8759 16.8297C11.8759 15.9772 12.1848 15.2718 12.6931 14.7231C12.6134 14.5271 12.3343 13.7237 12.7728 12.6459C12.7728 12.6459 13.4405 12.4401 14.9653 13.4493C15.6031 13.273 16.2808 13.1848 16.9585 13.1848C17.6362 13.1848 18.3139 13.273 18.9517 13.4493C20.4765 12.4303 21.1442 12.6459 21.1442 12.6459C21.5827 13.7237 21.3037 14.5271 21.2239 14.7231C21.7322 15.2718 22.0411 15.9674 22.0411 16.8297C22.0411 19.8377 20.1775 20.504 18.4036 20.6999C18.6926 20.9449 18.9417 21.4152 18.9417 22.15C18.9417 23.1984 18.9318 24.0411 18.9318 24.3056C18.9318 24.5114 19.0813 24.7563 19.4799 24.678C22.6291 23.6394 24.9113 20.6999 24.9113 17.2412C24.9113 12.9104 21.3435 9.40271 16.9386 9.40271Z" fill="#EFEFEF"/>
<rect x="0.5" y="0.5" width="33" height="33" rx="1.5" stroke="#5B5B5B"/>
</svg>
