<svg width="34" height="34" viewBox="0 0 34 34" fill="none" xmlns="http://www.w3.org/2000/svg">
<path d="M24.7799 12.0693C24.2661 12.2906 23.7259 12.4447 23.1727 12.5278C23.4313 12.4834 23.8119 12.0175 23.9634 11.8289C24.1935 11.5444 24.3689 11.2196 24.4807 10.8711C24.4807 10.8452 24.5065 10.8082 24.4807 10.7897C24.4676 10.7826 24.453 10.7789 24.4382 10.7789C24.4233 10.7789 24.4087 10.7826 24.3957 10.7897C23.795 11.1153 23.1557 11.3638 22.4929 11.5293C22.4698 11.5364 22.4452 11.537 22.4217 11.5312C22.3983 11.5253 22.3769 11.5132 22.3598 11.4961C22.3083 11.4346 22.2527 11.3765 22.1936 11.3222C21.9232 11.0798 21.6165 10.8814 21.2847 10.7342C20.8367 10.5503 20.3528 10.4706 19.8696 10.5013C19.4007 10.5309 18.9429 10.6568 18.5247 10.8711C18.1128 11.097 17.7509 11.4039 17.4606 11.7734C17.1552 12.1537 16.9347 12.595 16.814 13.0677C16.7144 13.5174 16.7031 13.9821 16.7807 14.436C16.7807 14.5137 16.7807 14.5248 16.7142 14.5137C14.0798 14.1254 11.9184 13.1898 10.1523 11.1817C10.0747 11.093 10.034 11.093 9.97124 11.1817C9.20272 12.3503 9.57589 14.1993 10.5365 15.1128C10.6659 15.2348 10.7989 15.3531 10.9393 15.4641C10.4988 15.4328 10.0691 15.3133 9.67565 15.1128C9.60176 15.0647 9.56111 15.0906 9.55742 15.1793C9.54695 15.3024 9.54695 15.4261 9.55742 15.5491C9.63451 16.1388 9.8667 16.6974 10.2302 17.1679C10.5938 17.6383 11.0756 18.0036 11.6265 18.2265C11.7608 18.2841 11.9007 18.3275 12.044 18.356C11.6363 18.4363 11.2181 18.4488 10.8063 18.393C10.7176 18.3745 10.6843 18.4225 10.7176 18.5076C11.2607 19.9868 12.4394 20.438 13.3039 20.6895C13.4222 20.7079 13.5404 20.7079 13.6734 20.7375C13.6734 20.7375 13.6734 20.7375 13.6512 20.7597C13.3963 21.2257 12.3655 21.54 11.8925 21.7027C11.0293 22.0131 10.1089 22.1317 9.19533 22.0503C9.05123 22.0282 9.01798 22.0319 8.98103 22.0503C8.94409 22.0688 8.98103 22.1095 9.02168 22.1465C9.20642 22.2685 9.39115 22.3758 9.58328 22.4793C10.1553 22.7916 10.7599 23.0396 11.3863 23.2189C14.6304 24.1139 18.2808 23.4556 20.7157 21.0334C22.6296 19.1326 23.302 16.5106 23.302 13.885C23.302 13.7852 23.4239 13.726 23.4942 13.6742C23.9784 13.2966 24.4052 12.8507 24.7615 12.3503C24.8232 12.2757 24.8548 12.1808 24.8501 12.084C24.8501 12.0286 24.8501 12.0397 24.7799 12.0693Z" fill="#EFEFEF"/>
<rect x="0.5" y="0.5" width="33" height="33" rx="1.5" stroke="#5B5B5B"/>
</svg>
