<svg width="32" height="32" viewBox="0 0 32 32" fill="none" xmlns="http://www.w3.org/2000/svg">
<rect width="32" height="32" rx="16" fill="#FFE75C"/>
<path d="M13.479 4.27004C12.1513 4.20431 11.6254 5.05877 10.4292 8.83152L16.7916 9.6334C16.2789 6.29444 14.9644 4.34891 13.479 4.27004Z" fill="#34F4CF"/>
<path d="M13.4791 7.61662C13.5054 8.97061 13.0716 9.23351 12.2565 9.37811C11.4415 9.52271 11.218 8.9969 11.4284 8.18188C11.6387 7.36686 12.1514 6.56498 12.6509 6.47296C13.1504 6.38094 13.4659 6.87259 13.4791 7.61662Z" fill="black"/>
<path d="M23.2462 5.90783C21.7477 5.81581 20.6303 7.13036 19.4209 9.98293L26.4209 13.0064C25.9148 7.67458 24.7448 5.99196 23.2462 5.90783Z" fill="#34F4CF"/>
<path d="M22.8255 9.35749C22.6941 10.9218 22.2077 11.211 21.3664 11.3687C20.5251 11.5265 20.3542 10.9744 20.604 10.0936C20.8537 9.21289 21.4716 8.17439 22.0237 8.01665C22.5758 7.8589 22.9044 8.45045 22.8255 9.35749Z" fill="black"/>
<path d="M29.6876 19.256C29.4904 24.4222 23.4435 28.6813 16.266 27.8926C7.76089 26.9724 2.80504 20.071 2.84447 13.6166C2.87076 8.43728 7.57685 7.70114 16.8576 9.1077C25.4416 10.4223 29.8979 14.0898 29.6876 19.256Z" fill="#34F4CF"/>
<path d="M11.3366 14.9178L7.62959 10.8164L7.19578 11.1713C5.07936 13.4981 5.408 18.8089 6.69626 23.2126C8.98357 25.6577 12.2174 27.4586 16.2662 27.8924C18.1152 28.0992 19.9864 27.9656 21.7873 27.498C20.0915 23.1074 20.499 18.7957 22.576 15.4305L11.3366 14.9178Z" fill="#ADFDDC"/>
<path d="M15.5562 15.0889C16.2529 16.0485 16.5684 16.9292 16.4632 18.5461C16.4401 18.9389 16.5671 19.3257 16.8185 19.6284C17.0699 19.931 17.4268 20.1268 17.8172 20.1762C18.0319 20.2072 18.2508 20.1921 18.4593 20.1321C18.6677 20.072 18.8611 19.9683 19.0264 19.8278C19.1917 19.6873 19.3253 19.5133 19.4183 19.3173C19.5112 19.1212 19.5614 18.9077 19.5655 18.6907C19.6313 16.4823 18.8162 15.5095 18.2247 15.102L15.5562 15.0889Z" fill="#FF78B9"/>
<path d="M7.73481 10.6978C9.02307 11.6442 10.0879 12.9062 10.9555 14.2207C11.0546 14.3569 11.1718 14.479 11.3038 14.5836C11.4377 14.6741 11.5906 14.7326 11.7508 14.7545C12.1243 14.8161 12.5028 14.8425 12.8813 14.8333C13.6569 14.8465 14.4456 14.8333 15.2475 14.8333C16.8249 14.8202 18.4024 14.8596 19.993 14.9253C20.7817 14.9516 21.5704 14.9911 22.3592 15.0568C23.1479 15.1225 23.9366 15.1883 24.7254 15.2934C24.7671 15.2965 24.806 15.3158 24.8335 15.3473C24.8611 15.3788 24.8751 15.4199 24.8726 15.4617C24.8733 15.4669 24.8733 15.4722 24.8726 15.4775C24.8637 15.5193 24.8404 15.5567 24.8068 15.5831C24.7731 15.6095 24.7313 15.6233 24.6885 15.6221C23.913 15.5432 23.1242 15.4906 22.3355 15.4512L19.9693 15.3591C18.405 15.3197 16.8275 15.3197 15.2501 15.3329C14.4614 15.346 13.6726 15.3591 12.8708 15.346H11.9611L11.6456 15.2934C11.414 15.2548 11.1939 15.165 11.0015 15.0305C10.8215 14.8958 10.6659 14.7313 10.5414 14.5441L10.1996 14.0446L9.85781 13.5714C9.63433 13.269 9.38457 12.9535 9.13481 12.6643C8.64111 12.0617 8.10518 11.4951 7.53106 10.9686C7.50444 10.9384 7.48931 10.8998 7.48833 10.8596C7.48736 10.8194 7.5006 10.7801 7.52573 10.7487C7.55086 10.7173 7.58626 10.6958 7.62571 10.6879C7.66516 10.68 7.70612 10.6863 7.74138 10.7056L7.73481 10.6978Z" fill="black"/>
<path d="M25.7439 15.3254C26.2435 16.8634 25.4284 18.0202 24.1007 17.7967C22.9834 17.6127 21.9975 16.469 21.774 15.3122C21.5505 14.1554 22.0763 13.3272 22.9702 13.1958C23.8641 13.0643 25.297 13.9267 25.7439 15.3254Z" fill="#4C7DFF"/>
<path d="M8.97042 10.8431C8.53661 11.4347 7.28779 11.8553 6.23615 11.7896C5.18451 11.7239 4.79015 11.2638 5.15822 10.7379C5.5263 10.2121 6.65681 9.77832 7.70845 9.77832C8.76009 9.77832 9.41736 10.2463 8.97042 10.8431Z" fill="#4C7DFF"/>
<path d="M18.3563 19.0539H18.33C18.2814 19.0508 18.236 19.0286 18.2037 18.9922C18.1714 18.9557 18.1549 18.9079 18.1578 18.8593C18.1584 18.8541 18.1584 18.8488 18.1578 18.8435C18.3418 17.1478 17.908 15.8858 16.9221 15.2942C16.8977 15.2814 16.8762 15.2637 16.8589 15.2423C16.8416 15.2208 16.8289 15.196 16.8216 15.1694C16.8143 15.1428 16.8126 15.115 16.8165 15.0877C16.8204 15.0604 16.8298 15.0342 16.8443 15.0108C16.8587 14.9873 16.8779 14.967 16.9005 14.9512C16.9231 14.9355 16.9487 14.9245 16.9757 14.919C17.0027 14.9136 17.0306 14.9137 17.0575 14.9195C17.0845 14.9252 17.11 14.9365 17.1324 14.9525C18.2498 15.636 18.7493 17.0295 18.5521 18.883C18.5438 18.9295 18.5199 18.9718 18.4842 19.0028C18.4486 19.0339 18.4035 19.0519 18.3563 19.0539Z" fill="black"/>
</svg>
