<svg width="80" height="80" viewBox="0 0 80 80" fill="none" xmlns="http://www.w3.org/2000/svg">
<path d="M40.0003 78.3337C61.1712 78.3337 78.3337 61.1712 78.3337 40.0003C78.3337 18.8294 61.1712 1.66699 40.0003 1.66699C18.8294 1.66699 1.66699 18.8294 1.66699 40.0003C1.66699 61.1712 18.8294 78.3337 40.0003 78.3337Z" fill="#EE7C2F"/>
<path d="M57.6316 34.302C58.4283 28.9787 54.375 26.117 48.8333 24.207L50.6316 17.0004L46.2416 15.907L44.5 22.9237C43.3466 22.637 42.1666 22.3654 40.9833 22.0904L42.7466 15.022L38.36 13.9287L36.56 21.137C35.605 20.9187 34.6683 20.7054 33.7583 20.4787V20.4554L27.705 18.9437L26.5383 23.632C26.5383 23.632 29.795 24.3787 29.7266 24.4254C30.3343 24.499 30.8886 24.8085 31.2702 25.287C31.6518 25.7656 31.8301 26.3749 31.7666 26.9837L29.7183 35.1987C29.8735 35.2376 30.0261 35.2866 30.175 35.3454L29.7116 35.2304L26.8416 46.7304C26.7783 46.9312 26.676 47.1175 26.5406 47.2786C26.4051 47.4398 26.2392 47.5726 26.0523 47.6696C25.8655 47.7665 25.6613 47.8256 25.4515 47.8434C25.2418 47.8613 25.0305 47.8376 24.83 47.7737C24.8733 47.837 21.64 46.977 21.64 46.977L19.46 52.002L25.1716 53.4254C26.235 53.692 27.2766 53.9704 28.3016 54.2337L26.485 61.527L30.8683 62.6204L32.6683 55.4037C33.865 55.737 35.0283 56.0287 36.1683 56.312L34.3733 63.5004L38.7616 64.5937L40.5783 57.3154C48.0633 58.732 53.6916 58.1604 56.06 51.3904C57.97 45.9404 55.965 42.7954 52.0266 40.7454C53.5409 40.4403 54.9117 39.6429 55.9256 38.4775C56.9394 37.312 57.5392 35.844 57.6316 34.302ZM47.6033 48.3637C46.2466 53.8154 37.07 50.8637 34.1033 50.1287L36.5133 40.462C39.48 41.2087 49.02 42.6804 47.6033 48.3637ZM48.96 34.222C47.7233 39.1804 40.085 36.662 37.6066 36.0437L39.7916 27.2804C42.27 27.8987 50.25 29.0504 48.96 34.222Z" fill="white"/>
</svg>
