<svg width="78" height="78" viewBox="0 0 78 78" fill="none" xmlns="http://www.w3.org/2000/svg">
<path d="M40.6673 64.228V47.333H37.334V64.228C35.7629 64.6337 34.3937 65.5984 33.483 66.9414C32.5723 68.2843 32.1827 69.9133 32.3871 71.523C32.5916 73.1327 33.3761 74.6126 34.5936 75.6852C35.8111 76.7579 37.378 77.3496 39.0007 77.3496C40.6233 77.3496 42.1902 76.7579 43.4077 75.6852C44.6252 74.6126 45.4097 73.1327 45.6142 71.523C45.8187 69.9133 45.429 68.2843 44.5183 66.9414C43.6077 65.5984 42.2384 64.6337 40.6673 64.228Z" fill="#645AED"/>
<path d="M69.0007 63.9913C67.8144 63.998 66.6519 64.3244 65.6356 64.9363L60.6673 59.968V47.333H57.334V60.6663C57.3341 61.1083 57.5097 61.5322 57.8223 61.8447L63.279 67.3013C62.6663 68.3173 62.3398 69.48 62.334 70.6663C62.334 71.9849 62.725 73.2738 63.4575 74.3701C64.1901 75.4665 65.2313 76.321 66.4494 76.8255C67.6676 77.3301 69.008 77.4621 70.3013 77.2049C71.5945 76.9477 72.7823 76.3127 73.7147 75.3804C74.647 74.448 75.282 73.2602 75.5392 71.9669C75.7965 70.6737 75.6644 69.3333 75.1598 68.1151C74.6553 66.8969 73.8008 65.8558 72.7045 65.1232C71.6081 64.3907 70.3192 63.9997 69.0007 63.9997V63.9913Z" fill="#645AED"/>
<path d="M17.334 47.333V59.9763L12.3657 64.9363C11.3494 64.3244 10.1869 63.998 9.00065 63.9913C7.68211 63.9913 6.39318 64.3823 5.29685 65.1149C4.20052 65.8474 3.34604 66.8886 2.84146 68.1068C2.33687 69.325 2.20485 70.6654 2.46209 71.9586C2.71932 73.2518 3.35426 74.4397 4.28661 75.3721C5.21896 76.3044 6.40685 76.9393 7.70005 77.1966C8.99326 77.4538 10.3337 77.3218 11.5519 76.8172C12.7701 76.3126 13.8112 75.4581 14.5438 74.3618C15.2763 73.2655 15.6673 71.9765 15.6673 70.658C15.6615 69.4716 15.335 68.3089 14.7223 67.293L20.179 61.833C20.4908 61.5213 20.6663 61.0988 20.6673 60.658V47.333H17.334Z" fill="#645AED"/>
<path d="M60.667 13.9914C60.4703 13.9914 60.277 13.9914 60.082 14.0064C58.4469 10.5843 56.0057 7.61004 52.968 5.33905C49.9304 3.06806 46.387 1.56816 42.642 0.968098L42.2487 0.909765C41.837 0.849765 41.427 0.793098 41.022 0.759765C39.6816 0.634766 38.3324 0.634766 36.992 0.759765C36.5737 0.793098 36.1587 0.849765 35.617 0.926431L35.3803 0.963098C31.6319 1.56053 28.0846 3.05899 25.0431 5.32976C22.0015 7.60053 19.5567 10.5757 17.9187 13.9998C17.7237 13.9998 17.5303 13.9914 17.3337 13.9914C12.9134 13.9914 8.67415 15.7474 5.54855 18.873C2.42294 21.9986 0.666992 26.2378 0.666992 30.6581C0.666992 35.0784 2.42294 39.3176 5.54855 42.4432C8.67415 45.5688 12.9134 47.3248 17.3337 47.3248H60.667C65.0873 47.3248 69.3265 45.5688 72.4521 42.4432C75.5777 39.3176 77.3337 35.0784 77.3337 30.6581C77.3337 26.2378 75.5777 21.9986 72.4521 18.873C69.3265 15.7474 65.0873 13.9914 60.667 13.9914Z" fill="#CDCAFC"/>
<path d="M50.0203 22.0967C50.5203 18.7633 47.9853 16.9817 44.5203 15.7883L45.6453 11.2883L42.902 10.605L41.807 14.9917C41.087 14.8133 40.3453 14.6433 39.6103 14.475L40.712 10.0583L37.9703 9.375L36.8453 13.875L31.3137 12.5L30.5837 15.4333C30.5837 15.4333 32.6187 15.8983 32.5837 15.9333C32.9635 15.9782 33.3104 16.1706 33.5496 16.469C33.7887 16.7674 33.9009 17.1479 33.862 17.5283L30.7837 29.875C30.744 30.0004 30.6801 30.1167 30.5955 30.2173C30.5108 30.318 30.4072 30.4009 30.2905 30.4615C30.1738 30.522 30.0462 30.5589 29.9152 30.5701C29.7842 30.5813 29.6523 30.5665 29.527 30.5267C29.5537 30.565 27.527 30.0267 27.527 30.0267L26.167 33.1667L31.692 34.5617L30.557 39.12L33.297 39.8033L34.4203 35.2933C35.1703 35.4967 35.8953 35.685 36.607 35.8617L35.487 40.35L38.2303 41.0333L39.3653 36.4833C44.0437 37.3683 47.5603 37.0117 49.042 32.78C49.3449 32.1829 49.5199 31.5292 49.5558 30.8606C49.5917 30.192 49.4876 29.5233 49.2502 28.8972C49.0129 28.2712 48.6475 27.7015 48.1774 27.2247C47.7074 26.748 47.143 26.3745 46.5203 26.1283C47.4669 25.9368 48.3235 25.4375 48.9566 24.7083C49.5897 23.979 49.9637 23.0607 50.0203 22.0967ZM43.752 30.8867C42.9053 34.2917 37.1687 32.45 35.3087 31.9883L36.8087 25.95C38.6753 26.415 44.6387 27.3333 43.752 30.8867ZM44.6003 22.0533C43.827 25.1533 39.0537 23.5783 37.5053 23.1917L38.8703 17.715C40.4187 18.095 45.407 18.815 44.6003 22.0467V22.0533Z" fill="#645AED"/>
</svg>
