<svg width="24" height="24" viewBox="0 0 24 24" fill="none" xmlns="http://www.w3.org/2000/svg">
<path d="M9.625 21H18.375C20.125 21 21 20.125 21 18.375V9.625C21 7.875 20.125 7 18.375 7H9.625C7.875 7 7 7.875 7 9.625V18.375C7 20.125 7.875 21 9.625 21Z" fill="white"/>
<path d="M3 15.75C2.586 15.75 2.25 15.414 2.25 15V5.625C2.25 3.448 3.448 2.25 5.625 2.25H15C15.414 2.25 15.75 2.586 15.75 3C15.75 3.414 15.414 3.75 15 3.75H5.625C4.293 3.75 3.75 4.293 3.75 5.625V15C3.75 15.414 3.414 15.75 3 15.75Z" fill="white"/>
</svg>
