<svg width="24" height="24" viewBox="0 0 24 24" fill="none" xmlns="http://www.w3.org/2000/svg">
<path d="M16.3132 8.39356C16.5084 8.1983 16.5084 7.88172 16.3132 7.68645C16.1179 7.49119 15.8013 7.49119 15.606 7.68645L16.3132 8.39356ZM7.68645 15.606C7.49119 15.8013 7.49119 16.1179 7.68645 16.3132C7.88172 16.5084 8.1983 16.5084 8.39356 16.3132L7.68645 15.606ZM15.606 16.3132C15.8013 16.5084 16.1179 16.5084 16.3132 16.3132C16.5084 16.1179 16.5084 15.8013 16.3132 15.606L15.606 16.3132ZM8.39356 7.68645C8.1983 7.49119 7.88172 7.49119 7.68645 7.68645C7.49119 7.88172 7.49119 8.1983 7.68645 8.39356L8.39356 7.68645ZM22.6998 11.9998C22.6998 17.9093 17.9093 22.6998 11.9998 22.6998V23.6998C18.4615 23.6998 23.6998 18.4615 23.6998 11.9998H22.6998ZM11.9998 22.6998C6.09036 22.6998 1.2998 17.9093 1.2998 11.9998H0.299805C0.299805 18.4615 5.53807 23.6998 11.9998 23.6998V22.6998ZM1.2998 11.9998C1.2998 6.09036 6.09036 1.2998 11.9998 1.2998V0.299805C5.53807 0.299805 0.299805 5.53807 0.299805 11.9998H1.2998ZM11.9998 1.2998C17.9093 1.2998 22.6998 6.09036 22.6998 11.9998H23.6998C23.6998 5.53807 18.4615 0.299805 11.9998 0.299805V1.2998ZM15.606 7.68645L11.6463 11.6463L12.3534 12.3534L16.3132 8.39356L15.606 7.68645ZM11.6463 11.6463L7.68645 15.606L8.39356 16.3132L12.3534 12.3534L11.6463 11.6463ZM16.3132 15.606L12.3534 11.6463L11.6463 12.3534L15.606 16.3132L16.3132 15.606ZM12.3534 11.6463L8.39356 7.68645L7.68645 8.39356L11.6463 12.3534L12.3534 11.6463Z" fill="#5B5B5B"/>
</svg>
