<svg width="450" height="300" viewBox="0 0 450 300" fill="none" xmlns="http://www.w3.org/2000/svg">
<rect x="103" y="174" width="60" height="60" rx="12.7885" fill="url(#paint0_linear_7071_56543)"/>
<g clip-path="url(#clip0_7071_56543)">
<path d="M137.61 209.1L127.71 197C127.008 196.139 126.122 195.446 125.118 194.97C124.115 194.494 123.017 194.248 121.906 194.25H118C117.602 194.25 117.22 194.408 116.939 194.689C116.658 194.971 116.5 195.352 116.5 195.75C116.5 196.148 116.658 196.529 116.939 196.811C117.22 197.092 117.602 197.25 118 197.25H121.906C122.573 197.249 123.231 197.396 123.834 197.682C124.436 197.967 124.968 198.383 125.389 198.9L135.289 211C135.991 211.861 136.877 212.554 137.881 213.03C138.884 213.506 139.982 213.752 141.093 213.75H144.25V217.5C144.249 217.64 144.289 217.778 144.363 217.897C144.437 218.016 144.544 218.112 144.67 218.174C144.796 218.236 144.937 218.261 145.077 218.247C145.216 218.232 145.349 218.179 145.46 218.093L152.21 212.843C152.26 212.804 152.304 212.759 152.343 212.71C152.464 212.553 152.518 212.354 152.493 212.157C152.468 211.961 152.366 211.782 152.21 211.66L145.46 206.41C145.349 206.324 145.217 206.27 145.077 206.256C144.938 206.241 144.797 206.266 144.671 206.328C144.545 206.389 144.438 206.485 144.364 206.604C144.289 206.722 144.25 206.86 144.25 207V210.75H141.093C140.426 210.751 139.768 210.604 139.165 210.318C138.563 210.033 138.031 209.617 137.61 209.1Z" fill="url(#paint1_linear_7071_56543)"/>
<path d="M141.093 197.25H144.25V201C144.249 201.141 144.289 201.278 144.363 201.398C144.437 201.517 144.544 201.613 144.67 201.674C144.796 201.736 144.937 201.761 145.077 201.747C145.216 201.732 145.349 201.679 145.46 201.593L152.21 196.343C152.366 196.221 152.468 196.042 152.493 195.845C152.518 195.648 152.464 195.45 152.343 195.293C152.304 195.243 152.26 195.198 152.21 195.16L145.46 189.91C145.349 189.824 145.217 189.771 145.077 189.756C144.938 189.741 144.797 189.766 144.671 189.828C144.545 189.889 144.438 189.985 144.364 190.104C144.289 190.223 144.25 190.36 144.25 190.5V194.25H141.093C139.982 194.248 138.884 194.494 137.88 194.97C136.876 195.446 135.991 196.139 135.289 197L125.389 209.1C124.968 209.617 124.436 210.033 123.834 210.318C123.231 210.604 122.573 210.751 121.906 210.75H118C117.602 210.75 117.22 210.908 116.939 211.19C116.658 211.471 116.5 211.852 116.5 212.25C116.5 212.648 116.658 213.03 116.939 213.311C117.22 213.592 117.602 213.75 118 213.75H121.906C123.017 213.752 124.115 213.506 125.119 213.03C126.123 212.555 127.008 211.861 127.711 211L137.61 198.9C138.031 198.384 138.563 197.968 139.165 197.682C139.768 197.397 140.426 197.249 141.093 197.25Z" fill="url(#paint2_linear_7071_56543)"/>
<g opacity="0.9">
<path d="M131.781 195C129.945 195 128.151 195.545 126.624 196.565C125.098 197.584 123.908 199.034 123.206 200.73C122.504 202.426 122.32 204.292 122.678 206.092C123.036 207.893 123.92 209.547 125.218 210.845C126.516 212.143 128.17 213.027 129.97 213.385C131.77 213.743 133.637 213.559 135.333 212.856C137.028 212.154 138.478 210.964 139.498 209.438C140.518 207.912 141.062 206.117 141.062 204.282C141.062 201.82 140.084 199.459 138.344 197.719C136.603 195.978 134.242 195 131.781 195Z" fill="white"/>
<path opacity="0.9" d="M131.781 195C129.945 195 128.151 195.545 126.624 196.565C125.098 197.584 123.908 199.034 123.206 200.73C122.504 202.426 122.32 204.292 122.678 206.092C123.036 207.893 123.92 209.547 125.218 210.845C126.516 212.143 128.17 213.027 129.97 213.385C131.77 213.743 133.637 213.559 135.333 212.856C137.028 212.154 138.478 210.964 139.498 209.438C140.518 207.912 141.062 206.117 141.062 204.282C141.062 201.82 140.084 199.459 138.344 197.719C136.603 195.978 134.242 195 131.781 195ZM134.831 208.479L131.781 206.876L128.731 208.479L129.311 205.083L126.847 202.678L130.256 202.183L131.781 199.094L133.305 202.183L136.715 202.678L134.248 205.083L134.831 208.479Z" fill="url(#paint3_linear_7071_56543)"/>
</g>
</g>
<rect x="180" y="105" width="90" height="90" rx="15" fill="url(#paint4_linear_7071_56543)"/>
<path d="M204.75 141.001C202.363 141.001 200.074 141.95 198.386 143.638C196.698 145.325 195.75 147.615 195.75 150.001V168.001C195.75 170.388 196.698 172.678 198.386 174.365C200.074 176.053 202.363 177.001 204.75 177.001H245.25C247.637 177.001 249.926 176.053 251.614 174.365C253.302 172.678 254.25 170.388 254.25 168.001V150.001C254.25 147.615 253.302 145.325 251.614 143.638C249.926 141.95 247.637 141.001 245.25 141.001H234C233.403 141.001 232.831 141.239 232.409 141.66C231.987 142.082 231.75 142.655 231.75 143.251C231.75 145.042 231.039 146.759 229.773 148.024C228.507 149.29 226.79 150.001 225 150.001C223.21 150.001 221.493 149.29 220.227 148.024C218.961 146.759 218.25 145.042 218.25 143.251C218.25 142.655 218.013 142.082 217.591 141.66C217.169 141.239 216.597 141.001 216 141.001H204.75Z" fill="white"/>
<path d="M195.818 139.875C198.282 137.696 201.46 136.495 204.749 136.5H245.249C248.672 136.5 251.798 137.775 254.18 139.875C253.906 137.7 252.848 135.699 251.203 134.249C249.559 132.799 247.442 132 245.249 132H204.749C202.557 132 200.44 132.799 198.795 134.249C197.151 135.699 196.092 137.7 195.818 139.875Z" fill="white" fill-opacity="0.6"/>
<path d="M195.818 130.875C198.282 128.696 201.46 127.495 204.749 127.5H245.249C248.672 127.5 251.798 128.775 254.18 130.875C253.906 128.7 252.848 126.699 251.203 125.249C249.559 123.799 247.442 123 245.249 123H204.749C202.557 123 200.44 123.799 198.795 125.249C197.151 126.699 196.092 128.7 195.818 130.875Z" fill="white" fill-opacity="0.2"/>
<rect x="292" y="159" width="60" height="60" rx="18.7" fill="#5865F2"/>
<g filter="url(#filter0_d_7071_56543)">
<path d="M326.017 207.086C329.107 205.762 330.652 202.231 329.328 199.03L319.506 174.973C318.182 171.772 314.651 174.752 311.561 176.076C308.471 177.401 306.926 176.518 308.25 179.718L318.072 203.776C319.286 206.866 322.817 208.411 326.017 207.086Z" fill="url(#paint5_linear_7071_56543)"/>
<path d="M330.211 170.999L313.547 170.999C310.236 170.999 307.478 173.647 307.478 177.068C307.478 177.841 307.588 178.613 307.919 179.386L312.333 189.87C312.333 189.87 312.002 183.248 319.065 183.138L330.211 183.138C333.522 183.138 336.281 180.489 336.281 177.068C336.281 173.647 333.522 170.999 330.211 170.999Z" fill="url(#paint6_linear_7071_56543)"/>
</g>
<path fill-rule="evenodd" clip-rule="evenodd" d="M287 55C275.954 55 267 46.0457 267 35C267 23.9543 275.954 15 287 15C298.046 15 307 23.9543 307 35C307 46.0457 298.046 55 287 55Z" fill="#3385FF"/>
<path fill-rule="evenodd" clip-rule="evenodd" d="M300.108 43.659C300.108 43.659 295.929 39.9359 295.726 39.649C296.482 38.2351 296.885 36.65 296.885 34.9998C296.885 33.3846 296.499 31.8319 295.774 30.4411C296.109 30.0639 297.546 28.686 300.086 26.3074C301.786 28.863 302.709 31.8666 302.709 34.9998C302.709 38.1193 301.795 41.1103 300.108 43.659ZM295.845 22.0165C295.845 22.0165 292.324 25.9129 291.827 26.3707C290.369 25.5528 288.72 25.1148 287 25.1148C281.54 25.1148 277.115 29.5405 277.115 34.9998C277.115 40.4592 281.54 44.8849 287 44.8849C288.671 44.8849 290.276 44.4713 291.703 43.6972C292.105 44.0698 293.467 45.5112 295.789 48.0215C293.213 49.7627 290.173 50.7086 287 50.7086C278.324 50.7086 271.291 43.6756 271.291 34.9998C271.291 26.3241 278.324 19.291 287 19.291C290.197 19.291 293.258 20.2511 295.845 22.0165Z" fill="white"/>
<rect x="293" y="75" width="48" height="48" rx="12" fill="#18CDCA"/>
<path d="M318.428 89.7949L319.508 88.7313C321.629 86.6424 325.082 86.5907 327.215 88.6675C328.023 89.4562 328.56 90.4744 328.751 91.5792C328.942 92.6839 328.776 93.8197 328.277 94.827C328.038 95.3081 327.958 95.8508 328.047 96.3793C328.136 96.9077 328.391 97.3955 328.775 97.7746C329.482 97.0768 330.042 96.2487 330.424 95.3376C330.806 94.4265 331.001 93.4503 331 92.4646C330.998 91.479 330.8 90.5033 330.416 89.5933C330.031 88.6833 329.469 87.8567 328.76 87.161C325.777 84.2399 320.936 84.298 317.961 87.2273L307.667 97.3657L306.821 96.5323C304.664 94.408 304.65 90.9358 306.845 88.8493C307.657 88.0793 308.692 87.5767 309.807 87.4108C310.922 87.2449 312.062 87.4239 313.069 87.9231C313.529 88.1551 314.051 88.2381 314.561 88.1602C315.072 88.0823 315.544 87.8476 315.911 87.4895L315.937 87.4638C315.946 87.4558 315.952 87.4463 315.956 87.4358C315.961 87.4253 315.963 87.4141 315.963 87.4028C315.963 87.3914 315.961 87.3802 315.956 87.3697C315.952 87.3593 315.946 87.3498 315.937 87.3418C314.521 85.9814 312.622 85.2172 310.643 85.2111C308.664 85.2049 306.761 85.9571 305.335 87.3087C302.264 90.2284 302.275 95.0835 305.294 98.0562L315.585 108.192L314.492 109.269C312.371 111.357 308.918 111.409 306.785 109.332C305.977 108.544 305.44 107.525 305.249 106.421C305.059 105.316 305.224 104.18 305.723 103.173C305.962 102.692 306.042 102.149 305.953 101.621C305.864 101.092 305.609 100.604 305.225 100.225C304.518 100.923 303.958 101.751 303.576 102.662C303.194 103.573 302.999 104.549 303 105.535C303.001 106.521 303.2 107.497 303.584 108.406C303.969 109.317 304.531 110.143 305.24 110.839C308.223 113.76 313.064 113.702 316.039 110.773L326.346 100.621L327.196 101.457C329.317 103.546 329.369 106.947 327.261 109.047C326.46 109.844 325.426 110.372 324.304 110.56C323.183 110.748 322.029 110.585 321.007 110.094C320.518 109.858 319.967 109.779 319.43 109.867C318.893 109.955 318.398 110.206 318.013 110.584C318.721 111.281 319.562 111.833 320.487 112.209C321.412 112.585 322.403 112.777 323.404 112.776C324.405 112.774 325.396 112.579 326.32 112.2C327.244 111.822 328.083 111.268 328.789 110.569C331.755 107.632 331.696 102.863 328.722 99.9342L318.428 89.7949ZM317.122 106.678L309.204 98.8798L316.891 91.3092L324.809 99.107L317.122 106.678Z" fill="white"/>
<g clip-path="url(#clip1_7071_56543)">
<path d="M245 20H188V77H245V20Z" fill="#22EE85"/>
<path d="M230.372 27.1582H210.889L232.231 48.4998L210.889 69.8414H230.36C234.468 69.8414 237.831 66.4793 237.831 62.3713V34.6283C237.842 30.5203 234.48 27.1582 230.372 27.1582Z" fill="white"/>
<path d="M205 27.1582H202.628C198.52 27.1582 195.158 30.5203 195.158 34.6283V62.3602C195.158 66.4682 198.52 69.8303 202.628 69.8303H205L226.341 48.4998L205 27.1582ZM211.334 58.8867C210.933 59.2764 210.41 59.4879 209.854 59.4879C209.297 59.4879 208.774 59.2764 208.384 58.8756L198.008 48.4998L208.406 38.1018C208.796 37.7121 209.319 37.4895 209.876 37.4895C210.432 37.4895 210.956 37.701 211.345 38.1018C211.735 38.4914 211.958 39.0146 211.958 39.5713C211.958 40.1279 211.746 40.6512 211.345 41.0408L203.886 48.4998L211.334 55.9477C212.147 56.7603 212.147 58.074 211.334 58.8867Z" fill="white"/>
</g>
<path d="M211.6 242.61C211.409 241.898 211.409 241.148 211.6 240.436C211.791 239.724 212.166 239.074 212.687 238.553L223.553 227.688C224.074 227.166 224.723 226.791 225.436 226.6C226.148 226.41 226.898 226.41 227.61 226.6L237.777 229.325C237.883 227.932 238.368 226.594 239.179 225.457L226.934 222.177C226.055 221.941 225.129 221.941 224.251 222.177C223.372 222.412 222.57 222.875 221.927 223.518L208.518 236.927C207.875 237.57 207.412 238.372 207.177 239.251C206.941 240.129 206.941 241.055 207.177 241.934L210.584 254.649C211.697 253.798 213.023 253.27 214.417 253.122L211.6 242.61Z" fill="url(#paint7_linear_7071_56543)"/>
<path d="M246.489 237.527L249.4 248.39C249.591 249.102 249.591 249.852 249.4 250.564C249.209 251.276 248.834 251.926 248.313 252.447L237.448 263.313C236.926 263.834 236.277 264.209 235.565 264.4C234.852 264.59 234.102 264.59 233.39 264.4L222.878 261.583C222.73 262.977 222.202 264.303 221.351 265.416L234.067 268.823C234.945 269.059 235.871 269.059 236.75 268.823C237.629 268.588 238.43 268.125 239.074 267.482L252.482 254.073C253.126 253.43 253.588 252.628 253.824 251.749C254.059 250.87 254.059 249.945 253.824 249.066L250.288 235.875C249.198 236.765 247.883 237.336 246.489 237.527Z" fill="url(#paint8_linear_7071_56543)"/>
<path d="M209.204 259.555C209.442 258.361 210.028 257.264 210.889 256.403C212.045 255.25 213.611 254.602 215.243 254.602C216.876 254.602 218.441 255.25 219.597 256.403C220.458 257.264 221.045 258.361 221.282 259.555C221.52 260.75 221.398 261.988 220.932 263.113C220.466 264.238 219.677 265.2 218.664 265.876C217.651 266.553 216.461 266.914 215.243 266.914C214.025 266.914 212.835 266.553 211.822 265.876C210.81 265.2 210.021 264.238 209.555 263.113C209.089 261.988 208.967 260.75 209.204 259.555Z" fill="url(#paint9_linear_7071_56543)"/>
<path d="M241.084 225.572C240.223 226.433 239.637 227.53 239.399 228.725C239.162 229.919 239.283 231.157 239.749 232.282C240.216 233.407 241.005 234.369 242.017 235.045C243.03 235.722 244.22 236.083 245.438 236.083C246.656 236.083 247.846 235.722 248.859 235.045C249.871 234.369 250.661 233.407 251.127 232.282C251.593 231.157 251.715 229.919 251.477 228.725C251.24 227.53 250.653 226.433 249.792 225.572C248.636 224.419 247.07 223.771 245.438 223.771C243.806 223.771 242.24 224.419 241.084 225.572Z" fill="url(#paint10_linear_7071_56543)"/>
<path d="M233.382 261.725C233.621 261.789 233.867 261.822 234.114 261.822C234.486 261.823 234.854 261.75 235.198 261.608C235.541 261.466 235.853 261.257 236.115 260.993L245.991 251.117C246.342 250.765 246.594 250.328 246.723 249.848C246.852 249.368 246.852 248.863 246.724 248.383L244.073 238.485C242.351 238.213 240.752 237.428 239.485 236.232C238.217 235.035 237.341 233.485 236.97 231.782L227.617 229.276C227.137 229.147 226.632 229.147 226.152 229.276C225.672 229.404 225.235 229.657 224.883 230.008L215.007 239.885C214.657 240.236 214.404 240.674 214.276 241.154C214.147 241.633 214.147 242.138 214.275 242.618L216.853 252.24C218.566 252.561 220.143 253.392 221.375 254.625C222.608 255.857 223.439 257.433 223.76 259.147L233.382 261.725Z" fill="url(#paint11_linear_7071_56543)"/>
<rect x="121" y="87" width="40" height="40" rx="10.6571" fill="#8759F2"/>
<path fill-rule="evenodd" clip-rule="evenodd" d="M142.015 100.09C141.665 100.09 141.325 100.134 141 100.215C141.209 98.3268 141.963 96.6041 143.101 95.2051C147.628 95.7416 151.14 99.5942 151.14 104.266V110.926C150.958 110.936 150.775 110.941 150.591 110.941C146.969 110.941 143.812 108.945 142.161 105.992H146.191V104.266C146.191 101.96 144.321 100.09 142.015 100.09Z" fill="white"/>
<path fill-rule="evenodd" clip-rule="evenodd" d="M130.744 104.842C130.744 99.2365 135.288 94.6919 140.894 94.6919C143.697 94.6919 146.235 95.828 148.072 97.6649C146.378 95.9716 144.09 94.8738 141.546 94.7126C139.836 96.6057 138.794 99.1149 138.794 101.867C138.794 102.073 138.8 102.277 138.811 102.479C138.157 103.056 137.744 103.901 137.744 104.842V105.543H144.044L139.444 105.543C140.942 109.628 144.865 112.543 149.47 112.543C150.005 112.543 150.531 112.504 151.045 112.428V116.743H144.044V112.543H137.744V116.743H130.744V109.043V104.842Z" fill="white"/>
<defs>
<filter id="filter0_d_7071_56543" x="290.03" y="153.551" width="63.6979" height="71.4586" filterUnits="userSpaceOnUse" color-interpolation-filters="sRGB">
<feFlood flood-opacity="0" result="BackgroundImageFix"/>
<feColorMatrix in="SourceAlpha" type="matrix" values="0 0 0 0 0 0 0 0 0 0 0 0 0 0 0 0 0 0 127 0" result="hardAlpha"/>
<feMorphology radius="5.81577" operator="erode" in="SourceAlpha" result="effect1_dropShadow_7071_56543"/>
<feOffset/>
<feGaussianBlur stdDeviation="11.6315"/>
<feComposite in2="hardAlpha" operator="out"/>
<feColorMatrix type="matrix" values="0 0 0 0 0 0 0 0 0 0 0 0 0 0 0 0 0 0 0.25 0"/>
<feBlend mode="multiply" in2="BackgroundImageFix" result="effect1_dropShadow_7071_56543"/>
<feBlend mode="normal" in="SourceGraphic" in2="effect1_dropShadow_7071_56543" result="shape"/>
</filter>
<linearGradient id="paint0_linear_7071_56543" x1="106.375" y1="181.875" x2="158.5" y2="230.625" gradientUnits="userSpaceOnUse">
<stop offset="0.0175147" stop-color="#6D98FF"/>
<stop offset="0.296875" stop-color="#3772FF"/>
<stop offset="0.703125" stop-color="#3772FF"/>
<stop offset="1" stop-color="#6D98FF"/>
</linearGradient>
<linearGradient id="paint1_linear_7071_56543" x1="115.375" y1="193.5" x2="126.371" y2="224.599" gradientUnits="userSpaceOnUse">
<stop stop-color="white"/>
<stop offset="0.275942" stop-color="white" stop-opacity="0"/>
<stop offset="0.276042" stop-color="white" stop-opacity="0.1"/>
<stop offset="0.614583" stop-color="white" stop-opacity="0"/>
<stop offset="1" stop-color="white"/>
</linearGradient>
<linearGradient id="paint2_linear_7071_56543" x1="152.5" y1="191.625" x2="117.009" y2="187.784" gradientUnits="userSpaceOnUse">
<stop stop-color="#00E1E1"/>
<stop offset="0.4375" stop-color="#3FFFFF" stop-opacity="0"/>
<stop offset="0.625" stop-color="#9AFFFF" stop-opacity="0"/>
<stop offset="1" stop-color="#00E1E1"/>
</linearGradient>
<linearGradient id="paint3_linear_7071_56543" x1="125.031" y1="197.53" x2="138.156" y2="210.28" gradientUnits="userSpaceOnUse">
<stop stop-color="#E87100" stop-opacity="0.2"/>
<stop offset="0.4375" stop-color="#FFDD84"/>
<stop offset="1" stop-color="#E87100" stop-opacity="0.6"/>
</linearGradient>
<linearGradient id="paint4_linear_7071_56543" x1="270" y1="105" x2="180" y2="195" gradientUnits="userSpaceOnUse">
<stop stop-color="#B9B8E1"/>
<stop offset="0.359375" stop-color="#ADA4F4"/>
<stop offset="0.703125" stop-color="#9394F6"/>
<stop offset="1" stop-color="#A9AAF8"/>
</linearGradient>
<linearGradient id="paint5_linear_7071_56543" x1="312.161" y1="201.863" x2="325.92" y2="178.03" gradientUnits="userSpaceOnUse">
<stop stop-color="white"/>
<stop offset="0.916667" stop-color="white" stop-opacity="0"/>
</linearGradient>
<linearGradient id="paint6_linear_7071_56543" x1="310.772" y1="188.176" x2="330.348" y2="168.599" gradientUnits="userSpaceOnUse">
<stop stop-color="white"/>
<stop offset="1" stop-color="white" stop-opacity="0.4"/>
</linearGradient>
<linearGradient id="paint7_linear_7071_56543" x1="207" y1="245.5" x2="254.001" y2="245.5" gradientUnits="userSpaceOnUse">
<stop stop-color="#9796F0"/>
<stop offset="1" stop-color="#FBC7D4"/>
</linearGradient>
<linearGradient id="paint8_linear_7071_56543" x1="207" y1="245.5" x2="254.001" y2="245.5" gradientUnits="userSpaceOnUse">
<stop stop-color="#9796F0"/>
<stop offset="1" stop-color="#FBC7D4"/>
</linearGradient>
<linearGradient id="paint9_linear_7071_56543" x1="207" y1="245.5" x2="254.001" y2="245.5" gradientUnits="userSpaceOnUse">
<stop stop-color="#9796F0"/>
<stop offset="1" stop-color="#FBC7D4"/>
</linearGradient>
<linearGradient id="paint10_linear_7071_56543" x1="207" y1="245.5" x2="254.001" y2="245.5" gradientUnits="userSpaceOnUse">
<stop stop-color="#9796F0"/>
<stop offset="1" stop-color="#FBC7D4"/>
</linearGradient>
<linearGradient id="paint11_linear_7071_56543" x1="207" y1="245.5" x2="254.001" y2="245.5" gradientUnits="userSpaceOnUse">
<stop stop-color="#9796F0"/>
<stop offset="1" stop-color="#FBC7D4"/>
</linearGradient>
<clipPath id="clip0_7071_56543">
<rect width="36" height="36" fill="white" transform="translate(116.5 186)"/>
</clipPath>
<clipPath id="clip1_7071_56543">
<rect x="188" y="20" width="57" height="57" rx="8.55" fill="white"/>
</clipPath>
</defs>
</svg>
