<svg width="40" height="40" viewBox="0 0 40 40" fill="none" xmlns="http://www.w3.org/2000/svg">
<path d="M32.6316 17.4739V11.7371C32.6316 11.1848 32.1839 10.7371 31.6316 10.7371H19.5721C19.3069 10.7371 19.0525 10.6317 18.865 10.4442L16.0824 7.66155C15.8948 7.47401 15.6405 7.36865 15.3753 7.36865H5C4.44772 7.36865 4 7.81637 4 8.36865V31.6318C4 32.1841 4.44772 32.6318 5 32.6318H8.05263C8.60491 32.6318 9.05263 32.1841 9.05263 31.6318V31.1289C9.05263 31.009 9.0742 30.8901 9.1163 30.7778L13.8619 18.1228C14.0083 17.7325 14.3814 17.4739 14.7983 17.4739H34.6126C35.2951 17.4739 35.7771 18.1426 35.5613 18.7901L31.1753 31.948C31.0392 32.3564 30.657 32.6318 30.2266 32.6318H7.36842" stroke="#F7F9FB" stroke-width="2" stroke-linecap="round" stroke-linejoin="round"/>
</svg>
