<svg width="520" height="301" viewBox="0 0 520 301" fill="none" xmlns="http://www.w3.org/2000/svg">
<rect x="141.762" y="0.838602" width="235.476" height="64.8578" rx="4.07911" fill="#B1E3FF" fill-opacity="0.2"/>
<path d="M236.729 14.6161H238.665V17.3677H237.923L237.767 16.8856H237.693C237.522 17.1007 237.144 17.4567 236.336 17.4567C234.823 17.4567 233.74 16.2997 233.74 14.7719C233.74 13.2441 234.823 12.0871 236.336 12.0871C237.5 12.0871 238.412 12.7397 238.768 13.8374L237.864 14.1415C237.626 13.3998 237.07 12.9771 236.336 12.9771C235.379 12.9771 234.704 13.7484 234.704 14.7719C234.704 15.7954 235.379 16.5667 236.336 16.5667C237.1 16.5667 237.708 16.1143 237.767 15.5061H236.729V14.6161ZM241.956 17.4567C240.443 17.4567 239.36 16.2997 239.36 14.7719C239.36 13.2441 240.443 12.0871 241.956 12.0871C243.469 12.0871 244.552 13.2441 244.552 14.7719C244.552 16.2997 243.469 17.4567 241.956 17.4567ZM241.956 16.4925C242.92 16.4925 243.588 15.7657 243.588 14.7719C243.588 13.7781 242.92 13.0512 241.956 13.0512C240.992 13.0512 240.325 13.7781 240.325 14.7719C240.325 15.7657 240.992 16.4925 241.956 16.4925ZM247.756 17.3677H246.784L244.626 12.1761H245.679L247.237 15.9511H247.311L248.861 12.1761H249.914L247.756 17.3677ZM251.398 13.0661V14.4307H253.46V15.3207H251.398V16.4777H253.683V17.3677H250.434V12.1761H253.698V13.0661H251.398ZM255.561 17.3677H254.664V12.1761H256.763C257.675 12.1761 258.343 12.8436 258.343 13.7558C258.343 14.4307 257.957 15.0018 257.341 15.2317L258.647 17.3677H257.608L256.377 15.3355H255.561V17.3677ZM256.741 14.4752C257.178 14.4752 257.482 14.186 257.482 13.7558C257.482 13.3256 257.178 13.0364 256.741 13.0364H255.561V14.4752H256.741ZM260.425 13.6742H260.35V17.3677H259.386V12.1761H260.499L263.117 15.8695H263.191V12.1761H264.155V17.3677H263.043L260.425 13.6742ZM264.674 17.3677L266.832 12.1687H267.804L269.962 17.3677H268.909L268.323 15.9585H266.321L265.727 17.3677H264.674ZM266.662 15.0315H267.982L267.359 13.5333H267.285L266.662 15.0315ZM271.52 13.6742H271.446V17.3677H270.482V12.1761H271.595L274.213 15.8695H274.287V12.1761H275.251V17.3677H274.139L271.52 13.6742ZM278.648 17.4567C277.127 17.4567 276.03 16.2923 276.03 14.7719C276.03 13.2515 277.127 12.0871 278.648 12.0871C279.827 12.0871 280.761 12.762 281.102 13.8745L280.161 14.1934C279.938 13.4517 279.382 13.0216 278.648 13.0216C277.706 13.0216 277.038 13.7781 277.038 14.7719C277.038 15.7657 277.706 16.5222 278.648 16.5222C279.382 16.5222 279.938 16.092 280.161 15.3504L281.102 15.6619C280.754 16.7818 279.827 17.4567 278.648 17.4567ZM282.81 13.0661V14.4307H284.872V15.3207H282.81V16.4777H285.094V17.3677H281.846V12.1761H285.109V13.0661H282.81Z" fill="black"/>
<rect x="155.854" y="29.2676" width="96.4153" height="27.8999" rx="1.48331" fill="#B1E3FF"/>
<path d="M198.736 39.7173V36.4985H197.578V36.0832H200.361V36.4985H199.203V39.7173H198.736ZM201.332 39.7796C200.584 39.7796 200.075 39.2085 200.075 38.4246C200.075 37.6355 200.584 37.0644 201.332 37.0644C202.084 37.0644 202.593 37.6355 202.593 38.4246C202.593 39.2085 202.084 39.7796 201.332 39.7796ZM201.332 39.3331C201.835 39.3331 202.142 38.9645 202.142 38.4246C202.142 37.8795 201.835 37.516 201.332 37.516C200.833 37.516 200.522 37.8795 200.527 38.4246C200.527 38.9645 200.833 39.3331 201.332 39.3331ZM204.455 37.1215H205.016L204.227 38.1442V38.191L205.146 39.7173H204.601L203.941 38.6219H203.905L203.609 39.006V39.7173H203.163V36.0209H203.609V38.1858H203.63L204.455 37.1215ZM205.784 38.5388C205.831 39.0372 206.132 39.3539 206.542 39.3539C206.848 39.3539 207.103 39.1981 207.227 38.9334L207.627 39.0735C207.435 39.5148 207.025 39.7796 206.542 39.7796C205.846 39.7796 205.353 39.2033 205.353 38.4038C205.353 37.6251 205.851 37.0592 206.542 37.0592C207.227 37.0592 207.72 37.6095 207.731 38.3779V38.5388H205.784ZM206.542 37.4849C206.153 37.4849 205.862 37.7601 205.794 38.2013H207.29C207.222 37.7601 206.931 37.4849 206.542 37.4849ZM208.59 37.1215L208.662 37.3811H208.704C208.792 37.2357 209 37.0592 209.363 37.0592C209.945 37.0592 210.308 37.4693 210.308 38.1235V39.7173H209.862V38.3311C209.862 37.7549 209.67 37.4537 209.291 37.4537C208.886 37.4537 208.673 37.7237 208.673 38.2273V39.7173H208.226V37.1215H208.59Z" fill="black"/>
<path d="M197.667 45.6085H197.6V49.7173H196.836V44.5257H197.8L200.574 48.6345H200.641V44.5257H201.405V49.7173H200.441L197.667 45.6085ZM204.818 49.8063C203.35 49.8063 202.326 48.6715 202.326 47.1215C202.326 45.5714 203.35 44.4367 204.818 44.4367C206.294 44.4367 207.318 45.5714 207.318 47.1215C207.318 48.6715 206.294 49.8063 204.818 49.8063ZM204.818 49.0424C205.857 49.0424 206.554 48.2488 206.554 47.1215C206.554 45.9942 205.857 45.2006 204.818 45.2006C203.78 45.2006 203.09 45.9942 203.09 47.1215C203.09 48.2488 203.78 49.0424 204.818 49.0424ZM208.513 48.2191C208.632 48.8199 209.04 49.1165 209.722 49.1165C210.434 49.1165 210.901 48.8125 210.901 48.3526C210.901 47.9076 210.471 47.5887 209.544 47.344C208.395 47.0399 207.913 46.5875 207.913 45.8384C207.913 44.9484 208.573 44.4367 209.722 44.4367C210.746 44.4367 211.383 44.8743 211.561 45.6975L210.82 45.8903C210.671 45.3638 210.33 45.1264 209.722 45.1264C209.07 45.1264 208.669 45.4008 208.669 45.8384C208.669 46.2389 209.01 46.4985 209.885 46.7581C211.139 47.1141 211.658 47.5887 211.658 48.3749C211.658 49.2649 210.946 49.8063 209.759 49.8063C208.647 49.8063 207.89 49.2649 207.757 48.3601L208.513 48.2191Z" fill="black"/>
<path d="M311.138 36.0832C312.207 36.0832 312.903 36.8204 312.903 37.9002C312.903 38.9801 312.207 39.7173 311.138 39.7173H310.048V36.0832H311.138ZM311.117 39.2708C311.854 39.2708 312.436 38.6945 312.436 37.9002C312.436 37.1059 311.854 36.5296 311.117 36.5296H310.515V39.2708H311.117ZM313.056 39.7173L314.483 36.0832H315.028L316.456 39.7173H315.937L315.527 38.6322H313.99L313.575 39.7173H313.056ZM314.146 38.191H315.371L314.779 36.6854H314.738L314.146 38.191ZM318.272 39.7796C317.254 39.7796 316.559 38.9957 316.559 37.9002C316.559 36.8048 317.254 36.0209 318.272 36.0209C319.289 36.0209 319.985 36.8048 319.985 37.9002C319.985 38.9957 319.289 39.7796 318.272 39.7796ZM318.272 39.3123C319.025 39.3123 319.518 38.7361 319.518 37.9002C319.518 37.0644 319.025 36.4881 318.272 36.4881C317.519 36.4881 317.026 37.0644 317.026 37.9002C317.026 38.7361 317.519 39.3123 318.272 39.3123Z" fill="black"/>
<path d="M287.241 47.7667C287.241 48.9905 286.454 49.8063 285.223 49.8063C283.999 49.8063 283.213 48.9905 283.213 47.7667V44.5257H283.977V47.6184C283.977 48.5455 284.422 49.0646 285.223 49.0646C286.032 49.0646 286.477 48.5455 286.477 47.6184V44.5257H287.241V47.7667ZM288.839 46.009L288.935 46.365H289.002C289.128 46.1573 289.41 45.92 289.9 45.92C290.76 45.92 291.301 46.5282 291.301 47.4923V49.7173H290.567V47.789C290.567 46.988 290.307 46.5801 289.796 46.5801C289.247 46.5801 288.965 46.9435 288.965 47.6406V49.7173H288.231V46.009H288.839ZM295.576 49.7173H294.967L294.849 49.302H294.782C294.597 49.5986 294.166 49.8063 293.692 49.8063C292.668 49.8063 291.927 48.983 291.927 47.8631C291.927 46.7432 292.668 45.92 293.692 45.92C294.166 45.92 294.715 46.187 294.841 46.5207V44.4367H295.576V49.7173ZM293.766 49.1314C294.404 49.1314 294.841 48.6196 294.841 47.878C294.841 47.1289 294.404 46.6172 293.766 46.6172C293.121 46.6172 292.661 47.1437 292.661 47.878C292.661 48.6048 293.121 49.1314 293.766 49.1314ZM297.064 48.0708C297.138 48.7086 297.554 49.1017 298.088 49.1017C298.525 49.1017 298.866 48.894 299.037 48.5158L299.704 48.7457C299.437 49.4206 298.814 49.8063 298.088 49.8063C297.072 49.8063 296.345 48.9682 296.345 47.8409C296.345 46.7432 297.079 45.92 298.088 45.92C299.096 45.92 299.823 46.7284 299.838 47.8186V48.0708H297.064ZM298.088 46.6246C297.576 46.6246 297.19 46.9732 297.086 47.5146H299.096C298.992 46.9732 298.599 46.6246 298.088 46.6246ZM300.5 49.7173V46.009H301.108L301.205 46.365H301.271C301.39 46.1648 301.664 45.92 302.169 45.92C302.235 45.92 302.295 45.9274 302.347 45.9423V46.6172C302.265 46.5949 302.169 46.5801 302.065 46.5801C301.516 46.5801 301.234 46.9435 301.234 47.6406V49.7173H300.5ZM308.127 49.7173H307.519L307.4 49.302H307.334C307.148 49.5986 306.718 49.8063 306.243 49.8063C305.22 49.8063 304.478 48.983 304.478 47.8631C304.478 46.7432 305.22 45.92 306.243 45.92C306.718 45.92 307.267 46.187 307.393 46.5207V44.4367H308.127V49.7173ZM306.318 49.1314C306.955 49.1314 307.393 48.6196 307.393 47.878C307.393 47.1289 306.955 46.6172 306.318 46.6172C305.672 46.6172 305.213 47.1437 305.213 47.878C305.213 48.6048 305.672 49.1314 306.318 49.1314ZM309.616 48.0708C309.69 48.7086 310.105 49.1017 310.639 49.1017C311.077 49.1017 311.418 48.894 311.589 48.5158L312.256 48.7457C311.989 49.4206 311.366 49.8063 310.639 49.8063C309.623 49.8063 308.896 48.9682 308.896 47.8409C308.896 46.7432 309.631 45.92 310.639 45.92C311.648 45.92 312.375 46.7284 312.39 47.8186V48.0708H309.616ZM310.639 46.6246C310.128 46.6246 309.742 46.9732 309.638 47.5146H311.648C311.544 46.9732 311.151 46.6246 310.639 46.6246ZM312.681 46.009H313.46L314.446 48.4861H314.513L315.499 46.009H316.278L314.787 49.7173H314.164L312.681 46.009ZM317.25 48.0708C317.324 48.7086 317.739 49.1017 318.273 49.1017C318.711 49.1017 319.052 48.894 319.222 48.5158L319.89 48.7457C319.623 49.4206 319 49.8063 318.273 49.8063C317.257 49.8063 316.53 48.9682 316.53 47.8409C316.53 46.7432 317.264 45.92 318.273 45.92C319.282 45.92 320.009 46.7284 320.023 47.8186V48.0708H317.25ZM318.273 46.6246C317.761 46.6246 317.376 46.9732 317.272 47.5146H319.282C319.178 46.9732 318.785 46.6246 318.273 46.6246ZM320.76 44.4367H321.494V49.7173H320.76V44.4367ZM324.106 49.8063C323.023 49.8063 322.266 48.983 322.266 47.8706C322.266 46.7507 323.023 45.9274 324.106 45.9274C325.203 45.9274 325.96 46.7507 325.96 47.8706C325.96 48.983 325.203 49.8063 324.106 49.8063ZM324.106 49.0646C324.795 49.0646 325.218 48.5751 325.218 47.8706C325.218 47.1586 324.795 46.6691 324.106 46.6691C323.431 46.6691 323.001 47.1586 323.008 47.8706C323.008 48.5751 323.431 49.0646 324.106 49.0646ZM326.728 46.009H327.336L327.455 46.4243H327.521C327.707 46.1277 328.137 45.92 328.604 45.92C329.628 45.92 330.377 46.7432 330.377 47.8631C330.377 48.983 329.628 49.8063 328.604 49.8063C328.129 49.8063 327.588 49.5393 327.462 49.2055V51.2006H326.728V46.009ZM328.53 46.5949C327.892 46.5949 327.462 47.1067 327.462 47.8483C327.462 48.5974 327.892 49.1091 328.53 49.1091C329.183 49.1091 329.642 48.5826 329.642 47.8483C329.642 47.1215 329.183 46.5949 328.53 46.5949ZM334.891 45.92C335.722 45.92 336.182 46.4837 336.182 47.4923V49.7173H335.447V47.789C335.447 47.0473 335.299 46.5801 334.75 46.5801C334.172 46.5801 333.994 47.0028 333.994 47.6406V49.7173H333.259V47.789C333.259 47.0473 333.111 46.5801 332.562 46.5801C331.984 46.5801 331.806 47.0028 331.806 47.6406V49.7173H331.072V46.009H331.68L331.769 46.365H331.835C331.939 46.1351 332.229 45.92 332.674 45.92C333.185 45.92 333.475 46.1425 333.66 46.5652H333.727C333.934 46.1573 334.379 45.92 334.891 45.92ZM337.522 48.0708C337.596 48.7086 338.012 49.1017 338.546 49.1017C338.983 49.1017 339.324 48.894 339.495 48.5158L340.162 48.7457C339.895 49.4206 339.272 49.8063 338.546 49.8063C337.529 49.8063 336.803 48.9682 336.803 47.8409C336.803 46.7432 337.537 45.92 338.546 45.92C339.554 45.92 340.281 46.7284 340.296 47.8186V48.0708H337.522ZM338.546 46.6246C338.034 46.6246 337.648 46.9732 337.544 47.5146H339.554C339.45 46.9732 339.057 46.6246 338.546 46.6246ZM341.566 46.009L341.662 46.365H341.729C341.855 46.1573 342.137 45.92 342.627 45.92C343.487 45.92 344.028 46.5282 344.028 47.4923V49.7173H343.294V47.789C343.294 46.988 343.035 46.5801 342.523 46.5801C341.974 46.5801 341.692 46.9435 341.692 47.6406V49.7173H340.958V46.009H341.566ZM346.263 49.8063C345.61 49.8063 345.247 49.4132 345.247 48.716V46.6394H344.654V46.009C345.032 45.9942 345.247 45.7643 345.247 45.4008V44.8446H345.981V46.009H346.671V46.6394H345.981V48.5677C345.981 48.983 346.093 49.1462 346.36 49.1462C346.5 49.1462 346.627 49.1017 346.716 49.0275L347.034 49.5912C346.827 49.7247 346.575 49.8063 346.263 49.8063Z" fill="black"/>
<rect x="266.916" y="29.453" width="96.0445" height="27.529" rx="1.2979" stroke="#4185EC" stroke-width="0.370828" stroke-dasharray="1.48 1.48"/>
<rect x="141.762" y="0.838602" width="235.476" height="64.8578" rx="4.07911" stroke="#4185EC" stroke-width="0.741656" stroke-dasharray="2.97 2.97"/>
<rect x="141.762" y="81.2712" width="235.476" height="138.457" rx="4.07911" fill="#8CC34A" fill-opacity="0.2"/>
<path d="M249.471 96.9103V97.8003H246.074V92.6087H247.038V96.9103H249.471ZM249.769 97.8003L251.927 92.6013H252.898L255.057 97.8003H254.003L253.417 96.3911H251.415L250.822 97.8003H249.769ZM251.756 95.4641H253.076L252.453 93.9659H252.379L251.756 95.4641ZM256.24 95.6124L254.541 92.6087H255.617L256.692 94.5073H256.766L257.886 92.6087H258.962L257.204 95.6124V97.8003H256.24V95.6124ZM260.445 93.4987V94.8633H262.506V95.7533H260.445V96.9103H262.729V97.8003H259.48V92.6087H262.744V93.4987H260.445ZM264.608 97.8003H263.71V92.6087H265.809C266.721 92.6087 267.389 93.2762 267.389 94.1884C267.389 94.8633 267.003 95.4344 266.388 95.6643L267.693 97.8003H266.655L265.423 95.7682H264.608V97.8003ZM265.787 94.9078C266.224 94.9078 266.528 94.6186 266.528 94.1884C266.528 93.7583 266.224 93.469 265.787 93.469H264.608V94.9078H265.787ZM271.835 96.1241C271.301 96.4208 270.885 96.5321 270.811 96.9474H273.11V97.8003H269.84V97.3256C269.84 96.2725 270.574 95.8201 271.175 95.516C271.775 95.2119 272.213 94.9523 272.213 94.5518C272.213 94.1365 271.961 93.8843 271.56 93.8843C270.93 93.8843 270.722 94.4628 270.781 94.8114H269.854C269.773 94.1439 270.329 92.9869 271.553 92.9869C272.517 92.9869 273.147 93.5803 273.147 94.5148C273.147 95.338 272.383 95.8201 271.835 96.1241Z" fill="black"/>
<rect x="155.854" y="109.7" width="96.4153" height="27.8999" rx="1.48331" fill="#BAEDBD"/>
<path d="M196.132 120.15V116.516H197.393C197.861 116.516 198.375 116.926 198.375 117.487C198.375 117.783 198.328 118.141 197.913 118.312V118.354C198.26 118.483 198.468 118.81 198.468 119.241C198.468 119.771 198.094 120.15 197.58 120.15H196.132ZM196.599 118.11H197.295C197.627 118.11 197.881 117.866 197.881 117.539C197.881 117.201 197.637 116.962 197.295 116.962H196.599V118.11ZM196.599 119.703H197.388C197.721 119.703 197.975 119.459 197.975 119.122C197.975 118.795 197.731 118.556 197.388 118.556H196.599V119.703ZM199.04 120.15V117.554H199.403L199.476 117.814H199.517C199.6 117.679 199.798 117.492 200.177 117.492C200.208 117.492 200.239 117.492 200.265 117.497V117.902C200.218 117.892 200.166 117.886 200.104 117.886C199.699 117.886 199.486 118.156 199.486 118.66V120.15H199.04ZM201.034 117.056C200.868 117.056 200.733 116.921 200.733 116.755C200.733 116.588 200.868 116.453 201.034 116.453C201.2 116.453 201.335 116.588 201.335 116.755C201.335 116.921 201.2 117.056 201.034 117.056ZM200.811 117.554H201.257V120.15H200.811V117.554ZM204.342 120.15H203.978L203.895 119.864H203.854C203.713 120.077 203.392 120.212 203.059 120.212C202.358 120.212 201.855 119.646 201.855 118.852C201.855 118.058 202.358 117.492 203.059 117.492C203.392 117.492 203.828 117.699 203.895 117.975V116.453H204.342V120.15ZM203.111 119.792C203.578 119.792 203.895 119.418 203.895 118.852C203.895 118.286 203.578 117.912 203.111 117.912C202.639 117.912 202.301 118.297 202.301 118.852C202.301 119.408 202.639 119.792 203.111 119.792ZM207.176 120.482C207.176 120.939 206.734 121.251 206.096 121.251C205.457 121.251 205.016 120.939 205.016 120.482C205.016 120.223 205.125 119.999 205.322 119.859C205.172 119.766 205.094 119.62 205.094 119.454C205.094 119.262 205.208 119.106 205.4 119.029C205.229 118.868 205.12 118.644 205.12 118.39C205.12 117.871 205.535 117.492 206.096 117.492C206.241 117.492 206.381 117.518 206.501 117.564C206.76 117.528 207.046 117.398 207.098 117.378L207.259 117.705C207.144 117.767 207.02 117.819 206.89 117.85C207.004 117.995 207.072 118.182 207.072 118.39C207.072 118.914 206.656 119.288 206.085 119.288C205.909 119.288 205.758 119.252 205.623 119.184C205.535 119.215 205.488 119.288 205.488 119.402C205.488 119.657 205.732 119.662 205.924 119.662C206.677 119.662 207.176 119.87 207.176 120.482ZM206.096 117.886C205.779 117.886 205.566 118.089 205.566 118.39C205.566 118.696 205.769 118.894 206.085 118.894C206.412 118.894 206.625 118.691 206.625 118.39C206.625 118.089 206.412 117.886 206.096 117.886ZM206.096 120.856C206.495 120.856 206.729 120.705 206.729 120.456C206.729 120.202 206.501 120.056 206.096 120.056C205.691 120.056 205.462 120.202 205.462 120.456C205.462 120.705 205.696 120.856 206.096 120.856ZM208 118.971C208.046 119.47 208.347 119.786 208.757 119.786C209.064 119.786 209.318 119.631 209.443 119.366L209.843 119.506C209.65 119.947 209.24 120.212 208.757 120.212C208.062 120.212 207.569 119.636 207.569 118.836C207.569 118.058 208.067 117.492 208.757 117.492C209.443 117.492 209.936 118.042 209.946 118.81V118.971H208ZM208.757 117.918C208.368 117.918 208.077 118.193 208.01 118.634H209.505C209.438 118.193 209.147 117.918 208.757 117.918ZM210.696 119.387C210.8 119.641 210.93 119.812 211.272 119.812C211.563 119.812 211.828 119.703 211.828 119.48C211.828 119.231 211.61 119.174 210.982 118.971C210.551 118.831 210.359 118.592 210.359 118.224C210.359 117.783 210.701 117.492 211.257 117.492C211.771 117.492 212.056 117.705 212.181 118.146L211.802 118.271C211.714 118.001 211.563 117.886 211.267 117.886C210.956 117.886 210.779 118.027 210.779 118.234C210.779 118.437 210.862 118.52 211.08 118.592C211.979 118.878 212.249 119.003 212.249 119.48C212.249 119.921 211.833 120.212 211.293 120.212C210.759 120.212 210.374 119.953 210.286 119.511L210.696 119.387Z" fill="black"/>
<path d="M180.099 130.15V125.648H178.445V124.958H182.516V125.648H180.862V130.15H180.099ZM182.51 130.15V126.442H183.118L183.215 126.798H183.282C183.4 126.597 183.675 126.353 184.179 126.353C184.246 126.353 184.305 126.36 184.357 126.375V127.05C184.275 127.028 184.179 127.013 184.075 127.013C183.526 127.013 183.244 127.376 183.244 128.073V130.15H182.51ZM187.368 130.15L187.272 129.794H187.205C187.079 130.002 186.79 130.239 186.3 130.239C185.44 130.239 184.906 129.631 184.906 128.667V126.442H185.64V128.37C185.64 129.171 185.892 129.579 186.404 129.579C186.953 129.579 187.242 129.215 187.242 128.518V126.442H187.976V130.15H187.368ZM189.373 128.963C189.492 129.319 189.655 129.571 190.137 129.571C190.545 129.571 190.878 129.423 190.878 129.141C190.878 128.815 190.604 128.748 189.707 128.503C189.069 128.333 188.78 127.999 188.78 127.45C188.78 126.79 189.299 126.353 190.115 126.353C190.886 126.353 191.316 126.679 191.494 127.369L190.864 127.576C190.738 127.168 190.545 127.013 190.129 127.013C189.714 127.013 189.484 127.191 189.484 127.465C189.484 127.725 189.581 127.829 189.877 127.91C191.183 128.274 191.583 128.422 191.583 129.141C191.583 129.794 190.975 130.239 190.167 130.239C189.366 130.239 188.78 129.831 188.676 129.163L189.373 128.963ZM193.66 130.239C193.008 130.239 192.644 129.846 192.644 129.149V127.072H192.051V126.442C192.429 126.427 192.644 126.197 192.644 125.833V125.277H193.378V126.442H194.068V127.072H193.378V129C193.378 129.416 193.49 129.579 193.757 129.579C193.898 129.579 194.024 129.534 194.113 129.46L194.432 130.024C194.224 130.157 193.972 130.239 193.66 130.239ZM195.129 124.869H195.863V130.15H195.129V124.869ZM197.355 128.503C197.429 129.141 197.844 129.534 198.378 129.534C198.816 129.534 199.157 129.327 199.328 128.948L199.995 129.178C199.728 129.853 199.105 130.239 198.378 130.239C197.362 130.239 196.636 129.401 196.636 128.274C196.636 127.176 197.37 126.353 198.378 126.353C199.387 126.353 200.114 127.161 200.129 128.251V128.503H197.355ZM198.378 127.057C197.867 127.057 197.481 127.406 197.377 127.947H199.387C199.283 127.406 198.89 127.057 198.378 127.057ZM201.266 128.963C201.384 129.319 201.547 129.571 202.029 129.571C202.437 129.571 202.771 129.423 202.771 129.141C202.771 128.815 202.497 128.748 201.599 128.503C200.961 128.333 200.672 127.999 200.672 127.45C200.672 126.79 201.191 126.353 202.007 126.353C202.778 126.353 203.209 126.679 203.387 127.369L202.756 127.576C202.63 127.168 202.437 127.013 202.022 127.013C201.607 127.013 201.377 127.191 201.377 127.465C201.377 127.725 201.473 127.829 201.77 127.91C203.075 128.274 203.476 128.422 203.476 129.141C203.476 129.794 202.867 130.239 202.059 130.239C201.258 130.239 200.672 129.831 200.568 129.163L201.266 128.963ZM204.641 128.963C204.759 129.319 204.922 129.571 205.405 129.571C205.812 129.571 206.146 129.423 206.146 129.141C206.146 128.815 205.872 128.748 204.974 128.503C204.337 128.333 204.047 127.999 204.047 127.45C204.047 126.79 204.566 126.353 205.382 126.353C206.154 126.353 206.584 126.679 206.762 127.369L206.131 127.576C206.005 127.168 205.812 127.013 205.397 127.013C204.982 127.013 204.752 127.191 204.752 127.465C204.752 127.725 204.848 127.829 205.145 127.91C206.45 128.274 206.851 128.422 206.851 129.141C206.851 129.794 206.243 130.239 205.434 130.239C204.633 130.239 204.047 129.831 203.943 129.163L204.641 128.963ZM209.42 130.15V124.958H211.275C212.076 124.958 212.713 125.633 212.713 126.382C212.713 126.835 212.602 127.302 212.046 127.524V127.584C212.535 127.762 212.854 128.251 212.854 128.852C212.854 129.638 212.298 130.15 211.534 130.15H209.42ZM210.184 127.213H211.126C211.579 127.213 211.92 126.887 211.92 126.456C211.92 126.011 211.586 125.693 211.126 125.693H210.184V127.213ZM210.184 129.416H211.26C211.712 129.416 212.053 129.089 212.053 128.644C212.053 128.207 211.72 127.895 211.26 127.895H210.184V129.416ZM213.625 130.15V126.442H214.233L214.33 126.798H214.396C214.515 126.597 214.789 126.353 215.294 126.353C215.36 126.353 215.42 126.36 215.472 126.375V127.05C215.39 127.028 215.294 127.013 215.19 127.013C214.641 127.013 214.359 127.376 214.359 128.073V130.15H213.625ZM216.569 125.826C216.31 125.826 216.095 125.611 216.095 125.351C216.095 125.084 216.31 124.869 216.569 124.869C216.836 124.869 217.051 125.084 217.051 125.351C217.051 125.611 216.836 125.826 216.569 125.826ZM216.206 126.442H216.94V130.15H216.206V126.442ZM221.397 130.15H220.789L220.67 129.735H220.604C220.418 130.031 219.988 130.239 219.513 130.239C218.49 130.239 217.748 129.416 217.748 128.296C217.748 127.176 218.49 126.353 219.513 126.353C219.988 126.353 220.537 126.62 220.663 126.953V124.869H221.397V130.15ZM219.587 129.564C220.225 129.564 220.663 129.052 220.663 128.311C220.663 127.562 220.225 127.05 219.587 127.05C218.942 127.05 218.482 127.576 218.482 128.311C218.482 129.037 218.942 129.564 219.587 129.564ZM225.496 130.587C225.496 131.27 224.844 131.722 223.902 131.722C222.96 131.722 222.315 131.27 222.315 130.587C222.315 130.224 222.455 129.92 222.722 129.712C222.53 129.571 222.426 129.371 222.426 129.149C222.426 128.904 222.537 128.667 222.834 128.533C222.604 128.303 222.463 127.992 222.463 127.651C222.463 126.901 223.078 126.353 223.902 126.353C224.109 126.353 224.31 126.39 224.488 126.449C224.836 126.419 225.17 126.278 225.355 126.204L225.637 126.716C225.489 126.798 225.311 126.872 225.118 126.924C225.266 127.124 225.348 127.376 225.348 127.651C225.348 128.407 224.732 128.956 223.894 128.956C223.642 128.956 223.427 128.904 223.234 128.815C223.116 128.859 223.064 128.956 223.064 129.097C223.064 129.416 223.427 129.43 223.739 129.43C224.829 129.43 225.496 129.757 225.496 130.587ZM223.902 126.99C223.479 126.99 223.197 127.257 223.197 127.651C223.197 128.051 223.464 128.311 223.894 128.311C224.332 128.311 224.614 128.044 224.614 127.651C224.614 127.257 224.332 126.99 223.902 126.99ZM223.902 131.084C224.451 131.084 224.762 130.892 224.762 130.565C224.762 130.231 224.458 130.039 223.902 130.039C223.353 130.039 223.049 130.231 223.049 130.565C223.049 130.892 223.36 131.084 223.902 131.084ZM226.753 128.503C226.827 129.141 227.243 129.534 227.777 129.534C228.214 129.534 228.555 129.327 228.726 128.948L229.394 129.178C229.127 129.853 228.504 130.239 227.777 130.239C226.761 130.239 226.034 129.401 226.034 128.274C226.034 127.176 226.768 126.353 227.777 126.353C228.785 126.353 229.512 127.161 229.527 128.251V128.503H226.753ZM227.777 127.057C227.265 127.057 226.879 127.406 226.775 127.947H228.785C228.682 127.406 228.288 127.057 227.777 127.057Z" fill="black"/>
<path d="M303.616 116.931V118.198H305.059V118.613H303.616V120.15H303.149V116.516H305.225V116.931H303.616ZM306.386 120.212C305.84 120.212 305.404 119.885 305.404 119.402C305.404 118.919 305.851 118.592 306.515 118.592C306.728 118.592 306.931 118.624 307.123 118.686V118.442C307.123 118.146 306.858 117.928 306.505 117.928C306.209 117.928 306.027 118.042 305.923 118.26L305.519 118.115C305.643 117.741 306.038 117.492 306.479 117.492C307.071 117.492 307.554 117.897 307.554 118.38V120.15H307.19L307.107 119.864H307.066C306.977 120.098 306.754 120.212 306.386 120.212ZM305.84 119.402C305.84 119.672 306.095 119.807 306.422 119.807C306.801 119.807 307.123 119.605 307.123 119.33V119.08C306.936 119.008 306.702 118.966 306.495 118.966C306.069 118.966 305.84 119.122 305.84 119.402ZM309.893 120.15L309.82 119.89H309.778C309.69 120.036 309.483 120.212 309.119 120.212C308.538 120.212 308.174 119.802 308.174 119.148V117.554H308.621V118.94C308.621 119.517 308.813 119.818 309.192 119.818C309.597 119.818 309.81 119.548 309.81 119.044V117.554H310.256V120.15H309.893ZM310.985 116.453H311.432V120.15H310.985V116.453ZM313.1 120.212C312.659 120.212 312.42 119.953 312.42 119.485V117.928H312.005V117.554C312.259 117.544 312.42 117.357 312.42 117.092V116.739H312.867V117.554H313.349V117.928H312.867V119.382C312.867 119.688 312.955 119.818 313.168 119.818C313.256 119.818 313.339 119.797 313.406 119.755L313.593 120.082C313.469 120.155 313.308 120.212 313.1 120.212ZM316.659 116.516C317.245 116.516 317.671 116.936 317.671 117.528C317.671 118.115 317.251 118.541 316.659 118.541H315.88V120.15H315.413V116.516H316.659ZM316.643 118.125C317.001 118.125 317.256 117.881 317.256 117.528C317.256 117.175 317.001 116.931 316.643 116.931H315.88V118.125H316.643ZM318.138 120.15V117.554H318.501L318.574 117.814H318.616C318.699 117.679 318.896 117.492 319.275 117.492C319.306 117.492 319.337 117.492 319.363 117.497V117.902C319.316 117.892 319.264 117.886 319.202 117.886C318.797 117.886 318.584 118.156 318.584 118.66V120.15H318.138ZM320.932 120.212C320.184 120.212 319.676 119.641 319.676 118.857C319.676 118.068 320.184 117.497 320.932 117.497C321.685 117.497 322.193 118.068 322.193 118.857C322.193 119.641 321.685 120.212 320.932 120.212ZM320.932 119.766C321.435 119.766 321.742 119.397 321.742 118.857C321.742 118.312 321.435 117.949 320.932 117.949C320.433 117.949 320.122 118.312 320.127 118.857C320.127 119.397 320.433 119.766 320.932 119.766ZM323.913 120.212C323.165 120.212 322.657 119.641 322.657 118.857C322.657 118.068 323.165 117.497 323.913 117.497C324.666 117.497 325.175 118.068 325.175 118.857C325.175 119.641 324.666 120.212 323.913 120.212ZM323.913 119.766C324.417 119.766 324.723 119.397 324.723 118.857C324.723 118.312 324.417 117.949 323.913 117.949C323.415 117.949 323.103 118.312 323.108 118.857C323.108 119.397 323.415 119.766 323.913 119.766ZM326.881 116.91C326.834 116.89 326.772 116.874 326.715 116.879C326.486 116.879 326.341 117.035 326.341 117.284V117.554H326.974V117.928H326.341V120.15H325.895V117.928H325.458V117.554H325.895V117.284C325.895 116.801 326.237 116.453 326.71 116.453C326.839 116.453 326.959 116.479 327.068 116.531L326.881 116.91Z" fill="black"/>
<path d="M287.241 128.199C287.241 129.423 286.454 130.239 285.223 130.239C283.999 130.239 283.213 129.423 283.213 128.199V124.958H283.977V128.051C283.977 128.978 284.422 129.497 285.223 129.497C286.032 129.497 286.477 128.978 286.477 128.051V124.958H287.241V128.199ZM288.839 126.442L288.935 126.798H289.002C289.128 126.59 289.41 126.353 289.9 126.353C290.76 126.353 291.301 126.961 291.301 127.925V130.15H290.567V128.222C290.567 127.421 290.307 127.013 289.796 127.013C289.247 127.013 288.965 127.376 288.965 128.073V130.15H288.231V126.442H288.839ZM295.576 130.15H294.967L294.849 129.735H294.782C294.597 130.031 294.166 130.239 293.692 130.239C292.668 130.239 291.927 129.416 291.927 128.296C291.927 127.176 292.668 126.353 293.692 126.353C294.166 126.353 294.715 126.62 294.841 126.953V124.869H295.576V130.15ZM293.766 129.564C294.404 129.564 294.841 129.052 294.841 128.311C294.841 127.562 294.404 127.05 293.766 127.05C293.121 127.05 292.661 127.576 292.661 128.311C292.661 129.037 293.121 129.564 293.766 129.564ZM297.064 128.503C297.138 129.141 297.554 129.534 298.088 129.534C298.525 129.534 298.866 129.327 299.037 128.948L299.704 129.178C299.437 129.853 298.814 130.239 298.088 130.239C297.072 130.239 296.345 129.401 296.345 128.274C296.345 127.176 297.079 126.353 298.088 126.353C299.096 126.353 299.823 127.161 299.838 128.251V128.503H297.064ZM298.088 127.057C297.576 127.057 297.19 127.406 297.086 127.947H299.096C298.992 127.406 298.599 127.057 298.088 127.057ZM300.5 130.15V126.442H301.108L301.205 126.798H301.271C301.39 126.597 301.664 126.353 302.169 126.353C302.235 126.353 302.295 126.36 302.347 126.375V127.05C302.265 127.028 302.169 127.013 302.065 127.013C301.516 127.013 301.234 127.376 301.234 128.073V130.15H300.5ZM308.127 130.15H307.519L307.4 129.735H307.334C307.148 130.031 306.718 130.239 306.243 130.239C305.22 130.239 304.478 129.416 304.478 128.296C304.478 127.176 305.22 126.353 306.243 126.353C306.718 126.353 307.267 126.62 307.393 126.953V124.869H308.127V130.15ZM306.318 129.564C306.955 129.564 307.393 129.052 307.393 128.311C307.393 127.562 306.955 127.05 306.318 127.05C305.672 127.05 305.213 127.576 305.213 128.311C305.213 129.037 305.672 129.564 306.318 129.564ZM309.616 128.503C309.69 129.141 310.105 129.534 310.639 129.534C311.077 129.534 311.418 129.327 311.589 128.948L312.256 129.178C311.989 129.853 311.366 130.239 310.639 130.239C309.623 130.239 308.896 129.401 308.896 128.274C308.896 127.176 309.631 126.353 310.639 126.353C311.648 126.353 312.375 127.161 312.39 128.251V128.503H309.616ZM310.639 127.057C310.128 127.057 309.742 127.406 309.638 127.947H311.648C311.544 127.406 311.151 127.057 310.639 127.057ZM312.681 126.442H313.46L314.446 128.919H314.513L315.499 126.442H316.278L314.787 130.15H314.164L312.681 126.442ZM317.25 128.503C317.324 129.141 317.739 129.534 318.273 129.534C318.711 129.534 319.052 129.327 319.222 128.948L319.89 129.178C319.623 129.853 319 130.239 318.273 130.239C317.257 130.239 316.53 129.401 316.53 128.274C316.53 127.176 317.264 126.353 318.273 126.353C319.282 126.353 320.009 127.161 320.023 128.251V128.503H317.25ZM318.273 127.057C317.761 127.057 317.376 127.406 317.272 127.947H319.282C319.178 127.406 318.785 127.057 318.273 127.057ZM320.76 124.869H321.494V130.15H320.76V124.869ZM324.106 130.239C323.023 130.239 322.266 129.416 322.266 128.303C322.266 127.183 323.023 126.36 324.106 126.36C325.203 126.36 325.96 127.183 325.96 128.303C325.96 129.416 325.203 130.239 324.106 130.239ZM324.106 129.497C324.795 129.497 325.218 129.008 325.218 128.303C325.218 127.591 324.795 127.102 324.106 127.102C323.431 127.102 323.001 127.591 323.008 128.303C323.008 129.008 323.431 129.497 324.106 129.497ZM326.728 126.442H327.336L327.455 126.857H327.521C327.707 126.56 328.137 126.353 328.604 126.353C329.628 126.353 330.377 127.176 330.377 128.296C330.377 129.416 329.628 130.239 328.604 130.239C328.129 130.239 327.588 129.972 327.462 129.638V131.633H326.728V126.442ZM328.53 127.028C327.892 127.028 327.462 127.539 327.462 128.281C327.462 129.03 327.892 129.542 328.53 129.542C329.183 129.542 329.642 129.015 329.642 128.281C329.642 127.554 329.183 127.028 328.53 127.028ZM334.891 126.353C335.722 126.353 336.182 126.916 336.182 127.925V130.15H335.447V128.222C335.447 127.48 335.299 127.013 334.75 127.013C334.172 127.013 333.994 127.435 333.994 128.073V130.15H333.259V128.222C333.259 127.48 333.111 127.013 332.562 127.013C331.984 127.013 331.806 127.435 331.806 128.073V130.15H331.072V126.442H331.68L331.769 126.798H331.835C331.939 126.568 332.229 126.353 332.674 126.353C333.185 126.353 333.475 126.575 333.66 126.998H333.727C333.934 126.59 334.379 126.353 334.891 126.353ZM337.522 128.503C337.596 129.141 338.012 129.534 338.546 129.534C338.983 129.534 339.324 129.327 339.495 128.948L340.162 129.178C339.895 129.853 339.272 130.239 338.546 130.239C337.529 130.239 336.803 129.401 336.803 128.274C336.803 127.176 337.537 126.353 338.546 126.353C339.554 126.353 340.281 127.161 340.296 128.251V128.503H337.522ZM338.546 127.057C338.034 127.057 337.648 127.406 337.544 127.947H339.554C339.45 127.406 339.057 127.057 338.546 127.057ZM341.566 126.442L341.662 126.798H341.729C341.855 126.59 342.137 126.353 342.627 126.353C343.487 126.353 344.028 126.961 344.028 127.925V130.15H343.294V128.222C343.294 127.421 343.035 127.013 342.523 127.013C341.974 127.013 341.692 127.376 341.692 128.073V130.15H340.958V126.442H341.566ZM346.263 130.239C345.61 130.239 345.247 129.846 345.247 129.149V127.072H344.654V126.442C345.032 126.427 345.247 126.197 345.247 125.833V125.277H345.981V126.442H346.671V127.072H345.981V129C345.981 129.416 346.093 129.579 346.36 129.579C346.5 129.579 346.627 129.534 346.716 129.46L347.034 130.024C346.827 130.157 346.575 130.239 346.263 130.239Z" fill="black"/>
<rect x="266.916" y="109.886" width="96.0445" height="27.529" rx="1.2979" stroke="#00AA6C" stroke-width="0.370828" stroke-dasharray="1.48 1.48"/>
<rect x="155.854" y="146.5" width="96.4153" height="27.8999" rx="1.48331" fill="#BAEDBD"/>
<path d="M192.306 155.911C192.405 156.373 192.696 156.597 193.194 156.597C193.708 156.597 194.056 156.368 194.056 156.031C194.056 155.693 193.739 155.444 193.075 155.247C192.291 155.013 191.958 154.697 191.958 154.198C191.958 153.606 192.421 153.253 193.194 153.253C193.895 153.253 194.347 153.565 194.456 154.131L194.004 154.25C193.89 153.85 193.641 153.669 193.194 153.669C192.722 153.669 192.415 153.876 192.415 154.198C192.415 154.489 192.67 154.691 193.298 154.899C194.165 155.179 194.513 155.512 194.513 156.046C194.513 156.638 194.02 157.012 193.225 157.012C192.467 157.012 191.933 156.623 191.844 156L192.306 155.911ZM195.307 155.771C195.354 156.27 195.655 156.586 196.065 156.586C196.371 156.586 196.626 156.431 196.75 156.166L197.15 156.306C196.958 156.747 196.548 157.012 196.065 157.012C195.369 157.012 194.876 156.436 194.876 155.636C194.876 154.857 195.374 154.292 196.065 154.292C196.75 154.292 197.243 154.842 197.254 155.61V155.771H195.307ZM196.065 154.717C195.676 154.717 195.385 154.992 195.317 155.434H196.813C196.745 154.992 196.454 154.717 196.065 154.717ZM198.689 157.012C198.248 157.012 198.009 156.752 198.009 156.285V154.728H197.594V154.354C197.848 154.344 198.009 154.157 198.009 153.892V153.539H198.455V154.354H198.938V154.728H198.455V156.181C198.455 156.488 198.544 156.617 198.756 156.617C198.845 156.617 198.928 156.597 198.995 156.555L199.182 156.882C199.058 156.955 198.897 157.012 198.689 157.012ZM200.433 157.012C199.992 157.012 199.753 156.752 199.753 156.285V154.728H199.338V154.354C199.592 154.344 199.753 154.157 199.753 153.892V153.539H200.199V154.354H200.682V154.728H200.199V156.181C200.199 156.488 200.288 156.617 200.501 156.617C200.589 156.617 200.672 156.597 200.739 156.555L200.926 156.882C200.802 156.955 200.641 157.012 200.433 157.012ZM201.446 153.253H201.893V156.95H201.446V153.253ZM202.897 155.771C202.943 156.27 203.244 156.586 203.655 156.586C203.961 156.586 204.215 156.431 204.34 156.166L204.74 156.306C204.548 156.747 204.137 157.012 203.655 157.012C202.959 157.012 202.466 156.436 202.466 155.636C202.466 154.857 202.964 154.292 203.655 154.292C204.34 154.292 204.833 154.842 204.843 155.61V155.771H202.897ZM203.655 154.717C203.265 154.717 202.975 154.992 202.907 155.434H204.402C204.335 154.992 204.044 154.717 203.655 154.717ZM207.981 154.292C208.542 154.292 208.848 154.671 208.848 155.356V156.95H208.402V155.564C208.402 155.065 208.309 154.686 207.883 154.686C207.431 154.686 207.317 155.029 207.317 155.46V156.95H206.87V155.564C206.87 155.065 206.777 154.686 206.351 154.686C205.9 154.686 205.785 155.029 205.785 155.46V156.95H205.339V154.354H205.702L205.77 154.613H205.811C205.884 154.453 206.081 154.292 206.414 154.292C206.793 154.292 206.99 154.468 207.109 154.78H207.151C207.286 154.468 207.613 154.292 207.981 154.292ZM209.746 155.771C209.793 156.27 210.094 156.586 210.504 156.586C210.81 156.586 211.065 156.431 211.189 156.166L211.589 156.306C211.397 156.747 210.987 157.012 210.504 157.012C209.808 157.012 209.315 156.436 209.315 155.636C209.315 154.857 209.814 154.292 210.504 154.292C211.189 154.292 211.683 154.842 211.693 155.61V155.771H209.746ZM210.504 154.717C210.115 154.717 209.824 154.992 209.756 155.434H211.252C211.184 154.992 210.893 154.717 210.504 154.717ZM212.552 154.354L212.625 154.613H212.666C212.754 154.468 212.962 154.292 213.325 154.292C213.907 154.292 214.27 154.702 214.27 155.356V156.95H213.824V155.564C213.824 154.987 213.632 154.686 213.253 154.686C212.848 154.686 212.635 154.956 212.635 155.46V156.95H212.188V154.354H212.552ZM215.835 157.012C215.394 157.012 215.155 156.752 215.155 156.285V154.728H214.74V154.354C214.994 154.344 215.155 154.157 215.155 153.892V153.539H215.602V154.354H216.085V154.728H215.602V156.181C215.602 156.488 215.69 156.617 215.903 156.617C215.991 156.617 216.074 156.597 216.142 156.555L216.329 156.882C216.204 156.955 216.043 157.012 215.835 157.012Z" fill="black"/>
<path d="M185.59 167.039C184.507 167.039 183.751 166.215 183.751 165.103C183.751 163.983 184.507 163.16 185.59 163.16C186.688 163.16 187.444 163.983 187.444 165.103C187.444 166.215 186.688 167.039 185.59 167.039ZM185.59 166.297C186.28 166.297 186.703 165.808 186.703 165.103C186.703 164.391 186.28 163.901 185.59 163.901C184.915 163.901 184.485 164.391 184.492 165.103C184.492 165.808 184.915 166.297 185.59 166.297ZM188.212 163.241H188.82L188.939 163.657H189.006C189.191 163.36 189.621 163.152 190.088 163.152C191.112 163.152 191.861 163.976 191.861 165.096C191.861 166.215 191.112 167.039 190.088 167.039C189.614 167.039 189.072 166.772 188.946 166.438V168.433H188.212V163.241ZM190.014 163.827C189.376 163.827 188.946 164.339 188.946 165.081C188.946 165.83 189.376 166.342 190.014 166.342C190.667 166.342 191.127 165.815 191.127 165.081C191.127 164.354 190.667 163.827 190.014 163.827ZM192.482 165.17V164.502H194.662V165.17H192.482ZM195.585 163.241H196.193L196.312 163.657H196.379C196.564 163.36 196.994 163.152 197.461 163.152C198.485 163.152 199.234 163.976 199.234 165.096C199.234 166.215 198.485 167.039 197.461 167.039C196.987 167.039 196.445 166.772 196.319 166.438V168.433H195.585V163.241ZM197.387 163.827C196.749 163.827 196.319 164.339 196.319 165.081C196.319 165.83 196.749 166.342 197.387 166.342C198.04 166.342 198.5 165.815 198.5 165.081C198.5 164.354 198.04 163.827 197.387 163.827ZM199.929 166.95V163.241H200.537L200.634 163.597H200.7C200.819 163.397 201.093 163.152 201.598 163.152C201.664 163.152 201.724 163.16 201.776 163.175V163.85C201.694 163.827 201.598 163.813 201.494 163.813C200.945 163.813 200.663 164.176 200.663 164.873V166.95H199.929ZM204.016 167.039C202.933 167.039 202.176 166.215 202.176 165.103C202.176 163.983 202.933 163.16 204.016 163.16C205.113 163.16 205.87 163.983 205.87 165.103C205.87 166.215 205.113 167.039 204.016 167.039ZM204.016 166.297C204.705 166.297 205.128 165.808 205.128 165.103C205.128 164.391 204.705 163.901 204.016 163.901C203.341 163.901 202.91 164.391 202.918 165.103C202.918 165.808 203.341 166.297 204.016 166.297ZM206.637 163.241H207.246L207.364 163.657H207.431C207.616 163.36 208.047 163.152 208.514 163.152C209.537 163.152 210.286 163.976 210.286 165.096C210.286 166.215 209.537 167.039 208.514 167.039C208.039 167.039 207.498 166.772 207.372 166.438V168.433H206.637V163.241ZM208.44 163.827C207.802 163.827 207.372 164.339 207.372 165.081C207.372 165.83 207.802 166.342 208.44 166.342C209.092 166.342 209.552 165.815 209.552 165.081C209.552 164.354 209.092 163.827 208.44 163.827ZM212.743 167.039C211.66 167.039 210.904 166.215 210.904 165.103C210.904 163.983 211.66 163.16 212.743 163.16C213.841 163.16 214.597 163.983 214.597 165.103C214.597 166.215 213.841 167.039 212.743 167.039ZM212.743 166.297C213.433 166.297 213.856 165.808 213.856 165.103C213.856 164.391 213.433 163.901 212.743 163.901C212.068 163.901 211.638 164.391 211.645 165.103C211.645 165.808 212.068 166.297 212.743 166.297ZM215.765 165.763C215.884 166.119 216.047 166.371 216.529 166.371C216.937 166.371 217.271 166.223 217.271 165.941C217.271 165.615 216.997 165.548 216.099 165.303C215.461 165.133 215.172 164.799 215.172 164.25C215.172 163.59 215.691 163.152 216.507 163.152C217.278 163.152 217.709 163.479 217.887 164.168L217.256 164.376C217.13 163.968 216.937 163.813 216.522 163.813C216.107 163.813 215.877 163.99 215.877 164.265C215.877 164.524 215.973 164.628 216.27 164.71C217.575 165.073 217.976 165.222 217.976 165.941C217.976 166.594 217.367 167.039 216.559 167.039C215.758 167.039 215.172 166.631 215.068 165.963L215.765 165.763ZM219.163 165.303C219.237 165.941 219.652 166.334 220.186 166.334C220.624 166.334 220.965 166.126 221.136 165.748L221.803 165.978C221.536 166.653 220.913 167.039 220.186 167.039C219.17 167.039 218.443 166.201 218.443 165.073C218.443 163.976 219.178 163.152 220.186 163.152C221.195 163.152 221.922 163.961 221.937 165.051V165.303H219.163ZM220.186 163.857C219.675 163.857 219.289 164.206 219.185 164.747H221.195C221.091 164.206 220.698 163.857 220.186 163.857ZM222.599 166.95V163.241H223.207L223.303 163.597H223.37C223.489 163.397 223.763 163.152 224.267 163.152C224.334 163.152 224.394 163.16 224.445 163.175V163.85C224.364 163.827 224.267 163.813 224.164 163.813C223.615 163.813 223.333 164.176 223.333 164.873V166.95H222.599Z" fill="black"/>
<rect x="266.731" y="146.5" width="96.4153" height="27.8999" rx="1.48331" fill="#BAEDBD"/>
<path d="M296.751 153.731V154.998H298.194V155.413H296.751V156.534H298.35V156.95H296.284V153.316H298.361V153.731H296.751ZM298.724 156.95L299.576 155.641V155.6L298.724 154.354H299.207L299.814 155.242H299.856L300.448 154.354H300.925L300.09 155.6V155.641L300.936 156.95H300.448L299.856 156.01H299.814L299.207 156.95H298.724ZM301.627 155.771C301.673 156.27 301.974 156.586 302.385 156.586C302.691 156.586 302.945 156.431 303.07 156.166L303.47 156.306C303.277 156.747 302.867 157.012 302.385 157.012C301.689 157.012 301.196 156.436 301.196 155.636C301.196 154.857 301.694 154.292 302.385 154.292C303.07 154.292 303.563 154.842 303.573 155.61V155.771H301.627ZM302.385 154.717C301.995 154.717 301.704 154.992 301.637 155.434H303.132C303.065 154.992 302.774 154.717 302.385 154.717ZM306.392 156.275C306.195 156.732 305.785 157.012 305.266 157.012C304.523 157.012 304.015 156.451 304.015 155.647C304.015 154.847 304.528 154.292 305.266 154.292C305.785 154.292 306.2 154.567 306.392 155.018L305.972 155.169C305.842 154.894 305.593 154.743 305.266 154.743C304.767 154.743 304.461 155.091 304.461 155.647C304.461 156.197 304.773 156.56 305.266 156.56C305.588 156.56 305.837 156.405 305.972 156.129L306.392 156.275ZM308.448 156.95L308.375 156.69H308.334C308.245 156.835 308.038 157.012 307.674 157.012C307.093 157.012 306.729 156.602 306.729 155.948V154.354H307.176V155.74C307.176 156.316 307.368 156.617 307.747 156.617C308.152 156.617 308.365 156.347 308.365 155.844V154.354H308.811V156.95H308.448ZM310.428 157.012C309.987 157.012 309.748 156.752 309.748 156.285V154.728H309.333V154.354C309.587 154.344 309.748 154.157 309.748 153.892V153.539H310.195V154.354H310.677V154.728H310.195V156.181C310.195 156.488 310.283 156.617 310.496 156.617C310.584 156.617 310.667 156.597 310.735 156.555L310.922 156.882C310.797 156.955 310.636 157.012 310.428 157.012ZM311.691 153.856C311.525 153.856 311.39 153.721 311.39 153.554C311.39 153.388 311.525 153.253 311.691 153.253C311.857 153.253 311.992 153.388 311.992 153.554C311.992 153.721 311.857 153.856 311.691 153.856ZM311.468 154.354H311.914V156.95H311.468V154.354ZM313.768 157.012C313.02 157.012 312.512 156.441 312.512 155.657C312.512 154.868 313.02 154.297 313.768 154.297C314.521 154.297 315.03 154.868 315.03 155.657C315.03 156.441 314.521 157.012 313.768 157.012ZM313.768 156.566C314.272 156.566 314.578 156.197 314.578 155.657C314.578 155.112 314.272 154.748 313.768 154.748C313.27 154.748 312.958 155.112 312.963 155.657C312.963 156.197 313.27 156.566 313.768 156.566ZM315.911 154.354L315.983 154.613H316.025C316.113 154.468 316.321 154.292 316.684 154.292C317.266 154.292 317.629 154.702 317.629 155.356V156.95H317.183V155.564C317.183 154.987 316.99 154.686 316.611 154.686C316.207 154.686 315.994 154.956 315.994 155.46V156.95H315.547V154.354H315.911ZM320.073 153.731V154.998H321.516V155.413H320.073V156.534H321.672V156.95H319.606V153.316H321.682V153.731H320.073ZM322.669 154.354L322.741 154.613H322.783C322.871 154.468 323.079 154.292 323.442 154.292C324.024 154.292 324.387 154.702 324.387 155.356V156.95H323.941V155.564C323.941 154.987 323.749 154.686 323.37 154.686C322.965 154.686 322.752 154.956 322.752 155.46V156.95H322.305V154.354H322.669ZM327.12 157.282C327.12 157.739 326.679 158.05 326.041 158.05C325.402 158.05 324.961 157.739 324.961 157.282C324.961 157.022 325.07 156.799 325.267 156.659C325.117 156.566 325.039 156.42 325.039 156.254C325.039 156.062 325.153 155.906 325.345 155.828C325.174 155.667 325.065 155.444 325.065 155.19C325.065 154.671 325.48 154.292 326.041 154.292C326.186 154.292 326.326 154.318 326.446 154.364C326.705 154.328 326.991 154.198 327.043 154.177L327.204 154.504C327.089 154.567 326.965 154.619 326.835 154.65C326.949 154.795 327.017 154.982 327.017 155.19C327.017 155.714 326.601 156.088 326.03 156.088C325.854 156.088 325.703 156.052 325.568 155.984C325.48 156.015 325.433 156.088 325.433 156.202C325.433 156.457 325.677 156.462 325.869 156.462C326.622 156.462 327.12 156.669 327.12 157.282ZM326.041 154.686C325.724 154.686 325.511 154.889 325.511 155.19C325.511 155.496 325.714 155.693 326.03 155.693C326.357 155.693 326.57 155.491 326.57 155.19C326.57 154.889 326.357 154.686 326.041 154.686ZM326.041 157.656C326.44 157.656 326.674 157.505 326.674 157.256C326.674 157.002 326.446 156.856 326.041 156.856C325.636 156.856 325.407 157.002 325.407 157.256C325.407 157.505 325.641 157.656 326.041 157.656ZM327.97 153.856C327.804 153.856 327.669 153.721 327.669 153.554C327.669 153.388 327.804 153.253 327.97 153.253C328.137 153.253 328.272 153.388 328.272 153.554C328.272 153.721 328.137 153.856 327.97 153.856ZM327.747 154.354H328.194V156.95H327.747V154.354ZM329.31 154.354L329.383 154.613H329.425C329.513 154.468 329.721 154.292 330.084 154.292C330.665 154.292 331.029 154.702 331.029 155.356V156.95H330.582V155.564C330.582 154.987 330.39 154.686 330.011 154.686C329.606 154.686 329.393 154.956 329.393 155.46V156.95H328.947V154.354H329.31ZM331.929 155.771C331.976 156.27 332.277 156.586 332.687 156.586C332.994 156.586 333.248 156.431 333.373 156.166L333.772 156.306C333.58 156.747 333.17 157.012 332.687 157.012C331.992 157.012 331.499 156.436 331.499 155.636C331.499 154.857 331.997 154.292 332.687 154.292C333.373 154.292 333.866 154.842 333.876 155.61V155.771H331.929ZM332.687 154.717C332.298 154.717 332.007 154.992 331.94 155.434H333.435C333.368 154.992 333.077 154.717 332.687 154.717Z" fill="black"/>
<path d="M303.884 167.039C302.801 167.039 302.045 166.215 302.045 165.103C302.045 163.983 302.801 163.16 303.884 163.16C304.982 163.16 305.738 163.983 305.738 165.103C305.738 166.215 304.982 167.039 303.884 167.039ZM303.884 166.297C304.574 166.297 304.997 165.808 304.997 165.103C304.997 164.391 304.574 163.901 303.884 163.901C303.209 163.901 302.779 164.391 302.786 165.103C302.786 165.808 303.209 166.297 303.884 166.297ZM306.506 163.241H307.114L307.233 163.657H307.3C307.485 163.36 307.915 163.152 308.382 163.152C309.406 163.152 310.155 163.976 310.155 165.096C310.155 166.215 309.406 167.039 308.382 167.039C307.908 167.039 307.366 166.772 307.24 166.438V168.433H306.506V163.241ZM308.308 163.827C307.67 163.827 307.24 164.339 307.24 165.081C307.24 165.83 307.67 166.342 308.308 166.342C308.961 166.342 309.421 165.815 309.421 165.081C309.421 164.354 308.961 163.827 308.308 163.827ZM310.776 165.17V164.502H312.956V165.17H310.776ZM316.912 167.387C316.912 168.07 316.26 168.522 315.318 168.522C314.376 168.522 313.731 168.07 313.731 167.387C313.731 167.024 313.872 166.72 314.139 166.512C313.946 166.371 313.842 166.171 313.842 165.948C313.842 165.704 313.953 165.466 314.25 165.333C314.02 165.103 313.879 164.791 313.879 164.45C313.879 163.701 314.495 163.152 315.318 163.152C315.526 163.152 315.726 163.19 315.904 163.249C316.252 163.219 316.586 163.078 316.772 163.004L317.053 163.516C316.905 163.597 316.727 163.672 316.534 163.724C316.683 163.924 316.764 164.176 316.764 164.45C316.764 165.207 316.149 165.756 315.31 165.756C315.058 165.756 314.843 165.704 314.65 165.615C314.532 165.659 314.48 165.756 314.48 165.897C314.48 166.215 314.843 166.23 315.155 166.23C316.245 166.23 316.912 166.557 316.912 167.387ZM315.318 163.79C314.895 163.79 314.613 164.057 314.613 164.45C314.613 164.851 314.88 165.11 315.31 165.11C315.748 165.11 316.03 164.843 316.03 164.45C316.03 164.057 315.748 163.79 315.318 163.79ZM315.318 167.884C315.867 167.884 316.178 167.691 316.178 167.365C316.178 167.031 315.874 166.838 315.318 166.838C314.769 166.838 314.465 167.031 314.465 167.365C314.465 167.691 314.776 167.884 315.318 167.884ZM318.169 165.303C318.244 165.941 318.659 166.334 319.193 166.334C319.63 166.334 319.972 166.126 320.142 165.748L320.81 165.978C320.543 166.653 319.92 167.039 319.193 167.039C318.177 167.039 317.45 166.201 317.45 165.073C317.45 163.976 318.184 163.152 319.193 163.152C320.202 163.152 320.928 163.961 320.943 165.051V165.303H318.169ZM319.193 163.857C318.681 163.857 318.296 164.206 318.192 164.747H320.202C320.098 164.206 319.705 163.857 319.193 163.857ZM322.992 167.039C322.34 167.039 321.976 166.646 321.976 165.948V163.872H321.383V163.241C321.761 163.227 321.976 162.997 321.976 162.633V162.077H322.71V163.241H323.4V163.872H322.71V165.8C322.71 166.215 322.822 166.379 323.089 166.379C323.23 166.379 323.356 166.334 323.445 166.26L323.764 166.824C323.556 166.957 323.304 167.039 322.992 167.039ZM325.262 163.657C325.425 163.375 325.759 163.175 326.204 163.175C327.101 163.175 327.687 163.783 327.687 164.688V166.95H326.953V164.873C326.953 164.176 326.552 163.835 326.026 163.835C325.551 163.835 325.195 164.287 325.195 164.962V166.95H324.461V161.669H325.195V163.657H325.262Z" fill="black"/>
<rect x="155.854" y="183.3" width="96.4153" height="27.8999" rx="1.48331" fill="#BAEDBD"/>
<path d="M192.585 192.711C192.684 193.173 192.975 193.396 193.473 193.396C193.987 193.396 194.335 193.168 194.335 192.831C194.335 192.493 194.018 192.244 193.354 192.047C192.57 191.813 192.237 191.496 192.237 190.998C192.237 190.406 192.699 190.053 193.473 190.053C194.174 190.053 194.625 190.365 194.734 190.93L194.283 191.05C194.169 190.65 193.919 190.468 193.473 190.468C193 190.468 192.694 190.676 192.694 190.998C192.694 191.289 192.949 191.491 193.577 191.699C194.444 191.979 194.792 192.311 194.792 192.846C194.792 193.438 194.298 193.812 193.504 193.812C192.746 193.812 192.211 193.422 192.123 192.799L192.585 192.711ZM195.586 192.571C195.633 193.069 195.934 193.386 196.344 193.386C196.65 193.386 196.904 193.23 197.029 192.966L197.429 193.106C197.237 193.547 196.827 193.812 196.344 193.812C195.648 193.812 195.155 193.236 195.155 192.436C195.155 191.657 195.653 191.091 196.344 191.091C197.029 191.091 197.522 191.642 197.533 192.41V192.571H195.586ZM196.344 191.517C195.954 191.517 195.664 191.792 195.596 192.234H197.091C197.024 191.792 196.733 191.517 196.344 191.517ZM200.461 191.154V194.788H200.014V193.329C199.947 193.604 199.511 193.812 199.178 193.812C198.477 193.812 197.974 193.246 197.974 192.452C197.974 191.657 198.477 191.091 199.178 191.091C199.511 191.091 199.832 191.226 199.973 191.439H200.014L200.097 191.154H200.461ZM199.23 191.512C198.758 191.512 198.42 191.896 198.42 192.452C198.42 193.007 198.758 193.391 199.23 193.391C199.697 193.391 200.014 193.017 200.014 192.452C200.014 191.886 199.697 191.512 199.23 191.512ZM202.853 193.75L202.781 193.49H202.739C202.651 193.635 202.443 193.812 202.08 193.812C201.498 193.812 201.135 193.402 201.135 192.748V191.154H201.581V192.54C201.581 193.116 201.773 193.417 202.152 193.417C202.557 193.417 202.77 193.147 202.77 192.644V191.154H203.217V193.75H202.853ZM204.169 192.571C204.216 193.069 204.517 193.386 204.927 193.386C205.233 193.386 205.488 193.23 205.612 192.966L206.012 193.106C205.82 193.547 205.41 193.812 204.927 193.812C204.231 193.812 203.738 193.236 203.738 192.436C203.738 191.657 204.237 191.091 204.927 191.091C205.612 191.091 206.106 191.642 206.116 192.41V192.571H204.169ZM204.927 191.517C204.538 191.517 204.247 191.792 204.18 192.234H205.675C205.607 191.792 205.317 191.517 204.927 191.517ZM206.975 191.154L207.048 191.413H207.089C207.177 191.268 207.385 191.091 207.748 191.091C208.33 191.091 208.693 191.502 208.693 192.156V193.75H208.247V192.363C208.247 191.787 208.055 191.486 207.676 191.486C207.271 191.486 207.058 191.756 207.058 192.26V193.75H206.612V191.154H206.975ZM211.541 193.075C211.344 193.531 210.933 193.812 210.414 193.812C209.672 193.812 209.163 193.251 209.163 192.446C209.163 191.647 209.677 191.091 210.414 191.091C210.933 191.091 211.349 191.367 211.541 191.818L211.12 191.969C210.991 191.694 210.741 191.543 210.414 191.543C209.916 191.543 209.61 191.891 209.61 192.446C209.61 192.997 209.921 193.36 210.414 193.36C210.736 193.36 210.985 193.204 211.12 192.929L211.541 193.075ZM212.382 192.571C212.429 193.069 212.73 193.386 213.14 193.386C213.447 193.386 213.701 193.23 213.826 192.966L214.225 193.106C214.033 193.547 213.623 193.812 213.14 193.812C212.445 193.812 211.952 193.236 211.952 192.436C211.952 191.657 212.45 191.091 213.14 191.091C213.826 191.091 214.319 191.642 214.329 192.41V192.571H212.382ZM213.14 191.517C212.751 191.517 212.46 191.792 212.393 192.234H213.888C213.821 191.792 213.53 191.517 213.14 191.517ZM214.825 193.75V191.154H215.188L215.261 191.413H215.302C215.385 191.278 215.583 191.091 215.962 191.091C215.993 191.091 216.024 191.091 216.05 191.097V191.502C216.003 191.491 215.951 191.486 215.889 191.486C215.484 191.486 215.271 191.756 215.271 192.26V193.75H214.825Z" fill="black"/>
<path d="M187.734 203.839C186.651 203.839 185.895 203.015 185.895 201.903C185.895 200.783 186.651 199.96 187.734 199.96C188.832 199.96 189.588 200.783 189.588 201.903C189.588 203.015 188.832 203.839 187.734 203.839ZM187.734 203.097C188.424 203.097 188.846 202.607 188.846 201.903C188.846 201.191 188.424 200.701 187.734 200.701C187.059 200.701 186.629 201.191 186.636 201.903C186.636 202.607 187.059 203.097 187.734 203.097ZM190.356 200.041H190.964L191.083 200.457H191.149C191.335 200.16 191.765 199.952 192.232 199.952C193.256 199.952 194.005 200.775 194.005 201.895C194.005 203.015 193.256 203.839 192.232 203.839C191.758 203.839 191.216 203.572 191.09 203.238V205.233H190.356V200.041ZM192.158 200.627C191.52 200.627 191.09 201.139 191.09 201.881C191.09 202.63 191.52 203.141 192.158 203.141C192.811 203.141 193.271 202.615 193.271 201.881C193.271 201.154 192.811 200.627 192.158 200.627ZM194.626 201.97V201.302H196.806V201.97H194.626ZM197.729 203.75V198.469H198.463V200.553C198.589 200.219 199.131 199.952 199.605 199.952C200.629 199.952 201.378 200.775 201.378 201.895C201.378 203.015 200.629 203.839 199.605 203.839C199.138 203.839 198.708 203.631 198.522 203.334H198.456L198.337 203.75H197.729ZM199.531 203.164C200.184 203.164 200.644 202.637 200.644 201.91C200.644 201.176 200.184 200.649 199.531 200.649C198.893 200.649 198.463 201.161 198.463 201.91C198.463 202.652 198.893 203.164 199.531 203.164ZM203.289 203.839C202.547 203.839 201.91 203.394 201.91 202.682C201.91 201.962 202.547 201.495 203.519 201.495C203.808 201.495 204.083 201.532 204.342 201.614V201.309C204.342 200.939 204.001 200.672 203.526 200.672C203.104 200.672 202.881 200.827 202.763 201.109L202.073 200.909C202.243 200.33 202.807 199.952 203.482 199.952C204.379 199.952 205.054 200.523 205.054 201.22V203.75H204.446L204.327 203.334H204.261C204.142 203.668 203.816 203.839 203.289 203.839ZM202.629 202.659C202.629 203 202.941 203.171 203.378 203.171C203.897 203.171 204.342 202.911 204.342 202.518V202.244C204.083 202.155 203.771 202.103 203.489 202.103C202.955 202.103 202.629 202.303 202.629 202.659ZM207.219 203.839C206.566 203.839 206.203 203.445 206.203 202.748V200.672H205.609V200.041C205.988 200.026 206.203 199.796 206.203 199.433V198.877H206.937V200.041H207.627V200.672H206.937V202.6C206.937 203.015 207.048 203.178 207.315 203.178C207.456 203.178 207.582 203.134 207.671 203.06L207.99 203.623C207.782 203.757 207.53 203.839 207.219 203.839ZM211.754 202.704C211.472 203.408 210.864 203.839 210.078 203.839C209.002 203.839 208.246 203.023 208.246 201.888C208.246 200.753 209.01 199.952 210.078 199.952C210.864 199.952 211.479 200.375 211.754 201.072L211.057 201.317C210.886 200.916 210.545 200.694 210.078 200.694C209.403 200.694 208.98 201.161 208.98 201.888C208.98 202.607 209.41 203.089 210.078 203.089C210.537 203.089 210.879 202.867 211.057 202.466L211.754 202.704ZM213.254 200.457C213.418 200.175 213.751 199.974 214.196 199.974C215.094 199.974 215.68 200.583 215.68 201.487V203.75H214.945V201.673C214.945 200.976 214.545 200.635 214.018 200.635C213.544 200.635 213.188 201.087 213.188 201.762V203.75H212.453V198.469H213.188V200.457H213.254ZM217.019 202.103C217.093 202.741 217.508 203.134 218.042 203.134C218.48 203.134 218.821 202.926 218.992 202.548L219.659 202.778C219.392 203.453 218.769 203.839 218.042 203.839C217.026 203.839 216.3 203 216.3 201.873C216.3 200.775 217.034 199.952 218.042 199.952C219.051 199.952 219.778 200.761 219.793 201.851V202.103H217.019ZM218.042 200.657C217.531 200.657 217.145 201.005 217.041 201.547H219.051C218.947 201.005 218.554 200.657 218.042 200.657ZM220.455 203.75V200.041H221.063L221.159 200.397H221.226C221.345 200.197 221.619 199.952 222.124 199.952C222.19 199.952 222.25 199.96 222.302 199.974V200.649C222.22 200.627 222.124 200.612 222.02 200.612C221.471 200.612 221.189 200.976 221.189 201.673V203.75H220.455Z" fill="black"/>
<rect x="266.731" y="183.3" width="96.4153" height="27.8999" rx="1.48331" fill="#BAEDBD"/>
<path d="M301.781 193.75H301.313V190.115H302.679C303.26 190.115 303.681 190.531 303.681 191.117C303.681 191.595 303.374 191.984 302.923 192.093L303.862 193.75H303.333L302.409 192.119H301.781V193.75ZM302.611 191.668C302.949 191.668 303.187 191.439 303.187 191.117C303.187 190.795 302.949 190.567 302.611 190.567H301.781V191.668H302.611ZM305.327 193.812C304.579 193.812 304.07 193.241 304.07 192.457C304.07 191.668 304.579 191.097 305.327 191.097C306.079 191.097 306.588 191.668 306.588 192.457C306.588 193.241 306.079 193.812 305.327 193.812ZM305.327 193.365C305.83 193.365 306.137 192.997 306.137 192.457C306.137 191.912 305.83 191.548 305.327 191.548C304.828 191.548 304.517 191.912 304.522 192.457C304.522 192.997 304.828 193.365 305.327 193.365ZM307.158 190.053H307.604V193.75H307.158V190.053ZM308.385 190.053H308.831V193.75H308.385V190.053ZM311.226 193.75L311.153 193.49H311.112C311.024 193.635 310.816 193.812 310.453 193.812C309.871 193.812 309.508 193.402 309.508 192.748V191.154H309.954V192.54C309.954 193.116 310.146 193.417 310.525 193.417C310.93 193.417 311.143 193.147 311.143 192.644V191.154H311.59V193.75H311.226ZM312.319 191.154H312.682L312.765 191.439H312.807C312.947 191.226 313.269 191.091 313.601 191.091C314.302 191.091 314.806 191.657 314.806 192.452C314.806 193.246 314.302 193.812 313.601 193.812C313.269 193.812 312.833 193.604 312.765 193.329V194.788H312.319V191.154ZM313.549 191.512C313.082 191.512 312.765 191.886 312.765 192.452C312.765 193.017 313.082 193.391 313.549 193.391C314.022 193.391 314.359 193.007 314.359 192.452C314.359 191.896 314.022 191.512 313.549 191.512ZM317.184 190.728H317.142V193.75H316.675V190.115H317.298L319.297 193.137H319.338V190.115H319.806V193.75H319.183L317.184 190.728ZM321.687 193.812C320.94 193.812 320.431 193.241 320.431 192.457C320.431 191.668 320.94 191.097 321.687 191.097C322.44 191.097 322.949 191.668 322.949 192.457C322.949 193.241 322.44 193.812 321.687 193.812ZM321.687 193.365C322.191 193.365 322.497 192.997 322.497 192.457C322.497 191.912 322.191 191.548 321.687 191.548C321.189 191.548 320.877 191.912 320.883 192.457C320.883 192.997 321.189 193.365 321.687 193.365ZM325.899 193.75H325.535L325.452 193.464H325.411C325.271 193.677 324.949 193.812 324.616 193.812C323.916 193.812 323.412 193.246 323.412 192.452C323.412 191.657 323.916 191.091 324.616 191.091C324.949 191.091 325.385 191.299 325.452 191.574V190.053H325.899V193.75ZM324.668 193.391C325.136 193.391 325.452 193.017 325.452 192.452C325.452 191.886 325.136 191.512 324.668 191.512C324.196 191.512 323.859 191.896 323.859 192.452C323.859 193.007 324.196 193.391 324.668 193.391ZM326.9 192.571C326.947 193.069 327.248 193.386 327.658 193.386C327.964 193.386 328.219 193.23 328.343 192.966L328.743 193.106C328.551 193.547 328.141 193.812 327.658 193.812C326.962 193.812 326.469 193.236 326.469 192.436C326.469 191.657 326.968 191.091 327.658 191.091C328.343 191.091 328.837 191.642 328.847 192.41V192.571H326.9ZM327.658 191.517C327.269 191.517 326.978 191.792 326.91 192.234H328.406C328.338 191.792 328.047 191.517 327.658 191.517Z" fill="black"/>
<path d="M302.957 203.839C301.874 203.839 301.118 203.015 301.118 201.903C301.118 200.783 301.874 199.96 302.957 199.96C304.055 199.96 304.811 200.783 304.811 201.903C304.811 203.015 304.055 203.839 302.957 203.839ZM302.957 203.097C303.647 203.097 304.069 202.607 304.069 201.903C304.069 201.191 303.647 200.701 302.957 200.701C302.282 200.701 301.852 201.191 301.859 201.903C301.859 202.607 302.282 203.097 302.957 203.097ZM305.579 200.041H306.187L306.306 200.457H306.372C306.558 200.16 306.988 199.952 307.455 199.952C308.479 199.952 309.228 200.775 309.228 201.895C309.228 203.015 308.479 203.839 307.455 203.839C306.981 203.839 306.439 203.572 306.313 203.238V205.233H305.579V200.041ZM307.381 200.627C306.743 200.627 306.313 201.139 306.313 201.881C306.313 202.63 306.743 203.141 307.381 203.141C308.034 203.141 308.494 202.615 308.494 201.881C308.494 201.154 308.034 200.627 307.381 200.627ZM309.849 201.97V201.302H312.029V201.97H309.849ZM313.486 200.041L313.582 200.397H313.649C313.775 200.19 314.057 199.952 314.547 199.952C315.407 199.952 315.948 200.56 315.948 201.525V203.75H315.214V201.821C315.214 201.02 314.954 200.612 314.443 200.612C313.894 200.612 313.612 200.976 313.612 201.673V203.75H312.878V200.041H313.486ZM318.413 203.839C317.33 203.839 316.574 203.015 316.574 201.903C316.574 200.783 317.33 199.96 318.413 199.96C319.511 199.96 320.267 200.783 320.267 201.903C320.267 203.015 319.511 203.839 318.413 203.839ZM318.413 203.097C319.103 203.097 319.525 202.607 319.525 201.903C319.525 201.191 319.103 200.701 318.413 200.701C317.738 200.701 317.308 201.191 317.315 201.903C317.315 202.607 317.738 203.097 318.413 203.097ZM324.532 203.75H323.924L323.805 203.334H323.738C323.553 203.631 323.123 203.839 322.648 203.839C321.625 203.839 320.883 203.015 320.883 201.895C320.883 200.775 321.625 199.952 322.648 199.952C323.123 199.952 323.672 200.219 323.798 200.553V198.469H324.532V203.75ZM322.722 203.164C323.36 203.164 323.798 202.652 323.798 201.91C323.798 201.161 323.36 200.649 322.722 200.649C322.077 200.649 321.617 201.176 321.617 201.91C321.617 202.637 322.077 203.164 322.722 203.164ZM326.021 202.103C326.095 202.741 326.51 203.134 327.044 203.134C327.482 203.134 327.823 202.926 327.993 202.548L328.661 202.778C328.394 203.453 327.771 203.839 327.044 203.839C326.028 203.839 325.301 203 325.301 201.873C325.301 200.775 326.035 199.952 327.044 199.952C328.053 199.952 328.78 200.761 328.794 201.851V202.103H326.021ZM327.044 200.657C326.532 200.657 326.147 201.005 326.043 201.547H328.053C327.949 201.005 327.556 200.657 327.044 200.657Z" fill="black"/>
<rect x="141.762" y="81.2712" width="235.476" height="138.457" rx="4.07911" stroke="#8CC34A" stroke-width="0.741656" stroke-dasharray="2.97 2.97"/>
<rect x="141.762" y="235.303" width="235.476" height="64.8578" rx="4.07911" fill="#FF4747" fill-opacity="0.2"/>
<path d="M250.286 250.943V251.833H246.889V246.641H247.853V250.943H250.286ZM250.583 251.833L252.742 246.634H253.713L255.871 251.833H254.818L254.232 250.423H252.23L251.636 251.833H250.583ZM252.571 249.496H253.891L253.268 247.998H253.194L252.571 249.496ZM257.055 249.645L255.356 246.641H256.432L257.507 248.54H257.581L258.701 246.641H259.777L258.019 249.645V251.833H257.055V249.645ZM261.259 247.531V248.896H263.321V249.786H261.259V250.943H263.544V251.833H260.295V246.641H263.559V247.531H261.259ZM265.422 251.833H264.525V246.641H266.624C267.536 246.641 268.204 247.308 268.204 248.221C268.204 248.896 267.818 249.467 267.202 249.697L268.508 251.833H267.469L266.238 249.8H265.422V251.833ZM266.602 248.94C267.039 248.94 267.343 248.651 267.343 248.221C267.343 247.79 267.039 247.501 266.602 247.501H265.422V248.94H266.602ZM271.292 248.799H270.358V248.013H270.855C271.107 248.013 271.292 247.835 271.292 247.583V247.056H272.182V251.833H271.292V248.799Z" fill="black"/>
<rect x="155.854" y="263.732" width="96.4153" height="27.8999" rx="1.48331" fill="#FFC2C2"/>
<path d="M177.218 273.144C177.317 273.606 177.608 273.829 178.106 273.829C178.62 273.829 178.968 273.601 178.968 273.263C178.968 272.926 178.651 272.677 177.987 272.479C177.203 272.246 176.87 271.929 176.87 271.431C176.87 270.839 177.332 270.486 178.106 270.486C178.807 270.486 179.259 270.797 179.368 271.363L178.916 271.482C178.802 271.083 178.552 270.901 178.106 270.901C177.634 270.901 177.327 271.109 177.327 271.431C177.327 271.721 177.582 271.924 178.21 272.131C179.077 272.412 179.425 272.744 179.425 273.279C179.425 273.871 178.931 274.244 178.137 274.244C177.379 274.244 176.844 273.855 176.756 273.232L177.218 273.144ZM182.536 271.524C183.096 271.524 183.403 271.903 183.403 272.588V274.182H182.956V272.796C182.956 272.298 182.863 271.919 182.437 271.919C181.985 271.919 181.871 272.261 181.871 272.692V274.182H181.425V272.796C181.425 272.298 181.331 271.919 180.905 271.919C180.454 271.919 180.34 272.261 180.34 272.692V274.182H179.893V271.586H180.256L180.324 271.846H180.365C180.438 271.685 180.635 271.524 180.968 271.524C181.347 271.524 181.544 271.701 181.663 272.012H181.705C181.84 271.701 182.167 271.524 182.536 271.524ZM184.876 274.244C184.331 274.244 183.895 273.917 183.895 273.435C183.895 272.952 184.342 272.625 185.006 272.625C185.219 272.625 185.422 272.656 185.614 272.718V272.474C185.614 272.178 185.349 271.96 184.996 271.96C184.7 271.96 184.518 272.074 184.414 272.292L184.009 272.147C184.134 271.773 184.529 271.524 184.97 271.524C185.562 271.524 186.045 271.929 186.045 272.412V274.182H185.681L185.598 273.897H185.557C185.468 274.13 185.245 274.244 184.876 274.244ZM184.331 273.435C184.331 273.705 184.586 273.839 184.913 273.839C185.292 273.839 185.614 273.637 185.614 273.362V273.113C185.427 273.04 185.193 272.998 184.985 272.998C184.56 272.998 184.331 273.154 184.331 273.435ZM186.717 274.182V271.586H187.081L187.153 271.846H187.195C187.278 271.711 187.475 271.524 187.854 271.524C187.885 271.524 187.916 271.524 187.942 271.529V271.934C187.896 271.924 187.844 271.919 187.781 271.919C187.376 271.919 187.164 272.189 187.164 272.692V274.182H186.717ZM189.35 274.244C188.909 274.244 188.67 273.985 188.67 273.518V271.96H188.255V271.586C188.509 271.576 188.67 271.389 188.67 271.124V270.771H189.117V271.586H189.599V271.96H189.117V273.414C189.117 273.72 189.205 273.85 189.418 273.85C189.506 273.85 189.589 273.829 189.656 273.788L189.843 274.115C189.719 274.187 189.558 274.244 189.35 274.244ZM193.158 274.244C192.135 274.244 191.429 273.455 191.429 272.365C191.429 271.275 192.135 270.486 193.158 270.486C193.911 270.486 194.497 270.901 194.747 271.571L194.279 271.727C194.092 271.228 193.687 270.932 193.158 270.932C192.426 270.932 191.928 271.529 191.928 272.365C191.928 273.201 192.426 273.798 193.158 273.798C193.687 273.798 194.092 273.502 194.279 273.004L194.747 273.154C194.492 273.829 193.911 274.244 193.158 274.244ZM196.366 274.244C195.618 274.244 195.109 273.673 195.109 272.889C195.109 272.1 195.618 271.529 196.366 271.529C197.118 271.529 197.627 272.1 197.627 272.889C197.627 273.673 197.118 274.244 196.366 274.244ZM196.366 273.798C196.869 273.798 197.176 273.429 197.176 272.889C197.176 272.344 196.869 271.981 196.366 271.981C195.867 271.981 195.556 272.344 195.561 272.889C195.561 273.429 195.867 273.798 196.366 273.798ZM198.508 271.586L198.581 271.846H198.622C198.711 271.701 198.918 271.524 199.282 271.524C199.863 271.524 200.227 271.934 200.227 272.588V274.182H199.78V272.796C199.78 272.22 199.588 271.919 199.209 271.919C198.804 271.919 198.591 272.189 198.591 272.692V274.182H198.145V271.586H198.508ZM201.792 274.244C201.35 274.244 201.112 273.985 201.112 273.518V271.96H200.696V271.586C200.951 271.576 201.112 271.389 201.112 271.124V270.771H201.558V271.586H202.041V271.96H201.558V273.414C201.558 273.72 201.646 273.85 201.859 273.85C201.948 273.85 202.031 273.829 202.098 273.788L202.285 274.115C202.16 274.187 201.999 274.244 201.792 274.244ZM202.753 274.182V271.586H203.117L203.189 271.846H203.231C203.314 271.711 203.511 271.524 203.89 271.524C203.921 271.524 203.953 271.524 203.979 271.529V271.934C203.932 271.924 203.88 271.919 203.818 271.919C203.413 271.919 203.2 272.189 203.2 272.692V274.182H202.753ZM205.298 274.244C204.753 274.244 204.317 273.917 204.317 273.435C204.317 272.952 204.763 272.625 205.428 272.625C205.641 272.625 205.843 272.656 206.035 272.718V272.474C206.035 272.178 205.771 271.96 205.417 271.96C205.122 271.96 204.94 272.074 204.836 272.292L204.431 272.147C204.556 271.773 204.95 271.524 205.392 271.524C205.983 271.524 206.466 271.929 206.466 272.412V274.182H206.103L206.02 273.897H205.978C205.89 274.13 205.667 274.244 205.298 274.244ZM204.753 273.435C204.753 273.705 205.007 273.839 205.334 273.839C205.713 273.839 206.035 273.637 206.035 273.362V273.113C205.848 273.04 205.615 272.998 205.407 272.998C204.981 272.998 204.753 273.154 204.753 273.435ZM209.361 273.507C209.164 273.964 208.753 274.244 208.234 274.244C207.492 274.244 206.983 273.684 206.983 272.879C206.983 272.08 207.497 271.524 208.234 271.524C208.753 271.524 209.169 271.799 209.361 272.251L208.94 272.401C208.81 272.126 208.561 271.976 208.234 271.976C207.736 271.976 207.43 272.324 207.43 272.879C207.43 273.429 207.741 273.793 208.234 273.793C208.556 273.793 208.805 273.637 208.94 273.362L209.361 273.507ZM210.766 274.244C210.324 274.244 210.085 273.985 210.085 273.518V271.96H209.67V271.586C209.924 271.576 210.085 271.389 210.085 271.124V270.771H210.532V271.586H211.015V271.96H210.532V273.414C210.532 273.72 210.62 273.85 210.833 273.85C210.921 273.85 211.004 273.829 211.072 273.788L211.259 274.115C211.134 274.187 210.973 274.244 210.766 274.244ZM214.324 270.548C214.911 270.548 215.336 270.969 215.336 271.56C215.336 272.147 214.916 272.573 214.324 272.573H213.545V274.182H213.078V270.548H214.324ZM214.308 272.157C214.667 272.157 214.921 271.913 214.921 271.56C214.921 271.207 214.667 270.963 214.308 270.963H213.545V272.157H214.308ZM215.855 270.486H216.302V274.182H215.855V270.486ZM217.882 274.244C217.336 274.244 216.9 273.917 216.9 273.435C216.9 272.952 217.347 272.625 218.011 272.625C218.224 272.625 218.427 272.656 218.619 272.718V272.474C218.619 272.178 218.354 271.96 218.001 271.96C217.705 271.96 217.523 272.074 217.42 272.292L217.015 272.147C217.139 271.773 217.534 271.524 217.975 271.524C218.567 271.524 219.05 271.929 219.05 272.412V274.182H218.686L218.603 273.897H218.562C218.473 274.13 218.25 274.244 217.882 274.244ZM217.336 273.435C217.336 273.705 217.591 273.839 217.918 273.839C218.297 273.839 218.619 273.637 218.619 273.362V273.113C218.432 273.04 218.198 272.998 217.991 272.998C217.565 272.998 217.336 273.154 217.336 273.435ZM220.561 274.244C220.119 274.244 219.88 273.985 219.88 273.518V271.96H219.465V271.586C219.72 271.576 219.88 271.389 219.88 271.124V270.771H220.327V271.586H220.81V271.96H220.327V273.414C220.327 273.72 220.415 273.85 220.628 273.85C220.716 273.85 220.799 273.829 220.867 273.788L221.054 274.115C220.929 274.187 220.768 274.244 220.561 274.244ZM222.711 270.943C222.664 270.922 222.602 270.906 222.545 270.911C222.316 270.911 222.171 271.067 222.171 271.316V271.586H222.804V271.96H222.171V274.182H221.725V271.96H221.289V271.586H221.725V271.316C221.725 270.834 222.067 270.486 222.54 270.486C222.669 270.486 222.789 270.512 222.898 270.564L222.711 270.943ZM224.281 274.244C223.533 274.244 223.024 273.673 223.024 272.889C223.024 272.1 223.533 271.529 224.281 271.529C225.033 271.529 225.542 272.1 225.542 272.889C225.542 273.673 225.033 274.244 224.281 274.244ZM224.281 273.798C224.784 273.798 225.091 273.429 225.091 272.889C225.091 272.344 224.784 271.981 224.281 271.981C223.782 271.981 223.471 272.344 223.476 272.889C223.476 273.429 223.782 273.798 224.281 273.798ZM226.06 274.182V271.586H226.423L226.496 271.846H226.537C226.62 271.711 226.818 271.524 227.197 271.524C227.228 271.524 227.259 271.524 227.285 271.529V271.934C227.238 271.924 227.186 271.919 227.124 271.919C226.719 271.919 226.506 272.189 226.506 272.692V274.182H226.06ZM230.396 271.524C230.956 271.524 231.263 271.903 231.263 272.588V274.182H230.816V272.796C230.816 272.298 230.723 271.919 230.297 271.919C229.845 271.919 229.731 272.261 229.731 272.692V274.182H229.285V272.796C229.285 272.298 229.191 271.919 228.765 271.919C228.314 271.919 228.2 272.261 228.2 272.692V274.182H227.753V271.586H228.116L228.184 271.846H228.225C228.298 271.685 228.495 271.524 228.828 271.524C229.207 271.524 229.404 271.701 229.523 272.012H229.565C229.7 271.701 230.027 271.524 230.396 271.524Z" fill="black"/>
<path d="M174.134 284.182V279.68H172.48V278.991H176.552V279.68H174.898V284.182H174.134ZM176.546 284.182V280.474H177.154L177.25 280.83H177.317C177.436 280.63 177.71 280.385 178.215 280.385C178.281 280.385 178.341 280.392 178.393 280.407V281.082C178.311 281.06 178.215 281.045 178.111 281.045C177.562 281.045 177.28 281.408 177.28 282.105V284.182H176.546ZM181.404 284.182L181.307 283.826H181.241C181.114 284.034 180.825 284.271 180.336 284.271C179.475 284.271 178.941 283.663 178.941 282.699V280.474H179.676V282.402C179.676 283.203 179.928 283.611 180.44 283.611C180.988 283.611 181.278 283.248 181.278 282.55V280.474H182.012V284.182H181.404ZM183.409 282.995C183.527 283.351 183.69 283.604 184.172 283.604C184.58 283.604 184.914 283.455 184.914 283.173C184.914 282.847 184.64 282.78 183.742 282.536C183.104 282.365 182.815 282.031 182.815 281.482C182.815 280.822 183.334 280.385 184.15 280.385C184.922 280.385 185.352 280.711 185.53 281.401L184.899 281.609C184.773 281.201 184.58 281.045 184.165 281.045C183.75 281.045 183.52 281.223 183.52 281.497C183.52 281.757 183.616 281.861 183.913 281.942C185.218 282.306 185.619 282.454 185.619 283.173C185.619 283.826 185.011 284.271 184.202 284.271C183.401 284.271 182.815 283.863 182.711 283.196L183.409 282.995ZM187.696 284.271C187.043 284.271 186.68 283.878 186.68 283.181V281.104H186.087V280.474C186.465 280.459 186.68 280.229 186.68 279.866V279.309H187.414V280.474H188.104V281.104H187.414V283.033C187.414 283.448 187.525 283.611 187.792 283.611C187.933 283.611 188.059 283.567 188.148 283.492L188.467 284.056C188.26 284.19 188.007 284.271 187.696 284.271ZM189.164 278.902H189.899V284.182H189.164V278.902ZM191.391 282.536C191.465 283.173 191.88 283.567 192.414 283.567C192.852 283.567 193.193 283.359 193.363 282.981L194.031 283.211C193.764 283.885 193.141 284.271 192.414 284.271C191.398 284.271 190.671 283.433 190.671 282.306C190.671 281.208 191.405 280.385 192.414 280.385C193.423 280.385 194.15 281.193 194.164 282.283V282.536H191.391ZM192.414 281.089C191.902 281.089 191.517 281.438 191.413 281.979H193.423C193.319 281.438 192.926 281.089 192.414 281.089ZM195.301 282.995C195.42 283.351 195.583 283.604 196.065 283.604C196.473 283.604 196.807 283.455 196.807 283.173C196.807 282.847 196.532 282.78 195.635 282.536C194.997 282.365 194.708 282.031 194.708 281.482C194.708 280.822 195.227 280.385 196.043 280.385C196.814 280.385 197.244 280.711 197.422 281.401L196.792 281.609C196.666 281.201 196.473 281.045 196.058 281.045C195.642 281.045 195.412 281.223 195.412 281.497C195.412 281.757 195.509 281.861 195.805 281.942C197.111 282.306 197.511 282.454 197.511 283.173C197.511 283.826 196.903 284.271 196.095 284.271C195.294 284.271 194.708 283.863 194.604 283.196L195.301 282.995ZM198.676 282.995C198.795 283.351 198.958 283.604 199.44 283.604C199.848 283.604 200.182 283.455 200.182 283.173C200.182 282.847 199.907 282.78 199.01 282.536C198.372 282.365 198.083 282.031 198.083 281.482C198.083 280.822 198.602 280.385 199.418 280.385C200.189 280.385 200.619 280.711 200.797 281.401L200.167 281.609C200.041 281.201 199.848 281.045 199.433 281.045C199.017 281.045 198.787 281.223 198.787 281.497C198.787 281.757 198.884 281.861 199.181 281.942C200.486 282.306 200.886 282.454 200.886 283.173C200.886 283.826 200.278 284.271 199.47 284.271C198.669 284.271 198.083 283.863 197.979 283.196L198.676 282.995ZM205.637 284.271C204.161 284.271 203.122 283.129 203.122 281.586C203.122 280.044 204.161 278.902 205.637 278.902C206.749 278.902 207.617 279.525 207.973 280.533L207.209 280.785C206.957 280.066 206.386 279.636 205.637 279.636C204.628 279.636 203.931 280.459 203.931 281.586C203.931 282.714 204.628 283.537 205.637 283.537C206.386 283.537 206.957 283.107 207.209 282.387L207.973 282.632C207.609 283.648 206.749 284.271 205.637 284.271ZM210.277 284.271C209.194 284.271 208.438 283.448 208.438 282.335C208.438 281.216 209.194 280.392 210.277 280.392C211.375 280.392 212.131 281.216 212.131 282.335C212.131 283.448 211.375 284.271 210.277 284.271ZM210.277 283.529C210.967 283.529 211.389 283.04 211.389 282.335C211.389 281.623 210.967 281.134 210.277 281.134C209.602 281.134 209.172 281.623 209.179 282.335C209.179 283.04 209.602 283.529 210.277 283.529ZM216.644 280.385C217.475 280.385 217.935 280.949 217.935 281.957V284.182H217.2V282.254C217.2 281.512 217.052 281.045 216.503 281.045C215.925 281.045 215.747 281.468 215.747 282.105V284.182H215.013V282.254C215.013 281.512 214.864 281.045 214.315 281.045C213.737 281.045 213.559 281.468 213.559 282.105V284.182H212.825V280.474H213.433L213.522 280.83H213.589C213.692 280.6 213.982 280.385 214.427 280.385C214.938 280.385 215.228 280.607 215.413 281.03H215.48C215.687 280.622 216.132 280.385 216.644 280.385ZM218.852 280.474H219.461L219.579 280.889H219.646C219.831 280.593 220.262 280.385 220.729 280.385C221.752 280.385 222.501 281.208 222.501 282.328C222.501 283.448 221.752 284.271 220.729 284.271C220.254 284.271 219.713 284.004 219.587 283.67V285.665H218.852V280.474ZM220.655 281.06C220.017 281.06 219.587 281.571 219.587 282.313C219.587 283.062 220.017 283.574 220.655 283.574C221.307 283.574 221.767 283.047 221.767 282.313C221.767 281.586 221.307 281.06 220.655 281.06ZM225.584 284.182L225.488 283.826H225.421C225.295 284.034 225.006 284.271 224.516 284.271C223.656 284.271 223.122 283.663 223.122 282.699V280.474H223.856V282.402C223.856 283.203 224.108 283.611 224.62 283.611C225.169 283.611 225.458 283.248 225.458 282.55V280.474H226.193V284.182H225.584ZM228.501 284.271C227.849 284.271 227.485 283.878 227.485 283.181V281.104H226.892V280.474C227.27 280.459 227.485 280.229 227.485 279.866V279.309H228.22V280.474H228.909V281.104H228.22V283.033C228.22 283.448 228.331 283.611 228.598 283.611C228.739 283.611 228.865 283.567 228.954 283.492L229.273 284.056C229.065 284.19 228.813 284.271 228.501 284.271ZM230.248 282.536C230.322 283.173 230.737 283.567 231.271 283.567C231.709 283.567 232.05 283.359 232.221 282.981L232.888 283.211C232.621 283.885 231.998 284.271 231.271 284.271C230.255 284.271 229.528 283.433 229.528 282.306C229.528 281.208 230.263 280.385 231.271 280.385C232.28 280.385 233.007 281.193 233.022 282.283V282.536H230.248ZM231.271 281.089C230.76 281.089 230.374 281.438 230.27 281.979H232.28C232.176 281.438 231.783 281.089 231.271 281.089ZM233.684 284.182V280.474H234.292L234.388 280.83H234.455C234.574 280.63 234.848 280.385 235.352 280.385C235.419 280.385 235.479 280.392 235.53 280.407V281.082C235.449 281.06 235.352 281.045 235.249 281.045C234.7 281.045 234.418 281.408 234.418 282.105V284.182H233.684Z" fill="black"/>
<rect x="266.731" y="263.732" width="96.4153" height="27.8999" rx="1.48331" fill="#FFC2C2"/>
<path d="M298.019 270.548C299.089 270.548 299.784 271.285 299.784 272.365C299.784 273.445 299.089 274.182 298.019 274.182H296.929V270.548H298.019ZM297.999 273.736C298.736 273.736 299.317 273.159 299.317 272.365C299.317 271.571 298.736 270.994 297.999 270.994H297.396V273.736H297.999ZM301.156 274.244C300.611 274.244 300.175 273.917 300.175 273.435C300.175 272.952 300.621 272.625 301.286 272.625C301.499 272.625 301.701 272.656 301.893 272.718V272.474C301.893 272.178 301.628 271.96 301.275 271.96C300.979 271.96 300.798 272.074 300.694 272.292L300.289 272.147C300.413 271.773 300.808 271.524 301.249 271.524C301.841 271.524 302.324 271.929 302.324 272.412V274.182H301.961L301.878 273.897H301.836C301.748 274.13 301.524 274.244 301.156 274.244ZM300.611 273.435C300.611 273.705 300.865 273.839 301.192 273.839C301.571 273.839 301.893 273.637 301.893 273.362V273.113C301.706 273.04 301.473 272.998 301.265 272.998C300.839 272.998 300.611 273.154 300.611 273.435ZM303.835 274.244C303.394 274.244 303.155 273.985 303.155 273.518V271.96H302.739V271.586C302.994 271.576 303.155 271.389 303.155 271.124V270.771H303.601V271.586H304.084V271.96H303.601V273.414C303.601 273.72 303.69 273.85 303.902 273.85C303.991 273.85 304.074 273.829 304.141 273.788L304.328 274.115C304.203 274.187 304.043 274.244 303.835 274.244ZM305.597 274.244C305.052 274.244 304.616 273.917 304.616 273.435C304.616 272.952 305.062 272.625 305.727 272.625C305.94 272.625 306.142 272.656 306.334 272.718V272.474C306.334 272.178 306.07 271.96 305.717 271.96C305.421 271.96 305.239 272.074 305.135 272.292L304.73 272.147C304.855 271.773 305.249 271.524 305.691 271.524C306.282 271.524 306.765 271.929 306.765 272.412V274.182H306.402L306.319 273.897H306.277C306.189 274.13 305.966 274.244 305.597 274.244ZM305.052 273.435C305.052 273.705 305.306 273.839 305.633 273.839C306.012 273.839 306.334 273.637 306.334 273.362V273.113C306.147 273.04 305.914 272.998 305.706 272.998C305.28 272.998 305.052 273.154 305.052 273.435ZM308.374 274.182L309.801 270.548H310.346L311.774 274.182H311.255L310.845 273.097H309.308L308.893 274.182H308.374ZM309.464 272.656H310.689L310.097 271.15H310.056L309.464 272.656ZM311.721 271.586H312.193L312.91 273.429H312.951L313.668 271.586H314.14L313.123 274.182H312.733L311.721 271.586ZM315.306 274.244C314.761 274.244 314.325 273.917 314.325 273.435C314.325 272.952 314.771 272.625 315.436 272.625C315.649 272.625 315.851 272.656 316.043 272.718V272.474C316.043 272.178 315.778 271.96 315.425 271.96C315.13 271.96 314.948 272.074 314.844 272.292L314.439 272.147C314.564 271.773 314.958 271.524 315.399 271.524C315.991 271.524 316.474 271.929 316.474 272.412V274.182H316.111L316.028 273.897H315.986C315.898 274.13 315.675 274.244 315.306 274.244ZM314.761 273.435C314.761 273.705 315.015 273.839 315.342 273.839C315.721 273.839 316.043 273.637 316.043 273.362V273.113C315.856 273.04 315.623 272.998 315.415 272.998C314.989 272.998 314.761 273.154 314.761 273.435ZM317.448 271.088C317.282 271.088 317.147 270.953 317.147 270.787C317.147 270.621 317.282 270.486 317.448 270.486C317.614 270.486 317.749 270.621 317.749 270.787C317.749 270.953 317.614 271.088 317.448 271.088ZM317.225 271.586H317.671V274.182H317.225V271.586ZM318.476 270.486H318.923V274.182H318.476V270.486ZM320.503 274.244C319.958 274.244 319.521 273.917 319.521 273.435C319.521 272.952 319.968 272.625 320.632 272.625C320.845 272.625 321.048 272.656 321.24 272.718V272.474C321.24 272.178 320.975 271.96 320.622 271.96C320.326 271.96 320.144 272.074 320.041 272.292L319.636 272.147C319.76 271.773 320.155 271.524 320.596 271.524C321.188 271.524 321.671 271.929 321.671 272.412V274.182H321.307L321.224 273.897H321.183C321.095 274.13 320.871 274.244 320.503 274.244ZM319.958 273.435C319.958 273.705 320.212 273.839 320.539 273.839C320.918 273.839 321.24 273.637 321.24 273.362V273.113C321.053 273.04 320.819 272.998 320.612 272.998C320.186 272.998 319.958 273.154 319.958 273.435ZM322.395 274.182V270.486H322.842V272.007C322.909 271.732 323.345 271.524 323.678 271.524C324.378 271.524 324.882 272.09 324.882 272.884C324.882 273.679 324.378 274.244 323.678 274.244C323.345 274.244 323.023 274.109 322.883 273.897H322.842L322.759 274.182H322.395ZM323.626 273.824C324.098 273.824 324.436 273.44 324.436 272.884C324.436 272.329 324.098 271.945 323.626 271.945C323.158 271.945 322.842 272.318 322.842 272.884C322.842 273.45 323.158 273.824 323.626 273.824ZM325.702 271.088C325.536 271.088 325.401 270.953 325.401 270.787C325.401 270.621 325.536 270.486 325.702 270.486C325.868 270.486 326.003 270.621 326.003 270.787C326.003 270.953 325.868 271.088 325.702 271.088ZM325.478 271.586H325.925V274.182H325.478V271.586ZM326.73 270.486H327.177V274.182H326.73V270.486ZM328.206 271.088C328.04 271.088 327.905 270.953 327.905 270.787C327.905 270.621 328.04 270.486 328.206 270.486C328.372 270.486 328.507 270.621 328.507 270.787C328.507 270.953 328.372 271.088 328.206 271.088ZM327.983 271.586H328.429V274.182H327.983V271.586ZM330.122 274.244C329.681 274.244 329.442 273.985 329.442 273.518V271.96H329.027V271.586C329.281 271.576 329.442 271.389 329.442 271.124V270.771H329.889V271.586H330.372V271.96H329.889V273.414C329.889 273.72 329.977 273.85 330.19 273.85C330.278 273.85 330.361 273.829 330.429 273.788L330.616 274.115C330.491 274.187 330.33 274.244 330.122 274.244ZM332.26 274.571C332.135 274.945 332 275.283 331.471 275.283C331.237 275.283 331.06 275.189 330.915 274.987L331.19 274.758C331.232 274.81 331.325 274.93 331.455 274.93C331.689 274.93 331.772 274.748 331.959 274.182H331.652L330.775 271.586H331.252L332 273.798H332.042L332.789 271.586H333.262L332.26 274.571Z" fill="black"/>
<path d="M304.107 284.182V278.991H305.961C306.762 278.991 307.4 279.665 307.4 280.415C307.4 280.867 307.288 281.334 306.732 281.557V281.616C307.222 281.794 307.541 282.283 307.541 282.884C307.541 283.67 306.984 284.182 306.22 284.182H304.107ZM304.871 281.245H305.813C306.265 281.245 306.606 280.919 306.606 280.489C306.606 280.044 306.272 279.725 305.813 279.725H304.871V281.245ZM304.871 283.448H305.946C306.398 283.448 306.74 283.122 306.74 282.677C306.74 282.239 306.406 281.927 305.946 281.927H304.871V283.448ZM308.786 279.858C308.526 279.858 308.311 279.643 308.311 279.384C308.311 279.117 308.526 278.902 308.786 278.902C309.053 278.902 309.268 279.117 309.268 279.384C309.268 279.643 309.053 279.858 308.786 279.858ZM308.423 280.474H309.157V284.182H308.423V280.474ZM311.574 284.271C310.921 284.271 310.558 283.878 310.558 283.181V281.104H309.965V280.474C310.343 280.459 310.558 280.229 310.558 279.866V279.309H311.292V280.474H311.982V281.104H311.292V283.033C311.292 283.448 311.403 283.611 311.67 283.611C311.811 283.611 311.937 283.567 312.026 283.492L312.345 284.056C312.138 284.19 311.886 284.271 311.574 284.271ZM316.109 283.136C315.827 283.841 315.219 284.271 314.433 284.271C313.358 284.271 312.601 283.455 312.601 282.321C312.601 281.186 313.365 280.385 314.433 280.385C315.219 280.385 315.835 280.808 316.109 281.505L315.412 281.749C315.241 281.349 314.9 281.127 314.433 281.127C313.758 281.127 313.335 281.594 313.335 282.321C313.335 283.04 313.765 283.522 314.433 283.522C314.893 283.522 315.234 283.3 315.412 282.899L316.109 283.136ZM318.496 284.271C317.413 284.271 316.657 283.448 316.657 282.335C316.657 281.216 317.413 280.392 318.496 280.392C319.594 280.392 320.35 281.216 320.35 282.335C320.35 283.448 319.594 284.271 318.496 284.271ZM318.496 283.529C319.186 283.529 319.609 283.04 319.609 282.335C319.609 281.623 319.186 281.134 318.496 281.134C317.821 281.134 317.391 281.623 317.399 282.335C317.399 283.04 317.821 283.529 318.496 283.529ZM321.519 279.858C321.259 279.858 321.044 279.643 321.044 279.384C321.044 279.117 321.259 278.902 321.519 278.902C321.786 278.902 322.001 279.117 322.001 279.384C322.001 279.643 321.786 279.858 321.519 279.858ZM321.155 280.474H321.89V284.182H321.155V280.474ZM323.528 280.474L323.624 280.83H323.691C323.817 280.622 324.099 280.385 324.589 280.385C325.449 280.385 325.99 280.993 325.99 281.957V284.182H325.256V282.254C325.256 281.453 324.997 281.045 324.485 281.045C323.936 281.045 323.654 281.408 323.654 282.105V284.182H322.92V280.474H323.528Z" fill="black"/>
<rect x="141.762" y="235.303" width="235.476" height="64.8578" rx="4.07911" stroke="#FF4747" stroke-width="0.741656" stroke-dasharray="2.97 2.97"/>
</svg>
