<svg width="316" height="401" viewBox="0 0 316 401" fill="none" xmlns="http://www.w3.org/2000/svg">
<rect x="1.34991" y="1.11797" width="313.968" height="86.4771" rx="5.43881" fill="#B1E3FF" fill-opacity="0.2"/>
<path d="M127.973 19.8215H130.554V23.4902H129.565L129.357 22.8475H129.258C129.031 23.1342 128.526 23.6089 127.448 23.6089C125.431 23.6089 123.987 22.0663 123.987 20.0292C123.987 17.9921 125.431 16.4494 127.448 16.4494C129.001 16.4494 130.217 17.3197 130.692 18.7832L129.486 19.1886C129.169 18.1998 128.427 17.6361 127.448 17.6361C126.173 17.6361 125.273 18.6645 125.273 20.0292C125.273 21.3938 126.173 22.4222 127.448 22.4222C128.467 22.4222 129.278 21.819 129.357 21.0082H127.973V19.8215ZM134.942 23.6089C132.925 23.6089 131.481 22.0663 131.481 20.0292C131.481 17.9921 132.925 16.4494 134.942 16.4494C136.96 16.4494 138.403 17.9921 138.403 20.0292C138.403 22.0663 136.96 23.6089 134.942 23.6089ZM134.942 22.3234C136.228 22.3234 137.118 21.3543 137.118 20.0292C137.118 18.7041 136.228 17.735 134.942 17.735C133.657 17.735 132.767 18.7041 132.767 20.0292C132.767 21.3543 133.657 22.3234 134.942 22.3234ZM142.675 23.4902H141.38L138.502 16.5681H139.906L141.983 21.6015H142.082L144.149 16.5681H145.553L142.675 23.4902ZM147.532 17.7548V19.5743H150.281V20.7609H147.532V22.3036H150.578V23.4902H146.246V16.5681H150.597V17.7548H147.532ZM153.083 23.4902H151.886V16.5681H154.685C155.901 16.5681 156.791 17.4581 156.791 18.6744C156.791 19.5743 156.277 20.3357 155.456 20.6423L157.196 23.4902H155.812L154.17 20.7807H153.083V23.4902ZM154.655 19.6336C155.238 19.6336 155.644 19.248 155.644 18.6744C155.644 18.1009 155.238 17.7152 154.655 17.7152H153.083V19.6336H154.655ZM159.567 18.5656H159.468V23.4902H158.182V16.5681H159.666L163.156 21.4927H163.255V16.5681H164.541V23.4902H163.058L159.567 18.5656ZM165.233 23.4902L168.11 16.5582H169.406L172.283 23.4902H170.879L170.098 21.6114H167.428L166.637 23.4902H165.233ZM167.883 20.3753H169.643L168.812 18.3777H168.714L167.883 20.3753ZM174.361 18.5656H174.262V23.4902H172.977V16.5681H174.46L177.951 21.4927H178.05V16.5681H179.335V23.4902H177.852L174.361 18.5656ZM183.864 23.6089C181.837 23.6089 180.373 22.0564 180.373 20.0292C180.373 18.002 181.837 16.4494 183.864 16.4494C185.436 16.4494 186.682 17.3493 187.137 18.8326L185.881 19.2578C185.585 18.269 184.843 17.6954 183.864 17.6954C182.608 17.6954 181.718 18.7041 181.718 20.0292C181.718 21.3543 182.608 22.3629 183.864 22.3629C184.843 22.3629 185.585 21.7894 185.881 20.8005L187.137 21.2158C186.672 22.709 185.436 23.6089 183.864 23.6089ZM189.414 17.7548V19.5743H192.163V20.7609H189.414V22.3036H192.46V23.4902H188.129V16.5681H192.48V17.7548H189.414Z" fill="black"/>
<rect x="20.1387" y="39.3564" width="128.554" height="36.8665" rx="1.97775" fill="#B1E3FF"/>
<path d="M77.3149 52.2896V47.9978H75.7713V47.4441H79.4815V47.9978H77.9379V52.2896H77.3149ZM80.7763 52.3726C79.7795 52.3726 79.1012 51.6112 79.1012 50.5659C79.1012 49.5138 79.7795 48.7523 80.7763 48.7523C81.78 48.7523 82.4584 49.5138 82.4584 50.5659C82.4584 51.6112 81.78 52.3726 80.7763 52.3726ZM80.7763 51.7773C81.4478 51.7773 81.8562 51.2858 81.8562 50.5659C81.8562 49.8391 81.4478 49.3546 80.7763 49.3546C80.1118 49.3546 79.6965 49.8391 79.7034 50.5659C79.7034 51.2858 80.1118 51.7773 80.7763 51.7773ZM84.9413 48.8285H85.6889L84.6367 50.1921V50.2544L85.8619 52.2896H85.1351L84.256 50.829H84.2075L83.813 51.3412V52.2896H83.2177V47.361H83.813V50.2475H83.8407L84.9413 48.8285ZM86.7128 50.7182C86.7751 51.3828 87.1765 51.805 87.7234 51.805C88.1318 51.805 88.471 51.5973 88.6371 51.2443L89.1701 51.4312C88.914 52.0196 88.3671 52.3726 87.7234 52.3726C86.7958 52.3726 86.1382 51.6043 86.1382 50.5383C86.1382 49.4999 86.8027 48.7454 87.7234 48.7454C88.6371 48.7454 89.2947 49.4792 89.3086 50.5036V50.7182H86.7128ZM87.7234 49.313C87.2042 49.313 86.8166 49.6799 86.7266 50.2683H88.7202C88.6302 49.6799 88.2425 49.313 87.7234 49.313ZM90.4537 48.8285L90.5506 49.1746H90.606C90.7237 48.9808 91.0006 48.7454 91.4851 48.7454C92.2604 48.7454 92.745 49.2923 92.745 50.1645V52.2896H92.1497V50.4413C92.1497 49.673 91.8935 49.2715 91.3882 49.2715C90.8483 49.2715 90.5645 49.6315 90.5645 50.3029V52.2896H89.9692V48.8285H90.4537Z" fill="black"/>
<path d="M75.8899 60.8112H75.8009V66.2896H74.7824V59.3674H76.0679L79.7663 64.8458H79.8553V59.3674H80.8738V66.2896H79.5883L75.8899 60.8112ZM85.4254 66.4082C83.4674 66.4082 82.1028 64.8952 82.1028 62.8285C82.1028 60.7617 83.4674 59.2488 85.4254 59.2488C87.3932 59.2488 88.7579 60.7617 88.7579 62.8285C88.7579 64.8952 87.3932 66.4082 85.4254 66.4082ZM85.4254 65.3897C86.8098 65.3897 87.7393 64.3316 87.7393 62.8285C87.7393 61.3254 86.8098 60.2673 85.4254 60.2673C84.041 60.2673 83.1213 61.3254 83.1213 62.8285C83.1213 64.3316 84.041 65.3897 85.4254 65.3897ZM90.3518 64.292C90.5101 65.093 91.0539 65.4886 91.9637 65.4886C92.913 65.4886 93.536 65.0831 93.536 64.47C93.536 63.8767 92.9625 63.4515 91.7264 63.1251C90.1936 62.7197 89.5508 62.1165 89.5508 61.1177C89.5508 59.9311 90.4309 59.2488 91.9637 59.2488C93.3283 59.2488 94.1788 59.8322 94.4161 60.9298L93.4272 61.187C93.2295 60.4849 92.7746 60.1684 91.9637 60.1684C91.0935 60.1684 90.5595 60.5343 90.5595 61.1177C90.5595 61.6517 91.0144 61.9978 92.1812 62.3439C93.8524 62.8186 94.5447 63.4515 94.5447 64.4997C94.5447 65.6863 93.5953 66.4082 92.0131 66.4082C90.5298 66.4082 89.5212 65.6863 89.3432 64.4799L90.3518 64.292Z" fill="black"/>
<path d="M227.185 47.4441C228.611 47.4441 229.538 48.427 229.538 49.8668C229.538 51.3066 228.611 52.2896 227.185 52.2896H225.731V47.4441H227.185ZM227.157 51.6942C228.14 51.6942 228.915 50.9259 228.915 49.8668C228.915 48.8077 228.14 48.0394 227.157 48.0394H226.354V51.6942H227.157ZM229.742 52.2896L231.646 47.4441H232.372L234.276 52.2896H233.584L233.037 50.8428H230.988L230.434 52.2896H229.742ZM231.196 50.2544H232.829L232.04 48.247H231.985L231.196 50.2544ZM236.697 52.3726C235.34 52.3726 234.413 51.3274 234.413 49.8668C234.413 48.4062 235.34 47.361 236.697 47.361C238.054 47.361 238.981 48.4062 238.981 49.8668C238.981 51.3274 238.054 52.3726 236.697 52.3726ZM236.697 51.7496C237.701 51.7496 238.358 50.9813 238.358 49.8668C238.358 48.7523 237.701 47.984 236.697 47.984C235.693 47.984 235.036 48.7523 235.036 49.8668C235.036 50.9813 235.693 51.7496 236.697 51.7496Z" fill="black"/>
<path d="M195.322 63.6888C195.322 65.3205 194.274 66.4082 192.632 66.4082C191 66.4082 189.952 65.3205 189.952 63.6888V59.3674H190.971V63.491C190.971 64.7271 191.564 65.4193 192.632 65.4193C193.71 65.4193 194.303 64.7271 194.303 63.491V59.3674H195.322V63.6888ZM197.453 61.3452L197.582 61.8198H197.671C197.839 61.5429 198.215 61.2265 198.867 61.2265C200.014 61.2265 200.736 62.0374 200.736 63.3229V66.2896H199.757V63.7185C199.757 62.6505 199.411 62.1066 198.729 62.1066C197.997 62.1066 197.621 62.5912 197.621 63.5207V66.2896H196.642V61.3452H197.453ZM206.435 66.2896H205.624L205.466 65.7358H205.377C205.13 66.1313 204.556 66.4082 203.923 66.4082C202.559 66.4082 201.57 65.3106 201.57 63.8174C201.57 62.3242 202.559 61.2265 203.923 61.2265C204.556 61.2265 205.288 61.5825 205.456 62.0275V59.2488H206.435V66.2896ZM204.022 65.5083C204.873 65.5083 205.456 64.826 205.456 63.8371C205.456 62.8384 204.873 62.1561 204.022 62.1561C203.162 62.1561 202.549 62.8582 202.549 63.8371C202.549 64.8062 203.162 65.5083 204.022 65.5083ZM208.42 64.0942C208.519 64.9447 209.073 65.4688 209.785 65.4688C210.368 65.4688 210.823 65.1919 211.05 64.6876L211.94 64.9941C211.584 65.894 210.754 66.4082 209.785 66.4082C208.43 66.4082 207.461 65.2908 207.461 63.7877C207.461 62.3242 208.44 61.2265 209.785 61.2265C211.129 61.2265 212.099 62.3044 212.118 63.758V64.0942H208.42ZM209.785 62.1659C209.102 62.1659 208.588 62.6307 208.45 63.3526H211.129C210.991 62.6307 210.467 62.1659 209.785 62.1659ZM213.001 66.2896V61.3452H213.812L213.941 61.8198H214.03C214.188 61.5528 214.554 61.2265 215.226 61.2265C215.315 61.2265 215.394 61.2364 215.463 61.2562V62.1561C215.355 62.1264 215.226 62.1066 215.088 62.1066C214.356 62.1066 213.98 62.5912 213.98 63.5207V66.2896H213.001ZM223.171 66.2896H222.36L222.202 65.7358H222.113C221.865 66.1313 221.292 66.4082 220.659 66.4082C219.294 66.4082 218.306 65.3106 218.306 63.8174C218.306 62.3242 219.294 61.2265 220.659 61.2265C221.292 61.2265 222.024 61.5825 222.192 62.0275V59.2488H223.171V66.2896ZM220.758 65.5083C221.608 65.5083 222.192 64.826 222.192 63.8371C222.192 62.8384 221.608 62.1561 220.758 62.1561C219.898 62.1561 219.285 62.8582 219.285 63.8371C219.285 64.8062 219.898 65.5083 220.758 65.5083ZM225.155 64.0942C225.254 64.9447 225.808 65.4688 226.52 65.4688C227.104 65.4688 227.558 65.1919 227.786 64.6876L228.676 64.9941C228.32 65.894 227.489 66.4082 226.52 66.4082C225.165 66.4082 224.196 65.2908 224.196 63.7877C224.196 62.3242 225.175 61.2265 226.52 61.2265C227.865 61.2265 228.834 62.3044 228.854 63.758V64.0942H225.155ZM226.52 62.1659C225.838 62.1659 225.324 62.6307 225.185 63.3526H227.865C227.727 62.6307 227.202 62.1659 226.52 62.1659ZM229.242 61.3452H230.281L231.596 64.648H231.685L233 61.3452H234.038L232.051 66.2896H231.22L229.242 61.3452ZM235.334 64.0942C235.433 64.9447 235.987 65.4688 236.699 65.4688C237.282 65.4688 237.737 65.1919 237.964 64.6876L238.854 64.9941C238.498 65.894 237.668 66.4082 236.699 66.4082C235.344 66.4082 234.375 65.2908 234.375 63.7877C234.375 62.3242 235.354 61.2265 236.699 61.2265C238.043 61.2265 239.013 62.3044 239.032 63.758V64.0942H235.334ZM236.699 62.1659C236.016 62.1659 235.502 62.6307 235.364 63.3526H238.043C237.905 62.6307 237.381 62.1659 236.699 62.1659ZM240.014 59.2488H240.993V66.2896H240.014V59.2488ZM244.475 66.4082C243.032 66.4082 242.023 65.3106 242.023 63.8273C242.023 62.334 243.032 61.2364 244.475 61.2364C245.939 61.2364 246.948 62.334 246.948 63.8273C246.948 65.3106 245.939 66.4082 244.475 66.4082ZM244.475 65.4193C245.395 65.4193 245.959 64.7667 245.959 63.8273C245.959 62.8779 245.395 62.2253 244.475 62.2253C243.576 62.2253 243.002 62.8779 243.012 63.8273C243.012 64.7667 243.576 65.4193 244.475 65.4193ZM247.971 61.3452H248.782L248.94 61.8989H249.029C249.277 61.5034 249.85 61.2265 250.473 61.2265C251.838 61.2265 252.837 62.3242 252.837 63.8174C252.837 65.3106 251.838 66.4082 250.473 66.4082C249.84 66.4082 249.118 66.0522 248.95 65.6072V68.2673H247.971V61.3452ZM250.374 62.1264C249.524 62.1264 248.95 62.8087 248.95 63.7976C248.95 64.7963 249.524 65.4787 250.374 65.4787C251.245 65.4787 251.858 64.7766 251.858 63.7976C251.858 62.8285 251.245 62.1264 250.374 62.1264ZM258.856 61.2265C259.964 61.2265 260.577 61.9781 260.577 63.3229V66.2896H259.598V63.7185C259.598 62.7296 259.4 62.1066 258.668 62.1066C257.897 62.1066 257.659 62.6703 257.659 63.5207V66.2896H256.68V63.7185C256.68 62.7296 256.483 62.1066 255.751 62.1066C254.98 62.1066 254.742 62.6703 254.742 63.5207V66.2896H253.763V61.3452H254.574L254.693 61.8198H254.782C254.92 61.5133 255.306 61.2265 255.899 61.2265C256.582 61.2265 256.967 61.5232 257.214 62.0868H257.303C257.58 61.5429 258.174 61.2265 258.856 61.2265ZM262.364 64.0942C262.463 64.9447 263.017 65.4688 263.728 65.4688C264.312 65.4688 264.767 65.1919 264.994 64.6876L265.884 64.9941C265.528 65.894 264.698 66.4082 263.728 66.4082C262.374 66.4082 261.405 65.2908 261.405 63.7877C261.405 62.3242 262.384 61.2265 263.728 61.2265C265.073 61.2265 266.042 62.3044 266.062 63.758V64.0942H262.364ZM263.728 62.1659C263.046 62.1659 262.532 62.6307 262.394 63.3526H265.073C264.935 62.6307 264.411 62.1659 263.728 62.1659ZM267.756 61.3452L267.884 61.8198H267.973C268.142 61.5429 268.517 61.2265 269.17 61.2265C270.317 61.2265 271.039 62.0374 271.039 63.3229V66.2896H270.06V63.7185C270.06 62.6505 269.714 62.1066 269.032 62.1066C268.3 62.1066 267.924 62.5912 267.924 63.5207V66.2896H266.945V61.3452H267.756ZM274.019 66.4082C273.148 66.4082 272.664 65.8841 272.664 64.9546V62.1857H271.873V61.3452C272.377 61.3254 272.664 61.0188 272.664 60.5343V59.7926H273.643V61.3452H274.563V62.1857H273.643V64.7568C273.643 65.3106 273.791 65.5281 274.147 65.5281C274.335 65.5281 274.503 65.4688 274.622 65.3699L275.047 66.1214C274.77 66.2994 274.434 66.4082 274.019 66.4082Z" fill="black"/>
<rect x="168.223" y="39.6037" width="128.059" height="36.3721" rx="1.73053" stroke="#4185EC" stroke-width="0.494438" stroke-dasharray="1.98 1.98"/>
<rect x="1.34991" y="1.11797" width="313.968" height="86.4771" rx="5.43881" stroke="#4185EC" stroke-width="0.988875" stroke-dasharray="3.96 3.96"/>
<rect x="1.34991" y="108.362" width="313.968" height="183.943" rx="5.43881" fill="#8CC34A" fill-opacity="0.2"/>
<path d="M144.962 129.547V130.734H140.433V123.812H141.718V129.547H144.962ZM145.359 130.734L148.236 123.802H149.532L152.409 130.734H151.005L150.224 128.855H147.554L146.763 130.734H145.359ZM148.009 127.619H149.769L148.938 125.621H148.84L148.009 127.619ZM153.987 127.817L151.723 123.812H153.156L154.59 126.343H154.689L156.182 123.812H157.616L155.273 127.817V130.734H153.987V127.817ZM159.593 124.998V126.818H162.343V128.005H159.593V129.547H162.639V130.734H158.308V123.812H162.659V124.998H159.593ZM165.144 130.734H163.948V123.812H166.746C167.962 123.812 168.852 124.702 168.852 125.918C168.852 126.818 168.338 127.579 167.517 127.886L169.258 130.734H167.873L166.232 128.024H165.144V130.734ZM166.716 126.877C167.3 126.877 167.705 126.492 167.705 125.918C167.705 125.345 167.3 124.959 166.716 124.959H165.144V126.877H166.716ZM174.78 128.499C174.068 128.895 173.514 129.043 173.416 129.597H176.481V130.734H172.12V130.101C172.12 128.697 173.099 128.094 173.9 127.688C174.701 127.283 175.285 126.937 175.285 126.403C175.285 125.849 174.948 125.513 174.414 125.513C173.574 125.513 173.297 126.284 173.376 126.749H172.14C172.031 125.859 172.773 124.316 174.404 124.316C175.69 124.316 176.53 125.107 176.53 126.353C176.53 127.451 175.512 128.094 174.78 128.499Z" fill="black"/>
<rect x="20.1387" y="146.6" width="128.554" height="36.8665" rx="1.97775" fill="#BAEDBD"/>
<path d="M73.8433 159.533V154.688H75.5254C76.1484 154.688 76.8337 155.235 76.8337 155.982C76.8337 156.377 76.7714 156.854 76.2176 157.083V157.138C76.6814 157.311 76.9583 157.747 76.9583 158.322C76.9583 159.028 76.4599 159.533 75.7746 159.533H73.8433ZM74.4663 156.813H75.3939C75.8369 156.813 76.1761 156.487 76.1761 156.051C76.1761 155.601 75.8507 155.283 75.3939 155.283H74.4663V156.813ZM74.4663 158.938H75.5185C75.9615 158.938 76.3007 158.613 76.3007 158.163C76.3007 157.727 75.9753 157.408 75.5185 157.408H74.4663V158.938ZM77.7203 159.533V156.072H78.2048L78.3017 156.418H78.3571C78.4679 156.238 78.7309 155.989 79.2362 155.989C79.2777 155.989 79.3193 155.989 79.3539 155.996V156.536C79.2916 156.522 79.2224 156.515 79.1393 156.515C78.5994 156.515 78.3156 156.875 78.3156 157.547V159.533H77.7203ZM80.3795 155.408C80.158 155.408 79.9781 155.228 79.9781 155.006C79.9781 154.785 80.158 154.605 80.3795 154.605C80.6011 154.605 80.781 154.785 80.781 155.006C80.781 155.228 80.6011 155.408 80.3795 155.408ZM80.0819 156.072H80.6772V159.533H80.0819V156.072ZM84.7896 159.533H84.305L84.1943 159.152H84.1389C83.952 159.436 83.5228 159.616 83.0798 159.616C82.1453 159.616 81.4739 158.862 81.4739 157.803C81.4739 156.744 82.1453 155.989 83.0798 155.989C83.5228 155.989 84.1043 156.266 84.1943 156.633V154.605H84.7896V159.533ZM83.149 159.056C83.772 159.056 84.1943 158.557 84.1943 157.803C84.1943 157.048 83.772 156.55 83.149 156.55C82.5191 156.55 82.0692 157.062 82.0692 157.803C82.0692 158.543 82.5191 159.056 83.149 159.056ZM88.5682 159.976C88.5682 160.585 87.9798 161.001 87.1284 161.001C86.2769 161.001 85.6885 160.585 85.6885 159.976C85.6885 159.63 85.8339 159.332 86.097 159.146C85.8962 159.021 85.7924 158.827 85.7924 158.606C85.7924 158.35 85.9447 158.142 86.2008 158.038C85.9724 157.823 85.827 157.526 85.827 157.187C85.827 156.494 86.3808 155.989 87.1284 155.989C87.3222 155.989 87.5091 156.024 87.6683 156.086C88.0144 156.038 88.3951 155.864 88.4643 155.837L88.6789 156.273C88.5266 156.356 88.3605 156.425 88.1874 156.467C88.3397 156.661 88.4297 156.91 88.4297 157.187C88.4297 157.886 87.8759 158.384 87.1145 158.384C86.8792 158.384 86.6784 158.336 86.4984 158.246C86.3808 158.287 86.3185 158.384 86.3185 158.536C86.3185 158.876 86.6438 158.883 86.8999 158.883C87.9036 158.883 88.5682 159.159 88.5682 159.976ZM87.1284 156.515C86.7061 156.515 86.4223 156.785 86.4223 157.187C86.4223 157.595 86.6923 157.858 87.1145 157.858C87.5506 157.858 87.8344 157.588 87.8344 157.187C87.8344 156.785 87.5506 156.515 87.1284 156.515ZM87.1284 160.475C87.6614 160.475 87.9729 160.274 87.9729 159.942C87.9729 159.602 87.6683 159.409 87.1284 159.409C86.5884 159.409 86.2839 159.602 86.2839 159.942C86.2839 160.274 86.5953 160.475 87.1284 160.475ZM89.6668 157.962C89.7291 158.626 90.1306 159.049 90.6775 159.049C91.0859 159.049 91.425 158.841 91.5912 158.488L92.1242 158.675C91.8681 159.263 91.3212 159.616 90.6775 159.616C89.7499 159.616 89.0923 158.848 89.0923 157.782C89.0923 156.744 89.7568 155.989 90.6775 155.989C91.5912 155.989 92.2488 156.723 92.2626 157.747V157.962H89.6668ZM90.6775 156.557C90.1583 156.557 89.7707 156.924 89.6807 157.512H91.6742C91.5843 156.924 91.1966 156.557 90.6775 156.557ZM93.2624 158.516C93.4009 158.855 93.5739 159.083 94.0308 159.083C94.4184 159.083 94.7715 158.938 94.7715 158.64C94.7715 158.308 94.4807 158.232 93.6432 157.962C93.0686 157.775 92.8125 157.457 92.8125 156.965C92.8125 156.377 93.2694 155.989 94.01 155.989C94.6953 155.989 95.076 156.273 95.2422 156.861L94.7369 157.027C94.6192 156.667 94.4184 156.515 94.0239 156.515C93.6085 156.515 93.3732 156.702 93.3732 156.979C93.3732 157.249 93.4839 157.36 93.7747 157.457C94.9722 157.837 95.3322 158.003 95.3322 158.64C95.3322 159.229 94.7784 159.616 94.0585 159.616C93.3455 159.616 92.8333 159.27 92.7156 158.682L93.2624 158.516Z" fill="black"/>
<path d="M52.4656 173.533V167.531H50.2604V166.611H55.6893V167.531H53.4841V173.533H52.4656ZM55.6811 173.533V168.589H56.4919L56.6205 169.063H56.7095C56.8677 168.796 57.2336 168.47 57.906 168.47C57.995 168.47 58.0741 168.48 58.1434 168.5V169.4C58.0346 169.37 57.906 169.35 57.7676 169.35C57.0358 169.35 56.66 169.835 56.66 170.764V173.533H55.6811ZM62.1583 173.533L62.0297 173.059H61.9407C61.7726 173.335 61.3869 173.652 60.7343 173.652C59.5872 173.652 58.8752 172.841 58.8752 171.555V168.589H59.8542V171.16C59.8542 172.228 60.1904 172.772 60.8727 172.772C61.6045 172.772 61.9902 172.287 61.9902 171.358V168.589H62.9691V173.533H62.1583ZM64.8314 171.951C64.9896 172.426 65.2072 172.762 65.8499 172.762C66.3938 172.762 66.8388 172.564 66.8388 172.188C66.8388 171.753 66.4729 171.664 65.2764 171.338C64.426 171.11 64.0403 170.665 64.0403 169.934C64.0403 169.054 64.7325 168.47 65.8203 168.47C66.8487 168.47 67.4222 168.905 67.6596 169.825L66.819 170.102C66.6509 169.558 66.3938 169.35 65.84 169.35C65.2863 169.35 64.9797 169.588 64.9797 169.953C64.9797 170.3 65.1083 170.438 65.5038 170.547C67.2442 171.031 67.7782 171.229 67.7782 172.188C67.7782 173.059 66.9674 173.652 65.8895 173.652C64.8215 173.652 64.0403 173.108 63.9019 172.218L64.8314 171.951ZM70.5479 173.652C69.6777 173.652 69.1931 173.128 69.1931 172.198V169.429H68.402V168.589C68.9063 168.569 69.1931 168.262 69.1931 167.778V167.036H70.1721V168.589H71.0917V169.429H70.1721V172C70.1721 172.554 70.3204 172.772 70.6764 172.772C70.8643 172.772 71.0324 172.712 71.1511 172.614L71.5763 173.365C71.2994 173.543 70.9632 173.652 70.5479 173.652ZM72.5058 166.492H73.4848V173.533H72.5058V166.492ZM75.4741 171.338C75.573 172.188 76.1267 172.712 76.8387 172.712C77.4222 172.712 77.8771 172.436 78.1045 171.931L78.9945 172.238C78.6385 173.138 77.8078 173.652 76.8387 173.652C75.484 173.652 74.5149 172.534 74.5149 171.031C74.5149 169.568 75.4939 168.47 76.8387 168.47C78.1836 168.47 79.1527 169.548 79.1725 171.002V171.338H75.4741ZM76.8387 169.41C76.1564 169.41 75.6422 169.874 75.5038 170.596H78.1836C78.0452 169.874 77.5211 169.41 76.8387 169.41ZM80.6882 171.951C80.8464 172.426 81.0639 172.762 81.7067 172.762C82.2506 172.762 82.6956 172.564 82.6956 172.188C82.6956 171.753 82.3297 171.664 81.1332 171.338C80.2827 171.11 79.8971 170.665 79.8971 169.934C79.8971 169.054 80.5893 168.47 81.677 168.47C82.7055 168.47 83.279 168.905 83.5163 169.825L82.6758 170.102C82.5077 169.558 82.2506 169.35 81.6968 169.35C81.143 169.35 80.8365 169.588 80.8365 169.953C80.8365 170.3 80.965 170.438 81.3606 170.547C83.101 171.031 83.635 171.229 83.635 172.188C83.635 173.059 82.8241 173.652 81.7463 173.652C80.6783 173.652 79.8971 173.108 79.7586 172.218L80.6882 171.951ZM85.1883 171.951C85.3465 172.426 85.5641 172.762 86.2069 172.762C86.7507 172.762 87.1957 172.564 87.1957 172.188C87.1957 171.753 86.8298 171.664 85.6333 171.338C84.7829 171.11 84.3972 170.665 84.3972 169.934C84.3972 169.054 85.0894 168.47 86.1772 168.47C87.2056 168.47 87.7792 168.905 88.0165 169.825L87.176 170.102C87.0078 169.558 86.7507 169.35 86.197 169.35C85.6432 169.35 85.3366 169.588 85.3366 169.953C85.3366 170.3 85.4652 170.438 85.8608 170.547C87.6012 171.031 88.1352 171.229 88.1352 172.188C88.1352 173.059 87.3243 173.652 86.2464 173.652C85.1784 173.652 84.3972 173.108 84.2588 172.218L85.1883 171.951ZM91.5614 173.533V166.611H94.0336C95.1016 166.611 95.952 167.511 95.952 168.51C95.952 169.113 95.8037 169.736 95.062 170.033V170.112C95.7147 170.349 96.1399 171.002 96.1399 171.803C96.1399 172.851 95.3982 173.533 94.3797 173.533H91.5614ZM92.5799 169.617H93.8358C94.439 169.617 94.8939 169.182 94.8939 168.609C94.8939 168.015 94.4489 167.59 93.8358 167.59H92.5799V169.617ZM92.5799 172.554H94.0138C94.617 172.554 95.0719 172.119 95.0719 171.526C95.0719 170.942 94.6269 170.527 94.0138 170.527H92.5799V172.554ZM97.1675 173.533V168.589H97.9783L98.1069 169.063H98.1959C98.3541 168.796 98.72 168.47 99.3924 168.47C99.4814 168.47 99.5605 168.48 99.6298 168.5V169.4C99.521 169.37 99.3924 169.35 99.254 169.35C98.5222 169.35 98.1464 169.835 98.1464 170.764V173.533H97.1675ZM101.093 167.768C100.747 167.768 100.46 167.481 100.46 167.135C100.46 166.779 100.747 166.492 101.093 166.492C101.449 166.492 101.736 166.779 101.736 167.135C101.736 167.481 101.449 167.768 101.093 167.768ZM100.609 168.589H101.588V173.533H100.609V168.589ZM107.53 173.533H106.719L106.561 172.979H106.472C106.225 173.375 105.651 173.652 105.019 173.652C103.654 173.652 102.665 172.554 102.665 171.061C102.665 169.568 103.654 168.47 105.019 168.47C105.651 168.47 106.383 168.826 106.551 169.271V166.492H107.53V173.533ZM105.117 172.752C105.968 172.752 106.551 172.07 106.551 171.081C106.551 170.082 105.968 169.4 105.117 169.4C104.257 169.4 103.644 170.102 103.644 171.081C103.644 172.05 104.257 172.752 105.117 172.752ZM112.996 174.117C112.996 175.026 112.126 175.63 110.87 175.63C109.614 175.63 108.754 175.026 108.754 174.117C108.754 173.632 108.941 173.227 109.297 172.95C109.04 172.762 108.902 172.495 108.902 172.198C108.902 171.872 109.05 171.555 109.446 171.377C109.139 171.071 108.951 170.656 108.951 170.201C108.951 169.202 109.772 168.47 110.87 168.47C111.147 168.47 111.414 168.52 111.651 168.599C112.116 168.559 112.561 168.371 112.808 168.272L113.184 168.955C112.986 169.063 112.749 169.162 112.491 169.232C112.689 169.499 112.798 169.835 112.798 170.201C112.798 171.209 111.977 171.941 110.86 171.941C110.524 171.941 110.237 171.872 109.98 171.753C109.822 171.813 109.752 171.941 109.752 172.129C109.752 172.554 110.237 172.574 110.652 172.574C112.106 172.574 112.996 173.009 112.996 174.117ZM110.87 169.321C110.306 169.321 109.93 169.677 109.93 170.201C109.93 170.735 110.286 171.081 110.86 171.081C111.443 171.081 111.819 170.725 111.819 170.201C111.819 169.677 111.443 169.321 110.87 169.321ZM110.87 174.779C111.601 174.779 112.017 174.522 112.017 174.087C112.017 173.642 111.611 173.385 110.87 173.385C110.138 173.385 109.733 173.642 109.733 174.087C109.733 174.522 110.148 174.779 110.87 174.779ZM114.672 171.338C114.771 172.188 115.324 172.712 116.036 172.712C116.62 172.712 117.075 172.436 117.302 171.931L118.192 172.238C117.836 173.138 117.006 173.652 116.036 173.652C114.682 173.652 113.713 172.534 113.713 171.031C113.713 169.568 114.692 168.47 116.036 168.47C117.381 168.47 118.35 169.548 118.37 171.002V171.338H114.672ZM116.036 169.41C115.354 169.41 114.84 169.874 114.701 170.596H117.381C117.243 169.874 116.719 169.41 116.036 169.41Z" fill="black"/>
<path d="M217.156 155.241V156.93H219.08V157.484H217.156V159.533H216.533V154.688H219.301V155.241H217.156ZM220.848 159.616C220.122 159.616 219.54 159.18 219.54 158.536C219.54 157.893 220.136 157.457 221.022 157.457C221.305 157.457 221.575 157.498 221.831 157.581V157.256C221.831 156.861 221.478 156.571 221.008 156.571C220.613 156.571 220.371 156.723 220.232 157.014L219.692 156.82C219.859 156.321 220.385 155.989 220.973 155.989C221.762 155.989 222.406 156.529 222.406 157.173V159.533H221.921L221.811 159.152H221.755C221.638 159.464 221.34 159.616 220.848 159.616ZM220.122 158.536C220.122 158.896 220.461 159.076 220.897 159.076C221.402 159.076 221.831 158.806 221.831 158.44V158.107C221.582 158.01 221.271 157.955 220.994 157.955C220.426 157.955 220.122 158.163 220.122 158.536ZM225.525 159.533L225.428 159.187H225.372C225.255 159.381 224.978 159.616 224.493 159.616C223.718 159.616 223.234 159.069 223.234 158.197V156.072H223.829V157.92C223.829 158.689 224.085 159.09 224.59 159.09C225.13 159.09 225.414 158.73 225.414 158.059V156.072H226.009V159.533H225.525ZM226.982 154.605H227.577V159.533H226.982V154.605ZM229.801 159.616C229.213 159.616 228.895 159.27 228.895 158.647V156.571H228.341V156.072C228.68 156.058 228.895 155.809 228.895 155.456V154.985H229.49V156.072H230.134V156.571H229.49V158.509C229.49 158.917 229.608 159.09 229.891 159.09C230.009 159.09 230.12 159.062 230.21 159.007L230.459 159.443C230.293 159.54 230.078 159.616 229.801 159.616ZM234.546 154.688C235.328 154.688 235.896 155.248 235.896 156.038C235.896 156.82 235.335 157.387 234.546 157.387H233.508V159.533H232.885V154.688H234.546ZM234.525 156.834C235.003 156.834 235.342 156.508 235.342 156.038C235.342 155.567 235.003 155.241 234.525 155.241H233.508V156.834H234.525ZM236.518 159.533V156.072H237.003L237.1 156.418H237.155C237.266 156.238 237.529 155.989 238.034 155.989C238.076 155.989 238.117 155.989 238.152 155.996V156.536C238.09 156.522 238.02 156.515 237.937 156.515C237.397 156.515 237.114 156.875 237.114 157.547V159.533H236.518ZM240.244 159.616C239.247 159.616 238.568 158.855 238.568 157.81C238.568 156.757 239.247 155.996 240.244 155.996C241.247 155.996 241.926 156.757 241.926 157.81C241.926 158.855 241.247 159.616 240.244 159.616ZM240.244 159.021C240.915 159.021 241.323 158.529 241.323 157.81C241.323 157.083 240.915 156.598 240.244 156.598C239.579 156.598 239.164 157.083 239.171 157.81C239.171 158.529 239.579 159.021 240.244 159.021ZM244.218 159.616C243.222 159.616 242.543 158.855 242.543 157.81C242.543 156.757 243.222 155.996 244.218 155.996C245.222 155.996 245.901 156.757 245.901 157.81C245.901 158.855 245.222 159.616 244.218 159.616ZM244.218 159.021C244.89 159.021 245.298 158.529 245.298 157.81C245.298 157.083 244.89 156.598 244.218 156.598C243.554 156.598 243.139 157.083 243.146 157.81C243.146 158.529 243.554 159.021 244.218 159.021ZM248.176 155.214C248.113 155.186 248.03 155.165 247.954 155.172C247.65 155.172 247.456 155.38 247.456 155.712V156.072H248.3V156.571H247.456V159.533H246.861V156.571H246.279V156.072H246.861V155.712C246.861 155.068 247.317 154.605 247.947 154.605C248.12 154.605 248.28 154.639 248.425 154.708L248.176 155.214Z" fill="black"/>
<path d="M195.322 170.932C195.322 172.564 194.274 173.652 192.632 173.652C191 173.652 189.952 172.564 189.952 170.932V166.611H190.971V170.735C190.971 171.971 191.564 172.663 192.632 172.663C193.71 172.663 194.303 171.971 194.303 170.735V166.611H195.322V170.932ZM197.453 168.589L197.582 169.063H197.671C197.839 168.787 198.215 168.47 198.867 168.47C200.014 168.47 200.736 169.281 200.736 170.567V173.533H199.757V170.962C199.757 169.894 199.411 169.35 198.729 169.35C197.997 169.35 197.621 169.835 197.621 170.764V173.533H196.642V168.589H197.453ZM206.435 173.533H205.624L205.466 172.979H205.377C205.13 173.375 204.556 173.652 203.923 173.652C202.559 173.652 201.57 172.554 201.57 171.061C201.57 169.568 202.559 168.47 203.923 168.47C204.556 168.47 205.288 168.826 205.456 169.271V166.492H206.435V173.533ZM204.022 172.752C204.873 172.752 205.456 172.07 205.456 171.081C205.456 170.082 204.873 169.4 204.022 169.4C203.162 169.4 202.549 170.102 202.549 171.081C202.549 172.05 203.162 172.752 204.022 172.752ZM208.42 171.338C208.519 172.188 209.073 172.712 209.785 172.712C210.368 172.712 210.823 172.436 211.05 171.931L211.94 172.238C211.584 173.138 210.754 173.652 209.785 173.652C208.43 173.652 207.461 172.534 207.461 171.031C207.461 169.568 208.44 168.47 209.785 168.47C211.129 168.47 212.099 169.548 212.118 171.002V171.338H208.42ZM209.785 169.41C209.102 169.41 208.588 169.874 208.45 170.596H211.129C210.991 169.874 210.467 169.41 209.785 169.41ZM213.001 173.533V168.589H213.812L213.941 169.063H214.03C214.188 168.796 214.554 168.47 215.226 168.47C215.315 168.47 215.394 168.48 215.463 168.5V169.4C215.355 169.37 215.226 169.35 215.088 169.35C214.356 169.35 213.98 169.835 213.98 170.764V173.533H213.001ZM223.171 173.533H222.36L222.202 172.979H222.113C221.865 173.375 221.292 173.652 220.659 173.652C219.294 173.652 218.306 172.554 218.306 171.061C218.306 169.568 219.294 168.47 220.659 168.47C221.292 168.47 222.024 168.826 222.192 169.271V166.492H223.171V173.533ZM220.758 172.752C221.608 172.752 222.192 172.07 222.192 171.081C222.192 170.082 221.608 169.4 220.758 169.4C219.898 169.4 219.285 170.102 219.285 171.081C219.285 172.05 219.898 172.752 220.758 172.752ZM225.155 171.338C225.254 172.188 225.808 172.712 226.52 172.712C227.104 172.712 227.558 172.436 227.786 171.931L228.676 172.238C228.32 173.138 227.489 173.652 226.52 173.652C225.165 173.652 224.196 172.534 224.196 171.031C224.196 169.568 225.175 168.47 226.52 168.47C227.865 168.47 228.834 169.548 228.854 171.002V171.338H225.155ZM226.52 169.41C225.838 169.41 225.324 169.874 225.185 170.596H227.865C227.727 169.874 227.202 169.41 226.52 169.41ZM229.242 168.589H230.281L231.596 171.892H231.685L233 168.589H234.038L232.051 173.533H231.22L229.242 168.589ZM235.334 171.338C235.433 172.188 235.987 172.712 236.699 172.712C237.282 172.712 237.737 172.436 237.964 171.931L238.854 172.238C238.498 173.138 237.668 173.652 236.699 173.652C235.344 173.652 234.375 172.534 234.375 171.031C234.375 169.568 235.354 168.47 236.699 168.47C238.043 168.47 239.013 169.548 239.032 171.002V171.338H235.334ZM236.699 169.41C236.016 169.41 235.502 169.874 235.364 170.596H238.043C237.905 169.874 237.381 169.41 236.699 169.41ZM240.014 166.492H240.993V173.533H240.014V166.492ZM244.475 173.652C243.032 173.652 242.023 172.554 242.023 171.071C242.023 169.578 243.032 168.48 244.475 168.48C245.939 168.48 246.948 169.578 246.948 171.071C246.948 172.554 245.939 173.652 244.475 173.652ZM244.475 172.663C245.395 172.663 245.959 172.01 245.959 171.071C245.959 170.122 245.395 169.469 244.475 169.469C243.576 169.469 243.002 170.122 243.012 171.071C243.012 172.01 243.576 172.663 244.475 172.663ZM247.971 168.589H248.782L248.94 169.143H249.029C249.277 168.747 249.85 168.47 250.473 168.47C251.838 168.47 252.837 169.568 252.837 171.061C252.837 172.554 251.838 173.652 250.473 173.652C249.84 173.652 249.118 173.296 248.95 172.851V175.511H247.971V168.589ZM250.374 169.37C249.524 169.37 248.95 170.052 248.95 171.041C248.95 172.04 249.524 172.722 250.374 172.722C251.245 172.722 251.858 172.02 251.858 171.041C251.858 170.072 251.245 169.37 250.374 169.37ZM258.856 168.47C259.964 168.47 260.577 169.222 260.577 170.567V173.533H259.598V170.962C259.598 169.973 259.4 169.35 258.668 169.35C257.897 169.35 257.659 169.914 257.659 170.764V173.533H256.68V170.962C256.68 169.973 256.483 169.35 255.751 169.35C254.98 169.35 254.742 169.914 254.742 170.764V173.533H253.763V168.589H254.574L254.693 169.063H254.782C254.92 168.757 255.306 168.47 255.899 168.47C256.582 168.47 256.967 168.767 257.214 169.33H257.303C257.58 168.787 258.174 168.47 258.856 168.47ZM262.364 171.338C262.463 172.188 263.017 172.712 263.728 172.712C264.312 172.712 264.767 172.436 264.994 171.931L265.884 172.238C265.528 173.138 264.698 173.652 263.728 173.652C262.374 173.652 261.405 172.534 261.405 171.031C261.405 169.568 262.384 168.47 263.728 168.47C265.073 168.47 266.042 169.548 266.062 171.002V171.338H262.364ZM263.728 169.41C263.046 169.41 262.532 169.874 262.394 170.596H265.073C264.935 169.874 264.411 169.41 263.728 169.41ZM267.756 168.589L267.884 169.063H267.973C268.142 168.787 268.517 168.47 269.17 168.47C270.317 168.47 271.039 169.281 271.039 170.567V173.533H270.06V170.962C270.06 169.894 269.714 169.35 269.032 169.35C268.3 169.35 267.924 169.835 267.924 170.764V173.533H266.945V168.589H267.756ZM274.019 173.652C273.148 173.652 272.664 173.128 272.664 172.198V169.429H271.873V168.589C272.377 168.569 272.664 168.262 272.664 167.778V167.036H273.643V168.589H274.563V169.429H273.643V172C273.643 172.554 273.791 172.772 274.147 172.772C274.335 172.772 274.503 172.712 274.622 172.614L275.047 173.365C274.77 173.543 274.434 173.652 274.019 173.652Z" fill="black"/>
<rect x="168.223" y="146.847" width="128.059" height="36.3721" rx="1.73053" stroke="#00AA6C" stroke-width="0.494438" stroke-dasharray="1.98 1.98"/>
<rect x="20.1387" y="195.333" width="128.554" height="36.8665" rx="1.97775" fill="#BAEDBD"/>
<path d="M68.7426 206.882C68.8741 207.498 69.2617 207.795 69.9262 207.795C70.6115 207.795 71.0753 207.491 71.0753 207.041C71.0753 206.591 70.6531 206.259 69.767 205.996C68.7218 205.684 68.2788 205.262 68.2788 204.597C68.2788 203.808 68.8948 203.338 69.9262 203.338C70.8607 203.338 71.463 203.753 71.6083 204.507L71.0061 204.667C70.8538 204.134 70.5215 203.891 69.9262 203.891C69.2963 203.891 68.8879 204.168 68.8879 204.597C68.8879 204.985 69.2271 205.255 70.0647 205.532C71.2207 205.906 71.6845 206.349 71.6845 207.062C71.6845 207.851 71.0269 208.349 69.9678 208.349C68.9571 208.349 68.2442 207.83 68.1265 206.999L68.7426 206.882ZM72.7434 206.695C72.8057 207.359 73.2072 207.782 73.7541 207.782C74.1625 207.782 74.5017 207.574 74.6678 207.221L75.2008 207.408C74.9447 207.996 74.3978 208.349 73.7541 208.349C72.8265 208.349 72.1689 207.581 72.1689 206.515C72.1689 205.476 72.8334 204.722 73.7541 204.722C74.6678 204.722 75.3254 205.456 75.3392 206.48V206.695H72.7434ZM73.7541 205.29C73.2349 205.29 72.8473 205.656 72.7573 206.245H74.7509C74.6609 205.656 74.2732 205.29 73.7541 205.29ZM77.2528 208.349C76.6644 208.349 76.346 208.003 76.346 207.38V205.303H75.7922V204.805C76.1314 204.791 76.346 204.542 76.346 204.189V203.718H76.9413V204.805H77.585V205.303H76.9413V207.242C76.9413 207.65 77.059 207.823 77.3428 207.823C77.4604 207.823 77.5712 207.795 77.6612 207.74L77.9104 208.176C77.7442 208.273 77.5297 208.349 77.2528 208.349ZM79.5782 208.349C78.9898 208.349 78.6714 208.003 78.6714 207.38V205.303H78.1176V204.805C78.4568 204.791 78.6714 204.542 78.6714 204.189V203.718H79.2667V204.805H79.9104V205.303H79.2667V207.242C79.2667 207.65 79.3844 207.823 79.6682 207.823C79.7858 207.823 79.8966 207.795 79.9866 207.74L80.2358 208.176C80.0696 208.273 79.8551 208.349 79.5782 208.349ZM80.9295 203.338H81.5248V208.266H80.9295V203.338ZM82.863 206.695C82.9253 207.359 83.3268 207.782 83.8736 207.782C84.282 207.782 84.6212 207.574 84.7873 207.221L85.3204 207.408C85.0642 207.996 84.5174 208.349 83.8736 208.349C82.9461 208.349 82.2885 207.581 82.2885 206.515C82.2885 205.476 82.953 204.722 83.8736 204.722C84.7873 204.722 85.4449 205.456 85.4588 206.48V206.695H82.863ZM83.8736 205.29C83.3545 205.29 82.9668 205.656 82.8768 206.245H84.8704C84.7804 205.656 84.3928 205.29 83.8736 205.29ZM89.6428 204.722C90.3904 204.722 90.7988 205.227 90.7988 206.141V208.266H90.2035V206.418C90.2035 205.753 90.0789 205.248 89.5113 205.248C88.909 205.248 88.7568 205.705 88.7568 206.279V208.266H88.1615V206.418C88.1615 205.753 88.0369 205.248 87.4692 205.248C86.867 205.248 86.7147 205.705 86.7147 206.279V208.266H86.1194V204.805H86.604L86.694 205.151H86.7493C86.8462 204.937 87.1093 204.722 87.5523 204.722C88.0576 204.722 88.3207 204.957 88.4799 205.373H88.5352C88.7152 204.957 89.1513 204.722 89.6428 204.722ZM91.9956 206.695C92.0579 207.359 92.4594 207.782 93.0062 207.782C93.4146 207.782 93.7538 207.574 93.92 207.221L94.453 207.408C94.1968 207.996 93.65 208.349 93.0062 208.349C92.0787 208.349 91.4211 207.581 91.4211 206.515C91.4211 205.476 92.0856 204.722 93.0062 204.722C93.92 204.722 94.5776 205.456 94.5914 206.48V206.695H91.9956ZM93.0062 205.29C92.4871 205.29 92.0994 205.656 92.0095 206.245H94.003C93.913 205.656 93.5254 205.29 93.0062 205.29ZM95.7366 204.805L95.8335 205.151H95.8889C96.0065 204.957 96.2834 204.722 96.768 204.722C97.5433 204.722 98.0278 205.269 98.0278 206.141V208.266H97.4325V206.418C97.4325 205.65 97.1764 205.248 96.6711 205.248C96.1311 205.248 95.8473 205.608 95.8473 206.279V208.266H95.252V204.805H95.7366ZM100.115 208.349C99.5263 208.349 99.2079 208.003 99.2079 207.38V205.303H98.6542V204.805C98.9933 204.791 99.2079 204.542 99.2079 204.189V203.718H99.8032V204.805H100.447V205.303H99.8032V207.242C99.8032 207.65 99.9209 207.823 100.205 207.823C100.322 207.823 100.433 207.795 100.523 207.74L100.772 208.176C100.606 208.273 100.392 208.349 100.115 208.349Z" fill="black"/>
<path d="M59.7875 222.385C58.3438 222.385 57.3351 221.287 57.3351 219.804C57.3351 218.311 58.3438 217.213 59.7875 217.213C61.251 217.213 62.2597 218.311 62.2597 219.804C62.2597 221.287 61.251 222.385 59.7875 222.385ZM59.7875 221.396C60.7072 221.396 61.2708 220.743 61.2708 219.804C61.2708 218.854 60.7072 218.202 59.7875 218.202C58.8876 218.202 58.3141 218.854 58.324 219.804C58.324 220.743 58.8876 221.396 59.7875 221.396ZM63.2834 217.322H64.0943L64.2525 217.876H64.3415C64.5887 217.48 65.1623 217.203 65.7853 217.203C67.1499 217.203 68.1487 218.301 68.1487 219.794C68.1487 221.287 67.1499 222.385 65.7853 222.385C65.1524 222.385 64.4305 222.029 64.2624 221.584V224.244H63.2834V217.322ZM65.6864 218.103C64.836 218.103 64.2624 218.785 64.2624 219.774C64.2624 220.773 64.836 221.455 65.6864 221.455C66.5566 221.455 67.1697 220.753 67.1697 219.774C67.1697 218.805 66.5566 218.103 65.6864 218.103ZM68.9764 219.893V219.003H71.8837V219.893H68.9764ZM73.1142 217.322H73.9251L74.0833 217.876H74.1723C74.4195 217.48 74.9931 217.203 75.6161 217.203C76.9807 217.203 77.9795 218.301 77.9795 219.794C77.9795 221.287 76.9807 222.385 75.6161 222.385C74.9832 222.385 74.2613 222.029 74.0932 221.584V224.244H73.1142V217.322ZM75.5172 218.103C74.6668 218.103 74.0932 218.785 74.0932 219.774C74.0932 220.773 74.6668 221.455 75.5172 221.455C76.3874 221.455 77.0005 220.753 77.0005 219.774C77.0005 218.805 76.3874 218.103 75.5172 218.103ZM78.9061 222.266V217.322H79.717L79.8455 217.796H79.9345C80.0928 217.529 80.4586 217.203 81.1311 217.203C81.2201 217.203 81.2992 217.213 81.3684 217.233V218.133C81.2596 218.103 81.1311 218.083 80.9926 218.083C80.2609 218.083 79.8851 218.568 79.8851 219.497V222.266H78.9061ZM84.3549 222.385C82.9111 222.385 81.9025 221.287 81.9025 219.804C81.9025 218.311 82.9111 217.213 84.3549 217.213C85.8184 217.213 86.8271 218.311 86.8271 219.804C86.8271 221.287 85.8184 222.385 84.3549 222.385ZM84.3549 221.396C85.2745 221.396 85.8382 220.743 85.8382 219.804C85.8382 218.854 85.2745 218.202 84.3549 218.202C83.455 218.202 82.8815 218.854 82.8913 219.804C82.8913 220.743 83.455 221.396 84.3549 221.396ZM87.8508 217.322H88.6617L88.8199 217.876H88.9089C89.1561 217.48 89.7297 217.203 90.3526 217.203C91.7173 217.203 92.7161 218.301 92.7161 219.794C92.7161 221.287 91.7173 222.385 90.3526 222.385C89.7198 222.385 88.9979 222.029 88.8298 221.584V224.244H87.8508V217.322ZM90.2538 218.103C89.4033 218.103 88.8298 218.785 88.8298 219.774C88.8298 220.773 89.4033 221.455 90.2538 221.455C91.124 221.455 91.7371 220.753 91.7371 219.774C91.7371 218.805 91.124 218.103 90.2538 218.103ZM95.9915 222.385C94.5478 222.385 93.5391 221.287 93.5391 219.804C93.5391 218.311 94.5478 217.213 95.9915 217.213C97.4551 217.213 98.4637 218.311 98.4637 219.804C98.4637 221.287 97.4551 222.385 95.9915 222.385ZM95.9915 221.396C96.9112 221.396 97.4749 220.743 97.4749 219.804C97.4749 218.854 96.9112 218.202 95.9915 218.202C95.0917 218.202 94.5181 218.854 94.528 219.804C94.528 220.743 95.0917 221.396 95.9915 221.396ZM100.021 220.684C100.18 221.159 100.397 221.495 101.04 221.495C101.584 221.495 102.029 221.297 102.029 220.921C102.029 220.486 101.663 220.397 100.466 220.071C99.616 219.843 99.2303 219.398 99.2303 218.667C99.2303 217.787 99.9226 217.203 101.01 217.203C102.039 217.203 102.612 217.638 102.85 218.558L102.009 218.835C101.841 218.291 101.584 218.083 101.03 218.083C100.476 218.083 100.17 218.321 100.17 218.686C100.17 219.032 100.298 219.171 100.694 219.28C102.434 219.764 102.968 219.962 102.968 220.921C102.968 221.791 102.157 222.385 101.08 222.385C100.012 222.385 99.2303 221.841 99.0919 220.951L100.021 220.684ZM104.551 220.071C104.65 220.921 105.204 221.445 105.916 221.445C106.499 221.445 106.954 221.168 107.182 220.664L108.072 220.971C107.716 221.871 106.885 222.385 105.916 222.385C104.561 222.385 103.592 221.267 103.592 219.764C103.592 218.301 104.571 217.203 105.916 217.203C107.261 217.203 108.23 218.281 108.25 219.735V220.071H104.551ZM105.916 218.143C105.234 218.143 104.719 218.607 104.581 219.329H107.261C107.122 218.607 106.598 218.143 105.916 218.143ZM109.132 222.266V217.322H109.943L110.072 217.796H110.161C110.319 217.529 110.685 217.203 111.357 217.203C111.446 217.203 111.526 217.213 111.595 217.233V218.133C111.486 218.103 111.357 218.083 111.219 218.083C110.487 218.083 110.111 218.568 110.111 219.497V222.266H109.132Z" fill="black"/>
<rect x="167.976" y="195.333" width="128.554" height="36.8665" rx="1.97775" fill="#BAEDBD"/>
<path d="M208.003 203.974V205.663H209.927V206.217H208.003V207.712H210.135V208.266H207.38V203.421H210.149V203.974H208.003ZM210.633 208.266L211.769 206.522V206.466L210.633 204.805H211.277L212.087 205.989H212.142L212.932 204.805H213.568L212.454 206.466V206.522L213.582 208.266H212.932L212.142 207.013H212.087L211.277 208.266H210.633ZM214.503 206.695C214.566 207.359 214.967 207.782 215.514 207.782C215.922 207.782 216.261 207.574 216.428 207.221L216.961 207.408C216.704 207.996 216.158 208.349 215.514 208.349C214.586 208.349 213.929 207.581 213.929 206.515C213.929 205.476 214.593 204.722 215.514 204.722C216.428 204.722 217.085 205.456 217.099 206.48V206.695H214.503ZM215.514 205.29C214.995 205.29 214.607 205.656 214.517 206.245H216.511C216.421 205.656 216.033 205.29 215.514 205.29ZM220.858 207.366C220.594 207.975 220.048 208.349 219.355 208.349C218.366 208.349 217.687 207.602 217.687 206.529C217.687 205.463 218.372 204.722 219.355 204.722C220.048 204.722 220.601 205.089 220.858 205.691L220.297 205.892C220.124 205.525 219.792 205.324 219.355 205.324C218.691 205.324 218.282 205.788 218.282 206.529C218.282 207.262 218.698 207.747 219.355 207.747C219.785 207.747 220.117 207.539 220.297 207.172L220.858 207.366ZM223.598 208.266L223.501 207.92H223.446C223.328 208.114 223.051 208.349 222.567 208.349C221.792 208.349 221.307 207.802 221.307 206.93V204.805H221.902V206.653C221.902 207.422 222.158 207.823 222.664 207.823C223.204 207.823 223.487 207.463 223.487 206.792V204.805H224.083V208.266H223.598ZM226.239 208.349C225.65 208.349 225.332 208.003 225.332 207.38V205.303H224.778V204.805C225.117 204.791 225.332 204.542 225.332 204.189V203.718H225.927V204.805H226.571V205.303H225.927V207.242C225.927 207.65 226.045 207.823 226.329 207.823C226.447 207.823 226.557 207.795 226.647 207.74L226.896 208.176C226.73 208.273 226.516 208.349 226.239 208.349ZM227.922 204.141C227.701 204.141 227.521 203.961 227.521 203.739C227.521 203.518 227.701 203.338 227.922 203.338C228.144 203.338 228.324 203.518 228.324 203.739C228.324 203.961 228.144 204.141 227.922 204.141ZM227.625 204.805H228.22V208.266H227.625V204.805ZM230.692 208.349C229.695 208.349 229.017 207.588 229.017 206.543C229.017 205.49 229.695 204.729 230.692 204.729C231.696 204.729 232.374 205.49 232.374 206.543C232.374 207.588 231.696 208.349 230.692 208.349ZM230.692 207.754C231.363 207.754 231.772 207.262 231.772 206.543C231.772 205.816 231.363 205.331 230.692 205.331C230.027 205.331 229.612 205.816 229.619 206.543C229.619 207.262 230.027 207.754 230.692 207.754ZM233.549 204.805L233.645 205.151H233.701C233.819 204.957 234.095 204.722 234.58 204.722C235.355 204.722 235.84 205.269 235.84 206.141V208.266H235.245V206.418C235.245 205.65 234.988 205.248 234.483 205.248C233.943 205.248 233.659 205.608 233.659 206.279V208.266H233.064V204.805H233.549ZM239.098 203.974V205.663H241.023V206.217H239.098V207.712H241.23V208.266H238.475V203.421H241.244V203.974H239.098ZM242.56 204.805L242.656 205.151H242.712C242.829 204.957 243.106 204.722 243.591 204.722C244.366 204.722 244.851 205.269 244.851 206.141V208.266H244.255V206.418C244.255 205.65 243.999 205.248 243.494 205.248C242.954 205.248 242.67 205.608 242.67 206.279V208.266H242.075V204.805H242.56ZM248.495 208.709C248.495 209.318 247.907 209.734 247.055 209.734C246.204 209.734 245.616 209.318 245.616 208.709C245.616 208.363 245.761 208.065 246.024 207.878C245.823 207.754 245.719 207.56 245.719 207.339C245.719 207.082 245.872 206.875 246.128 206.771C245.899 206.556 245.754 206.259 245.754 205.92C245.754 205.227 246.308 204.722 247.055 204.722C247.249 204.722 247.436 204.757 247.595 204.819C247.941 204.77 248.322 204.597 248.391 204.57L248.606 205.006C248.454 205.089 248.287 205.158 248.114 205.2C248.267 205.393 248.357 205.643 248.357 205.92C248.357 206.619 247.803 207.117 247.041 207.117C246.806 207.117 246.605 207.069 246.425 206.979C246.308 207.02 246.245 207.117 246.245 207.269C246.245 207.609 246.571 207.615 246.827 207.615C247.831 207.615 248.495 207.892 248.495 208.709ZM247.055 205.248C246.633 205.248 246.349 205.518 246.349 205.92C246.349 206.328 246.619 206.591 247.041 206.591C247.478 206.591 247.761 206.321 247.761 205.92C247.761 205.518 247.478 205.248 247.055 205.248ZM247.055 209.208C247.588 209.208 247.9 209.007 247.9 208.675C247.9 208.335 247.595 208.142 247.055 208.142C246.515 208.142 246.211 208.335 246.211 208.675C246.211 209.007 246.522 209.208 247.055 209.208ZM249.628 204.141C249.407 204.141 249.227 203.961 249.227 203.739C249.227 203.518 249.407 203.338 249.628 203.338C249.85 203.338 250.03 203.518 250.03 203.739C250.03 203.961 249.85 204.141 249.628 204.141ZM249.331 204.805H249.926V208.266H249.331V204.805ZM251.415 204.805L251.512 205.151H251.567C251.685 204.957 251.962 204.722 252.446 204.722C253.222 204.722 253.706 205.269 253.706 206.141V208.266H253.111V206.418C253.111 205.65 252.855 205.248 252.349 205.248C251.81 205.248 251.526 205.608 251.526 206.279V208.266H250.93V204.805H251.415ZM254.907 206.695C254.969 207.359 255.371 207.782 255.918 207.782C256.326 207.782 256.665 207.574 256.831 207.221L257.364 207.408C257.108 207.996 256.561 208.349 255.918 208.349C254.99 208.349 254.333 207.581 254.333 206.515C254.333 205.476 254.997 204.722 255.918 204.722C256.831 204.722 257.489 205.456 257.503 206.48V206.695H254.907ZM255.918 205.29C255.399 205.29 255.011 205.656 254.921 206.245H256.914C256.825 205.656 256.437 205.29 255.918 205.29Z" fill="black"/>
<path d="M217.513 222.385C216.069 222.385 215.061 221.287 215.061 219.804C215.061 218.311 216.069 217.213 217.513 217.213C218.977 217.213 219.985 218.311 219.985 219.804C219.985 221.287 218.977 222.385 217.513 222.385ZM217.513 221.396C218.433 221.396 218.996 220.743 218.996 219.804C218.996 218.854 218.433 218.202 217.513 218.202C216.613 218.202 216.04 218.854 216.05 219.804C216.05 220.743 216.613 221.396 217.513 221.396ZM221.009 217.322H221.82L221.978 217.876H222.067C222.314 217.48 222.888 217.203 223.511 217.203C224.876 217.203 225.874 218.301 225.874 219.794C225.874 221.287 224.876 222.385 223.511 222.385C222.878 222.385 222.156 222.029 221.988 221.584V224.244H221.009V217.322ZM223.412 218.103C222.562 218.103 221.988 218.785 221.988 219.774C221.988 220.773 222.562 221.455 223.412 221.455C224.282 221.455 224.895 220.753 224.895 219.774C224.895 218.805 224.282 218.103 223.412 218.103ZM226.702 219.893V219.003H229.609V219.893H226.702ZM234.884 222.85C234.884 223.759 234.014 224.363 232.758 224.363C231.502 224.363 230.642 223.759 230.642 222.85C230.642 222.365 230.83 221.96 231.186 221.683C230.929 221.495 230.79 221.228 230.79 220.931C230.79 220.605 230.939 220.288 231.334 220.11C231.028 219.804 230.84 219.388 230.84 218.934C230.84 217.935 231.661 217.203 232.758 217.203C233.035 217.203 233.302 217.253 233.54 217.332C234.004 217.292 234.449 217.104 234.697 217.005L235.072 217.688C234.875 217.796 234.637 217.895 234.38 217.965C234.578 218.232 234.687 218.568 234.687 218.934C234.687 219.942 233.866 220.674 232.748 220.674C232.412 220.674 232.125 220.605 231.868 220.486C231.71 220.545 231.641 220.674 231.641 220.862C231.641 221.287 232.125 221.307 232.541 221.307C233.994 221.307 234.884 221.742 234.884 222.85ZM232.758 218.054C232.195 218.054 231.819 218.409 231.819 218.934C231.819 219.468 232.175 219.814 232.748 219.814C233.332 219.814 233.708 219.458 233.708 218.934C233.708 218.409 233.332 218.054 232.758 218.054ZM232.758 223.512C233.49 223.512 233.905 223.255 233.905 222.82C233.905 222.375 233.5 222.118 232.758 222.118C232.027 222.118 231.621 222.375 231.621 222.82C231.621 223.255 232.036 223.512 232.758 223.512ZM236.56 220.071C236.659 220.921 237.213 221.445 237.925 221.445C238.508 221.445 238.963 221.168 239.191 220.664L240.081 220.971C239.725 221.871 238.894 222.385 237.925 222.385C236.57 222.385 235.601 221.267 235.601 219.764C235.601 218.301 236.58 217.203 237.925 217.203C239.27 217.203 240.239 218.281 240.259 219.735V220.071H236.56ZM237.925 218.143C237.243 218.143 236.728 218.607 236.59 219.329H239.27C239.131 218.607 238.607 218.143 237.925 218.143ZM242.991 222.385C242.121 222.385 241.636 221.861 241.636 220.931V218.162H240.845V217.322C241.349 217.302 241.636 216.995 241.636 216.511V215.769H242.615V217.322H243.535V218.162H242.615V220.733C242.615 221.287 242.763 221.505 243.119 221.505C243.307 221.505 243.475 221.445 243.594 221.346L244.019 222.098C243.742 222.276 243.406 222.385 242.991 222.385ZM246.017 217.876C246.234 217.5 246.679 217.233 247.273 217.233C248.469 217.233 249.25 218.044 249.25 219.25V222.266H248.271V219.497C248.271 218.568 247.737 218.113 247.035 218.113C246.402 218.113 245.928 218.716 245.928 219.616V222.266H244.949V215.225H245.928V217.876H246.017Z" fill="black"/>
<rect x="20.1387" y="244.066" width="128.554" height="36.8665" rx="1.97775" fill="#BAEDBD"/>
<path d="M69.1144 255.615C69.2459 256.231 69.6335 256.529 70.298 256.529C70.9833 256.529 71.4471 256.224 71.4471 255.774C71.4471 255.324 71.0249 254.992 70.1388 254.729C69.0936 254.418 68.6506 253.995 68.6506 253.331C68.6506 252.542 69.2666 252.071 70.298 252.071C71.2325 252.071 71.8348 252.486 71.9801 253.241L71.3779 253.4C71.2256 252.867 70.8933 252.625 70.298 252.625C69.6681 252.625 69.2597 252.902 69.2597 253.331C69.2597 253.718 69.5989 253.988 70.4365 254.265C71.5925 254.639 72.0563 255.082 72.0563 255.795C72.0563 256.584 71.3987 257.083 70.3396 257.083C69.3289 257.083 68.616 256.563 68.4983 255.733L69.1144 255.615ZM73.1152 255.428C73.1775 256.093 73.579 256.515 74.1259 256.515C74.5343 256.515 74.8735 256.307 75.0396 255.954L75.5726 256.141C75.3165 256.73 74.7696 257.083 74.1259 257.083C73.1983 257.083 72.5407 256.314 72.5407 255.248C72.5407 254.21 73.2052 253.455 74.1259 253.455C75.0396 253.455 75.6972 254.189 75.711 255.214V255.428H73.1152ZM74.1259 254.023C73.6067 254.023 73.2191 254.39 73.1291 254.978H75.1227C75.0327 254.39 74.645 254.023 74.1259 254.023ZM79.6149 253.538V258.384H79.0196V256.439C78.9296 256.806 78.3481 257.083 77.9051 257.083C76.9706 257.083 76.2992 256.328 76.2992 255.269C76.2992 254.21 76.9706 253.455 77.9051 253.455C78.3481 253.455 78.7773 253.635 78.9642 253.919H79.0196L79.1303 253.538H79.6149ZM77.9744 254.016C77.3444 254.016 76.8945 254.528 76.8945 255.269C76.8945 256.01 77.3444 256.522 77.9744 256.522C78.5973 256.522 79.0196 256.023 79.0196 255.269C79.0196 254.514 78.5973 254.016 77.9744 254.016ZM82.8051 257L82.7082 256.653H82.6528C82.5351 256.847 82.2582 257.083 81.7737 257.083C80.9984 257.083 80.5139 256.536 80.5139 255.664V253.538H81.1092V255.387C81.1092 256.155 81.3653 256.556 81.8706 256.556C82.4105 256.556 82.6943 256.197 82.6943 255.525V253.538H83.2896V257H82.8051ZM84.5597 255.428C84.622 256.093 85.0235 256.515 85.5704 256.515C85.9788 256.515 86.3179 256.307 86.4841 255.954L87.0171 256.141C86.761 256.73 86.2141 257.083 85.5704 257.083C84.6428 257.083 83.9852 256.314 83.9852 255.248C83.9852 254.21 84.6497 253.455 85.5704 253.455C86.4841 253.455 87.1417 254.189 87.1555 255.214V255.428H84.5597ZM85.5704 254.023C85.0512 254.023 84.6636 254.39 84.5736 254.978H86.5671C86.4772 254.39 86.0895 254.023 85.5704 254.023ZM88.3007 253.538L88.3976 253.885H88.453C88.5707 253.691 88.8476 253.455 89.3321 253.455C90.1074 253.455 90.5919 254.002 90.5919 254.874V257H89.9966V255.151C89.9966 254.383 89.7405 253.981 89.2352 253.981C88.6953 253.981 88.4115 254.341 88.4115 255.013V257H87.8162V253.538H88.3007ZM94.3886 256.1C94.1256 256.709 93.5787 257.083 92.8865 257.083C91.8966 257.083 91.2183 256.335 91.2183 255.262C91.2183 254.196 91.9036 253.455 92.8865 253.455C93.5787 253.455 94.1325 253.822 94.3886 254.424L93.8279 254.625C93.6549 254.258 93.3226 254.058 92.8865 254.058C92.222 254.058 91.8136 254.521 91.8136 255.262C91.8136 255.996 92.2289 256.48 92.8865 256.48C93.3157 256.48 93.6479 256.273 93.8279 255.906L94.3886 256.1ZM95.5107 255.428C95.573 256.093 95.9745 256.515 96.5214 256.515C96.9298 256.515 97.269 256.307 97.4351 255.954L97.9681 256.141C97.712 256.73 97.1651 257.083 96.5214 257.083C95.5938 257.083 94.9362 256.314 94.9362 255.248C94.9362 254.21 95.6007 253.455 96.5214 253.455C97.4351 253.455 98.0927 254.189 98.1065 255.214V255.428H95.5107ZM96.5214 254.023C96.0022 254.023 95.6146 254.39 95.5246 254.978H97.5182C97.4282 254.39 97.0405 254.023 96.5214 254.023ZM98.7672 257V253.538H99.2517L99.3486 253.885H99.404C99.5148 253.705 99.7778 253.455 100.283 253.455C100.325 253.455 100.366 253.455 100.401 253.462V254.002C100.338 253.988 100.269 253.981 100.186 253.981C99.6463 253.981 99.3625 254.341 99.3625 255.013V257H98.7672Z" fill="black"/>
<path d="M62.646 271.118C61.2022 271.118 60.1936 270.021 60.1936 268.537C60.1936 267.044 61.2022 265.946 62.646 265.946C64.1095 265.946 65.1182 267.044 65.1182 268.537C65.1182 270.021 64.1095 271.118 62.646 271.118ZM62.646 270.129C63.5656 270.129 64.1293 269.477 64.1293 268.537C64.1293 267.588 63.5656 266.935 62.646 266.935C61.7461 266.935 61.1726 267.588 61.1824 268.537C61.1824 269.477 61.7461 270.129 62.646 270.129ZM66.1419 266.055H66.9528L67.111 266.609H67.2C67.4472 266.213 68.0207 265.936 68.6437 265.936C70.0084 265.936 71.0072 267.034 71.0072 268.527C71.0072 270.021 70.0084 271.118 68.6437 271.118C68.0109 271.118 67.289 270.762 67.1209 270.317V272.977H66.1419V266.055ZM68.5449 266.836C67.6944 266.836 67.1209 267.519 67.1209 268.508C67.1209 269.506 67.6944 270.189 68.5449 270.189C69.4151 270.189 70.0282 269.487 70.0282 268.508C70.0282 267.538 69.4151 266.836 68.5449 266.836ZM71.8349 268.626V267.736H74.7422V268.626H71.8349ZM75.9727 271V263.959H76.9517V266.737C77.1198 266.292 77.8417 265.936 78.4746 265.936C79.8392 265.936 80.838 267.034 80.838 268.527C80.838 270.021 79.8392 271.118 78.4746 271.118C77.8516 271.118 77.278 270.841 77.0308 270.446H76.9418L76.7836 271H75.9727ZM78.3757 270.218C79.2459 270.218 79.859 269.516 79.859 268.547C79.859 267.568 79.2459 266.866 78.3757 266.866C77.5252 266.866 76.9517 267.548 76.9517 268.547C76.9517 269.536 77.5252 270.218 78.3757 270.218ZM83.3863 271.118C82.3974 271.118 81.547 270.525 81.547 269.576C81.547 268.616 82.3974 267.993 83.6929 267.993C84.0785 267.993 84.4444 268.043 84.7905 268.152V267.746C84.7905 267.252 84.3356 266.896 83.7028 266.896C83.1391 266.896 82.8424 267.103 82.6842 267.479L81.7646 267.212C81.992 266.441 82.7436 265.936 83.6434 265.936C84.84 265.936 85.7398 266.698 85.7398 267.627V271H84.929L84.7707 270.446H84.6818C84.5235 270.891 84.0884 271.118 83.3863 271.118ZM82.5062 269.546C82.5062 270.001 82.9216 270.228 83.505 270.228C84.1972 270.228 84.7905 269.882 84.7905 269.358V268.992C84.4444 268.873 84.0291 268.804 83.6533 268.804C82.9413 268.804 82.5062 269.071 82.5062 269.546ZM88.6257 271.118C87.7555 271.118 87.271 270.594 87.271 269.665V266.896H86.4799V266.055C86.9842 266.035 87.271 265.729 87.271 265.244V264.503H88.25V266.055H89.1696V266.896H88.25V269.467C88.25 270.021 88.3983 270.238 88.7543 270.238C88.9422 270.238 89.1103 270.179 89.229 270.08L89.6542 270.831C89.3773 271.009 89.0411 271.118 88.6257 271.118ZM94.6724 269.605C94.2966 270.545 93.4858 271.118 92.4375 271.118C91.0037 271.118 89.995 270.03 89.995 268.517C89.995 267.004 91.0136 265.936 92.4375 265.936C93.4858 265.936 94.3065 266.5 94.6724 267.43L93.7429 267.756C93.5154 267.222 93.0605 266.925 92.4375 266.925C91.5377 266.925 90.974 267.548 90.974 268.517C90.974 269.477 91.5476 270.119 92.4375 270.119C93.0506 270.119 93.5055 269.823 93.7429 269.289L94.6724 269.605ZM96.6733 266.609C96.8909 266.233 97.3359 265.966 97.9292 265.966C99.1257 265.966 99.907 266.777 99.907 267.983V271H98.928V268.231C98.928 267.301 98.394 266.846 97.6919 266.846C97.059 266.846 96.5843 267.449 96.5843 268.349V271H95.6053V263.959H96.5843V266.609H96.6733ZM101.693 268.804C101.792 269.655 102.345 270.179 103.057 270.179C103.641 270.179 104.096 269.902 104.323 269.398L105.213 269.704C104.857 270.604 104.027 271.118 103.057 271.118C101.703 271.118 100.734 270.001 100.734 268.498C100.734 267.034 101.713 265.936 103.057 265.936C104.402 265.936 105.371 267.014 105.391 268.468V268.804H101.693ZM103.057 266.876C102.375 266.876 101.861 267.341 101.722 268.063H104.402C104.264 267.341 103.74 266.876 103.057 266.876ZM106.274 271V266.055H107.085L107.213 266.53H107.302C107.461 266.263 107.827 265.936 108.499 265.936C108.588 265.936 108.667 265.946 108.736 265.966V266.866C108.628 266.836 108.499 266.817 108.361 266.817C107.629 266.817 107.253 267.301 107.253 268.231V271H106.274Z" fill="black"/>
<rect x="167.976" y="244.066" width="128.554" height="36.8665" rx="1.97775" fill="#BAEDBD"/>
<path d="M214.709 257H214.086V252.154H215.906C216.681 252.154 217.242 252.708 217.242 253.49C217.242 254.127 216.834 254.646 216.231 254.791L217.484 257H216.778L215.546 254.826H214.709V257ZM215.816 254.224C216.266 254.224 216.584 253.919 216.584 253.49C216.584 253.061 216.266 252.756 215.816 252.756H214.709V254.224H215.816ZM219.437 257.083C218.44 257.083 217.762 256.321 217.762 255.276C217.762 254.224 218.44 253.462 219.437 253.462C220.44 253.462 221.119 254.224 221.119 255.276C221.119 256.321 220.44 257.083 219.437 257.083ZM219.437 256.487C220.108 256.487 220.517 255.996 220.517 255.276C220.517 254.549 220.108 254.065 219.437 254.065C218.772 254.065 218.357 254.549 218.364 255.276C218.364 255.996 218.772 256.487 219.437 256.487ZM221.878 252.071H222.473V257H221.878V252.071ZM223.514 252.071H224.109V257H223.514V252.071ZM227.303 257L227.206 256.653H227.15C227.033 256.847 226.756 257.083 226.271 257.083C225.496 257.083 225.011 256.536 225.011 255.664V253.538H225.607V255.387C225.607 256.155 225.863 256.556 226.368 256.556C226.908 256.556 227.192 256.197 227.192 255.525V253.538H227.787V257H227.303ZM228.76 253.538H229.244L229.355 253.919H229.41C229.597 253.635 230.026 253.455 230.469 253.455C231.404 253.455 232.075 254.21 232.075 255.269C232.075 256.328 231.404 257.083 230.469 257.083C230.026 257.083 229.445 256.806 229.355 256.439V258.384H228.76V253.538ZM230.4 254.016C229.777 254.016 229.355 254.514 229.355 255.269C229.355 256.023 229.777 256.522 230.4 256.522C231.03 256.522 231.48 256.01 231.48 255.269C231.48 254.528 231.03 254.016 230.4 254.016ZM235.246 252.971H235.191V257H234.568V252.154H235.399L238.064 256.183H238.119V252.154H238.742V257H237.911L235.246 252.971ZM241.251 257.083C240.254 257.083 239.576 256.321 239.576 255.276C239.576 254.224 240.254 253.462 241.251 253.462C242.255 253.462 242.933 254.224 242.933 255.276C242.933 256.321 242.255 257.083 241.251 257.083ZM241.251 256.487C241.922 256.487 242.331 255.996 242.331 255.276C242.331 254.549 241.922 254.065 241.251 254.065C240.586 254.065 240.171 254.549 240.178 255.276C240.178 255.996 240.586 256.487 241.251 256.487ZM246.866 257H246.382L246.271 256.619H246.216C246.029 256.903 245.599 257.083 245.156 257.083C244.222 257.083 243.551 256.328 243.551 255.269C243.551 254.21 244.222 253.455 245.156 253.455C245.599 253.455 246.181 253.732 246.271 254.099V252.071H246.866V257ZM245.226 256.522C245.849 256.522 246.271 256.023 246.271 255.269C246.271 254.514 245.849 254.016 245.226 254.016C244.596 254.016 244.146 254.528 244.146 255.269C244.146 256.01 244.596 256.522 245.226 256.522ZM248.201 255.428C248.264 256.093 248.665 256.515 249.212 256.515C249.62 256.515 249.959 256.307 250.126 255.954L250.659 256.141C250.403 256.73 249.856 257.083 249.212 257.083C248.284 257.083 247.627 256.314 247.627 255.248C247.627 254.21 248.291 253.455 249.212 253.455C250.126 253.455 250.783 254.189 250.797 255.214V255.428H248.201ZM249.212 254.023C248.693 254.023 248.305 254.39 248.215 254.978H250.209C250.119 254.39 249.731 254.023 249.212 254.023Z" fill="black"/>
<path d="M216.277 271.118C214.833 271.118 213.825 270.021 213.825 268.537C213.825 267.044 214.833 265.946 216.277 265.946C217.741 265.946 218.749 267.044 218.749 268.537C218.749 270.021 217.741 271.118 216.277 271.118ZM216.277 270.129C217.197 270.129 217.76 269.477 217.76 268.537C217.76 267.588 217.197 266.935 216.277 266.935C215.377 266.935 214.804 267.588 214.814 268.537C214.814 269.477 215.377 270.129 216.277 270.129ZM219.773 266.055H220.584L220.742 266.609H220.831C221.078 266.213 221.652 265.936 222.275 265.936C223.639 265.936 224.638 267.034 224.638 268.527C224.638 270.021 223.639 271.118 222.275 271.118C221.642 271.118 220.92 270.762 220.752 270.317V272.977H219.773V266.055ZM222.176 266.836C221.326 266.836 220.752 267.519 220.752 268.508C220.752 269.506 221.326 270.189 222.176 270.189C223.046 270.189 223.659 269.487 223.659 268.508C223.659 267.538 223.046 266.836 222.176 266.836ZM225.466 268.626V267.736H228.373V268.626H225.466ZM230.316 266.055L230.444 266.53H230.533C230.701 266.253 231.077 265.936 231.73 265.936C232.877 265.936 233.599 266.747 233.599 268.033V271H232.62V268.428C232.62 267.36 232.274 266.817 231.591 266.817C230.86 266.817 230.484 267.301 230.484 268.231V271H229.505V266.055H230.316ZM236.885 271.118C235.441 271.118 234.433 270.021 234.433 268.537C234.433 267.044 235.441 265.946 236.885 265.946C238.349 265.946 239.357 267.044 239.357 268.537C239.357 270.021 238.349 271.118 236.885 271.118ZM236.885 270.129C237.805 270.129 238.368 269.477 238.368 268.537C238.368 267.588 237.805 266.935 236.885 266.935C235.985 266.935 235.412 267.588 235.422 268.537C235.422 269.477 235.985 270.129 236.885 270.129ZM245.044 271H244.233L244.075 270.446H243.986C243.739 270.841 243.165 271.118 242.532 271.118C241.167 271.118 240.179 270.021 240.179 268.527C240.179 267.034 241.167 265.936 242.532 265.936C243.165 265.936 243.897 266.292 244.065 266.737V263.959H245.044V271ZM242.631 270.218C243.481 270.218 244.065 269.536 244.065 268.547C244.065 267.548 243.481 266.866 242.631 266.866C241.771 266.866 241.158 267.568 241.158 268.547C241.158 269.516 241.771 270.218 242.631 270.218ZM247.029 268.804C247.127 269.655 247.681 270.179 248.393 270.179C248.977 270.179 249.432 269.902 249.659 269.398L250.549 269.704C250.193 270.604 249.362 271.118 248.393 271.118C247.038 271.118 246.069 270.001 246.069 268.498C246.069 267.034 247.048 265.936 248.393 265.936C249.738 265.936 250.707 267.014 250.727 268.468V268.804H247.029ZM248.393 266.876C247.711 266.876 247.197 267.341 247.058 268.063H249.738C249.6 267.341 249.076 266.876 248.393 266.876Z" fill="black"/>
<rect x="1.34991" y="108.362" width="313.968" height="183.943" rx="5.43881" stroke="#8CC34A" stroke-width="0.988875" stroke-dasharray="3.96 3.96"/>
<rect x="1.34991" y="313.071" width="313.968" height="86.4771" rx="5.43881" fill="#FF4747" fill-opacity="0.2"/>
<path d="M146.048 334.257V335.443H141.519V328.521H142.805V334.257H146.048ZM146.445 335.443L149.323 328.511H150.618L153.496 335.443H152.092L151.31 333.564H148.64L147.849 335.443H146.445ZM149.095 332.328H150.855L150.025 330.331H149.926L149.095 332.328ZM155.074 332.526L152.809 328.521H154.243L155.677 331.053H155.776L157.269 328.521H158.703L156.359 332.526V335.443H155.074V332.526ZM160.68 329.708V331.527H163.429V332.714H160.68V334.257H163.726V335.443H159.394V328.521H163.745V329.708H160.68ZM166.231 335.443H165.034V328.521H167.833C169.049 328.521 169.939 329.411 169.939 330.628C169.939 331.527 169.425 332.289 168.604 332.595L170.344 335.443H168.96L167.318 332.734H166.231V335.443ZM167.803 331.587C168.386 331.587 168.792 331.201 168.792 330.628C168.792 330.054 168.386 329.668 167.803 329.668H166.231V331.587H167.803ZM174.057 331.399H172.811V330.351H173.474C173.81 330.351 174.057 330.113 174.057 329.777V329.075H175.244V335.443H174.057V331.399Z" fill="black"/>
<rect x="20.1387" y="351.31" width="128.554" height="36.8665" rx="1.97775" fill="#FFC2C2"/>
<path d="M48.6251 362.858C48.7567 363.474 49.1443 363.772 49.8088 363.772C50.4941 363.772 50.9579 363.467 50.9579 363.017C50.9579 362.568 50.5356 362.235 49.6496 361.972C48.6044 361.661 48.1613 361.238 48.1613 360.574C48.1613 359.785 48.7774 359.314 49.8088 359.314C50.7433 359.314 51.3455 359.729 51.4909 360.484L50.8887 360.643C50.7364 360.11 50.4041 359.868 49.8088 359.868C49.1789 359.868 48.7705 360.145 48.7705 360.574C48.7705 360.962 49.1097 361.232 49.9473 361.508C51.1033 361.882 51.567 362.325 51.567 363.038C51.567 363.827 50.9094 364.326 49.8503 364.326C48.8397 364.326 48.1267 363.807 48.0091 362.976L48.6251 362.858ZM55.7149 360.699C56.4625 360.699 56.8709 361.204 56.8709 362.118V364.243H56.2756V362.394C56.2756 361.73 56.151 361.225 55.5834 361.225C54.9812 361.225 54.8289 361.681 54.8289 362.256V364.243H54.2336V362.394C54.2336 361.73 54.109 361.225 53.5414 361.225C52.9391 361.225 52.7868 361.681 52.7868 362.256V364.243H52.1915V360.782H52.6761L52.7661 361.128H52.8215C52.9184 360.913 53.1814 360.699 53.6244 360.699C54.1297 360.699 54.3928 360.934 54.552 361.349H54.6074C54.7873 360.934 55.2234 360.699 55.7149 360.699ZM58.8361 364.326C58.1093 364.326 57.5278 363.89 57.5278 363.246C57.5278 362.602 58.1231 362.166 59.0091 362.166C59.2929 362.166 59.5629 362.208 59.819 362.291V361.965C59.819 361.571 59.466 361.28 58.9953 361.28C58.6007 361.28 58.3585 361.432 58.22 361.723L57.6801 361.529C57.8462 361.031 58.3723 360.699 58.9607 360.699C59.7498 360.699 60.3936 361.238 60.3936 361.882V364.243H59.909L59.7983 363.862H59.7429C59.6252 364.173 59.3276 364.326 58.8361 364.326ZM58.1093 363.246C58.1093 363.606 58.4484 363.786 58.8845 363.786C59.3898 363.786 59.819 363.516 59.819 363.149V362.817C59.5698 362.72 59.2583 362.664 58.9814 362.664C58.4138 362.664 58.1093 362.872 58.1093 363.246ZM61.2904 364.243V360.782H61.7749L61.8718 361.128H61.9272C62.0379 360.948 62.301 360.699 62.8063 360.699C62.8478 360.699 62.8894 360.699 62.924 360.705V361.245C62.8617 361.232 62.7925 361.225 62.7094 361.225C62.1695 361.225 61.8857 361.585 61.8857 362.256V364.243H61.2904ZM64.8011 364.326C64.2127 364.326 63.8943 363.98 63.8943 363.357V361.28H63.3405V360.782C63.6797 360.768 63.8943 360.519 63.8943 360.166V359.695H64.4896V360.782H65.1333V361.28H64.4896V363.218C64.4896 363.627 64.6072 363.8 64.891 363.8C65.0087 363.8 65.1195 363.772 65.2095 363.717L65.4587 364.153C65.2925 364.25 65.0779 364.326 64.8011 364.326ZM69.8781 364.326C68.5144 364.326 67.573 363.274 67.573 361.82C67.573 360.366 68.5144 359.314 69.8781 359.314C70.8818 359.314 71.664 359.868 71.9962 360.761L71.3732 360.969C71.124 360.304 70.5841 359.909 69.8781 359.909C68.902 359.909 68.2375 360.705 68.2375 361.82C68.2375 362.934 68.902 363.73 69.8781 363.73C70.5841 363.73 71.124 363.336 71.3732 362.671L71.9962 362.872C71.657 363.772 70.8818 364.326 69.8781 364.326ZM74.155 364.326C73.1582 364.326 72.4799 363.564 72.4799 362.519C72.4799 361.467 73.1582 360.705 74.155 360.705C75.1587 360.705 75.8371 361.467 75.8371 362.519C75.8371 363.564 75.1587 364.326 74.155 364.326ZM74.155 363.73C74.8265 363.73 75.2349 363.239 75.2349 362.519C75.2349 361.792 74.8265 361.308 74.155 361.308C73.4905 361.308 73.0752 361.792 73.0821 362.519C73.0821 363.239 73.4905 363.73 74.155 363.73ZM77.0117 360.782L77.1086 361.128H77.164C77.2817 360.934 77.5585 360.699 78.0431 360.699C78.8184 360.699 79.3029 361.245 79.3029 362.118V364.243H78.7076V362.394C78.7076 361.626 78.4515 361.225 77.9462 361.225C77.4063 361.225 77.1224 361.585 77.1224 362.256V364.243H76.5271V360.782H77.0117ZM81.3898 364.326C80.8014 364.326 80.483 363.98 80.483 363.357V361.28H79.9293V360.782C80.2684 360.768 80.483 360.519 80.483 360.166V359.695H81.0783V360.782H81.7221V361.28H81.0783V363.218C81.0783 363.627 81.196 363.8 81.4798 363.8C81.5975 363.8 81.7082 363.772 81.7982 363.717L82.0474 364.153C81.8813 364.25 81.6667 364.326 81.3898 364.326ZM82.6719 364.243V360.782H83.1564L83.2533 361.128H83.3087C83.4195 360.948 83.6825 360.699 84.1878 360.699C84.2294 360.699 84.2709 360.699 84.3055 360.705V361.245C84.2432 361.232 84.174 361.225 84.0909 361.225C83.551 361.225 83.2672 361.585 83.2672 362.256V364.243H82.6719ZM86.0649 364.326C85.3381 364.326 84.7566 363.89 84.7566 363.246C84.7566 362.602 85.3519 362.166 86.238 362.166C86.5218 362.166 86.7917 362.208 87.0479 362.291V361.965C87.0479 361.571 86.6948 361.28 86.2241 361.28C85.8296 361.28 85.5873 361.432 85.4488 361.723L84.9089 361.529C85.075 361.031 85.6011 360.699 86.1895 360.699C86.9786 360.699 87.6224 361.238 87.6224 361.882V364.243H87.1378L87.0271 363.862H86.9717C86.854 364.173 86.5564 364.326 86.0649 364.326ZM85.3381 363.246C85.3381 363.606 85.6773 363.786 86.1134 363.786C86.6187 363.786 87.0479 363.516 87.0479 363.149V362.817C86.7987 362.72 86.4872 362.664 86.2103 362.664C85.6427 362.664 85.3381 362.872 85.3381 363.246ZM91.4819 363.343C91.2188 363.952 90.672 364.326 89.9798 364.326C88.9899 364.326 88.3115 363.578 88.3115 362.505C88.3115 361.439 88.9968 360.699 89.9798 360.699C90.672 360.699 91.2257 361.065 91.4819 361.668L90.9212 361.868C90.7481 361.502 90.4158 361.301 89.9798 361.301C89.3152 361.301 88.9068 361.765 88.9068 362.505C88.9068 363.239 89.3222 363.724 89.9798 363.724C90.4089 363.724 90.7412 363.516 90.9212 363.149L91.4819 363.343ZM93.3548 364.326C92.7665 364.326 92.448 363.98 92.448 363.357V361.28H91.8943V360.782C92.2334 360.768 92.448 360.519 92.448 360.166V359.695H93.0433V360.782H93.6871V361.28H93.0433V363.218C93.0433 363.627 93.161 363.8 93.4448 363.8C93.5625 363.8 93.6733 363.772 93.7632 363.717L94.0124 364.153C93.8463 364.25 93.6317 364.326 93.3548 364.326ZM98.0996 359.397C98.8818 359.397 99.4494 359.958 99.4494 360.747C99.4494 361.529 98.8887 362.097 98.0996 362.097H97.0613V364.243H96.4383V359.397H98.0996ZM98.0788 361.543C98.5564 361.543 98.8956 361.218 98.8956 360.747C98.8956 360.276 98.5564 359.951 98.0788 359.951H97.0613V361.543H98.0788ZM100.141 359.314H100.736V364.243H100.141V359.314ZM102.843 364.326C102.116 364.326 101.535 363.89 101.535 363.246C101.535 362.602 102.13 362.166 103.016 362.166C103.3 362.166 103.57 362.208 103.826 362.291V361.965C103.826 361.571 103.473 361.28 103.002 361.28C102.608 361.28 102.365 361.432 102.227 361.723L101.687 361.529C101.853 361.031 102.379 360.699 102.968 360.699C103.757 360.699 104.4 361.238 104.4 361.882V364.243H103.916L103.805 363.862H103.75C103.632 364.173 103.334 364.326 102.843 364.326ZM102.116 363.246C102.116 363.606 102.455 363.786 102.891 363.786C103.397 363.786 103.826 363.516 103.826 363.149V362.817C103.577 362.72 103.265 362.664 102.988 362.664C102.421 362.664 102.116 362.872 102.116 363.246ZM106.415 364.326C105.827 364.326 105.508 363.98 105.508 363.357V361.28H104.954V360.782C105.294 360.768 105.508 360.519 105.508 360.166V359.695H106.103V360.782H106.747V361.28H106.103V363.218C106.103 363.627 106.221 363.8 106.505 363.8C106.623 363.8 106.733 363.772 106.823 363.717L107.073 364.153C106.906 364.25 106.692 364.326 106.415 364.326ZM109.282 359.923C109.22 359.896 109.137 359.875 109.061 359.882C108.756 359.882 108.562 360.089 108.562 360.422V360.782H109.407V361.28H108.562V364.243H107.967V361.28H107.385V360.782H107.967V360.422C107.967 359.778 108.424 359.314 109.054 359.314C109.227 359.314 109.386 359.349 109.531 359.418L109.282 359.923ZM111.375 364.326C110.378 364.326 109.7 363.564 109.7 362.519C109.7 361.467 110.378 360.705 111.375 360.705C112.379 360.705 113.057 361.467 113.057 362.519C113.057 363.564 112.379 364.326 111.375 364.326ZM111.375 363.73C112.046 363.73 112.455 363.239 112.455 362.519C112.455 361.792 112.046 361.308 111.375 361.308C110.71 361.308 110.295 361.792 110.302 362.519C110.302 363.239 110.71 363.73 111.375 363.73ZM113.747 364.243V360.782H114.232L114.329 361.128H114.384C114.495 360.948 114.758 360.699 115.263 360.699C115.305 360.699 115.346 360.699 115.381 360.705V361.245C115.318 361.232 115.249 361.225 115.166 361.225C114.626 361.225 114.342 361.585 114.342 362.256V364.243H113.747ZM119.528 360.699C120.276 360.699 120.684 361.204 120.684 362.118V364.243H120.089V362.394C120.089 361.73 119.964 361.225 119.397 361.225C118.795 361.225 118.642 361.681 118.642 362.256V364.243H118.047V362.394C118.047 361.73 117.922 361.225 117.355 361.225C116.752 361.225 116.6 361.681 116.6 362.256V364.243H116.005V360.782H116.489L116.579 361.128H116.635C116.732 360.913 116.995 360.699 117.438 360.699C117.943 360.699 118.206 360.934 118.365 361.349H118.421C118.601 360.934 119.037 360.699 119.528 360.699Z" fill="black"/>
<path d="M44.5131 378.243V372.24H42.3079V371.321H47.7368V372.24H45.5316V378.243H44.5131ZM47.7285 378.243V373.298H48.5394L48.668 373.773H48.757C48.9152 373.506 49.2811 373.18 49.9535 373.18C50.0425 373.18 50.1216 373.19 50.1908 373.209V374.109C50.0821 374.08 49.9535 374.06 49.8151 374.06C49.0833 374.06 48.7075 374.544 48.7075 375.474V378.243H47.7285ZM54.2057 378.243L54.0772 377.768H53.9882C53.8201 378.045 53.4344 378.361 52.7818 378.361C51.6347 378.361 50.9227 377.55 50.9227 376.265V373.298H51.9017V375.869C51.9017 376.937 52.2379 377.481 52.9202 377.481C53.652 377.481 54.0376 376.997 54.0376 376.067V373.298H55.0166V378.243H54.2057ZM56.8789 376.66C57.0371 377.135 57.2546 377.471 57.8974 377.471C58.4413 377.471 58.8863 377.274 58.8863 376.898C58.8863 376.463 58.5204 376.374 57.3239 376.047C56.4734 375.82 56.0878 375.375 56.0878 374.643C56.0878 373.763 56.78 373.18 57.8677 373.18C58.8962 373.18 59.4697 373.615 59.7071 374.534L58.8665 374.811C58.6984 374.267 58.4413 374.06 57.8875 374.06C57.3338 374.06 57.0272 374.297 57.0272 374.663C57.0272 375.009 57.1558 375.147 57.5513 375.256C59.2917 375.741 59.8257 375.939 59.8257 376.898C59.8257 377.768 59.0148 378.361 57.937 378.361C56.869 378.361 56.0878 377.817 55.9493 376.927L56.8789 376.66ZM62.5953 378.361C61.7251 378.361 61.2406 377.837 61.2406 376.908V374.139H60.4495V373.298C60.9538 373.279 61.2406 372.972 61.2406 372.487V371.746H62.2196V373.298H63.1392V374.139H62.2196V376.71C62.2196 377.264 62.3679 377.481 62.7239 377.481C62.9118 377.481 63.0799 377.422 63.1986 377.323L63.6238 378.075C63.3469 378.253 63.0107 378.361 62.5953 378.361ZM64.5533 371.202H65.5323V378.243H64.5533V371.202ZM67.5216 376.047C67.6204 376.898 68.1742 377.422 68.8862 377.422C69.4696 377.422 69.9245 377.145 70.152 376.641L71.042 376.947C70.686 377.847 69.8553 378.361 68.8862 378.361C67.5314 378.361 66.5624 377.244 66.5624 375.741C66.5624 374.277 67.5413 373.18 68.8862 373.18C70.2311 373.18 71.2002 374.258 71.22 375.711V376.047H67.5216ZM68.8862 374.119C68.2039 374.119 67.6897 374.584 67.5512 375.306H70.2311C70.0926 374.584 69.5685 374.119 68.8862 374.119ZM72.7356 376.66C72.8939 377.135 73.1114 377.471 73.7542 377.471C74.2981 377.471 74.7431 377.274 74.7431 376.898C74.7431 376.463 74.3772 376.374 73.1806 376.047C72.3302 375.82 71.9445 375.375 71.9445 374.643C71.9445 373.763 72.6367 373.18 73.7245 373.18C74.7529 373.18 75.3265 373.615 75.5638 374.534L74.7233 374.811C74.5552 374.267 74.2981 374.06 73.7443 374.06C73.1905 374.06 72.884 374.297 72.884 374.663C72.884 375.009 73.0125 375.147 73.4081 375.256C75.1485 375.741 75.6825 375.939 75.6825 376.898C75.6825 377.768 74.8716 378.361 73.7937 378.361C72.7257 378.361 71.9445 377.817 71.8061 376.927L72.7356 376.66ZM77.2358 376.66C77.394 377.135 77.6116 377.471 78.2543 377.471C78.7982 377.471 79.2432 377.274 79.2432 376.898C79.2432 376.463 78.8773 376.374 77.6808 376.047C76.8304 375.82 76.4447 375.375 76.4447 374.643C76.4447 373.763 77.1369 373.18 78.2247 373.18C79.2531 373.18 79.8266 373.615 80.064 374.534L79.2234 374.811C79.0553 374.267 78.7982 374.06 78.2444 374.06C77.6907 374.06 77.3841 374.297 77.3841 374.663C77.3841 375.009 77.5127 375.147 77.9082 375.256C79.6486 375.741 80.1826 375.939 80.1826 376.898C80.1826 377.768 79.3718 378.361 78.2939 378.361C77.2259 378.361 76.4447 377.817 76.3062 376.927L77.2358 376.66ZM86.5162 378.361C84.5483 378.361 83.1639 376.838 83.1639 374.782C83.1639 372.725 84.5483 371.202 86.5162 371.202C87.9995 371.202 89.1564 372.033 89.6311 373.377L88.6126 373.714C88.2764 372.754 87.5149 372.181 86.5162 372.181C85.1713 372.181 84.2417 373.279 84.2417 374.782C84.2417 376.285 85.1713 377.382 86.5162 377.382C87.5149 377.382 88.2764 376.809 88.6126 375.85L89.6311 376.176C89.1466 377.531 87.9995 378.361 86.5162 378.361ZM92.7033 378.361C91.2596 378.361 90.2509 377.264 90.2509 375.78C90.2509 374.287 91.2596 373.19 92.7033 373.19C94.1669 373.19 95.1755 374.287 95.1755 375.78C95.1755 377.264 94.1669 378.361 92.7033 378.361ZM92.7033 377.372C93.623 377.372 94.1867 376.72 94.1867 375.78C94.1867 374.831 93.623 374.178 92.7033 374.178C91.8035 374.178 91.2299 374.831 91.2398 375.78C91.2398 376.72 91.8035 377.372 92.7033 377.372ZM101.193 373.18C102.301 373.18 102.914 373.931 102.914 375.276V378.243H101.935V375.672C101.935 374.683 101.737 374.06 101.005 374.06C100.234 374.06 99.9965 374.623 99.9965 375.474V378.243H99.0175V375.672C99.0175 374.683 98.8198 374.06 98.088 374.06C97.3167 374.06 97.0793 374.623 97.0793 375.474V378.243H96.1004V373.298H96.9112L97.0299 373.773H97.1189C97.2573 373.466 97.643 373.18 98.2363 373.18C98.9187 373.18 99.3043 373.476 99.5515 374.04H99.6405C99.9174 373.496 100.511 373.18 101.193 373.18ZM104.137 373.298H104.948L105.106 373.852H105.195C105.443 373.457 106.016 373.18 106.639 373.18C108.004 373.18 109.003 374.277 109.003 375.77C109.003 377.264 108.004 378.361 106.639 378.361C106.006 378.361 105.284 378.005 105.116 377.56V380.22H104.137V373.298ZM106.54 374.08C105.69 374.08 105.116 374.762 105.116 375.751C105.116 376.749 105.69 377.432 106.54 377.432C107.41 377.432 108.024 376.73 108.024 375.751C108.024 374.782 107.41 374.08 106.54 374.08ZM113.113 378.243L112.985 377.768H112.896C112.728 378.045 112.342 378.361 111.689 378.361C110.542 378.361 109.83 377.55 109.83 376.265V373.298H110.809V375.869C110.809 376.937 111.145 377.481 111.828 377.481C112.56 377.481 112.945 376.997 112.945 376.067V373.298H113.924V378.243H113.113ZM117.003 378.361C116.133 378.361 115.648 377.837 115.648 376.908V374.139H114.857V373.298C115.361 373.279 115.648 372.972 115.648 372.487V371.746H116.627V373.298H117.547V374.139H116.627V376.71C116.627 377.264 116.775 377.481 117.131 377.481C117.319 377.481 117.487 377.422 117.606 377.323L118.031 378.075C117.754 378.253 117.418 378.361 117.003 378.361ZM119.331 376.047C119.43 376.898 119.984 377.422 120.696 377.422C121.279 377.422 121.734 377.145 121.962 376.641L122.852 376.947C122.496 377.847 121.665 378.361 120.696 378.361C119.341 378.361 118.372 377.244 118.372 375.741C118.372 374.277 119.351 373.18 120.696 373.18C122.041 373.18 123.01 374.258 123.03 375.711V376.047H119.331ZM120.696 374.119C120.014 374.119 119.499 374.584 119.361 375.306H122.041C121.902 374.584 121.378 374.119 120.696 374.119ZM123.912 378.243V373.298H124.723L124.852 373.773H124.941C125.099 373.506 125.465 373.18 126.137 373.18C126.226 373.18 126.306 373.19 126.375 373.209V374.109C126.266 374.08 126.137 374.06 125.999 374.06C125.267 374.06 124.891 374.544 124.891 375.474V378.243H123.912Z" fill="black"/>
<rect x="167.976" y="351.31" width="128.554" height="36.8665" rx="1.97775" fill="#FFC2C2"/>
<path d="M209.694 359.397C211.12 359.397 212.047 360.38 212.047 361.82C212.047 363.26 211.12 364.243 209.694 364.243H208.24V359.397H209.694ZM209.666 363.647C210.649 363.647 211.424 362.879 211.424 361.82C211.424 360.761 210.649 359.992 209.666 359.992H208.863V363.647H209.666ZM213.876 364.326C213.149 364.326 212.567 363.89 212.567 363.246C212.567 362.602 213.163 362.166 214.049 362.166C214.333 362.166 214.602 362.208 214.859 362.291V361.965C214.859 361.571 214.506 361.28 214.035 361.28C213.64 361.28 213.398 361.432 213.26 361.723L212.72 361.529C212.886 361.031 213.412 360.699 214 360.699C214.789 360.699 215.433 361.238 215.433 361.882V364.243H214.949L214.838 363.862H214.782C214.665 364.173 214.367 364.326 213.876 364.326ZM213.149 363.246C213.149 363.606 213.488 363.786 213.924 363.786C214.429 363.786 214.859 363.516 214.859 363.149V362.817C214.609 362.72 214.298 362.664 214.021 362.664C213.453 362.664 213.149 362.872 213.149 363.246ZM217.448 364.326C216.859 364.326 216.541 363.98 216.541 363.357V361.28H215.987V360.782C216.326 360.768 216.541 360.519 216.541 360.166V359.695H217.136V360.782H217.78V361.28H217.136V363.218C217.136 363.627 217.254 363.8 217.538 363.8C217.655 363.8 217.766 363.772 217.856 363.717L218.105 364.153C217.939 364.25 217.725 364.326 217.448 364.326ZM219.797 364.326C219.07 364.326 218.489 363.89 218.489 363.246C218.489 362.602 219.084 362.166 219.97 362.166C220.254 362.166 220.524 362.208 220.78 362.291V361.965C220.78 361.571 220.427 361.28 219.957 361.28C219.562 361.28 219.32 361.432 219.181 361.723L218.641 361.529C218.807 361.031 219.334 360.699 219.922 360.699C220.711 360.699 221.355 361.238 221.355 361.882V364.243H220.87L220.759 363.862H220.704C220.586 364.173 220.289 364.326 219.797 364.326ZM219.07 363.246C219.07 363.606 219.41 363.786 219.846 363.786C220.351 363.786 220.78 363.516 220.78 363.149V362.817C220.531 362.72 220.22 362.664 219.943 362.664C219.375 362.664 219.07 362.872 219.07 363.246ZM223.499 364.243L225.403 359.397H226.13L228.033 364.243H227.341L226.794 362.796H224.745L224.191 364.243H223.499ZM224.953 362.208H226.586L225.797 360.2H225.742L224.953 362.208ZM227.962 360.782H228.592L229.548 363.239H229.603L230.558 360.782H231.188L229.831 364.243H229.312L227.962 360.782ZM232.743 364.326C232.016 364.326 231.434 363.89 231.434 363.246C231.434 362.602 232.03 362.166 232.916 362.166C233.199 362.166 233.469 362.208 233.725 362.291V361.965C233.725 361.571 233.372 361.28 232.902 361.28C232.507 361.28 232.265 361.432 232.126 361.723L231.587 361.529C231.753 361.031 232.279 360.699 232.867 360.699C233.656 360.699 234.3 361.238 234.3 361.882V364.243H233.815L233.705 363.862H233.649C233.532 364.173 233.234 364.326 232.743 364.326ZM232.016 363.246C232.016 363.606 232.355 363.786 232.791 363.786C233.296 363.786 233.725 363.516 233.725 363.149V362.817C233.476 362.72 233.165 362.664 232.888 362.664C232.32 362.664 232.016 362.872 232.016 363.246ZM235.598 360.117C235.377 360.117 235.197 359.937 235.197 359.716C235.197 359.494 235.377 359.314 235.598 359.314C235.82 359.314 236 359.494 236 359.716C236 359.937 235.82 360.117 235.598 360.117ZM235.301 360.782H235.896V364.243H235.301V360.782ZM236.969 359.314H237.565V364.243H236.969V359.314ZM239.671 364.326C238.945 364.326 238.363 363.89 238.363 363.246C238.363 362.602 238.958 362.166 239.844 362.166C240.128 362.166 240.398 362.208 240.654 362.291V361.965C240.654 361.571 240.301 361.28 239.831 361.28C239.436 361.28 239.194 361.432 239.055 361.723L238.515 361.529C238.682 361.031 239.208 360.699 239.796 360.699C240.585 360.699 241.229 361.238 241.229 361.882V364.243H240.744L240.634 363.862H240.578C240.461 364.173 240.163 364.326 239.671 364.326ZM238.945 363.246C238.945 363.606 239.284 363.786 239.72 363.786C240.225 363.786 240.654 363.516 240.654 363.149V362.817C240.405 362.72 240.094 362.664 239.817 362.664C239.249 362.664 238.945 362.872 238.945 363.246ZM242.195 364.243V359.314H242.79V361.342C242.88 360.975 243.462 360.699 243.905 360.699C244.839 360.699 245.511 361.453 245.511 362.512C245.511 363.571 244.839 364.326 243.905 364.326C243.462 364.326 243.032 364.146 242.846 363.862H242.79L242.679 364.243H242.195ZM243.835 363.765C244.465 363.765 244.915 363.253 244.915 362.512C244.915 361.771 244.465 361.259 243.835 361.259C243.212 361.259 242.79 361.758 242.79 362.512C242.79 363.267 243.212 363.765 243.835 363.765ZM246.603 360.117C246.382 360.117 246.202 359.937 246.202 359.716C246.202 359.494 246.382 359.314 246.603 359.314C246.825 359.314 247.005 359.494 247.005 359.716C247.005 359.937 246.825 360.117 246.603 360.117ZM246.306 360.782H246.901V364.243H246.306V360.782ZM247.975 359.314H248.57V364.243H247.975V359.314ZM249.943 360.117C249.721 360.117 249.541 359.937 249.541 359.716C249.541 359.494 249.721 359.314 249.943 359.314C250.164 359.314 250.344 359.494 250.344 359.716C250.344 359.937 250.164 360.117 249.943 360.117ZM249.645 360.782H250.24V364.243H249.645V360.782ZM252.498 364.326C251.909 364.326 251.591 363.98 251.591 363.357V361.28H251.037V360.782C251.376 360.768 251.591 360.519 251.591 360.166V359.695H252.186V360.782H252.83V361.28H252.186V363.218C252.186 363.627 252.304 363.8 252.588 363.8C252.705 363.8 252.816 363.772 252.906 363.717L253.155 364.153C252.989 364.25 252.775 364.326 252.498 364.326ZM255.347 364.762C255.181 365.26 255.001 365.71 254.295 365.71C253.984 365.71 253.748 365.586 253.555 365.316L253.921 365.011C253.977 365.08 254.101 365.239 254.274 365.239C254.586 365.239 254.697 364.997 254.946 364.243H254.537L253.368 360.782H254.004L255.001 363.73H255.057L256.053 360.782H256.683L255.347 364.762Z" fill="black"/>
<path d="M217.81 378.243V371.321H220.282C221.35 371.321 222.201 372.22 222.201 373.219C222.201 373.822 222.052 374.445 221.311 374.742V374.821C221.963 375.058 222.389 375.711 222.389 376.512C222.389 377.56 221.647 378.243 220.628 378.243H217.81ZM218.829 374.327H220.085C220.688 374.327 221.143 373.892 221.143 373.318C221.143 372.725 220.698 372.3 220.085 372.3H218.829V374.327ZM218.829 377.264H220.263C220.866 377.264 221.321 376.829 221.321 376.235C221.321 375.652 220.876 375.236 220.263 375.236H218.829V377.264ZM224.049 372.478C223.703 372.478 223.416 372.191 223.416 371.845C223.416 371.489 223.703 371.202 224.049 371.202C224.405 371.202 224.692 371.489 224.692 371.845C224.692 372.191 224.405 372.478 224.049 372.478ZM223.565 373.298H224.544V378.243H223.565V373.298ZM227.767 378.361C226.896 378.361 226.412 377.837 226.412 376.908V374.139H225.621V373.298C226.125 373.279 226.412 372.972 226.412 372.487V371.746H227.391V373.298H228.31V374.139H227.391V376.71C227.391 377.264 227.539 377.481 227.895 377.481C228.083 377.481 228.251 377.422 228.37 377.323L228.795 378.075C228.518 378.253 228.182 378.361 227.767 378.361ZM233.813 376.848C233.437 377.788 232.627 378.361 231.578 378.361C230.144 378.361 229.136 377.274 229.136 375.761C229.136 374.248 230.154 373.18 231.578 373.18C232.627 373.18 233.447 373.743 233.813 374.673L232.884 374.999C232.656 374.465 232.201 374.169 231.578 374.169C230.678 374.169 230.115 374.792 230.115 375.761C230.115 376.72 230.688 377.363 231.578 377.363C232.191 377.363 232.646 377.066 232.884 376.532L233.813 376.848ZM236.996 378.361C235.552 378.361 234.544 377.264 234.544 375.78C234.544 374.287 235.552 373.19 236.996 373.19C238.46 373.19 239.468 374.287 239.468 375.78C239.468 377.264 238.46 378.361 236.996 378.361ZM236.996 377.372C237.916 377.372 238.479 376.72 238.479 375.78C238.479 374.831 237.916 374.178 236.996 374.178C236.096 374.178 235.523 374.831 235.533 375.78C235.533 376.72 236.096 377.372 236.996 377.372ZM241.026 372.478C240.68 372.478 240.393 372.191 240.393 371.845C240.393 371.489 240.68 371.202 241.026 371.202C241.382 371.202 241.669 371.489 241.669 371.845C241.669 372.191 241.382 372.478 241.026 372.478ZM240.541 373.298H241.52V378.243H240.541V373.298ZM243.705 373.298L243.834 373.773H243.923C244.091 373.496 244.467 373.18 245.119 373.18C246.266 373.18 246.988 373.991 246.988 375.276V378.243H246.009V375.672C246.009 374.604 245.663 374.06 244.981 374.06C244.249 374.06 243.873 374.544 243.873 375.474V378.243H242.894V373.298H243.705Z" fill="black"/>
<rect x="1.34991" y="313.071" width="313.968" height="86.4771" rx="5.43881" stroke="#FF4747" stroke-width="0.988875" stroke-dasharray="3.96 3.96"/>
</svg>
