<svg width="520" height="300" viewBox="0 0 520 300" fill="none" xmlns="http://www.w3.org/2000/svg">
<rect x="105.623" y="99.3387" width="307.754" height="133.764" rx="5.33118" stroke="#898989" stroke-width="0.969305" stroke-dasharray="3.88 3.88"/>
<rect x="165" y="6" width="32.7876" height="34" rx="16.3938" fill="white"/>
<path d="M184.062 22.7163H178.725V29.3884H184.062V22.7163Z" fill="#EAC3A2"/>
<path fill-rule="evenodd" clip-rule="evenodd" d="M186.287 17.3789V20.9374C186.287 23.6351 184.092 25.8302 181.394 25.8302C178.696 25.8302 176.501 23.6351 176.501 20.9374V17.3789H186.287Z" fill="#F1D9C5"/>
<path fill-rule="evenodd" clip-rule="evenodd" d="M191.179 31.6167C191.179 30.8775 190.633 30.039 189.956 29.7429L184.062 27.1646C183.312 27.7206 182.393 28.0542 181.394 28.0542C180.395 28.0542 179.476 27.7206 178.733 27.1646L172.833 29.7429C172.156 30.0386 171.608 30.8785 171.608 31.6167V32.9457C171.608 33.1921 171.808 33.3918 172.053 33.3918H190.734C190.98 33.3918 191.179 33.1971 191.179 32.9457V31.6167Z" fill="white"/>
<path fill-rule="evenodd" clip-rule="evenodd" d="M176.501 17.3783C176.501 15.9046 177.629 14.3072 179.016 13.8118L182.31 12.6353C182.541 12.5528 182.817 12.663 182.926 12.8808L183.618 14.2651C185.092 14.2651 186.287 15.463 186.287 16.934V19.6028C186.287 18.3745 185.291 17.3788 184.063 17.3788H178.725C177.497 17.3788 176.501 18.3745 176.501 19.6028V17.3783Z" fill="#87613E"/>
<path fill-rule="evenodd" clip-rule="evenodd" d="M180.059 33.392L180.949 30.7231H181.838L182.728 33.392H180.059Z" fill="#EA9860"/>
<path fill-rule="evenodd" clip-rule="evenodd" d="M180.949 30.7232H181.838L182.81 29.7514C183.002 29.56 182.979 29.2435 182.762 29.081L181.66 28.2545C181.502 28.1359 181.285 28.1359 181.127 28.2545L180.025 29.081C179.808 29.2435 179.786 29.56 179.977 29.7514L180.949 30.7232Z" fill="#EA9860"/>
<path fill-rule="evenodd" clip-rule="evenodd" d="M179.614 33.3918L178.733 27.1646L172.833 29.7429C172.156 30.0386 171.608 30.8785 171.608 31.6167V32.9457C171.608 33.1921 171.808 33.3918 172.05 33.3918H179.614Z" fill="#444444"/>
<path fill-rule="evenodd" clip-rule="evenodd" d="M183.173 33.3918L184.054 27.1646L189.955 29.7429C190.631 30.0386 191.179 30.8785 191.179 31.6167V32.9457C191.179 33.1921 190.979 33.3918 190.737 33.3918H183.173Z" fill="#444444"/>
<path fill-rule="evenodd" clip-rule="evenodd" d="M186.732 19.603V20.0478C186.732 21.2761 185.736 22.2718 184.507 22.2718H184.063C182.987 22.2718 182.09 21.5077 181.884 20.4926C181.839 20.2311 181.639 20.0478 181.394 20.0478C181.148 20.0478 180.94 20.2484 180.905 20.4926C180.699 21.5077 179.801 22.2718 178.725 22.2718H178.28C177.052 22.2718 176.056 21.2761 176.056 20.0478V19.603C176.056 19.1117 176.454 18.7134 176.946 18.7134H185.842C186.333 18.7134 186.732 19.1117 186.732 19.603Z" fill="#444444"/>
<path d="M176.744 49.02C176.744 50.6969 175.649 51.8116 173.982 51.8116C172.315 51.8116 171.219 50.6969 171.219 49.02V44.9102H172.48V48.8262C172.48 49.9699 173.013 50.5806 173.982 50.5806C174.951 50.5806 175.484 49.9699 175.484 48.8262V44.9102H176.744V49.02ZM178.821 49.8924C178.908 50.3286 179.063 50.6775 179.674 50.6775C180.178 50.6775 180.517 50.5031 180.517 50.251C180.517 49.8924 180.246 49.8439 179.073 49.6404C178.181 49.4853 177.774 49.0879 177.774 48.2931C177.774 47.3528 178.51 46.7325 179.645 46.7325C180.75 46.7325 181.37 47.2268 181.603 48.2737L180.536 48.6226C180.381 48.041 180.178 47.8569 179.664 47.8569C179.208 47.8569 178.947 48.0313 178.947 48.3124C178.947 48.5935 179.034 48.6711 179.383 48.7389C181.137 49.0782 181.69 49.2139 181.69 50.251C181.69 51.1622 180.856 51.8116 179.712 51.8116C178.569 51.8116 177.716 51.1913 177.619 50.2123L178.821 49.8924ZM183.403 49.6404C183.519 50.2801 184.004 50.6291 184.585 50.6291C185.148 50.6291 185.545 50.4061 185.749 49.9215L186.873 50.2801C186.524 51.2785 185.632 51.8116 184.585 51.8116C183.199 51.8116 182.172 50.6678 182.172 49.243C182.172 47.8472 183.209 46.7325 184.585 46.7325C185.962 46.7325 186.98 47.8375 186.999 49.243V49.6404H183.403ZM184.585 47.915C184.033 47.915 183.597 48.2543 183.432 48.7195H185.739C185.574 48.2543 185.138 47.915 184.585 47.915ZM187.726 51.6953V46.8488H188.753L188.869 47.285H188.966C189.141 46.9845 189.48 46.7325 190.042 46.7325C190.168 46.7325 190.304 46.7519 190.401 46.8003V47.9344C190.246 47.8859 190.071 47.8569 189.907 47.8569C189.267 47.8569 188.947 48.264 188.947 49.1073V51.6953H187.726Z" fill="white"/>
<path d="M114.954 117.608V110.823H117.513C118.918 110.823 119.49 111.948 119.49 112.781C119.49 113.45 119.229 113.935 118.608 114.167V114.264C119.229 114.468 119.703 115.156 119.703 115.912C119.703 117.007 118.918 117.608 117.852 117.608H114.954ZM116.214 113.702H117.319C117.833 113.702 118.22 113.353 118.22 112.878C118.22 112.384 117.842 112.045 117.319 112.045H116.214V113.702ZM116.214 116.387H117.493C118.007 116.387 118.395 116.028 118.395 115.544C118.395 115.059 118.017 114.73 117.493 114.73H116.214V116.387ZM123.892 117.608H122.622L119.801 110.823H121.178L123.213 115.757H123.31L125.336 110.823H126.712L123.892 117.608ZM127.392 117.608V110.823H128.875L131.037 115.321H131.134L133.285 110.823H134.768V117.608H133.508V113.402H133.411L131.696 116.881H130.465L128.749 113.402H128.652V117.608H127.392Z" fill="white"/>
<path d="M219.708 287.976V281.191H222.267C223.673 281.191 224.245 282.315 224.245 283.149C224.245 283.818 223.983 284.302 223.363 284.535V284.632C223.983 284.836 224.458 285.524 224.458 286.28C224.458 287.375 223.673 287.976 222.607 287.976H219.708ZM220.968 284.07H222.073C222.587 284.07 222.975 283.721 222.975 283.246C222.975 282.752 222.597 282.412 222.073 282.412H220.968V284.07ZM220.968 286.755H222.248C222.762 286.755 223.149 286.396 223.149 285.911C223.149 285.427 222.771 285.097 222.248 285.097H220.968V286.755ZM226.083 282.587C225.666 282.587 225.326 282.247 225.326 281.831C225.326 281.414 225.666 281.075 226.083 281.075C226.499 281.075 226.839 281.414 226.839 281.831C226.839 282.247 226.499 282.587 226.083 282.587ZM225.472 283.13H226.693V287.976H225.472V283.13ZM229.85 288.092C228.919 288.092 228.386 287.521 228.386 286.542V284.215H227.61V283.13C228.163 283.11 228.386 282.916 228.386 282.461V281.608H229.607V283.13H230.509V284.215H229.607V286.348C229.607 286.823 229.704 286.968 229.976 286.968C230.179 286.968 230.383 286.89 230.48 286.755L231.032 287.724C230.673 287.976 230.276 288.092 229.85 288.092ZM236.121 286.406C235.753 287.443 234.881 288.092 233.756 288.092C232.293 288.092 231.226 286.997 231.226 285.543C231.226 284.089 232.302 283.013 233.756 283.013C234.881 283.013 235.763 283.643 236.121 284.68L234.958 285.088C234.755 284.535 234.348 284.244 233.756 284.244C232.971 284.244 232.448 284.758 232.448 285.543C232.448 286.319 232.971 286.842 233.756 286.842C234.348 286.842 234.755 286.561 234.958 286.008L236.121 286.406ZM239.237 288.092C237.774 288.092 236.698 286.987 236.698 285.553C236.698 284.128 237.774 283.023 239.237 283.023C240.711 283.023 241.787 284.128 241.787 285.553C241.787 286.987 240.711 288.092 239.237 288.092ZM239.237 286.861C240.042 286.861 240.555 286.309 240.555 285.553C240.555 284.806 240.042 284.254 239.237 284.254C238.442 284.254 237.929 284.806 237.929 285.553C237.929 286.309 238.442 286.861 239.237 286.861ZM243.32 282.587C242.903 282.587 242.564 282.247 242.564 281.831C242.564 281.414 242.903 281.075 243.32 281.075C243.737 281.075 244.076 281.414 244.076 281.831C244.076 282.247 243.737 282.587 243.32 282.587ZM242.709 283.13H243.931V287.976H242.709V283.13ZM246.166 283.13L246.282 283.566H246.379C246.544 283.275 246.893 283.013 247.455 283.013C248.657 283.013 249.413 283.866 249.413 285.194V287.976H248.192V285.582C248.192 284.593 247.911 284.138 247.32 284.138C246.68 284.138 246.36 284.545 246.36 285.388V287.976H245.139V283.13H246.166ZM252.706 287.976V281.191H255.265C256.671 281.191 257.243 282.315 257.243 283.149C257.243 283.818 256.981 284.302 256.361 284.535V284.632C256.981 284.836 257.456 285.524 257.456 286.28C257.456 287.375 256.671 287.976 255.605 287.976H252.706ZM253.966 284.07H255.071C255.585 284.07 255.973 283.721 255.973 283.246C255.973 282.752 255.595 282.412 255.071 282.412H253.966V284.07ZM253.966 286.755H255.246C255.76 286.755 256.147 286.396 256.147 285.911C256.147 285.427 255.769 285.097 255.246 285.097H253.966V286.755ZM258.421 281.075H259.643V287.976H258.421V281.075ZM263.053 288.092C261.59 288.092 260.514 286.987 260.514 285.553C260.514 284.128 261.59 283.023 263.053 283.023C264.527 283.023 265.603 284.128 265.603 285.553C265.603 286.987 264.527 288.092 263.053 288.092ZM263.053 286.861C263.858 286.861 264.372 286.309 264.372 285.553C264.372 284.806 263.858 284.254 263.053 284.254C262.259 284.254 261.745 284.806 261.745 285.553C261.745 286.309 262.259 286.861 263.053 286.861ZM271.174 286.406C270.805 287.443 269.933 288.092 268.808 288.092C267.345 288.092 266.279 286.997 266.279 285.543C266.279 284.089 267.354 283.013 268.808 283.013C269.933 283.013 270.815 283.643 271.174 284.68L270.01 285.088C269.807 284.535 269.4 284.244 268.808 284.244C268.023 284.244 267.5 284.758 267.5 285.543C267.5 286.319 268.023 286.842 268.808 286.842C269.4 286.842 269.807 286.561 270.01 286.008L271.174 286.406ZM274.468 283.13H275.99L274.342 285.136V285.233L276.194 287.976H274.711L273.596 286.319H273.499L273.17 286.784V287.976H271.948V281.075H273.17V284.642H273.218L274.468 283.13ZM281.283 286.406C280.915 287.443 280.042 288.092 278.918 288.092C277.454 288.092 276.388 286.997 276.388 285.543C276.388 284.089 277.464 283.013 278.918 283.013C280.042 283.013 280.924 283.643 281.283 284.68L280.12 285.088C279.916 284.535 279.509 284.244 278.918 284.244C278.133 284.244 277.609 284.758 277.609 285.543C277.609 286.319 278.133 286.842 278.918 286.842C279.509 286.842 279.916 286.561 280.12 286.008L281.283 286.406ZM283.376 283.575C283.531 283.275 284.035 283.042 284.471 283.042C285.702 283.042 286.536 283.886 286.536 285.146V287.976H285.315V285.388C285.315 284.613 284.907 284.167 284.219 284.167C283.657 284.167 283.279 284.7 283.279 285.504V287.976H282.058V281.046H283.279V283.575H283.376ZM289.097 288.092C288.225 288.092 287.362 287.559 287.362 286.58C287.362 285.563 288.196 284.942 289.534 284.942C289.863 284.942 290.173 284.981 290.474 285.058V284.777C290.474 284.438 290.144 284.205 289.582 284.205C289.049 284.205 288.845 284.39 288.758 284.69L287.585 284.438C287.77 283.566 288.506 283.013 289.514 283.013C290.813 283.013 291.666 283.74 291.666 284.661V287.976H290.648L290.484 287.424H290.387C290.241 287.86 289.795 288.092 289.097 288.092ZM288.564 286.503C288.564 286.813 288.836 286.997 289.311 286.997C289.941 286.997 290.474 286.726 290.474 286.222V286.076C290.173 285.979 289.815 285.931 289.495 285.931C288.981 285.931 288.564 286.144 288.564 286.503ZM293.489 282.587C293.072 282.587 292.733 282.247 292.733 281.831C292.733 281.414 293.072 281.075 293.489 281.075C293.906 281.075 294.245 281.414 294.245 281.831C294.245 282.247 293.906 282.587 293.489 282.587ZM292.878 283.13H294.1V287.976H292.878V283.13ZM296.335 283.13L296.451 283.566H296.548C296.713 283.275 297.062 283.013 297.624 283.013C298.826 283.013 299.582 283.866 299.582 285.194V287.976H298.361V285.582C298.361 284.593 298.08 284.138 297.489 284.138C296.849 284.138 296.529 284.545 296.529 285.388V287.976H295.308V283.13H296.335Z" fill="white"/>
<rect x="105.623" y="269.936" width="307.754" height="29.0792" rx="5.33118" stroke="#898989" stroke-width="0.969305" stroke-dasharray="3.88 3.88"/>
<rect x="120.647" y="137.142" width="126.01" height="26.1712" rx="1.93861" fill="#B1E3FF"/>
<path d="M155.896 153.056V153.958H151.718V147.172H152.717V153.056H155.896ZM158.532 154.074C157.116 154.074 156.128 152.998 156.128 151.544C156.128 150.08 157.116 149.004 158.532 149.004C159.966 149.004 160.955 150.08 160.955 151.544C160.955 152.998 159.966 154.074 158.532 154.074ZM158.532 153.105C159.433 153.105 159.985 152.465 159.985 151.544C159.985 150.613 159.433 149.974 158.532 149.974C157.649 149.974 157.087 150.613 157.097 151.544C157.097 152.465 157.649 153.105 158.532 153.105ZM166.345 152.591C165.976 153.512 165.181 154.074 164.154 154.074C162.749 154.074 161.76 153.008 161.76 151.525C161.76 150.042 162.758 148.995 164.154 148.995C165.181 148.995 165.986 149.547 166.345 150.458L165.433 150.778C165.211 150.255 164.765 149.964 164.154 149.964C163.272 149.964 162.719 150.575 162.719 151.525C162.719 152.465 163.282 153.095 164.154 153.095C164.755 153.095 165.201 152.804 165.433 152.281L166.345 152.591ZM168.752 154.074C167.783 154.074 166.949 153.492 166.949 152.562C166.949 151.621 167.783 151.011 169.052 151.011C169.43 151.011 169.789 151.059 170.128 151.166V150.769C170.128 150.284 169.682 149.935 169.062 149.935C168.51 149.935 168.219 150.138 168.064 150.507L167.162 150.245C167.385 149.489 168.122 148.995 169.004 148.995C170.177 148.995 171.059 149.741 171.059 150.652V153.958H170.264L170.109 153.415H170.022C169.867 153.851 169.44 154.074 168.752 154.074ZM167.889 152.533C167.889 152.979 168.296 153.201 168.868 153.201C169.547 153.201 170.128 152.862 170.128 152.348V151.99C169.789 151.874 169.382 151.806 169.014 151.806C168.316 151.806 167.889 152.067 167.889 152.533ZM172.361 147.056H173.321V153.958H172.361V147.056ZM181.876 148.995C182.961 148.995 183.562 149.731 183.562 151.05V153.958H182.603V151.437C182.603 150.468 182.409 149.857 181.691 149.857C180.935 149.857 180.703 150.41 180.703 151.243V153.958H179.743V151.437C179.743 150.468 179.549 149.857 178.832 149.857C178.076 149.857 177.843 150.41 177.843 151.243V153.958H176.884V149.111H177.678L177.795 149.576H177.882C178.018 149.276 178.396 148.995 178.977 148.995C179.646 148.995 180.024 149.285 180.267 149.838H180.354C180.625 149.305 181.207 148.995 181.876 148.995ZM185.314 151.806C185.411 152.639 185.954 153.153 186.652 153.153C187.224 153.153 187.669 152.882 187.892 152.387L188.765 152.688C188.416 153.57 187.602 154.074 186.652 154.074C185.324 154.074 184.374 152.979 184.374 151.505C184.374 150.071 185.333 148.995 186.652 148.995C187.97 148.995 188.92 150.051 188.939 151.476V151.806H185.314ZM186.652 149.916C185.983 149.916 185.479 150.371 185.343 151.079H187.97C187.834 150.371 187.32 149.916 186.652 149.916ZM194.796 148.995C195.882 148.995 196.483 149.731 196.483 151.05V153.958H195.523V151.437C195.523 150.468 195.33 149.857 194.612 149.857C193.856 149.857 193.624 150.41 193.624 151.243V153.958H192.664V151.437C192.664 150.468 192.47 149.857 191.753 149.857C190.997 149.857 190.764 150.41 190.764 151.243V153.958H189.805V149.111H190.599L190.716 149.576H190.803C190.939 149.276 191.317 148.995 191.898 148.995C192.567 148.995 192.945 149.285 193.187 149.838H193.275C193.546 149.305 194.128 148.995 194.796 148.995ZM197.682 149.111H198.477L198.632 149.654H198.72C198.962 149.266 199.524 148.995 200.135 148.995C201.472 148.995 202.451 150.071 202.451 151.534C202.451 152.998 201.472 154.074 200.135 154.074C199.514 154.074 198.807 153.725 198.642 153.289V155.896H197.682V149.111ZM200.038 149.877C199.204 149.877 198.642 150.546 198.642 151.515C198.642 152.494 199.204 153.163 200.038 153.163C200.891 153.163 201.492 152.474 201.492 151.515C201.492 150.565 200.891 149.877 200.038 149.877ZM205.662 154.074C204.247 154.074 203.258 152.998 203.258 151.544C203.258 150.08 204.247 149.004 205.662 149.004C207.097 149.004 208.085 150.08 208.085 151.544C208.085 152.998 207.097 154.074 205.662 154.074ZM205.662 153.105C206.564 153.105 207.116 152.465 207.116 151.544C207.116 150.613 206.564 149.974 205.662 149.974C204.78 149.974 204.218 150.613 204.228 151.544C204.228 152.465 204.78 153.105 205.662 153.105ZM211.294 154.074C209.879 154.074 208.89 152.998 208.89 151.544C208.89 150.08 209.879 149.004 211.294 149.004C212.729 149.004 213.718 150.08 213.718 151.544C213.718 152.998 212.729 154.074 211.294 154.074ZM211.294 153.105C212.196 153.105 212.748 152.465 212.748 151.544C212.748 150.613 212.196 149.974 211.294 149.974C210.412 149.974 209.85 150.613 209.86 151.544C209.86 152.465 210.412 153.105 211.294 153.105ZM214.721 147.056H215.681V153.958H214.721V147.056Z" fill="#1C1C1C"/>
<rect x="265.558" y="137.142" width="126.01" height="26.1712" rx="1.93861" fill="#B1E3FF"/>
<path d="M275.038 148.074V150.245H277.732V151.156H275.038V153.056H278.023V153.958H274.039V147.172H278.042V148.074H275.038ZM280.959 154.074C280.106 154.074 279.631 153.56 279.631 152.649V149.935H278.855V149.111C279.35 149.092 279.631 148.791 279.631 148.316V147.589H280.591V149.111H281.492V149.935H280.591V152.455C280.591 152.998 280.736 153.211 281.085 153.211C281.269 153.211 281.434 153.153 281.55 153.056L281.967 153.793C281.696 153.967 281.366 154.074 280.959 154.074ZM283.925 149.654C284.138 149.285 284.574 149.024 285.156 149.024C286.329 149.024 287.095 149.819 287.095 151.001V153.958H286.135V151.243C286.135 150.332 285.612 149.886 284.923 149.886C284.303 149.886 283.838 150.478 283.838 151.36V153.958H282.878V147.056H283.838V149.654H283.925ZM288.845 151.806C288.942 152.639 289.485 153.153 290.183 153.153C290.755 153.153 291.201 152.882 291.423 152.387L292.296 152.688C291.947 153.57 291.133 154.074 290.183 154.074C288.855 154.074 287.905 152.979 287.905 151.505C287.905 150.071 288.864 148.995 290.183 148.995C291.501 148.995 292.451 150.051 292.47 151.476V151.806H288.845ZM290.183 149.916C289.514 149.916 289.01 150.371 288.874 151.079H291.501C291.365 150.371 290.852 149.916 290.183 149.916ZM293.336 153.958V149.111H294.13L294.256 149.576H294.344C294.499 149.315 294.857 148.995 295.517 148.995C295.604 148.995 295.681 149.004 295.749 149.024V149.906C295.643 149.877 295.517 149.857 295.381 149.857C294.664 149.857 294.295 150.332 294.295 151.243V153.958H293.336ZM297.213 151.806C297.31 152.639 297.853 153.153 298.551 153.153C299.122 153.153 299.568 152.882 299.791 152.387L300.664 152.688C300.315 153.57 299.5 154.074 298.551 154.074C297.223 154.074 296.273 152.979 296.273 151.505C296.273 150.071 297.232 148.995 298.551 148.995C299.869 148.995 300.819 150.051 300.838 151.476V151.806H297.213ZM298.551 149.916C297.882 149.916 297.378 150.371 297.242 151.079H299.869C299.733 150.371 299.219 149.916 298.551 149.916ZM304.73 153.958L304.604 153.492H304.517C304.352 153.764 303.974 154.074 303.334 154.074C302.21 154.074 301.512 153.279 301.512 152.019V149.111H302.471V151.631C302.471 152.678 302.801 153.211 303.47 153.211C304.187 153.211 304.565 152.736 304.565 151.825V149.111H305.525V153.958H304.73ZM311.722 148.995C312.807 148.995 313.408 149.731 313.408 151.05V153.958H312.449V151.437C312.449 150.468 312.255 149.857 311.538 149.857C310.782 149.857 310.549 150.41 310.549 151.243V153.958H309.589V151.437C309.589 150.468 309.395 149.857 308.678 149.857C307.922 149.857 307.689 150.41 307.689 151.243V153.958H306.73V149.111H307.525L307.641 149.576H307.728C307.864 149.276 308.242 148.995 308.824 148.995C309.492 148.995 309.87 149.285 310.113 149.838H310.2C310.471 149.305 311.053 148.995 311.722 148.995ZM314.414 151.631V150.759H317.264V151.631H314.414ZM322.667 152.591C322.299 153.512 321.504 154.074 320.476 154.074C319.071 154.074 318.082 153.008 318.082 151.525C318.082 150.042 319.08 148.995 320.476 148.995C321.504 148.995 322.308 149.547 322.667 150.458L321.756 150.778C321.533 150.255 321.087 149.964 320.476 149.964C319.594 149.964 319.042 150.575 319.042 151.525C319.042 152.465 319.604 153.095 320.476 153.095C321.077 153.095 321.523 152.804 321.756 152.281L322.667 152.591ZM325.787 154.074C324.372 154.074 323.383 152.998 323.383 151.544C323.383 150.08 324.372 149.004 325.787 149.004C327.221 149.004 328.21 150.08 328.21 151.544C328.21 152.998 327.221 154.074 325.787 154.074ZM325.787 153.105C326.688 153.105 327.241 152.465 327.241 151.544C327.241 150.613 326.688 149.974 325.787 149.974C324.905 149.974 324.343 150.613 324.352 151.544C324.352 152.465 324.905 153.105 325.787 153.105ZM334.109 148.995C335.194 148.995 335.795 149.731 335.795 151.05V153.958H334.836V151.437C334.836 150.468 334.642 149.857 333.924 149.857C333.168 149.857 332.936 150.41 332.936 151.243V153.958H331.976V151.437C331.976 150.468 331.782 149.857 331.065 149.857C330.309 149.857 330.076 150.41 330.076 151.243V153.958H329.117V149.111H329.911L330.028 149.576H330.115C330.251 149.276 330.629 148.995 331.21 148.995C331.879 148.995 332.257 149.285 332.5 149.838H332.587C332.858 149.305 333.44 148.995 334.109 148.995ZM336.995 149.111H337.789L337.944 149.654H338.032C338.274 149.266 338.836 148.995 339.447 148.995C340.784 148.995 341.763 150.071 341.763 151.534C341.763 152.998 340.784 154.074 339.447 154.074C338.826 154.074 338.119 153.725 337.954 153.289V155.896H336.995V149.111ZM339.35 149.877C338.516 149.877 337.954 150.546 337.954 151.515C337.954 152.494 338.516 153.163 339.35 153.163C340.203 153.163 340.804 152.474 340.804 151.515C340.804 150.565 340.203 149.877 339.35 149.877ZM344.261 154.074C343.292 154.074 342.459 153.492 342.459 152.562C342.459 151.621 343.292 151.011 344.562 151.011C344.94 151.011 345.299 151.059 345.638 151.166V150.769C345.638 150.284 345.192 149.935 344.572 149.935C344.019 149.935 343.728 150.138 343.573 150.507L342.672 150.245C342.895 149.489 343.631 148.995 344.513 148.995C345.686 148.995 346.568 149.741 346.568 150.652V153.958H345.774L345.618 153.415H345.531C345.376 153.851 344.95 154.074 344.261 154.074ZM343.399 152.533C343.399 152.979 343.806 153.201 344.378 153.201C345.056 153.201 345.638 152.862 345.638 152.348V151.99C345.299 151.874 344.891 151.806 344.523 151.806C343.825 151.806 343.399 152.067 343.399 152.533ZM349.397 154.074C348.544 154.074 348.069 153.56 348.069 152.649V149.935H347.294V149.111C347.788 149.092 348.069 148.791 348.069 148.316V147.589H349.029V149.111H349.93V149.935H349.029V152.455C349.029 152.998 349.174 153.211 349.523 153.211C349.707 153.211 349.872 153.153 349.988 153.056L350.405 153.793C350.134 153.967 349.804 154.074 349.397 154.074ZM351.84 148.306C351.501 148.306 351.219 148.025 351.219 147.686C351.219 147.337 351.501 147.056 351.84 147.056C352.189 147.056 352.47 147.337 352.47 147.686C352.47 148.025 352.189 148.306 351.84 148.306ZM351.365 149.111H352.324V153.958H351.365V149.111ZM353.768 153.958V147.056H354.728V149.78C354.892 149.344 355.6 148.995 356.22 148.995C357.558 148.995 358.537 150.071 358.537 151.534C358.537 152.998 357.558 154.074 356.22 154.074C355.61 154.074 355.048 153.802 354.805 153.415H354.718L354.563 153.958H353.768ZM356.123 153.192C356.976 153.192 357.577 152.504 357.577 151.554C357.577 150.594 356.976 149.906 356.123 149.906C355.29 149.906 354.728 150.575 354.728 151.554C354.728 152.523 355.29 153.192 356.123 153.192ZM359.542 147.056H360.502V153.958H359.542V147.056ZM362.452 151.806C362.549 152.639 363.091 153.153 363.789 153.153C364.361 153.153 364.807 152.882 365.03 152.387L365.902 152.688C365.553 153.57 364.739 154.074 363.789 154.074C362.461 154.074 361.511 152.979 361.511 151.505C361.511 150.071 362.471 148.995 363.789 148.995C365.108 148.995 366.058 150.051 366.077 151.476V151.806H362.452ZM363.789 149.916C363.121 149.916 362.617 150.371 362.481 151.079H365.108C364.972 150.371 364.458 149.916 363.789 149.916ZM372.442 153.958H371.337L368.623 147.172H369.689L371.851 152.571H371.938L374.08 147.172H375.156L372.442 153.958ZM375.968 153.958V147.172H377.238L379.486 152.106H379.574L381.813 147.172H383.082V153.958H382.084V149.024H381.997L380.068 153.231H378.982L377.053 149.024H376.966V153.958H375.968Z" fill="#1C1C1C"/>
<rect x="120.647" y="188.515" width="126.01" height="26.1712" rx="1.93861" fill="#B1E3FF"/>
<path d="M165.828 205.331V199.447H163.666V198.545H168.988V199.447H166.826V205.331H165.828ZM169.373 205.331L171.728 201.851V201.773L169.557 198.545H170.653L172.252 200.93H172.368L173.968 198.545H175.063L172.892 201.773V201.851L175.247 205.331H174.152L172.349 202.675H172.271L170.468 205.331H169.373ZM182.156 200.814H182.078L180.702 205.331H179.636L177.552 198.545H178.56L180.13 203.673H180.217L181.564 199.195H182.669L184.017 203.673H184.094L185.665 198.545H186.673L184.589 205.331H183.522L182.156 200.814ZM186.813 205.331V200.484H187.608L187.734 200.949H187.821C187.977 200.688 188.335 200.368 188.994 200.368C189.082 200.368 189.159 200.377 189.227 200.397V201.279C189.12 201.25 188.994 201.23 188.859 201.23C188.141 201.23 187.773 201.705 187.773 202.617V205.331H186.813ZM190.662 199.68C190.322 199.68 190.041 199.398 190.041 199.059C190.041 198.71 190.322 198.429 190.662 198.429C191.011 198.429 191.292 198.71 191.292 199.059C191.292 199.398 191.011 199.68 190.662 199.68ZM190.187 200.484H191.146V205.331H190.187V200.484ZM194.305 205.447C193.452 205.447 192.978 204.933 192.978 204.022V201.308H192.202V200.484C192.696 200.465 192.978 200.164 192.978 199.689V198.962H193.937V200.484H194.839V201.308H193.937V203.828C193.937 204.371 194.083 204.584 194.431 204.584C194.616 204.584 194.78 204.526 194.897 204.429L195.314 205.166C195.042 205.34 194.713 205.447 194.305 205.447ZM196.588 203.179C196.685 204.012 197.228 204.526 197.926 204.526C198.497 204.526 198.943 204.255 199.166 203.76L200.039 204.061C199.69 204.943 198.875 205.447 197.926 205.447C196.598 205.447 195.648 204.352 195.648 202.878C195.648 201.444 196.607 200.368 197.926 200.368C199.244 200.368 200.194 201.424 200.213 202.849V203.179H196.588ZM197.926 201.289C197.257 201.289 196.753 201.744 196.617 202.452H199.244C199.108 201.744 198.594 201.289 197.926 201.289ZM201.078 205.331V200.484H201.873L201.999 200.949H202.086C202.242 200.688 202.6 200.368 203.259 200.368C203.347 200.368 203.424 200.377 203.492 200.397V201.279C203.385 201.25 203.259 201.23 203.124 201.23C202.406 201.23 202.038 201.705 202.038 202.617V205.331H201.078Z" fill="#1C1C1C"/>
<rect x="265.558" y="188.515" width="126.01" height="26.1712" rx="1.93861" fill="#B1E3FF"/>
<path d="M308.775 205.331V199.447H306.613V198.545H311.935V199.447H309.773V205.331H308.775ZM312.32 205.331L314.675 201.851V201.773L312.504 198.545H313.599L315.199 200.93H315.315L316.915 198.545H318.01L315.839 201.773V201.851L318.194 205.331H317.099L315.296 202.675H315.218L313.415 205.331H312.32ZM322.243 205.331H321.274V198.545H323.881C325.006 198.545 325.82 199.35 325.82 200.484C325.82 201.366 325.268 202.103 324.444 202.335L326.179 205.331H325.064L323.377 202.413H322.243V205.331ZM323.794 201.482C324.405 201.482 324.831 201.066 324.831 200.484C324.831 199.893 324.405 199.486 323.794 199.486H322.243V201.482H323.794ZM327.447 203.179C327.544 204.012 328.087 204.526 328.785 204.526C329.356 204.526 329.802 204.255 330.025 203.76L330.898 204.061C330.549 204.943 329.734 205.447 328.785 205.447C327.457 205.447 326.507 204.352 326.507 202.878C326.507 201.444 327.466 200.368 328.785 200.368C330.103 200.368 331.053 201.424 331.072 202.849V203.179H327.447ZM328.785 201.289C328.116 201.289 327.612 201.744 327.476 202.452H330.103C329.967 201.744 329.453 201.289 328.785 201.289ZM333.527 205.447C332.558 205.447 331.724 204.865 331.724 203.935C331.724 202.995 332.558 202.384 333.828 202.384C334.206 202.384 334.564 202.432 334.904 202.539V202.142C334.904 201.657 334.458 201.308 333.837 201.308C333.285 201.308 332.994 201.512 332.839 201.88L331.937 201.618C332.16 200.862 332.897 200.368 333.779 200.368C334.952 200.368 335.834 201.114 335.834 202.025V205.331H335.039L334.884 204.788H334.797C334.642 205.224 334.215 205.447 333.527 205.447ZM332.664 203.906C332.664 204.352 333.072 204.575 333.643 204.575C334.322 204.575 334.904 204.235 334.904 203.722V203.363C334.564 203.247 334.157 203.179 333.789 203.179C333.091 203.179 332.664 203.44 332.664 203.906ZM341.518 205.331H340.723L340.568 204.788H340.481C340.238 205.175 339.676 205.447 339.056 205.447C337.718 205.447 336.749 204.371 336.749 202.907C336.749 201.444 337.718 200.368 339.056 200.368C339.676 200.368 340.393 200.717 340.558 201.153V198.429H341.518V205.331ZM339.153 204.565C339.986 204.565 340.558 203.896 340.558 202.927C340.558 201.948 339.986 201.279 339.153 201.279C338.309 201.279 337.708 201.967 337.708 202.927C337.708 203.877 338.309 204.565 339.153 204.565ZM343.463 203.179C343.56 204.012 344.103 204.526 344.801 204.526C345.373 204.526 345.819 204.255 346.042 203.76L346.914 204.061C346.565 204.943 345.751 205.447 344.801 205.447C343.473 205.447 342.523 204.352 342.523 202.878C342.523 201.444 343.483 200.368 344.801 200.368C346.119 200.368 347.069 201.424 347.088 202.849V203.179H343.463ZM344.801 201.289C344.132 201.289 343.628 201.744 343.492 202.452H346.119C345.983 201.744 345.47 201.289 344.801 201.289ZM347.954 205.331V200.484H348.749L348.875 200.949H348.962C349.117 200.688 349.476 200.368 350.135 200.368C350.222 200.368 350.299 200.377 350.367 200.397V201.279C350.261 201.25 350.135 201.23 349.999 201.23C349.282 201.23 348.913 201.705 348.913 202.617V205.331H347.954Z" fill="#1C1C1C"/>
<path d="M180.401 137.484C180.591 137.673 180.898 137.673 181.087 137.484L184.171 134.4C184.36 134.21 184.36 133.904 184.171 133.714C183.982 133.525 183.675 133.525 183.486 133.714L180.744 136.456L178.003 133.714C177.813 133.525 177.506 133.525 177.317 133.714C177.128 133.904 177.128 134.21 177.317 134.4L180.401 137.484ZM180.259 56.689L180.259 137.141L181.229 137.141L181.229 56.689L180.259 56.689Z" fill="white"/>
<path d="M180.401 188.857C180.591 189.046 180.898 189.046 181.087 188.857L184.171 185.773C184.36 185.584 184.36 185.277 184.171 185.087C183.982 184.898 183.675 184.898 183.486 185.087L180.744 187.829L178.003 185.087C177.813 184.898 177.506 184.898 177.317 185.087C177.128 185.277 177.128 185.584 177.317 185.773L180.401 188.857ZM180.259 163.312L180.259 188.514L181.229 188.514L181.229 163.313L180.259 163.312Z" fill="white"/>
<path d="M180.401 268.34C180.591 268.529 180.898 268.529 181.087 268.34L184.171 265.256C184.36 265.066 184.36 264.76 184.171 264.57C183.982 264.381 183.675 264.381 183.486 264.57L180.744 267.312L178.003 264.57C177.813 264.381 177.506 264.381 177.317 264.57C177.128 264.76 177.128 265.066 177.317 265.256L180.401 268.34ZM180.259 214.686L180.259 267.997L181.229 267.997L181.229 214.686L180.259 214.686Z" fill="white"/>
<path d="M328.906 214.343C328.716 214.154 328.41 214.154 328.22 214.343L325.136 217.427C324.947 217.616 324.947 217.923 325.136 218.113C325.325 218.302 325.632 218.302 325.821 218.113L328.563 215.371L331.305 218.113C331.494 218.302 331.801 218.302 331.99 218.113C332.179 217.923 332.179 217.616 331.99 217.427L328.906 214.343ZM328.078 214.686L328.078 267.997L329.048 267.997L329.048 214.686L328.078 214.686Z" fill="white"/>
<path d="M328.906 162.97C328.716 162.781 328.41 162.781 328.22 162.97L325.136 166.054C324.947 166.243 324.947 166.55 325.136 166.74C325.325 166.929 325.632 166.929 325.821 166.74L328.563 163.998L331.305 166.74C331.494 166.929 331.801 166.929 331.99 166.74C332.179 166.55 332.179 166.243 331.99 166.054L328.906 162.97ZM328.078 163.312L328.078 188.514L329.048 188.514L329.048 163.313L328.078 163.312Z" fill="white"/>
<rect width="51.3732" height="11.6317" transform="translate(154.573 169.613)" fill="#1C1C1C"/>
<path d="M163.003 174.862H164.717V177.429H164.22L164.096 176.824H164.034C163.771 177.181 163.414 177.522 162.437 177.522C160.917 177.522 159.878 176.351 159.878 174.715C159.878 173.079 160.917 171.908 162.437 171.908C163.546 171.908 164.399 172.505 164.779 173.49L164.127 173.707C163.833 172.963 163.228 172.528 162.437 172.528C161.328 172.528 160.576 173.436 160.576 174.715C160.576 175.995 161.328 176.902 162.437 176.902C163.228 176.902 164.12 176.39 164.096 175.483H163.003V174.862ZM166.124 175.669C166.193 176.413 166.643 176.886 167.256 176.886C167.713 176.886 168.093 176.654 168.279 176.258L168.876 176.468C168.589 177.127 167.977 177.522 167.256 177.522C166.217 177.522 165.48 176.662 165.48 175.467C165.48 174.304 166.224 173.459 167.256 173.459C168.279 173.459 169.016 174.281 169.031 175.429V175.669H166.124ZM167.256 174.095C166.674 174.095 166.24 174.506 166.139 175.165H168.372C168.272 174.506 167.837 174.095 167.256 174.095ZM171.175 177.522C170.516 177.522 170.159 177.135 170.159 176.437V174.11H169.539V173.552C169.919 173.536 170.159 173.257 170.159 172.862V172.335H170.826V173.552H171.547V174.11H170.826V176.282C170.826 176.739 170.958 176.933 171.276 176.933C171.408 176.933 171.532 176.902 171.633 176.84L171.912 177.328C171.726 177.437 171.485 177.522 171.175 177.522ZM174.086 173.552H174.792L175.862 176.305H175.924L176.994 173.552H177.7L176.18 177.429H175.599L174.086 173.552ZM179.441 177.522C178.627 177.522 177.976 177.034 177.976 176.313C177.976 175.591 178.643 175.103 179.635 175.103C179.953 175.103 180.256 175.149 180.543 175.242V174.878C180.543 174.436 180.147 174.11 179.62 174.11C179.178 174.11 178.906 174.281 178.751 174.607L178.146 174.389C178.333 173.831 178.922 173.459 179.581 173.459C180.465 173.459 181.186 174.064 181.186 174.785V177.429H180.643L180.519 177.003H180.457C180.325 177.352 179.992 177.522 179.441 177.522ZM178.627 176.313C178.627 176.716 179.007 176.917 179.496 176.917C180.062 176.917 180.543 176.615 180.543 176.204V175.832C180.263 175.723 179.914 175.661 179.604 175.661C178.968 175.661 178.627 175.894 178.627 176.313ZM182.268 171.908H182.935V177.429H182.268V171.908ZM184.473 172.808C184.225 172.808 184.023 172.606 184.023 172.358C184.023 172.11 184.225 171.908 184.473 171.908C184.721 171.908 184.923 172.11 184.923 172.358C184.923 172.606 184.721 172.808 184.473 172.808ZM184.14 173.552H184.807V177.429H184.14V173.552ZM189.413 177.429H188.871L188.747 177.003H188.685C188.475 177.321 187.994 177.522 187.498 177.522C186.451 177.522 185.699 176.677 185.699 175.491C185.699 174.304 186.451 173.459 187.498 173.459C187.994 173.459 188.646 173.769 188.747 174.18V171.908H189.413V177.429ZM187.576 176.894C188.274 176.894 188.747 176.336 188.747 175.491C188.747 174.645 188.274 174.087 187.576 174.087C186.87 174.087 186.366 174.661 186.366 175.491C186.366 176.32 186.87 176.894 187.576 176.894ZM193.664 177.429V172.621H191.934V172.001H196.091V172.621H194.362V177.429H193.664ZM196.439 177.429L198.293 174.645V174.583L196.587 172.001H197.339L198.649 173.986H198.742L200.053 172.001H200.805L199.099 174.583V174.645L200.952 177.429H200.2L198.727 175.219H198.665L197.191 177.429H196.439Z" fill="white"/>
<rect width="63.4895" height="11.6317" transform="translate(148.272 242.795)" fill="#1C1C1C"/>
<path d="M156.82 246.781H156.758L155.626 250.611H154.843L153.207 245.183H153.905L155.2 249.495H155.262L156.378 245.703H157.2L158.309 249.495H158.371L159.666 245.183H160.364L158.728 250.611H157.945L156.82 246.781ZM160.518 250.611V246.734H161.061L161.169 247.122H161.231C161.355 246.92 161.65 246.641 162.216 246.641C162.263 246.641 162.309 246.641 162.348 246.649V247.254C162.278 247.238 162.201 247.23 162.108 247.23C161.503 247.23 161.185 247.634 161.185 248.386V250.611H160.518ZM163.497 245.99C163.249 245.99 163.047 245.788 163.047 245.54C163.047 245.292 163.249 245.09 163.497 245.09C163.745 245.09 163.947 245.292 163.947 245.54C163.947 245.788 163.745 245.99 163.497 245.99ZM163.163 246.734H163.83V250.611H163.163V246.734ZM166.359 250.704C165.7 250.704 165.343 250.317 165.343 249.619V247.292H164.723V246.734C165.103 246.719 165.343 246.439 165.343 246.044V245.517H166.01V246.734H166.731V247.292H166.01V249.464C166.01 249.921 166.142 250.115 166.46 250.115C166.592 250.115 166.716 250.084 166.817 250.022L167.096 250.511C166.91 250.619 166.669 250.704 166.359 250.704ZM168.055 248.851C168.125 249.595 168.574 250.069 169.187 250.069C169.644 250.069 170.024 249.836 170.21 249.44L170.808 249.65C170.521 250.309 169.908 250.704 169.187 250.704C168.148 250.704 167.411 249.844 167.411 248.649C167.411 247.486 168.156 246.641 169.187 246.641C170.21 246.641 170.947 247.463 170.963 248.611V248.851H168.055ZM169.187 247.277C168.605 247.277 168.171 247.688 168.07 248.347H170.304C170.203 247.688 169.768 247.277 169.187 247.277ZM174.969 250.704C174.31 250.704 173.953 250.317 173.953 249.619V247.292H173.333V246.734C173.713 246.719 173.953 246.439 173.953 246.044V245.517H174.62V246.734H175.341V247.292H174.62V249.464C174.62 249.921 174.752 250.115 175.07 250.115C175.202 250.115 175.326 250.084 175.427 250.022L175.706 250.511C175.52 250.619 175.279 250.704 174.969 250.704ZM177.898 250.704C176.781 250.704 176.021 249.851 176.021 248.68C176.021 247.502 176.781 246.649 177.898 246.649C179.022 246.649 179.782 247.502 179.782 248.68C179.782 249.851 179.022 250.704 177.898 250.704ZM177.898 250.037C178.65 250.037 179.108 249.487 179.108 248.68C179.108 247.866 178.65 247.323 177.898 247.323C177.153 247.323 176.688 247.866 176.696 248.68C176.696 249.487 177.153 250.037 177.898 250.037ZM182.573 250.611V245.183H184.458C185.155 245.183 185.923 245.796 185.923 246.633C185.923 247.075 185.853 247.61 185.233 247.866V247.928C185.753 248.122 186.063 248.611 186.063 249.254C186.063 250.045 185.504 250.611 184.737 250.611H182.573ZM183.271 247.564H184.31C184.806 247.564 185.186 247.199 185.186 246.711C185.186 246.207 184.822 245.85 184.31 245.85H183.271V247.564ZM183.271 249.944H184.45C184.946 249.944 185.326 249.58 185.326 249.076C185.326 248.587 184.962 248.231 184.45 248.231H183.271V249.944ZM188.143 250.611V245.804H186.414V245.183H190.57V245.804H188.841V250.611H188.143ZM193.227 250.704C191.7 250.704 190.645 249.526 190.645 247.897C190.645 246.269 191.7 245.09 193.227 245.09C194.352 245.09 195.228 245.711 195.6 246.711L194.902 246.943C194.623 246.199 194.018 245.757 193.227 245.757C192.134 245.757 191.389 246.649 191.389 247.897C191.389 249.146 192.134 250.037 193.227 250.037C194.018 250.037 194.623 249.595 194.902 248.851L195.6 249.076C195.22 250.084 194.352 250.704 193.227 250.704ZM199.54 250.611V245.804H197.811V245.183H201.967V245.804H200.238V250.611H199.54ZM202.316 250.611L204.169 247.827V247.765L202.463 245.183H203.215L204.526 247.168H204.619L205.929 245.183H206.682L204.976 247.765V247.827L206.829 250.611H206.077L204.603 248.401H204.541L203.068 250.611H202.316Z" fill="white"/>
<rect width="125.525" height="11.6317" transform="translate(263.135 242.795)" fill="#1C1C1C"/>
<path d="M270.638 245.183C271.514 245.183 272.15 245.811 272.15 246.695C272.15 247.572 271.522 248.207 270.638 248.207H269.475V250.611H268.777V245.183H270.638ZM270.615 247.587C271.15 247.587 271.53 247.223 271.53 246.695C271.53 246.168 271.15 245.804 270.615 245.804H269.475V247.587H270.615ZM273.884 250.704C273.07 250.704 272.419 250.216 272.419 249.495C272.419 248.774 273.086 248.285 274.078 248.285C274.396 248.285 274.699 248.332 274.985 248.425V248.06C274.985 247.618 274.59 247.292 274.063 247.292C273.621 247.292 273.349 247.463 273.194 247.789L272.589 247.572C272.775 247.013 273.365 246.641 274.024 246.641C274.908 246.641 275.629 247.246 275.629 247.967V250.611H275.086L274.962 250.185H274.9C274.768 250.534 274.435 250.704 273.884 250.704ZM273.07 249.495C273.07 249.898 273.45 250.1 273.939 250.1C274.505 250.1 274.985 249.797 274.985 249.386V249.014C274.706 248.905 274.357 248.843 274.047 248.843C273.411 248.843 273.07 249.076 273.07 249.495ZM276.634 250.611V246.734H277.177L277.285 247.122H277.347C277.471 246.92 277.766 246.641 278.332 246.641C278.378 246.641 278.425 246.641 278.464 246.649V247.254C278.394 247.238 278.316 247.23 278.223 247.23C277.619 247.23 277.301 247.634 277.301 248.386V250.611H276.634ZM279.543 249.471C279.698 249.851 279.892 250.107 280.404 250.107C280.838 250.107 281.233 249.944 281.233 249.611C281.233 249.239 280.908 249.153 279.969 248.851C279.326 248.642 279.039 248.285 279.039 247.734C279.039 247.075 279.551 246.641 280.38 246.641C281.148 246.641 281.575 246.959 281.761 247.618L281.195 247.804C281.063 247.401 280.838 247.23 280.396 247.23C279.931 247.23 279.667 247.44 279.667 247.75C279.667 248.052 279.791 248.176 280.117 248.285C281.458 248.711 281.862 248.898 281.862 249.611C281.862 250.27 281.241 250.704 280.435 250.704C279.636 250.704 279.062 250.317 278.93 249.658L279.543 249.471ZM283.05 248.851C283.12 249.595 283.569 250.069 284.182 250.069C284.64 250.069 285.019 249.836 285.206 249.44L285.803 249.65C285.516 250.309 284.903 250.704 284.182 250.704C283.143 250.704 282.406 249.844 282.406 248.649C282.406 247.486 283.151 246.641 284.182 246.641C285.206 246.641 285.942 247.463 285.958 248.611V248.851H283.05ZM284.182 247.277C283.6 247.277 283.166 247.688 283.065 248.347H285.299C285.198 247.688 284.764 247.277 284.182 247.277ZM288.716 250.611V245.183H290.6C291.298 245.183 292.066 245.796 292.066 246.633C292.066 247.075 291.996 247.61 291.376 247.866V247.928C291.895 248.122 292.205 248.611 292.205 249.254C292.205 250.045 291.647 250.611 290.879 250.611H288.716ZM289.414 247.564H290.453C290.949 247.564 291.329 247.199 291.329 246.711C291.329 246.207 290.965 245.85 290.453 245.85H289.414V247.564ZM289.414 249.944H290.592C291.089 249.944 291.469 249.58 291.469 249.076C291.469 248.587 291.104 248.231 290.592 248.231H289.414V249.944ZM294.286 250.611V245.804H292.557V245.183H296.713V245.804H294.984V250.611H294.286ZM299.37 250.704C297.842 250.704 296.788 249.526 296.788 247.897C296.788 246.269 297.842 245.09 299.37 245.09C300.494 245.09 301.371 245.711 301.743 246.711L301.045 246.943C300.766 246.199 300.161 245.757 299.37 245.757C298.277 245.757 297.532 246.649 297.532 247.897C297.532 249.146 298.277 250.037 299.37 250.037C300.161 250.037 300.766 249.595 301.045 248.851L301.743 249.076C301.363 250.084 300.494 250.704 299.37 250.704ZM304.458 250.611V245.09H305.125V247.362C305.225 246.951 305.877 246.641 306.373 246.641C307.42 246.641 308.172 247.486 308.172 248.673C308.172 249.859 307.42 250.704 306.373 250.704C305.877 250.704 305.396 250.503 305.187 250.185H305.125L305 250.611H304.458ZM306.295 250.076C307.001 250.076 307.505 249.502 307.505 248.673C307.505 247.843 307.001 247.269 306.295 247.269C305.598 247.269 305.125 247.827 305.125 248.673C305.125 249.518 305.598 250.076 306.295 250.076ZM309.024 245.09H309.691V250.611H309.024V245.09ZM312.423 250.704C311.306 250.704 310.546 249.851 310.546 248.68C310.546 247.502 311.306 246.649 312.423 246.649C313.547 246.649 314.307 247.502 314.307 248.68C314.307 249.851 313.547 250.704 312.423 250.704ZM312.423 250.037C313.175 250.037 313.633 249.487 313.633 248.68C313.633 247.866 313.175 247.323 312.423 247.323C311.679 247.323 311.213 247.866 311.221 248.68C311.221 249.487 311.679 250.037 312.423 250.037ZM318.551 249.603C318.256 250.286 317.643 250.704 316.868 250.704C315.759 250.704 314.999 249.867 314.999 248.665C314.999 247.471 315.767 246.641 316.868 246.641C317.643 246.641 318.264 247.052 318.551 247.727L317.923 247.952C317.729 247.541 317.356 247.316 316.868 247.316C316.124 247.316 315.666 247.835 315.666 248.665C315.666 249.487 316.131 250.03 316.868 250.03C317.349 250.03 317.721 249.797 317.923 249.386L318.551 249.603ZM321.254 246.734H322.091L320.913 248.262V248.332L322.285 250.611H321.471L320.486 248.975H320.432L319.99 249.549V250.611H319.323V245.09H319.99V248.324H320.021L321.254 246.734ZM325.962 250.704C325.148 250.704 324.496 250.216 324.496 249.495C324.496 248.774 325.163 248.285 326.156 248.285C326.474 248.285 326.776 248.332 327.063 248.425V248.06C327.063 247.618 326.667 247.292 326.14 247.292C325.698 247.292 325.427 247.463 325.272 247.789L324.667 247.572C324.853 247.013 325.442 246.641 326.101 246.641C326.985 246.641 327.707 247.246 327.707 247.967V250.611H327.164L327.04 250.185H326.978C326.846 250.534 326.512 250.704 325.962 250.704ZM325.148 249.495C325.148 249.898 325.528 250.1 326.016 250.1C326.582 250.1 327.063 249.797 327.063 249.386V249.014C326.784 248.905 326.435 248.843 326.125 248.843C325.489 248.843 325.148 249.076 325.148 249.495ZM329.254 246.734L329.363 247.122H329.425C329.556 246.905 329.867 246.641 330.409 246.641C331.278 246.641 331.821 247.254 331.821 248.231V250.611H331.154V248.541C331.154 247.68 330.867 247.23 330.301 247.23C329.696 247.23 329.378 247.634 329.378 248.386V250.611H328.711V246.734H329.254ZM336.237 250.611H335.694L335.57 250.185H335.508C335.298 250.503 334.818 250.704 334.321 250.704C333.275 250.704 332.522 249.859 332.522 248.673C332.522 247.486 333.275 246.641 334.321 246.641C334.818 246.641 335.469 246.951 335.57 247.362V245.09H336.237V250.611ZM334.399 250.076C335.097 250.076 335.57 249.518 335.57 248.673C335.57 247.827 335.097 247.269 334.399 247.269C333.693 247.269 333.189 247.843 333.189 248.673C333.189 249.502 333.693 250.076 334.399 250.076ZM340.96 245.773C340.89 245.742 340.797 245.718 340.712 245.726C340.371 245.726 340.154 245.959 340.154 246.331V246.734H341.1V247.292H340.154V250.611H339.487V247.292H338.835V246.734H339.487V246.331C339.487 245.61 339.998 245.09 340.704 245.09C340.898 245.09 341.076 245.129 341.239 245.206L340.96 245.773ZM342.345 245.99C342.097 245.99 341.895 245.788 341.895 245.54C341.895 245.292 342.097 245.09 342.345 245.09C342.593 245.09 342.795 245.292 342.795 245.54C342.795 245.788 342.593 245.99 342.345 245.99ZM342.012 246.734H342.678V250.611H342.012V246.734ZM343.881 245.09H344.548V250.611H343.881V245.09ZM347.04 250.704C346.381 250.704 346.024 250.317 346.024 249.619V247.292H345.404V246.734C345.783 246.719 346.024 246.439 346.024 246.044V245.517H346.691V246.734H347.412V247.292H346.691V249.464C346.691 249.921 346.823 250.115 347.141 250.115C347.272 250.115 347.396 250.084 347.497 250.022L347.776 250.511C347.59 250.619 347.35 250.704 347.04 250.704ZM348.735 248.851C348.805 249.595 349.255 250.069 349.868 250.069C350.325 250.069 350.705 249.836 350.891 249.44L351.488 249.65C351.201 250.309 350.589 250.704 349.868 250.704C348.828 250.704 348.092 249.844 348.092 248.649C348.092 247.486 348.836 246.641 349.868 246.641C350.891 246.641 351.628 247.463 351.643 248.611V248.851H348.735ZM349.868 247.277C349.286 247.277 348.852 247.688 348.751 248.347H350.984C350.883 247.688 350.449 247.277 349.868 247.277ZM352.383 250.611V246.734H352.926L353.035 247.122H353.097C353.221 246.92 353.516 246.641 354.082 246.641C354.128 246.641 354.175 246.641 354.213 246.649V247.254C354.144 247.238 354.066 247.23 353.973 247.23C353.368 247.23 353.05 247.634 353.05 248.386V250.611H352.383ZM356.931 250.611V245.183H358.815C359.513 245.183 360.281 245.796 360.281 246.633C360.281 247.075 360.211 247.61 359.59 247.866V247.928C360.11 248.122 360.42 248.611 360.42 249.254C360.42 250.045 359.862 250.611 359.094 250.611H356.931ZM357.629 247.564H358.668C359.164 247.564 359.544 247.199 359.544 246.711C359.544 246.207 359.179 245.85 358.668 245.85H357.629V247.564ZM357.629 249.944H358.807C359.304 249.944 359.684 249.58 359.684 249.076C359.684 248.587 359.319 248.231 358.807 248.231H357.629V249.944ZM363.604 250.611H362.79L360.657 245.183H361.394L363.169 249.689H363.232L365 245.183H365.736L363.604 250.611ZM366.434 250.611V245.183H367.365L369.203 249.301H369.265L371.095 245.183H372.025V250.611H371.327V246.37H371.265L369.637 250.03H368.831L367.194 246.37H367.132V250.611H366.434ZM376.351 250.611V245.804H374.622V245.183H378.778V245.804H377.049V250.611H376.351ZM379.127 250.611L380.98 247.827V247.765L379.274 245.183H380.026L381.337 247.168H381.43L382.74 245.183H383.493L381.787 247.765V247.827L383.64 250.611H382.888L381.414 248.401H381.352L379.879 250.611H379.127Z" fill="white"/>
<rect width="71.2439" height="11.6317" transform="translate(292.699 169.613)" fill="#1C1C1C"/>
<path d="M298.401 177.429V172.001H299.099V177.429H298.401ZM304.208 173.459C305.045 173.459 305.503 174.025 305.503 175.049V177.429H304.836V175.359C304.836 174.614 304.696 174.048 304.06 174.048C303.386 174.048 303.215 174.56 303.215 175.204V177.429H302.548V175.359C302.548 174.614 302.409 174.048 301.773 174.048C301.098 174.048 300.928 174.56 300.928 175.204V177.429H300.261V173.552H300.803L300.904 173.94H300.966C301.075 173.699 301.37 173.459 301.866 173.459C302.432 173.459 302.727 173.723 302.905 174.188H302.967C303.169 173.723 303.657 173.459 304.208 173.459ZM306.51 173.552H307.053L307.177 173.978H307.239C307.448 173.661 307.929 173.459 308.425 173.459C309.472 173.459 310.224 174.304 310.224 175.491C310.224 176.677 309.472 177.522 308.425 177.522C307.929 177.522 307.278 177.212 307.177 176.801V178.98H306.51V173.552ZM308.348 174.087C307.65 174.087 307.177 174.645 307.177 175.491C307.177 176.336 307.65 176.894 308.348 176.894C309.053 176.894 309.557 176.32 309.557 175.491C309.557 174.661 309.053 174.087 308.348 174.087ZM312.794 177.522C311.677 177.522 310.918 176.669 310.918 175.498C310.918 174.32 311.677 173.467 312.794 173.467C313.918 173.467 314.678 174.32 314.678 175.498C314.678 176.669 313.918 177.522 312.794 177.522ZM312.794 176.855C313.546 176.855 314.004 176.305 314.004 175.498C314.004 174.684 313.546 174.141 312.794 174.141C312.05 174.141 311.584 174.684 311.592 175.498C311.592 176.305 312.05 176.855 312.794 176.855ZM315.451 177.429V173.552H315.994L316.103 173.94H316.165C316.289 173.738 316.584 173.459 317.15 173.459C317.196 173.459 317.243 173.459 317.282 173.467V174.072C317.212 174.056 317.134 174.048 317.041 174.048C316.436 174.048 316.118 174.451 316.118 175.204V177.429H315.451ZM319.384 177.522C318.725 177.522 318.368 177.135 318.368 176.437V174.11H317.748V173.552C318.128 173.536 318.368 173.257 318.368 172.862V172.335H319.035V173.552H319.757V174.11H319.035V176.282C319.035 176.739 319.167 176.933 319.485 176.933C319.617 176.933 319.741 176.902 319.842 176.84L320.121 177.328C319.935 177.437 319.694 177.522 319.384 177.522ZM322.838 177.429V172.001H324.723C325.421 172.001 326.188 172.614 326.188 173.451C326.188 173.893 326.119 174.428 325.498 174.684V174.746C326.018 174.94 326.328 175.429 326.328 176.072C326.328 176.863 325.77 177.429 325.002 177.429H322.838ZM323.536 174.382H324.575C325.072 174.382 325.452 174.017 325.452 173.529C325.452 173.025 325.087 172.668 324.575 172.668H323.536V174.382ZM323.536 176.762H324.715C325.211 176.762 325.591 176.398 325.591 175.894C325.591 175.405 325.227 175.049 324.715 175.049H323.536V176.762ZM329.512 177.429H328.697L326.565 172.001H327.302L329.077 176.506H329.139L330.907 172.001H331.644L329.512 177.429ZM332.342 177.429V172.001H333.273L335.111 176.119H335.173L337.003 172.001H337.933V177.429H337.235V173.188H337.173L335.545 176.848H334.738L333.102 173.188H333.04V177.429H332.342ZM341.034 177.429V171.908H341.701V174.18C341.802 173.769 342.453 173.459 342.949 173.459C343.996 173.459 344.748 174.304 344.748 175.491C344.748 176.677 343.996 177.522 342.949 177.522C342.453 177.522 341.972 177.321 341.763 177.003H341.701L341.577 177.429H341.034ZM342.872 176.894C343.577 176.894 344.081 176.32 344.081 175.491C344.081 174.661 343.577 174.087 342.872 174.087C342.174 174.087 341.701 174.645 341.701 175.491C341.701 176.336 342.174 176.894 342.872 176.894ZM345.6 171.908H346.267V177.429H345.6V171.908ZM348.999 177.522C347.883 177.522 347.123 176.669 347.123 175.498C347.123 174.32 347.883 173.467 348.999 173.467C350.124 173.467 350.883 174.32 350.883 175.498C350.883 176.669 350.124 177.522 348.999 177.522ZM348.999 176.855C349.751 176.855 350.209 176.305 350.209 175.498C350.209 174.684 349.751 174.141 348.999 174.141C348.255 174.141 347.789 174.684 347.797 175.498C347.797 176.305 348.255 176.855 348.999 176.855ZM355.127 176.421C354.832 177.104 354.22 177.522 353.444 177.522C352.335 177.522 351.575 176.685 351.575 175.483C351.575 174.289 352.343 173.459 353.444 173.459C354.22 173.459 354.84 173.87 355.127 174.545L354.499 174.769C354.305 174.358 353.933 174.134 353.444 174.134C352.7 174.134 352.242 174.653 352.242 175.483C352.242 176.305 352.707 176.848 353.444 176.848C353.925 176.848 354.297 176.615 354.499 176.204L355.127 176.421ZM357.83 173.552H358.667L357.489 175.08V175.149L358.861 177.429H358.047L357.062 175.793H357.008L356.566 176.367V177.429H355.899V171.908H356.566V175.142H356.597L357.83 173.552Z" fill="white"/>
<rect width="38.2876" height="11.6317" transform="translate(161.358 68.8052)" fill="#1C1C1C"/>
<path d="M167.366 75.0702C167.514 75.7604 167.948 76.0938 168.692 76.0938C169.46 76.0938 169.98 75.7526 169.98 75.2486C169.98 74.7445 169.507 74.3723 168.514 74.0776C167.343 73.7287 166.847 73.2557 166.847 72.5112C166.847 71.6272 167.537 71.0999 168.692 71.0999C169.739 71.0999 170.414 71.5652 170.577 72.4104L169.902 72.5888C169.732 71.9917 169.359 71.7203 168.692 71.7203C167.987 71.7203 167.529 72.0305 167.529 72.5112C167.529 72.9455 167.909 73.2479 168.848 73.5581C170.143 73.9768 170.662 74.4731 170.662 75.2718C170.662 76.1558 169.925 76.7141 168.739 76.7141C167.607 76.7141 166.808 76.1326 166.676 75.202L167.366 75.0702ZM171.848 74.8608C171.918 75.6053 172.368 76.0783 172.981 76.0783C173.438 76.0783 173.818 75.8456 174.004 75.4502L174.601 75.6595C174.314 76.3187 173.702 76.7141 172.981 76.7141C171.941 76.7141 171.205 75.8534 171.205 74.6592C171.205 73.4961 171.949 72.6508 172.981 72.6508C174.004 72.6508 174.741 73.4728 174.756 74.6204V74.8608H171.848ZM172.981 73.2867C172.399 73.2867 171.965 73.6977 171.864 74.3568H174.097C173.996 73.6977 173.562 73.2867 172.981 73.2867ZM176.039 72.7439L176.148 73.1316H176.21C176.342 72.9145 176.652 72.6508 177.195 72.6508C178.063 72.6508 178.606 73.2634 178.606 74.2405V76.6211H177.939V74.5507C177.939 73.6899 177.652 73.2402 177.086 73.2402C176.481 73.2402 176.163 73.6434 176.163 74.3956V76.6211H175.496V72.7439H176.039ZM183.022 76.6211H182.479L182.355 76.1946H182.293C182.084 76.5125 181.603 76.7141 181.107 76.7141C180.06 76.7141 179.308 75.8689 179.308 74.6825C179.308 73.4961 180.06 72.6508 181.107 72.6508C181.603 72.6508 182.254 72.961 182.355 73.372V71.0999H183.022V76.6211ZM181.184 76.086C181.882 76.086 182.355 75.5277 182.355 74.6825C182.355 73.8372 181.882 73.2789 181.184 73.2789C180.478 73.2789 179.974 73.8528 179.974 74.6825C179.974 75.5122 180.478 76.086 181.184 76.086ZM187.272 76.6211V71.8133H185.543V71.193H189.699V71.8133H187.97V76.6211H187.272ZM190.048 76.6211L191.901 73.8372V73.7752L190.195 71.193H190.947L192.258 73.1781H192.351L193.661 71.193H194.414L192.708 73.7752V73.8372L194.561 76.6211H193.809L192.335 74.4111H192.273L190.8 76.6211H190.048Z" fill="white"/>
<path d="M328.563 25.6714H329.048V25.1867H328.563V25.6714ZM202.938 25.3287C202.748 25.518 202.748 25.8248 202.938 26.0141L206.022 29.0984C206.211 29.2877 206.518 29.2877 206.707 29.0984C206.897 28.9091 206.897 28.6023 206.707 28.413L203.966 25.6714L206.707 22.9298C206.897 22.7405 206.897 22.4336 206.707 22.2444C206.518 22.0551 206.211 22.0551 206.022 22.2444L202.938 25.3287ZM329.048 136.415V25.6714H328.078V136.415H329.048ZM328.563 25.1867H203.28V26.156H328.563V25.1867Z" fill="white"/>
<rect width="47.0113" height="11.6317" transform="translate(304.815 68.8052)" fill="#1C1C1C"/>
<path d="M311.216 76.6211H310.518V71.193H312.557C313.426 71.193 314.054 71.8133 314.054 72.6896C314.054 73.403 313.596 73.9846 312.922 74.1474L314.325 76.6211H313.534L312.154 74.1862H311.216V76.6211ZM312.456 73.5116C312.96 73.5116 313.317 73.1704 313.317 72.6896C313.317 72.2088 312.96 71.8676 312.456 71.8676H311.216V73.5116H312.456ZM315.279 74.8608C315.349 75.6053 315.799 76.0783 316.411 76.0783C316.869 76.0783 317.249 75.8456 317.435 75.4502L318.032 75.6595C317.745 76.3187 317.133 76.7141 316.411 76.7141C315.372 76.7141 314.636 75.8534 314.636 74.6592C314.636 73.4961 315.38 72.6508 316.411 72.6508C317.435 72.6508 318.172 73.4728 318.187 74.6204V74.8608H315.279ZM316.411 73.2867C315.83 73.2867 315.396 73.6977 315.295 74.3568H317.528C317.427 73.6977 316.993 73.2867 316.411 73.2867ZM320.199 76.7141C319.385 76.7141 318.733 76.2256 318.733 75.5045C318.733 74.7833 319.4 74.2948 320.393 74.2948C320.711 74.2948 321.013 74.3413 321.3 74.4343V74.0699C321.3 73.6279 320.905 73.3022 320.377 73.3022C319.935 73.3022 319.664 73.4728 319.509 73.7985L318.904 73.5814C319.09 73.023 319.68 72.6508 320.339 72.6508C321.223 72.6508 321.944 73.2557 321.944 73.9768V76.6211H321.401L321.277 76.1946H321.215C321.083 76.5435 320.75 76.7141 320.199 76.7141ZM319.385 75.5045C319.385 75.9077 319.765 76.1093 320.253 76.1093C320.819 76.1093 321.3 75.8069 321.3 75.3959V75.0237C321.021 74.9151 320.672 74.8531 320.362 74.8531C319.726 74.8531 319.385 75.0857 319.385 75.5045ZM326.43 76.6211H325.887L325.763 76.1946H325.701C325.492 76.5125 325.011 76.7141 324.515 76.7141C323.468 76.7141 322.716 75.8689 322.716 74.6825C322.716 73.4961 323.468 72.6508 324.515 72.6508C325.011 72.6508 325.662 72.961 325.763 73.372V71.0999H326.43V76.6211ZM324.592 76.086C325.29 76.086 325.763 75.5277 325.763 74.6825C325.763 73.8372 325.29 73.2789 324.592 73.2789C323.887 73.2789 323.383 73.8528 323.383 74.6825C323.383 75.5122 323.887 76.086 324.592 76.086ZM329.835 75.0702C329.982 75.7604 330.417 76.0938 331.161 76.0938C331.929 76.0938 332.448 75.7526 332.448 75.2486C332.448 74.7445 331.975 74.3723 330.983 74.0776C329.812 73.7287 329.316 73.2557 329.316 72.5112C329.316 71.6272 330.006 71.0999 331.161 71.0999C332.208 71.0999 332.883 71.5652 333.045 72.4104L332.371 72.5888C332.2 71.9917 331.828 71.7203 331.161 71.7203C330.456 71.7203 329.998 72.0305 329.998 72.5112C329.998 72.9455 330.378 73.2479 331.316 73.5581C332.611 73.9768 333.131 74.4731 333.131 75.2718C333.131 76.1558 332.394 76.7141 331.208 76.7141C330.076 76.7141 329.277 76.1326 329.145 75.202L329.835 75.0702ZM335.31 76.7141C334.651 76.7141 334.294 76.3264 334.294 75.6285V73.3022H333.673V72.7439C334.053 72.7284 334.294 72.4492 334.294 72.0537V71.5264H334.961V72.7439H335.682V73.3022H334.961V75.4734C334.961 75.9309 335.093 76.1248 335.41 76.1248C335.542 76.1248 335.666 76.0938 335.767 76.0318L336.046 76.5203C335.86 76.6288 335.62 76.7141 335.31 76.7141ZM337.942 76.7141C337.128 76.7141 336.476 76.2256 336.476 75.5045C336.476 74.7833 337.143 74.2948 338.136 74.2948C338.454 74.2948 338.756 74.3413 339.043 74.4343V74.0699C339.043 73.6279 338.648 73.3022 338.12 73.3022C337.678 73.3022 337.407 73.4728 337.252 73.7985L336.647 73.5814C336.833 73.023 337.422 72.6508 338.081 72.6508C338.965 72.6508 339.687 73.2557 339.687 73.9768V76.6211H339.144L339.02 76.1946H338.958C338.826 76.5435 338.492 76.7141 337.942 76.7141ZM337.128 75.5045C337.128 75.9077 337.508 76.1093 337.996 76.1093C338.562 76.1093 339.043 75.8069 339.043 75.3959V75.0237C338.764 74.9151 338.415 74.8531 338.105 74.8531C337.469 74.8531 337.128 75.0857 337.128 75.5045ZM341.943 76.7141C341.284 76.7141 340.928 76.3264 340.928 75.6285V73.3022H340.307V72.7439C340.687 72.7284 340.928 72.4492 340.928 72.0537V71.5264H341.594V72.7439H342.316V73.3022H341.594V75.4734C341.594 75.9309 341.726 76.1248 342.044 76.1248C342.176 76.1248 342.3 76.0938 342.401 76.0318L342.68 76.5203C342.494 76.6288 342.254 76.7141 341.943 76.7141ZM343.639 74.8608C343.709 75.6053 344.159 76.0783 344.771 76.0783C345.229 76.0783 345.609 75.8456 345.795 75.4502L346.392 75.6595C346.105 76.3187 345.492 76.7141 344.771 76.7141C343.732 76.7141 342.995 75.8534 342.995 74.6592C342.995 73.4961 343.74 72.6508 344.771 72.6508C345.795 72.6508 346.532 73.4728 346.547 74.6204V74.8608H343.639ZM344.771 73.2867C344.19 73.2867 343.755 73.6977 343.655 74.3568H345.888C345.787 73.6977 345.353 73.2867 344.771 73.2867Z" fill="white"/>
</svg>
