<svg width="413" height="392" viewBox="0 0 413 392" fill="none" xmlns="http://www.w3.org/2000/svg">
<rect x="1.16476" y="124.451" width="410.339" height="178.352" rx="7.10824" stroke="#898989" stroke-width="1.29241" stroke-dasharray="5.17 5.17"/>
<rect x="80.3345" y="-0.000488281" width="43.7168" height="45.3338" rx="21.8584" fill="white"/>
<path d="M105.751 22.2881H98.6338V31.1842H105.751V22.2881Z" fill="#EAC3A2"/>
<path fill-rule="evenodd" clip-rule="evenodd" d="M108.717 15.1714V19.916C108.717 23.513 105.79 26.4398 102.193 26.4398C98.5958 26.4398 95.6689 23.513 95.6689 19.916V15.1714H108.717Z" fill="#F1D9C5"/>
<path fill-rule="evenodd" clip-rule="evenodd" d="M115.24 34.155C115.24 33.1693 114.511 32.0514 113.609 31.6566L105.751 28.2188C104.75 28.9601 103.525 29.4049 102.193 29.4049C100.861 29.4049 99.6353 28.9601 98.6449 28.2188L90.7781 31.6566C89.8762 32.0508 89.145 33.1707 89.145 34.155V35.927C89.145 36.2555 89.4118 36.5218 89.7391 36.5218H114.646C114.974 36.5218 115.24 36.2621 115.24 35.927V34.155Z" fill="white"/>
<path fill-rule="evenodd" clip-rule="evenodd" d="M95.6689 15.1706C95.6689 13.2057 97.1726 11.0758 99.0222 10.4152L103.414 8.84657C103.722 8.73658 104.09 8.88354 104.235 9.17389L105.158 11.0197C107.123 11.0197 108.717 12.6169 108.717 14.5782V18.1366C108.717 16.4989 107.389 15.1712 105.751 15.1712H98.6343C96.9966 15.1712 95.6689 16.4989 95.6689 18.1366V15.1706Z" fill="#87613E"/>
<path fill-rule="evenodd" clip-rule="evenodd" d="M100.413 36.5223L101.599 32.9639H102.785L103.972 36.5223H100.413Z" fill="#EA9860"/>
<path fill-rule="evenodd" clip-rule="evenodd" d="M101.599 32.9639H102.785L104.081 31.6682C104.336 31.413 104.306 30.991 104.018 30.7744L102.548 29.6723C102.337 29.5142 102.047 29.5142 101.837 29.6723L100.367 30.7744C100.078 30.991 100.048 31.413 100.304 31.6682L101.599 32.9639Z" fill="#EA9860"/>
<path fill-rule="evenodd" clip-rule="evenodd" d="M99.8204 36.5218L98.6449 28.2188L90.7781 31.6566C89.8762 32.0508 89.145 33.1707 89.145 34.155V35.927C89.145 36.2555 89.4125 36.5218 89.735 36.5218H99.8204Z" fill="#444444"/>
<path fill-rule="evenodd" clip-rule="evenodd" d="M104.565 36.5218L105.74 28.2188L113.607 31.6566C114.509 32.0508 115.24 33.1707 115.24 34.155V35.927C115.24 36.2555 114.973 36.5218 114.65 36.5218H104.565Z" fill="#444444"/>
<path fill-rule="evenodd" clip-rule="evenodd" d="M109.31 18.1368V18.7299C109.31 20.3676 107.982 21.6953 106.345 21.6953H105.752C104.317 21.6953 103.121 20.6764 102.846 19.323C102.787 18.9743 102.52 18.7299 102.193 18.7299C101.866 18.7299 101.588 18.9974 101.541 19.323C101.266 20.6764 100.069 21.6953 98.6346 21.6953H98.0415C96.4038 21.6953 95.0762 20.3676 95.0762 18.7299V18.1368C95.0762 17.4817 95.6072 16.9507 96.2623 16.9507H108.124C108.779 16.9507 109.31 17.4817 109.31 18.1368Z" fill="#444444"/>
<path d="M96.1604 56.6927C96.1604 58.9286 94.7 60.4149 92.4771 60.4149C90.2541 60.4149 88.7937 58.9286 88.7937 56.6927V51.2129H90.4738V56.4342C90.4738 57.9593 91.1847 58.7735 92.4771 58.7735C93.7695 58.7735 94.4803 57.9593 94.4803 56.4342V51.2129H96.1604V56.6927ZM98.9287 57.8559C99.045 58.4375 99.2518 58.9027 100.066 58.9027C100.738 58.9027 101.19 58.6701 101.19 58.3341C101.19 57.8559 100.829 57.7913 99.2647 57.5199C98.0757 57.3131 97.5329 56.7832 97.5329 55.7234C97.5329 54.4698 98.5151 53.6426 100.027 53.6426C101.501 53.6426 102.328 54.3018 102.638 55.6976L101.216 56.1628C101.009 55.3874 100.738 55.1418 100.053 55.1418C99.4457 55.1418 99.0967 55.3745 99.0967 55.7493C99.0967 56.1241 99.213 56.2275 99.6783 56.3179C102.018 56.7703 102.754 56.9512 102.754 58.3341C102.754 59.5489 101.643 60.4149 100.118 60.4149C98.5927 60.4149 97.4554 59.5877 97.3261 58.2824L98.9287 57.8559ZM105.038 57.5199C105.193 58.3729 105.84 58.8381 106.615 58.8381C107.365 58.8381 107.894 58.5409 108.166 57.8947L109.665 58.3729C109.2 59.704 108.011 60.4149 106.615 60.4149C104.767 60.4149 103.397 58.8898 103.397 56.99C103.397 55.1289 104.78 53.6426 106.615 53.6426C108.45 53.6426 109.807 55.116 109.833 56.99V57.5199H105.038ZM106.615 55.2194C105.878 55.2194 105.297 55.6717 105.077 56.2921H108.153C107.933 55.6717 107.352 55.2194 106.615 55.2194ZM110.802 60.2598V53.7977H112.172L112.327 54.3793H112.456C112.689 53.9787 113.141 53.6426 113.891 53.6426C114.059 53.6426 114.24 53.6685 114.369 53.7331V55.2452C114.162 55.1806 113.93 55.1418 113.71 55.1418C112.857 55.1418 112.43 55.6846 112.43 56.809V60.2598H110.802Z" fill="white"/>
<path d="M13.4393 148.144V139.097H16.8513C18.7253 139.097 19.4878 140.596 19.4878 141.708C19.4878 142.6 19.1388 143.246 18.3117 143.556V143.685C19.1388 143.957 19.7721 144.874 19.7721 145.882C19.7721 147.343 18.7253 148.144 17.3036 148.144H13.4393ZM15.1195 142.936H16.5928C17.2778 142.936 17.7947 142.47 17.7947 141.837C17.7947 141.178 17.2907 140.726 16.5928 140.726H15.1195V142.936ZM15.1195 146.516H16.8254C17.5104 146.516 18.0274 146.037 18.0274 145.391C18.0274 144.745 17.5233 144.306 16.8254 144.306H15.1195V146.516ZM25.3563 148.144H23.6633L19.9024 139.097H21.7376L24.4516 145.676H24.5809L27.282 139.097H29.1172L25.3563 148.144ZM30.0235 148.144V139.097H32.0009L34.883 145.094H35.0122L37.8814 139.097H39.8588V148.144H38.1786V142.535H38.0494L35.7618 147.175H34.1205L31.8329 142.535H31.7037V148.144H30.0235Z" fill="white"/>
<path d="M153.279 375.801V366.754H156.691C158.565 366.754 159.327 368.253 159.327 369.365C159.327 370.256 158.978 370.903 158.151 371.213V371.342C158.978 371.613 159.612 372.531 159.612 373.539C159.612 374.999 158.565 375.801 157.143 375.801H153.279ZM154.959 370.592H156.432C157.117 370.592 157.634 370.127 157.634 369.494C157.634 368.835 157.13 368.382 156.432 368.382H154.959V370.592ZM154.959 374.172H156.665C157.35 374.172 157.867 373.694 157.867 373.048C157.867 372.402 157.363 371.962 156.665 371.962H154.959V374.172ZM161.778 368.615C161.222 368.615 160.77 368.163 160.77 367.607C160.77 367.051 161.222 366.599 161.778 366.599C162.334 366.599 162.786 367.051 162.786 367.607C162.786 368.163 162.334 368.615 161.778 368.615ZM160.964 369.339H162.592V375.801H160.964V369.339ZM166.8 375.956C165.56 375.956 164.849 375.193 164.849 373.888V370.786H163.815V369.339C164.552 369.313 164.849 369.054 164.849 368.447V367.31H166.477V369.339H167.679V370.786H166.477V373.63C166.477 374.263 166.607 374.457 166.969 374.457C167.24 374.457 167.511 374.353 167.641 374.172L168.377 375.465C167.899 375.801 167.369 375.956 166.8 375.956ZM175.163 373.707C174.672 375.09 173.509 375.956 172.01 375.956C170.058 375.956 168.636 374.495 168.636 372.557C168.636 370.618 170.071 369.184 172.01 369.184C173.509 369.184 174.685 370.024 175.163 371.407L173.612 371.949C173.341 371.213 172.798 370.825 172.01 370.825C170.963 370.825 170.265 371.51 170.265 372.557C170.265 373.591 170.963 374.289 172.01 374.289C172.798 374.289 173.341 373.914 173.612 373.177L175.163 373.707ZM179.317 375.956C177.366 375.956 175.931 374.483 175.931 372.57C175.931 370.67 177.366 369.197 179.317 369.197C181.282 369.197 182.716 370.67 182.716 372.57C182.716 374.483 181.282 375.956 179.317 375.956ZM179.317 374.315C180.39 374.315 181.075 373.578 181.075 372.57C181.075 371.575 180.39 370.838 179.317 370.838C178.258 370.838 177.573 371.575 177.573 372.57C177.573 373.578 178.258 374.315 179.317 374.315ZM184.761 368.615C184.205 368.615 183.753 368.163 183.753 367.607C183.753 367.051 184.205 366.599 184.761 366.599C185.317 366.599 185.769 367.051 185.769 367.607C185.769 368.163 185.317 368.615 184.761 368.615ZM183.947 369.339H185.575V375.801H183.947V369.339ZM188.556 369.339L188.711 369.92H188.84C189.06 369.533 189.525 369.184 190.275 369.184C191.877 369.184 192.885 370.321 192.885 372.092V375.801H191.257V372.609C191.257 371.29 190.882 370.683 190.094 370.683C189.241 370.683 188.814 371.226 188.814 372.35V375.801H187.186V369.339H188.556ZM197.276 375.801V366.754H200.688C202.562 366.754 203.325 368.253 203.325 369.365C203.325 370.256 202.976 370.903 202.149 371.213V371.342C202.976 371.613 203.609 372.531 203.609 373.539C203.609 374.999 202.562 375.801 201.141 375.801H197.276ZM198.956 370.592H200.43C201.115 370.592 201.632 370.127 201.632 369.494C201.632 368.835 201.128 368.382 200.43 368.382H198.956V370.592ZM198.956 374.172H200.662C201.347 374.172 201.864 373.694 201.864 373.048C201.864 372.402 201.36 371.962 200.662 371.962H198.956V374.172ZM204.896 366.599H206.525V375.801H204.896V366.599ZM211.072 375.956C209.121 375.956 207.686 374.483 207.686 372.57C207.686 370.67 209.121 369.197 211.072 369.197C213.037 369.197 214.471 370.67 214.471 372.57C214.471 374.483 213.037 375.956 211.072 375.956ZM211.072 374.315C212.145 374.315 212.83 373.578 212.83 372.57C212.83 371.575 212.145 370.838 211.072 370.838C210.013 370.838 209.328 371.575 209.328 372.57C209.328 373.578 210.013 374.315 211.072 374.315ZM221.899 373.707C221.408 375.09 220.245 375.956 218.746 375.956C216.794 375.956 215.372 374.495 215.372 372.557C215.372 370.618 216.807 369.184 218.746 369.184C220.245 369.184 221.421 370.024 221.899 371.407L220.348 371.949C220.077 371.213 219.534 370.825 218.746 370.825C217.699 370.825 217.001 371.51 217.001 372.557C217.001 373.591 217.699 374.289 218.746 374.289C219.534 374.289 220.077 373.914 220.348 373.177L221.899 373.707ZM226.292 369.339H228.321L226.124 372.014V372.143L228.593 375.801H226.615L225.129 373.591H225L224.56 374.211V375.801H222.932V366.599H224.56V371.355H224.625L226.292 369.339ZM235.379 373.707C234.887 375.09 233.724 375.956 232.225 375.956C230.274 375.956 228.852 374.495 228.852 372.557C228.852 370.618 230.286 369.184 232.225 369.184C233.724 369.184 234.9 370.024 235.379 371.407L233.828 371.949C233.556 371.213 233.013 370.825 232.225 370.825C231.178 370.825 230.48 371.51 230.48 372.557C230.48 373.591 231.178 374.289 232.225 374.289C233.013 374.289 233.556 373.914 233.828 373.177L235.379 373.707ZM238.169 369.933C238.376 369.533 239.048 369.222 239.63 369.222C241.271 369.222 242.382 370.347 242.382 372.027V375.801H240.754V372.35C240.754 371.316 240.211 370.722 239.294 370.722C238.544 370.722 238.04 371.432 238.04 372.505V375.801H236.411V366.56H238.04V369.933H238.169ZM245.798 375.956C244.635 375.956 243.484 375.245 243.484 373.94C243.484 372.583 244.596 371.756 246.379 371.756C246.819 371.756 247.232 371.807 247.633 371.911V371.536C247.633 371.083 247.194 370.773 246.444 370.773C245.733 370.773 245.462 371.019 245.345 371.42L243.782 371.083C244.027 369.92 245.009 369.184 246.353 369.184C248.085 369.184 249.223 370.153 249.223 371.381V375.801H247.866L247.646 375.064H247.517C247.323 375.646 246.728 375.956 245.798 375.956ZM245.087 373.836C245.087 374.25 245.449 374.495 246.082 374.495C246.922 374.495 247.633 374.134 247.633 373.462V373.268C247.232 373.138 246.754 373.074 246.328 373.074C245.643 373.074 245.087 373.358 245.087 373.836ZM251.653 368.615C251.097 368.615 250.645 368.163 250.645 367.607C250.645 367.051 251.097 366.599 251.653 366.599C252.209 366.599 252.661 367.051 252.661 367.607C252.661 368.163 252.209 368.615 251.653 368.615ZM250.839 369.339H252.467V375.801H250.839V369.339ZM255.448 369.339L255.603 369.92H255.732C255.952 369.533 256.417 369.184 257.167 369.184C258.769 369.184 259.778 370.321 259.778 372.092V375.801H258.149V372.609C258.149 371.29 257.774 370.683 256.986 370.683C256.133 370.683 255.706 371.226 255.706 372.35V375.801H254.078V369.339H255.448Z" fill="white"/>
<rect x="1.16476" y="351.915" width="410.339" height="38.7722" rx="7.10824" stroke="#898989" stroke-width="1.29241" stroke-dasharray="5.17 5.17"/>
<rect x="21.1968" y="174.855" width="168.013" height="34.895" rx="2.58481" fill="#B1E3FF"/>
<path d="M68.1955 195.407V196.609H62.6252V187.563H63.9564V195.407H68.1955ZM71.7093 196.764C69.8224 196.764 68.5042 195.33 68.5042 193.391C68.5042 191.44 69.8224 190.005 71.7093 190.005C73.6221 190.005 74.9404 191.44 74.9404 193.391C74.9404 195.33 73.6221 196.764 71.7093 196.764ZM71.7093 195.472C72.9113 195.472 73.6479 194.619 73.6479 193.391C73.6479 192.151 72.9113 191.298 71.7093 191.298C70.5332 191.298 69.7836 192.151 69.7966 193.391C69.7966 194.619 70.5332 195.472 71.7093 195.472ZM82.1268 194.787C81.6357 196.015 80.576 196.764 79.206 196.764C77.332 196.764 76.0138 195.343 76.0138 193.365C76.0138 191.388 77.3449 189.992 79.206 189.992C80.576 189.992 81.6487 190.729 82.1268 191.944L80.912 192.37C80.6147 191.672 80.0202 191.285 79.206 191.285C78.0299 191.285 77.2932 192.099 77.2932 193.365C77.2932 194.619 78.0428 195.459 79.206 195.459C80.0073 195.459 80.6018 195.071 80.912 194.374L82.1268 194.787ZM85.3365 196.764C84.044 196.764 82.9326 195.989 82.9326 194.748C82.9326 193.495 84.044 192.68 85.7371 192.68C86.2411 192.68 86.7193 192.745 87.1717 192.887V192.357C87.1717 191.711 86.5772 191.246 85.75 191.246C85.0134 191.246 84.6256 191.517 84.4188 192.008L83.2169 191.659C83.5142 190.651 84.4964 189.992 85.6725 189.992C87.2363 189.992 88.4124 190.987 88.4124 192.202V196.609H87.3526L87.1458 195.886H87.0295C86.8227 196.467 86.2541 196.764 85.3365 196.764ZM84.1862 194.71C84.1862 195.304 84.729 195.601 85.4915 195.601C86.3962 195.601 87.1717 195.149 87.1717 194.464V193.986C86.7193 193.831 86.1765 193.74 85.6854 193.74C84.7549 193.74 84.1862 194.089 84.1862 194.71ZM90.149 187.407H91.4284V196.609H90.149V187.407ZM102.835 189.992C104.282 189.992 105.084 190.974 105.084 192.732V196.609H103.804V193.249C103.804 191.957 103.546 191.142 102.589 191.142C101.581 191.142 101.271 191.879 101.271 192.991V196.609H99.9914V193.249C99.9914 191.957 99.733 191.142 98.7766 191.142C97.7685 191.142 97.4583 191.879 97.4583 192.991V196.609H96.1788V190.147H97.2386L97.3937 190.768H97.51C97.691 190.367 98.195 189.992 98.9704 189.992C99.8622 189.992 100.366 190.38 100.689 191.117H100.806C101.168 190.406 101.943 189.992 102.835 189.992ZM107.419 193.74C107.549 194.852 108.272 195.537 109.203 195.537C109.965 195.537 110.56 195.175 110.857 194.516L112.02 194.916C111.555 196.092 110.469 196.764 109.203 196.764C107.432 196.764 106.166 195.304 106.166 193.34C106.166 191.427 107.445 189.992 109.203 189.992C110.961 189.992 112.227 191.401 112.253 193.301V193.74H107.419ZM109.203 191.22C108.311 191.22 107.639 191.827 107.458 192.771H110.961C110.78 191.827 110.095 191.22 109.203 191.22ZM120.063 189.992C121.51 189.992 122.311 190.974 122.311 192.732V196.609H121.032V193.249C121.032 191.957 120.773 191.142 119.817 191.142C118.809 191.142 118.499 191.879 118.499 192.991V196.609H117.219V193.249C117.219 191.957 116.961 191.142 116.004 191.142C114.996 191.142 114.686 191.879 114.686 192.991V196.609H113.407V190.147H114.467L114.622 190.768H114.738C114.919 190.367 115.423 189.992 116.198 189.992C117.09 189.992 117.594 190.38 117.917 191.117H118.034C118.395 190.406 119.171 189.992 120.063 189.992ZM123.911 190.147H124.97L125.177 190.871H125.293C125.617 190.354 126.366 189.992 127.18 189.992C128.964 189.992 130.269 191.427 130.269 193.378C130.269 195.33 128.964 196.764 127.18 196.764C126.353 196.764 125.41 196.299 125.19 195.718V199.194H123.911V190.147ZM127.051 191.168C125.94 191.168 125.19 192.06 125.19 193.353C125.19 194.658 125.94 195.55 127.051 195.55C128.188 195.55 128.99 194.632 128.99 193.353C128.99 192.086 128.188 191.168 127.051 191.168ZM134.55 196.764C132.663 196.764 131.345 195.33 131.345 193.391C131.345 191.44 132.663 190.005 134.55 190.005C136.463 190.005 137.781 191.44 137.781 193.391C137.781 195.33 136.463 196.764 134.55 196.764ZM134.55 195.472C135.752 195.472 136.489 194.619 136.489 193.391C136.489 192.151 135.752 191.298 134.55 191.298C133.374 191.298 132.624 192.151 132.637 193.391C132.637 194.619 133.374 195.472 134.55 195.472ZM142.06 196.764C140.173 196.764 138.855 195.33 138.855 193.391C138.855 191.44 140.173 190.005 142.06 190.005C143.972 190.005 145.291 191.44 145.291 193.391C145.291 195.33 143.972 196.764 142.06 196.764ZM142.06 195.472C143.262 195.472 143.998 194.619 143.998 193.391C143.998 192.151 143.262 191.298 142.06 191.298C140.884 191.298 140.134 192.151 140.147 193.391C140.147 194.619 140.884 195.472 142.06 195.472ZM146.629 187.407H147.908V196.609H146.629V187.407Z" fill="#1C1C1C"/>
<rect x="214.412" y="174.855" width="168.013" height="34.895" rx="2.58481" fill="#B1E3FF"/>
<path d="M227.051 188.764V191.659H230.644V192.874H227.051V195.407H231.031V196.609H225.72V187.563H231.057V188.764H227.051ZM234.946 196.764C233.809 196.764 233.175 196.079 233.175 194.865V191.246H232.141V190.147C232.8 190.121 233.175 189.721 233.175 189.088V188.118H234.455V190.147H235.657V191.246H234.455V194.606C234.455 195.33 234.649 195.614 235.114 195.614C235.359 195.614 235.579 195.537 235.734 195.407L236.29 196.39C235.928 196.622 235.489 196.764 234.946 196.764ZM238.901 190.871C239.185 190.38 239.767 190.031 240.542 190.031C242.106 190.031 243.127 191.091 243.127 192.668V196.609H241.847V192.991C241.847 191.776 241.149 191.181 240.232 191.181C239.405 191.181 238.784 191.97 238.784 193.146V196.609H237.505V187.407H238.784V190.871H238.901ZM245.461 193.74C245.59 194.852 246.314 195.537 247.244 195.537C248.007 195.537 248.601 195.175 248.899 194.516L250.062 194.916C249.596 196.092 248.511 196.764 247.244 196.764C245.474 196.764 244.207 195.304 244.207 193.34C244.207 191.427 245.487 189.992 247.244 189.992C249.002 189.992 250.269 191.401 250.294 193.301V193.74H245.461ZM247.244 191.22C246.353 191.22 245.68 191.827 245.5 192.771H249.002C248.821 191.827 248.136 191.22 247.244 191.22ZM251.448 196.609V190.147H252.508L252.676 190.768H252.792C252.999 190.419 253.477 189.992 254.356 189.992C254.472 189.992 254.576 190.005 254.666 190.031V191.207C254.524 191.168 254.356 191.142 254.175 191.142C253.219 191.142 252.728 191.776 252.728 192.991V196.609H251.448ZM256.618 193.74C256.747 194.852 257.471 195.537 258.401 195.537C259.164 195.537 259.758 195.175 260.056 194.516L261.219 194.916C260.754 196.092 259.668 196.764 258.401 196.764C256.631 196.764 255.364 195.304 255.364 193.34C255.364 191.427 256.644 189.992 258.401 189.992C260.159 189.992 261.426 191.401 261.451 193.301V193.74H256.618ZM258.401 191.22C257.51 191.22 256.838 191.827 256.657 192.771H260.159C259.978 191.827 259.293 191.22 258.401 191.22ZM266.641 196.609L266.473 195.989H266.356C266.137 196.351 265.633 196.764 264.78 196.764C263.28 196.764 262.35 195.705 262.35 194.025V190.147H263.629V193.508C263.629 194.903 264.069 195.614 264.96 195.614C265.917 195.614 266.421 194.981 266.421 193.766V190.147H267.7V196.609H266.641ZM275.963 189.992C277.41 189.992 278.212 190.974 278.212 192.732V196.609H276.932V193.249C276.932 191.957 276.674 191.142 275.717 191.142C274.709 191.142 274.399 191.879 274.399 192.991V196.609H273.12V193.249C273.12 191.957 272.861 191.142 271.905 191.142C270.897 191.142 270.587 191.879 270.587 192.991V196.609H269.307V190.147H270.367L270.522 190.768H270.638C270.819 190.367 271.323 189.992 272.099 189.992C272.99 189.992 273.495 190.38 273.818 191.117H273.934C274.296 190.406 275.071 189.992 275.963 189.992ZM279.552 193.508V192.344H283.352V193.508H279.552ZM290.556 194.787C290.065 196.015 289.006 196.764 287.636 196.764C285.762 196.764 284.443 195.343 284.443 193.365C284.443 191.388 285.775 189.992 287.636 189.992C289.006 189.992 290.078 190.729 290.556 191.944L289.342 192.37C289.044 191.672 288.45 191.285 287.636 191.285C286.46 191.285 285.723 192.099 285.723 193.365C285.723 194.619 286.472 195.459 287.636 195.459C288.437 195.459 289.031 195.071 289.342 194.374L290.556 194.787ZM294.716 196.764C292.83 196.764 291.511 195.33 291.511 193.391C291.511 191.44 292.83 190.005 294.716 190.005C296.629 190.005 297.947 191.44 297.947 193.391C297.947 195.33 296.629 196.764 294.716 196.764ZM294.716 195.472C295.918 195.472 296.655 194.619 296.655 193.391C296.655 192.151 295.918 191.298 294.716 191.298C293.54 191.298 292.791 192.151 292.804 193.391C292.804 194.619 293.54 195.472 294.716 195.472ZM305.812 189.992C307.26 189.992 308.061 190.974 308.061 192.732V196.609H306.781V193.249C306.781 191.957 306.523 191.142 305.566 191.142C304.558 191.142 304.248 191.879 304.248 192.991V196.609H302.969V193.249C302.969 191.957 302.71 191.142 301.754 191.142C300.746 191.142 300.436 191.879 300.436 192.991V196.609H299.156V190.147H300.216L300.371 190.768H300.487C300.668 190.367 301.172 189.992 301.948 189.992C302.84 189.992 303.344 190.38 303.667 191.117H303.783C304.145 190.406 304.92 189.992 305.812 189.992ZM309.66 190.147H310.72L310.927 190.871H311.043C311.366 190.354 312.116 189.992 312.93 189.992C314.713 189.992 316.019 191.427 316.019 193.378C316.019 195.33 314.713 196.764 312.93 196.764C312.103 196.764 311.159 196.299 310.939 195.718V199.194H309.66V190.147ZM312.801 191.168C311.689 191.168 310.939 192.06 310.939 193.353C310.939 194.658 311.689 195.55 312.801 195.55C313.938 195.55 314.739 194.632 314.739 193.353C314.739 192.086 313.938 191.168 312.801 191.168ZM319.349 196.764C318.057 196.764 316.945 195.989 316.945 194.748C316.945 193.495 318.057 192.68 319.75 192.68C320.254 192.68 320.732 192.745 321.184 192.887V192.357C321.184 191.711 320.59 191.246 319.763 191.246C319.026 191.246 318.638 191.517 318.432 192.008L317.23 191.659C317.527 190.651 318.509 189.992 319.685 189.992C321.249 189.992 322.425 190.987 322.425 192.202V196.609H321.365L321.159 195.886H321.042C320.835 196.467 320.267 196.764 319.349 196.764ZM318.199 194.71C318.199 195.304 318.742 195.601 319.504 195.601C320.409 195.601 321.184 195.149 321.184 194.464V193.986C320.732 193.831 320.189 193.74 319.698 193.74C318.768 193.74 318.199 194.089 318.199 194.71ZM326.197 196.764C325.06 196.764 324.426 196.079 324.426 194.865V191.246H323.392V190.147C324.051 190.121 324.426 189.721 324.426 189.088V188.118H325.706V190.147H326.908V191.246H325.706V194.606C325.706 195.33 325.9 195.614 326.365 195.614C326.61 195.614 326.83 195.537 326.985 195.407L327.541 196.39C327.179 196.622 326.74 196.764 326.197 196.764ZM329.454 189.075C329.001 189.075 328.627 188.7 328.627 188.248C328.627 187.782 329.001 187.407 329.454 187.407C329.919 187.407 330.294 187.782 330.294 188.248C330.294 188.7 329.919 189.075 329.454 189.075ZM328.82 190.147H330.1V196.609H328.82V190.147ZM332.025 196.609V187.407H333.304V191.039C333.524 190.458 334.467 189.992 335.294 189.992C337.078 189.992 338.383 191.427 338.383 193.378C338.383 195.33 337.078 196.764 335.294 196.764C334.48 196.764 333.731 196.403 333.408 195.886H333.291L333.084 196.609H332.025ZM335.165 195.588C336.303 195.588 337.104 194.671 337.104 193.404C337.104 192.125 336.303 191.207 335.165 191.207C334.054 191.207 333.304 192.099 333.304 193.404C333.304 194.697 334.054 195.588 335.165 195.588ZM339.724 187.407H341.003V196.609H339.724V187.407ZM343.603 193.74C343.732 194.852 344.456 195.537 345.386 195.537C346.149 195.537 346.743 195.175 347.041 194.516L348.204 194.916C347.739 196.092 346.653 196.764 345.386 196.764C343.616 196.764 342.349 195.304 342.349 193.34C342.349 191.427 343.629 189.992 345.386 189.992C347.144 189.992 348.411 191.401 348.437 193.301V193.74H343.603ZM345.386 191.22C344.495 191.22 343.823 191.827 343.642 192.771H347.144C346.963 191.827 346.278 191.22 345.386 191.22ZM356.923 196.609H355.45L351.831 187.563H353.253L356.135 194.761H356.251L359.108 187.563H360.542L356.923 196.609ZM361.624 196.609V187.563H363.317L366.316 194.141H366.432L369.418 187.563H371.111V196.609H369.779V190.031H369.663L367.091 195.64H365.644L363.072 190.031H362.956V196.609H361.624Z" fill="#1C1C1C"/>
<rect x="21.1968" y="243.353" width="168.013" height="34.895" rx="2.58481" fill="#B1E3FF"/>
<path d="M81.4377 265.107V257.262H78.5557V256.06H85.651V257.262H82.7689V265.107H81.4377ZM86.1647 265.107L89.3053 260.467V260.364L86.4103 256.06H87.8707L90.0032 259.239H90.1582L92.2907 256.06H93.7511L90.8561 260.364V260.467L93.9967 265.107H92.5363L90.1324 261.566H90.029L87.6251 265.107H86.1647ZM103.208 259.084H103.105L101.27 265.107H99.8481L97.0694 256.06H98.4135L100.507 262.897H100.624L102.42 256.926H103.893L105.69 262.897H105.793L107.887 256.06H109.231L106.452 265.107H105.031L103.208 259.084ZM109.418 265.107V258.645H110.478L110.646 259.265H110.763C110.969 258.916 111.448 258.49 112.326 258.49C112.443 258.49 112.546 258.503 112.637 258.529V259.705C112.494 259.666 112.326 259.64 112.145 259.64C111.189 259.64 110.698 260.273 110.698 261.488V265.107H109.418ZM114.549 257.572C114.097 257.572 113.722 257.197 113.722 256.745C113.722 256.28 114.097 255.905 114.549 255.905C115.015 255.905 115.389 256.28 115.389 256.745C115.389 257.197 115.015 257.572 114.549 257.572ZM113.916 258.645H115.196V265.107H113.916V258.645ZM119.408 265.262C118.271 265.262 117.637 264.577 117.637 263.362V259.743H116.603V258.645C117.263 258.619 117.637 258.218 117.637 257.585V256.616H118.917V258.645H120.119V259.743H118.917V263.104C118.917 263.827 119.111 264.112 119.576 264.112C119.822 264.112 120.041 264.034 120.196 263.905L120.752 264.887C120.39 265.12 119.951 265.262 119.408 265.262ZM122.451 262.238C122.58 263.349 123.304 264.034 124.235 264.034C124.997 264.034 125.592 263.672 125.889 263.013L127.052 263.414C126.587 264.59 125.501 265.262 124.235 265.262C122.464 265.262 121.198 263.802 121.198 261.837C121.198 259.924 122.477 258.49 124.235 258.49C125.992 258.49 127.259 259.899 127.285 261.798V262.238H122.451ZM124.235 259.718C123.343 259.718 122.671 260.325 122.49 261.268H125.992C125.811 260.325 125.126 259.718 124.235 259.718ZM128.439 265.107V258.645H129.498L129.666 259.265H129.783C129.989 258.916 130.468 258.49 131.346 258.49C131.463 258.49 131.566 258.503 131.657 258.529V259.705C131.514 259.666 131.346 259.64 131.166 259.64C130.209 259.64 129.718 260.273 129.718 261.488V265.107H128.439Z" fill="#1C1C1C"/>
<rect x="214.412" y="243.353" width="168.013" height="34.895" rx="2.58481" fill="#B1E3FF"/>
<path d="M272.034 265.107V257.262H269.152V256.06H276.247V257.262H273.365V265.107H272.034ZM276.761 265.107L279.901 260.467V260.364L277.006 256.06H278.467L280.599 259.239H280.754L282.887 256.06H284.347L281.452 260.364V260.467L284.593 265.107H283.132L280.728 261.566H280.625L278.221 265.107H276.761ZM289.992 265.107H288.699V256.06H292.176C293.675 256.06 294.761 257.133 294.761 258.645C294.761 259.821 294.024 260.803 292.925 261.113L295.239 265.107H293.753L291.504 261.217H289.992V265.107ZM292.06 259.976C292.874 259.976 293.442 259.42 293.442 258.645C293.442 257.857 292.874 257.314 292.06 257.314H289.992V259.976H292.06ZM296.93 262.238C297.059 263.349 297.783 264.034 298.713 264.034C299.476 264.034 300.07 263.672 300.368 263.013L301.531 263.414C301.066 264.59 299.98 265.262 298.713 265.262C296.943 265.262 295.676 263.802 295.676 261.837C295.676 259.924 296.956 258.49 298.713 258.49C300.471 258.49 301.738 259.899 301.763 261.798V262.238H296.93ZM298.713 259.718C297.822 259.718 297.15 260.325 296.969 261.268H300.471C300.29 260.325 299.605 259.718 298.713 259.718ZM305.037 265.262C303.744 265.262 302.633 264.487 302.633 263.246C302.633 261.992 303.744 261.178 305.437 261.178C305.941 261.178 306.42 261.243 306.872 261.385V260.855C306.872 260.209 306.278 259.743 305.45 259.743C304.714 259.743 304.326 260.015 304.119 260.506L302.917 260.157C303.215 259.149 304.197 258.49 305.373 258.49C306.937 258.49 308.113 259.485 308.113 260.7V265.107H307.053L306.846 264.383H306.73C306.523 264.965 305.954 265.262 305.037 265.262ZM303.887 263.207C303.887 263.802 304.429 264.099 305.192 264.099C306.097 264.099 306.872 263.647 306.872 262.962V262.483C306.42 262.328 305.877 262.238 305.386 262.238C304.455 262.238 303.887 262.587 303.887 263.207ZM315.691 265.107H314.631L314.424 264.383H314.308C313.985 264.9 313.235 265.262 312.408 265.262C310.625 265.262 309.332 263.827 309.332 261.876C309.332 259.924 310.625 258.49 312.408 258.49C313.235 258.49 314.192 258.955 314.412 259.537V255.905H315.691V265.107ZM312.538 264.086C313.649 264.086 314.412 263.194 314.412 261.902C314.412 260.596 313.649 259.705 312.538 259.705C311.413 259.705 310.612 260.622 310.612 261.902C310.612 263.168 311.413 264.086 312.538 264.086ZM318.285 262.238C318.414 263.349 319.138 264.034 320.068 264.034C320.831 264.034 321.425 263.672 321.723 263.013L322.886 263.414C322.421 264.59 321.335 265.262 320.068 265.262C318.298 265.262 317.031 263.802 317.031 261.837C317.031 259.924 318.311 258.49 320.068 258.49C321.826 258.49 323.093 259.899 323.118 261.798V262.238H318.285ZM320.068 259.718C319.177 259.718 318.505 260.325 318.324 261.268H321.826C321.645 260.325 320.96 259.718 320.068 259.718ZM324.272 265.107V258.645H325.332L325.5 259.265H325.616C325.823 258.916 326.301 258.49 327.18 258.49C327.297 258.49 327.4 258.503 327.49 258.529V259.705C327.348 259.666 327.18 259.64 326.999 259.64C326.043 259.64 325.552 260.273 325.552 261.488V265.107H324.272Z" fill="#1C1C1C"/>
<path d="M100.87 175.312C101.122 175.564 101.531 175.564 101.784 175.312L105.896 171.199C106.148 170.947 106.148 170.538 105.896 170.285C105.644 170.033 105.234 170.033 104.982 170.285L101.327 173.941L97.6712 170.285C97.4188 170.033 97.0097 170.033 96.7573 170.285C96.5049 170.538 96.5049 170.947 96.7573 171.199L100.87 175.312ZM100.68 67.585L100.68 174.855L101.973 174.855L101.973 67.585L100.68 67.585Z" fill="white"/>
<path d="M100.87 243.809C101.122 244.061 101.531 244.061 101.784 243.809L105.896 239.697C106.148 239.444 106.148 239.035 105.896 238.783C105.644 238.53 105.234 238.53 104.982 238.783L101.327 242.438L97.6712 238.783C97.4188 238.53 97.0097 238.53 96.7573 238.783C96.505 239.035 96.505 239.444 96.7573 239.697L100.87 243.809ZM100.68 209.75L100.68 243.352L101.973 243.352L101.973 209.75L100.68 209.75Z" fill="white"/>
<path d="M100.87 349.786C101.122 350.039 101.531 350.039 101.784 349.786L105.896 345.674C106.148 345.422 106.148 345.012 105.896 344.76C105.644 344.508 105.234 344.508 104.982 344.76L101.327 348.416L97.6712 344.76C97.4188 344.508 97.0097 344.508 96.7573 344.76C96.5049 345.012 96.5049 345.422 96.7573 345.674L100.87 349.786ZM100.68 278.247L100.68 349.329L101.973 349.329L101.973 278.247L100.68 278.247Z" fill="white"/>
<path d="M298.875 277.79C298.623 277.538 298.214 277.538 297.962 277.79L293.849 281.903C293.597 282.155 293.597 282.564 293.849 282.816C294.101 283.069 294.511 283.069 294.763 282.816L298.418 279.161L302.074 282.816C302.326 283.069 302.735 283.069 302.988 282.816C303.24 282.564 303.24 282.155 302.988 281.903L298.875 277.79ZM297.772 278.247L297.772 349.329L299.065 349.329L299.065 278.247L297.772 278.247Z" fill="white"/>
<path d="M298.875 209.293C298.623 209.04 298.214 209.04 297.962 209.293L293.849 213.405C293.597 213.657 293.597 214.067 293.849 214.319C294.101 214.571 294.511 214.571 294.763 214.319L298.418 210.663L302.074 214.319C302.326 214.571 302.735 214.571 302.988 214.319C303.24 214.067 303.24 213.657 302.988 213.405L298.875 209.293ZM297.772 209.75L297.772 243.352L299.065 243.352L299.065 209.75L297.772 209.75Z" fill="white"/>
<rect width="68.4976" height="15.5089" transform="translate(66.4312 218.15)" fill="#1C1C1C"/>
<path d="M77.6718 225.482H79.9568V228.905H79.2951L79.1297 228.098H79.0469C78.6954 228.574 78.2198 229.029 76.917 229.029C74.8906 229.029 73.5051 227.468 73.5051 225.286C73.5051 223.104 74.8906 221.543 76.917 221.543C78.3956 221.543 79.5329 222.339 80.0395 223.652L79.171 223.942C78.7781 222.949 77.9717 222.37 76.917 222.37C75.4385 222.37 74.4356 223.58 74.4356 225.286C74.4356 226.992 75.4385 228.202 76.917 228.202C77.9717 228.202 79.1607 227.519 79.1297 226.31H77.6718V225.482ZM81.8326 226.558C81.9256 227.55 82.5253 228.181 83.3421 228.181C83.9521 228.181 84.4587 227.871 84.7069 227.344L85.503 227.623C85.1204 228.502 84.3036 229.029 83.3421 229.029C81.9566 229.029 80.9744 227.881 80.9744 226.289C80.9744 224.738 81.967 223.611 83.3421 223.611C84.7069 223.611 85.6891 224.707 85.7098 226.237V226.558H81.8326ZM83.3421 224.459C82.5666 224.459 81.9876 225.007 81.8532 225.886H84.8309C84.6965 225.007 84.1175 224.459 83.3421 224.459ZM88.5679 229.029C87.6891 229.029 87.2135 228.512 87.2135 227.581V224.48H86.3864V223.735C86.893 223.714 87.2135 223.342 87.2135 222.815V222.112H88.1027V223.735H89.0642V224.48H88.1027V227.375C88.1027 227.985 88.2784 228.243 88.7023 228.243C88.8781 228.243 89.0435 228.202 89.178 228.119L89.5502 228.77C89.302 228.915 88.9815 229.029 88.5679 229.029ZM92.4498 223.735H93.3906L94.8175 227.406H94.9002L96.327 223.735H97.2679L95.2414 228.905H94.4659L92.4498 223.735ZM99.5897 229.029C98.504 229.029 97.6355 228.377 97.6355 227.416C97.6355 226.454 98.5247 225.803 99.8481 225.803C100.272 225.803 100.675 225.865 101.058 225.989V225.503C101.058 224.914 100.531 224.48 99.8275 224.48C99.2381 224.48 98.8763 224.707 98.6695 225.141L97.863 224.852C98.1112 224.107 98.8969 223.611 99.7758 223.611C100.954 223.611 101.916 224.418 101.916 225.379V228.905H101.192L101.027 228.336H100.944C100.768 228.801 100.324 229.029 99.5897 229.029ZM98.504 227.416C98.504 227.954 99.0107 228.222 99.662 228.222C100.417 228.222 101.058 227.819 101.058 227.271V226.775C100.686 226.63 100.22 226.547 99.8068 226.547C98.959 226.547 98.504 226.858 98.504 227.416ZM103.359 221.543H104.248V228.905H103.359V221.543ZM106.299 222.743C105.968 222.743 105.699 222.474 105.699 222.143C105.699 221.812 105.968 221.543 106.299 221.543C106.629 221.543 106.898 221.812 106.898 222.143C106.898 222.474 106.629 222.743 106.299 222.743ZM105.854 223.735H106.743V228.905H105.854V223.735ZM112.886 228.905H112.162L111.997 228.336H111.914C111.635 228.76 110.994 229.029 110.332 229.029C108.936 229.029 107.933 227.902 107.933 226.32C107.933 224.738 108.936 223.611 110.332 223.611C110.994 223.611 111.862 224.025 111.997 224.573V221.543H112.886V228.905ZM110.435 228.191C111.366 228.191 111.997 227.447 111.997 226.32C111.997 225.193 111.366 224.449 110.435 224.449C109.494 224.449 108.822 225.214 108.822 226.32C108.822 227.426 109.494 228.191 110.435 228.191ZM118.553 228.905V222.494H116.247V221.667H121.789V222.494H119.483V228.905H118.553ZM122.253 228.905L124.725 225.193V225.11L122.45 221.667H123.453L125.2 224.314H125.324L127.072 221.667H128.074L125.8 225.11V225.193L128.271 228.905H127.268L125.304 225.958H125.221L123.256 228.905H122.253Z" fill="white"/>
<rect width="84.6527" height="15.5089" transform="translate(58.0308 315.727)" fill="#1C1C1C"/>
<path d="M69.4281 321.373H69.3453L67.8358 326.481H66.7915L64.61 319.243H65.5405L67.2672 324.992H67.3499L68.8387 319.936H69.9347L71.4132 324.992H71.4959L73.2226 319.243H74.1531L71.9715 326.481H70.9272L69.4281 321.373ZM74.3579 326.481V321.311H75.0817L75.2264 321.828H75.3092C75.4746 321.559 75.8675 321.187 76.6222 321.187C76.6843 321.187 76.7463 321.187 76.798 321.198V322.004C76.705 321.983 76.6016 321.973 76.4775 321.973C75.671 321.973 75.2471 322.511 75.2471 323.514V326.481H74.3579ZM78.33 320.319C77.9991 320.319 77.7303 320.05 77.7303 319.719C77.7303 319.388 77.9991 319.119 78.33 319.119C78.6609 319.119 78.9297 319.388 78.9297 319.719C78.9297 320.05 78.6609 320.319 78.33 320.319ZM77.8854 321.311H78.7746V326.481H77.8854V321.311ZM82.1461 326.605C81.2673 326.605 80.7917 326.088 80.7917 325.158V322.056H79.9646V321.311C80.4712 321.291 80.7917 320.918 80.7917 320.391V319.688H81.6809V321.311H82.6424V322.056H81.6809V324.951C81.6809 325.561 81.8567 325.819 82.2806 325.819C82.4563 325.819 82.6218 325.778 82.7562 325.695L83.1284 326.347C82.8802 326.491 82.5597 326.605 82.1461 326.605ZM84.4071 324.134C84.5002 325.127 85.0999 325.757 85.9167 325.757C86.5267 325.757 87.0333 325.447 87.2814 324.92L88.0776 325.199C87.695 326.078 86.8782 326.605 85.9167 326.605C84.5312 326.605 83.549 325.457 83.549 323.865C83.549 322.314 84.5415 321.187 85.9167 321.187C87.2814 321.187 88.2637 322.283 88.2844 323.813V324.134H84.4071ZM85.9167 322.035C85.1412 322.035 84.5622 322.583 84.4278 323.462H87.4055C87.2711 322.583 86.6921 322.035 85.9167 322.035ZM93.6264 326.605C92.7475 326.605 92.2719 326.088 92.2719 325.158V322.056H91.4448V321.311C91.9514 321.291 92.2719 320.918 92.2719 320.391V319.688H93.1611V321.311H94.1226V322.056H93.1611V324.951C93.1611 325.561 93.3369 325.819 93.7608 325.819C93.9365 325.819 94.102 325.778 94.2364 325.695L94.6086 326.347C94.3604 326.491 94.0399 326.605 93.6264 326.605ZM97.5313 326.605C96.0424 326.605 95.0292 325.468 95.0292 323.906C95.0292 322.335 96.0424 321.198 97.5313 321.198C99.0305 321.198 100.044 322.335 100.044 323.906C100.044 325.468 99.0305 326.605 97.5313 326.605ZM97.5313 325.716C98.5342 325.716 99.1442 324.982 99.1442 323.906C99.1442 322.821 98.5342 322.097 97.5313 322.097C96.5387 322.097 95.9184 322.821 95.9287 323.906C95.9287 324.982 96.5387 325.716 97.5313 325.716ZM103.765 326.481V319.243H106.277C107.208 319.243 108.232 320.06 108.232 321.177C108.232 321.766 108.139 322.48 107.311 322.821V322.904C108.004 323.162 108.418 323.813 108.418 324.672C108.418 325.726 107.673 326.481 106.65 326.481H103.765ZM104.696 322.418H106.081C106.743 322.418 107.249 321.932 107.249 321.28C107.249 320.608 106.763 320.133 106.081 320.133H104.696V322.418ZM104.696 325.592H106.267C106.929 325.592 107.435 325.106 107.435 324.434C107.435 323.782 106.95 323.307 106.267 323.307H104.696V325.592ZM111.192 326.481V320.071H108.886V319.243H114.428V320.071H112.122V326.481H111.192ZM117.971 326.605C115.934 326.605 114.528 325.033 114.528 322.862C114.528 320.691 115.934 319.119 117.971 319.119C119.47 319.119 120.638 319.947 121.134 321.28L120.204 321.59C119.832 320.598 119.025 320.009 117.971 320.009C116.513 320.009 115.52 321.198 115.52 322.862C115.52 324.527 116.513 325.716 117.971 325.716C119.025 325.716 119.832 325.127 120.204 324.134L121.134 324.434C120.628 325.778 119.47 326.605 117.971 326.605ZM126.388 326.481V320.071H124.082V319.243H129.624V320.071H127.318V326.481H126.388ZM130.089 326.481L132.56 322.769V322.686L130.285 319.243H131.288L133.035 321.89H133.159L134.907 319.243H135.91L133.635 322.686V322.769L136.106 326.481H135.103L133.139 323.534H133.056L131.091 326.481H130.089Z" fill="white"/>
<rect width="167.367" height="15.5089" transform="translate(211.181 315.727)" fill="#1C1C1C"/>
<path d="M221.185 319.243C222.353 319.243 223.201 320.081 223.201 321.26C223.201 322.428 222.364 323.276 221.185 323.276H219.634V326.481H218.704V319.243H221.185ZM221.154 322.449C221.867 322.449 222.374 321.963 222.374 321.26C222.374 320.557 221.867 320.071 221.154 320.071H219.634V322.449H221.154ZM225.513 326.605C224.428 326.605 223.559 325.954 223.559 324.992C223.559 324.031 224.449 323.379 225.772 323.379C226.196 323.379 226.599 323.441 226.982 323.565V323.079C226.982 322.49 226.454 322.056 225.751 322.056C225.162 322.056 224.8 322.283 224.593 322.717L223.787 322.428C224.035 321.684 224.821 321.187 225.7 321.187C226.878 321.187 227.84 321.994 227.84 322.955V326.481H227.116L226.951 325.912H226.868C226.692 326.378 226.248 326.605 225.513 326.605ZM224.428 324.992C224.428 325.53 224.934 325.799 225.586 325.799C226.341 325.799 226.982 325.395 226.982 324.847V324.351C226.609 324.206 226.144 324.124 225.731 324.124C224.883 324.124 224.428 324.434 224.428 324.992ZM229.179 326.481V321.311H229.903L230.048 321.828H230.13C230.296 321.559 230.689 321.187 231.444 321.187C231.506 321.187 231.568 321.187 231.619 321.198V322.004C231.526 321.983 231.423 321.973 231.299 321.973C230.492 321.973 230.068 322.511 230.068 323.514V326.481H229.179ZM233.058 324.961C233.265 325.468 233.524 325.809 234.206 325.809C234.785 325.809 235.312 325.592 235.312 325.147C235.312 324.651 234.878 324.537 233.627 324.134C232.769 323.855 232.386 323.379 232.386 322.645C232.386 321.766 233.069 321.187 234.175 321.187C235.199 321.187 235.767 321.611 236.015 322.49L235.261 322.738C235.085 322.201 234.785 321.973 234.196 321.973C233.575 321.973 233.224 322.252 233.224 322.666C233.224 323.069 233.389 323.234 233.823 323.379C235.612 323.948 236.15 324.196 236.15 325.147C236.15 326.026 235.323 326.605 234.247 326.605C233.182 326.605 232.417 326.088 232.241 325.209L233.058 324.961ZM237.734 324.134C237.827 325.127 238.427 325.757 239.244 325.757C239.854 325.757 240.36 325.447 240.608 324.92L241.405 325.199C241.022 326.078 240.205 326.605 239.244 326.605C237.858 326.605 236.876 325.457 236.876 323.865C236.876 322.314 237.869 321.187 239.244 321.187C240.608 321.187 241.591 322.283 241.611 323.813V324.134H237.734ZM239.244 322.035C238.468 322.035 237.889 322.583 237.755 323.462H240.733C240.598 322.583 240.019 322.035 239.244 322.035ZM245.289 326.481V319.243H247.801C248.732 319.243 249.755 320.06 249.755 321.177C249.755 321.766 249.662 322.48 248.835 322.821V322.904C249.528 323.162 249.941 323.813 249.941 324.672C249.941 325.726 249.197 326.481 248.173 326.481H245.289ZM246.219 322.418H247.605C248.266 322.418 248.773 321.932 248.773 321.28C248.773 320.608 248.287 320.133 247.605 320.133H246.219V322.418ZM246.219 325.592H247.791C248.453 325.592 248.959 325.106 248.959 324.434C248.959 323.782 248.473 323.307 247.791 323.307H246.219V325.592ZM252.716 326.481V320.071H250.41V319.243H255.952V320.071H253.646V326.481H252.716ZM259.494 326.605C257.457 326.605 256.051 325.033 256.051 322.862C256.051 320.691 257.457 319.119 259.494 319.119C260.993 319.119 262.162 319.947 262.658 321.28L261.728 321.59C261.355 320.598 260.549 320.009 259.494 320.009C258.036 320.009 257.044 321.198 257.044 322.862C257.044 324.527 258.036 325.716 259.494 325.716C260.549 325.716 261.355 325.127 261.728 324.134L262.658 324.434C262.151 325.778 260.993 326.605 259.494 326.605ZM266.278 326.481V319.119H267.167V322.149C267.301 321.601 268.17 321.187 268.832 321.187C270.227 321.187 271.23 322.314 271.23 323.896C271.23 325.478 270.227 326.605 268.832 326.605C268.17 326.605 267.529 326.336 267.25 325.912H267.167L267.002 326.481H266.278ZM268.728 325.768C269.669 325.768 270.341 325.002 270.341 323.896C270.341 322.79 269.669 322.025 268.728 322.025C267.798 322.025 267.167 322.769 267.167 323.896C267.167 325.023 267.798 325.768 268.728 325.768ZM272.366 319.119H273.255V326.481H272.366V319.119ZM276.898 326.605C275.409 326.605 274.396 325.468 274.396 323.906C274.396 322.335 275.409 321.198 276.898 321.198C278.397 321.198 279.411 322.335 279.411 323.906C279.411 325.468 278.397 326.605 276.898 326.605ZM276.898 325.716C277.901 325.716 278.511 324.982 278.511 323.906C278.511 322.821 277.901 322.097 276.898 322.097C275.906 322.097 275.285 322.821 275.296 323.906C275.296 324.982 275.906 325.716 276.898 325.716ZM285.069 325.137C284.676 326.047 283.859 326.605 282.825 326.605C281.346 326.605 280.333 325.488 280.333 323.886C280.333 322.294 281.357 321.187 282.825 321.187C283.859 321.187 284.686 321.735 285.069 322.635L284.231 322.935C283.973 322.387 283.476 322.087 282.825 322.087C281.832 322.087 281.222 322.78 281.222 323.886C281.222 324.982 281.843 325.706 282.825 325.706C283.466 325.706 283.962 325.395 284.231 324.847L285.069 325.137ZM288.673 321.311H289.789L288.218 323.348V323.441L290.048 326.481H288.962L287.649 324.299H287.577L286.987 325.064V326.481H286.098V319.119H286.987V323.431H287.029L288.673 321.311ZM294.95 326.605C293.864 326.605 292.996 325.954 292.996 324.992C292.996 324.031 293.885 323.379 295.209 323.379C295.632 323.379 296.036 323.441 296.418 323.565V323.079C296.418 322.49 295.891 322.056 295.188 322.056C294.599 322.056 294.237 322.283 294.03 322.717L293.223 322.428C293.472 321.684 294.257 321.187 295.136 321.187C296.315 321.187 297.276 321.994 297.276 322.955V326.481H296.553L296.387 325.912H296.304C296.129 326.378 295.684 326.605 294.95 326.605ZM293.864 324.992C293.864 325.53 294.371 325.799 295.022 325.799C295.777 325.799 296.418 325.395 296.418 324.847V324.351C296.046 324.206 295.581 324.124 295.167 324.124C294.319 324.124 293.864 324.434 293.864 324.992ZM299.34 321.311L299.484 321.828H299.567C299.743 321.539 300.156 321.187 300.88 321.187C302.038 321.187 302.762 322.004 302.762 323.307V326.481H301.873V323.72C301.873 322.573 301.49 321.973 300.735 321.973C299.929 321.973 299.505 322.511 299.505 323.514V326.481H298.616V321.311H299.34ZM308.65 326.481H307.926L307.761 325.912H307.678C307.399 326.336 306.758 326.605 306.096 326.605C304.7 326.605 303.697 325.478 303.697 323.896C303.697 322.314 304.7 321.187 306.096 321.187C306.758 321.187 307.626 321.601 307.761 322.149V319.119H308.65V326.481ZM306.2 325.768C307.13 325.768 307.761 325.023 307.761 323.896C307.761 322.769 307.13 322.025 306.2 322.025C305.259 322.025 304.587 322.79 304.587 323.896C304.587 325.002 305.259 325.768 306.2 325.768ZM314.948 320.029C314.855 319.988 314.73 319.957 314.617 319.967C314.162 319.967 313.872 320.277 313.872 320.774V321.311H315.134V322.056H313.872V326.481H312.983V322.056H312.115V321.311H312.983V320.774C312.983 319.812 313.666 319.119 314.606 319.119C314.865 319.119 315.103 319.171 315.32 319.274L314.948 320.029ZM316.794 320.319C316.463 320.319 316.195 320.05 316.195 319.719C316.195 319.388 316.463 319.119 316.794 319.119C317.125 319.119 317.394 319.388 317.394 319.719C317.394 320.05 317.125 320.319 316.794 320.319ZM316.35 321.311H317.239V326.481H316.35V321.311ZM318.842 319.119H319.732V326.481H318.842V319.119ZM323.054 326.605C322.175 326.605 321.699 326.088 321.699 325.158V322.056H320.872V321.311C321.379 321.291 321.699 320.918 321.699 320.391V319.688H322.589V321.311H323.55V322.056H322.589V324.951C322.589 325.561 322.764 325.819 323.188 325.819C323.364 325.819 323.53 325.778 323.664 325.695L324.036 326.347C323.788 326.491 323.467 326.605 323.054 326.605ZM325.315 324.134C325.408 325.127 326.008 325.757 326.824 325.757C327.434 325.757 327.941 325.447 328.189 324.92L328.985 325.199C328.603 326.078 327.786 326.605 326.824 326.605C325.439 326.605 324.457 325.457 324.457 323.865C324.457 322.314 325.449 321.187 326.824 321.187C328.189 321.187 329.171 322.283 329.192 323.813V324.134H325.315ZM326.824 322.035C326.049 322.035 325.47 322.583 325.336 323.462H328.313C328.179 322.583 327.6 322.035 326.824 322.035ZM330.179 326.481V321.311H330.903L331.047 321.828H331.13C331.296 321.559 331.688 321.187 332.443 321.187C332.505 321.187 332.567 321.187 332.619 321.198V322.004C332.526 321.983 332.422 321.973 332.298 321.973C331.492 321.973 331.068 322.511 331.068 323.514V326.481H330.179ZM336.242 326.481V319.243H338.754C339.685 319.243 340.708 320.06 340.708 321.177C340.708 321.766 340.615 322.48 339.788 322.821V322.904C340.481 323.162 340.895 323.813 340.895 324.672C340.895 325.726 340.15 326.481 339.127 326.481H336.242ZM337.172 322.418H338.558C339.22 322.418 339.726 321.932 339.726 321.28C339.726 320.608 339.24 320.133 338.558 320.133H337.172V322.418ZM337.172 325.592H338.744C339.406 325.592 339.912 325.106 339.912 324.434C339.912 323.782 339.426 323.307 338.744 323.307H337.172V325.592ZM345.139 326.481H344.054L341.21 319.243H342.193L344.56 325.251H344.643L347 319.243H347.983L345.139 326.481ZM348.914 326.481V319.243H350.154L352.605 324.734H352.687L355.127 319.243H356.368V326.481H355.438V320.825H355.355L353.184 325.706H352.108L349.927 320.825H349.844V326.481H348.914ZM362.136 326.481V320.071H359.83V319.243H365.372V320.071H363.067V326.481H362.136ZM365.837 326.481L368.308 322.769V322.686L366.033 319.243H367.036L368.783 321.89H368.908L370.655 319.243H371.658L369.383 322.686V322.769L371.854 326.481H370.851L368.887 323.534H368.804L366.84 326.481H365.837Z" fill="white"/>
<rect width="94.9919" height="15.5089" transform="translate(250.599 218.15)" fill="#1C1C1C"/>
<path d="M258.203 228.905V221.667H259.133V228.905H258.203ZM265.944 223.611C267.061 223.611 267.671 224.366 267.671 225.731V228.905H266.782V226.144C266.782 225.152 266.596 224.397 265.748 224.397C264.848 224.397 264.621 225.079 264.621 225.937V228.905H263.732V226.144C263.732 225.152 263.546 224.397 262.698 224.397C261.798 224.397 261.571 225.079 261.571 225.937V228.905H260.682V223.735H261.405L261.54 224.252H261.623C261.767 223.932 262.16 223.611 262.822 223.611C263.577 223.611 263.97 223.963 264.207 224.583H264.29C264.559 223.963 265.21 223.611 265.944 223.611ZM269.014 223.735H269.738L269.903 224.304H269.986C270.265 223.88 270.906 223.611 271.568 223.611C272.964 223.611 273.967 224.738 273.967 226.32C273.967 227.902 272.964 229.029 271.568 229.029C270.906 229.029 270.038 228.615 269.903 228.067V230.973H269.014V223.735ZM271.464 224.449C270.534 224.449 269.903 225.193 269.903 226.32C269.903 227.447 270.534 228.191 271.464 228.191C272.405 228.191 273.077 227.426 273.077 226.32C273.077 225.214 272.405 224.449 271.464 224.449ZM277.393 229.029C275.904 229.029 274.891 227.892 274.891 226.33C274.891 224.759 275.904 223.621 277.393 223.621C278.892 223.621 279.905 224.759 279.905 226.33C279.905 227.892 278.892 229.029 277.393 229.029ZM277.393 228.14C278.396 228.14 279.006 227.406 279.006 226.33C279.006 225.245 278.396 224.521 277.393 224.521C276.4 224.521 275.78 225.245 275.79 226.33C275.79 227.406 276.4 228.14 277.393 228.14ZM280.936 228.905V223.735H281.66L281.805 224.252H281.887C282.053 223.983 282.446 223.611 283.2 223.611C283.262 223.611 283.324 223.611 283.376 223.621V224.428C283.283 224.407 283.18 224.397 283.056 224.397C282.249 224.397 281.825 224.935 281.825 225.937V228.905H280.936ZM286.18 229.029C285.301 229.029 284.825 228.512 284.825 227.581V224.48H283.998V223.735C284.505 223.714 284.825 223.342 284.825 222.815V222.112H285.715V223.735H286.676V224.48H285.715V227.375C285.715 227.985 285.89 228.243 286.314 228.243C286.49 228.243 286.655 228.202 286.79 228.119L287.162 228.77C286.914 228.915 286.593 229.029 286.18 229.029ZM290.785 228.905V221.667H293.298C294.228 221.667 295.252 222.484 295.252 223.601C295.252 224.19 295.159 224.903 294.332 225.245V225.327C295.025 225.586 295.438 226.237 295.438 227.095C295.438 228.15 294.694 228.905 293.67 228.905H290.785ZM291.716 224.841H293.101C293.763 224.841 294.27 224.356 294.27 223.704C294.27 223.032 293.784 222.556 293.101 222.556H291.716V224.841ZM291.716 228.016H293.288C293.949 228.016 294.456 227.53 294.456 226.858C294.456 226.206 293.97 225.731 293.288 225.731H291.716V228.016ZM299.683 228.905H298.597L295.754 221.667H296.736L299.104 227.674H299.187L301.544 221.667H302.526L299.683 228.905ZM303.457 228.905V221.667H304.698L307.148 227.157H307.231L309.671 221.667H310.912V228.905H309.981V223.249H309.898L307.727 228.129H306.652L304.47 223.249H304.388V228.905H303.457ZM315.046 228.905V221.543H315.935V224.573C316.07 224.025 316.938 223.611 317.6 223.611C318.996 223.611 319.998 224.738 319.998 226.32C319.998 227.902 318.996 229.029 317.6 229.029C316.938 229.029 316.297 228.76 316.018 228.336H315.935L315.77 228.905H315.046ZM317.496 228.191C318.437 228.191 319.109 227.426 319.109 226.32C319.109 225.214 318.437 224.449 317.496 224.449C316.566 224.449 315.935 225.193 315.935 226.32C315.935 227.447 316.566 228.191 317.496 228.191ZM321.134 221.543H322.024V228.905H321.134V221.543ZM325.666 229.029C324.178 229.029 323.164 227.892 323.164 226.33C323.164 224.759 324.178 223.621 325.666 223.621C327.166 223.621 328.179 224.759 328.179 226.33C328.179 227.892 327.166 229.029 325.666 229.029ZM325.666 228.14C326.669 228.14 327.279 227.406 327.279 226.33C327.279 225.245 326.669 224.521 325.666 224.521C324.674 224.521 324.053 225.245 324.064 226.33C324.064 227.406 324.674 228.14 325.666 228.14ZM333.837 227.561C333.444 228.471 332.627 229.029 331.593 229.029C330.115 229.029 329.101 227.912 329.101 226.31C329.101 224.717 330.125 223.611 331.593 223.611C332.627 223.611 333.454 224.159 333.837 225.059L332.999 225.358C332.741 224.81 332.244 224.511 331.593 224.511C330.6 224.511 329.99 225.203 329.99 226.31C329.99 227.406 330.611 228.129 331.593 228.129C332.234 228.129 332.73 227.819 332.999 227.271L333.837 227.561ZM337.441 223.735H338.557L336.986 225.772V225.865L338.816 228.905H337.73L336.417 226.723H336.345L335.755 227.488V228.905H334.866V221.543H335.755V225.855H335.797L337.441 223.735Z" fill="white"/>
<rect width="51.0501" height="15.5089" transform="translate(75.478 83.7397)" fill="#1C1C1C"/>
<path d="M83.4896 92.4263C83.686 93.3465 84.265 93.7911 85.2576 93.7911C86.2812 93.7911 86.9739 93.3361 86.9739 92.6641C86.9739 91.992 86.3432 91.4958 85.0198 91.1029C83.4585 90.6376 82.7968 90.0069 82.7968 89.0143C82.7968 87.8357 83.717 87.1326 85.2576 87.1326C86.6534 87.1326 87.5529 87.7529 87.77 88.8799L86.8705 89.1177C86.643 88.3216 86.1467 87.9597 85.2576 87.9597C84.3167 87.9597 83.7067 88.3733 83.7067 89.0143C83.7067 89.5933 84.2133 89.9966 85.4644 90.4101C87.191 90.9685 87.8837 91.6302 87.8837 92.6951C87.8837 93.8738 86.9015 94.6182 85.3196 94.6182C83.8101 94.6182 82.7451 93.8428 82.5694 92.6021L83.4896 92.4263ZM89.4655 92.1471C89.5585 93.1397 90.1582 93.7704 90.975 93.7704C91.585 93.7704 92.0917 93.4602 92.3398 92.9329L93.1359 93.2121C92.7534 94.0909 91.9366 94.6182 90.975 94.6182C89.5896 94.6182 88.6073 93.4706 88.6073 91.8783C88.6073 90.3274 89.5999 89.2004 90.975 89.2004C92.3398 89.2004 93.322 90.2964 93.3427 91.8266V92.1471H89.4655ZM90.975 90.0483C90.1996 90.0483 89.6206 90.5962 89.4862 91.4751H92.4639C92.3295 90.5962 91.7505 90.0483 90.975 90.0483ZM95.0532 89.3245L95.198 89.8415H95.2807C95.4564 89.552 95.87 89.2004 96.5938 89.2004C97.7518 89.2004 98.4755 90.0172 98.4755 91.32V94.4941H97.5863V91.7336C97.5863 90.5859 97.2038 89.9862 96.449 89.9862C95.6425 89.9862 95.2186 90.5239 95.2186 91.5268V94.4941H94.3295V89.3245H95.0532ZM104.364 94.4941H103.64L103.474 93.9255H103.392C103.113 94.3494 102.471 94.6182 101.81 94.6182C100.414 94.6182 99.411 93.4912 99.411 91.9093C99.411 90.3274 100.414 89.2004 101.81 89.2004C102.471 89.2004 103.34 89.614 103.474 90.162V87.1326H104.364V94.4941ZM101.913 93.7807C102.844 93.7807 103.474 93.0363 103.474 91.9093C103.474 90.7823 102.844 90.0379 101.913 90.0379C100.972 90.0379 100.3 90.803 100.3 91.9093C100.3 93.0156 100.972 93.7807 101.913 93.7807ZM110.031 94.4941V88.0838H107.725V87.2567H113.267V88.0838H110.961V94.4941H110.031ZM113.731 94.4941L116.202 90.7823V90.6996L113.928 87.2567H114.931L116.678 89.9035H116.802L118.549 87.2567H119.552L117.278 90.6996V90.7823L119.749 94.4941H118.746L116.781 91.5475H116.699L114.734 94.4941H113.731Z" fill="white"/>
<path d="M298.418 26.228H299.064V25.5818H298.418V26.228ZM130.918 25.7711C130.665 26.0235 130.665 26.4326 130.918 26.685L135.03 30.7974C135.282 31.0497 135.692 31.0497 135.944 30.7974C136.196 30.545 136.196 30.1359 135.944 29.8835L132.288 26.228L135.944 22.5725C136.196 22.3202 136.196 21.911 135.944 21.6587C135.692 21.4063 135.282 21.4063 135.03 21.6587L130.918 25.7711ZM299.064 173.886V26.228H297.772V173.886H299.064ZM298.418 25.5818H131.375V26.8742H298.418V25.5818Z" fill="white"/>
<rect width="62.6817" height="15.5089" transform="translate(266.754 83.7397)" fill="#1C1C1C"/>
<path d="M275.288 94.4941H274.358V87.2567H277.077C278.235 87.2567 279.072 88.0838 279.072 89.2521C279.072 90.2033 278.462 90.9788 277.563 91.1959L279.434 94.4941H278.38L276.539 91.2476H275.288V94.4941ZM276.943 90.3481C277.615 90.3481 278.09 89.8932 278.09 89.2521C278.09 88.6111 277.615 88.1562 276.943 88.1562H275.288V90.3481H276.943ZM280.707 92.1471C280.8 93.1397 281.399 93.7704 282.216 93.7704C282.826 93.7704 283.333 93.4602 283.581 92.9329L284.377 93.2121C283.994 94.0909 283.178 94.6182 282.216 94.6182C280.831 94.6182 279.848 93.4706 279.848 91.8783C279.848 90.3274 280.841 89.2004 282.216 89.2004C283.581 89.2004 284.563 90.2964 284.584 91.8266V92.1471H280.707ZM282.216 90.0483C281.441 90.0483 280.862 90.5962 280.727 91.4751H283.705C283.571 90.5962 282.992 90.0483 282.216 90.0483ZM287.266 94.6182C286.181 94.6182 285.312 93.9668 285.312 93.0053C285.312 92.0437 286.201 91.3924 287.525 91.3924C287.949 91.3924 288.352 91.4544 288.734 91.5785V91.0925C288.734 90.5032 288.207 90.0689 287.504 90.0689C286.915 90.0689 286.553 90.2964 286.346 90.7307L285.54 90.4412C285.788 89.6967 286.573 89.2004 287.452 89.2004C288.631 89.2004 289.593 90.0069 289.593 90.9685V94.4941H288.869L288.703 93.9255H288.621C288.445 94.3907 288 94.6182 287.266 94.6182ZM286.181 93.0053C286.181 93.5429 286.687 93.8117 287.339 93.8117C288.093 93.8117 288.734 93.4085 288.734 92.8605V92.3643C288.362 92.2195 287.897 92.1368 287.483 92.1368C286.636 92.1368 286.181 92.447 286.181 93.0053ZM295.574 94.4941H294.851L294.685 93.9255H294.602C294.323 94.3494 293.682 94.6182 293.021 94.6182C291.625 94.6182 290.622 93.4912 290.622 91.9093C290.622 90.3274 291.625 89.2004 293.021 89.2004C293.682 89.2004 294.551 89.614 294.685 90.162V87.1326H295.574V94.4941ZM293.124 93.7807C294.055 93.7807 294.685 93.0363 294.685 91.9093C294.685 90.7823 294.055 90.0379 293.124 90.0379C292.183 90.0379 291.511 90.803 291.511 91.9093C291.511 93.0156 292.183 93.7807 293.124 93.7807ZM300.114 92.4263C300.311 93.3465 300.89 93.7911 301.882 93.7911C302.906 93.7911 303.599 93.3361 303.599 92.6641C303.599 91.992 302.968 91.4958 301.645 91.1029C300.083 90.6376 299.422 90.0069 299.422 89.0143C299.422 87.8357 300.342 87.1326 301.882 87.1326C303.278 87.1326 304.178 87.7529 304.395 88.8799L303.495 89.1177C303.268 88.3216 302.772 87.9597 301.882 87.9597C300.941 87.9597 300.331 88.3733 300.331 89.0143C300.331 89.5933 300.838 89.9966 302.089 90.4101C303.816 90.9685 304.509 91.6302 304.509 92.6951C304.509 93.8738 303.526 94.6182 301.944 94.6182C300.435 94.6182 299.37 93.8428 299.194 92.6021L300.114 92.4263ZM307.414 94.6182C306.535 94.6182 306.059 94.1012 306.059 93.1707V90.0689H305.232V89.3245C305.739 89.3038 306.059 88.9316 306.059 88.4043V87.7012H306.948V89.3245H307.91V90.0689H306.948V92.9639C306.948 93.5739 307.124 93.8324 307.548 93.8324C307.724 93.8324 307.889 93.7911 308.024 93.7084L308.396 94.3597C308.148 94.5045 307.827 94.6182 307.414 94.6182ZM310.923 94.6182C309.838 94.6182 308.969 93.9668 308.969 93.0053C308.969 92.0437 309.858 91.3924 311.182 91.3924C311.606 91.3924 312.009 91.4544 312.391 91.5785V91.0925C312.391 90.5032 311.864 90.0689 311.161 90.0689C310.572 90.0689 310.21 90.2964 310.003 90.7307L309.197 90.4412C309.445 89.6967 310.231 89.2004 311.109 89.2004C312.288 89.2004 313.25 90.0069 313.25 90.9685V94.4941H312.526L312.36 93.9255H312.278C312.102 94.3907 311.657 94.6182 310.923 94.6182ZM309.838 93.0053C309.838 93.5429 310.344 93.8117 310.996 93.8117C311.75 93.8117 312.391 93.4085 312.391 92.8605V92.3643C312.019 92.2195 311.554 92.1368 311.14 92.1368C310.293 92.1368 309.838 92.447 309.838 93.0053ZM316.259 94.6182C315.38 94.6182 314.904 94.1012 314.904 93.1707V90.0689H314.077V89.3245C314.584 89.3038 314.904 88.9316 314.904 88.4043V87.7012H315.793V89.3245H316.755V90.0689H315.793V92.9639C315.793 93.5739 315.969 93.8324 316.393 93.8324C316.569 93.8324 316.734 93.7911 316.869 93.7084L317.241 94.3597C316.993 94.5045 316.672 94.6182 316.259 94.6182ZM318.52 92.1471C318.613 93.1397 319.212 93.7704 320.029 93.7704C320.639 93.7704 321.146 93.4602 321.394 92.9329L322.19 93.2121C321.807 94.0909 320.991 94.6182 320.029 94.6182C318.644 94.6182 317.661 93.4706 317.661 91.8783C317.661 90.3274 318.654 89.2004 320.029 89.2004C321.394 89.2004 322.376 90.2964 322.397 91.8266V92.1471H318.52ZM320.029 90.0483C319.254 90.0483 318.675 90.5962 318.54 91.4751H321.518C321.384 90.5962 320.805 90.0483 320.029 90.0483Z" fill="white"/>
</svg>
