<svg width="80" height="80" viewBox="0 0 80 80" fill="none" xmlns="http://www.w3.org/2000/svg">
<path d="M56.667 14.9997C53.9058 14.9997 51.667 12.7609 51.667 9.99967C51.667 9.07921 50.9208 8.33301 50.0003 8.33301H30.0003C29.0798 8.33301 28.3337 9.07921 28.3337 9.99967C28.3337 12.7609 26.0948 14.9997 23.3337 14.9997C20.5725 14.9997 18.3337 12.7609 18.3337 9.99967C18.3337 9.07921 17.5875 8.33301 16.667 8.33301H4.99598C3.15742 8.33301 1.66699 9.83609 1.66699 11.6711V68.3282C1.66699 70.1718 3.16406 71.6663 5.01056 71.6663H74.9902C76.8367 71.6663 78.3337 70.1633 78.3337 68.3282V11.6711C78.3337 9.82752 76.8405 8.33301 75.0046 8.33301H63.3337C62.4131 8.33301 61.667 9.07921 61.667 9.99967C61.667 12.7609 59.4281 14.9997 56.667 14.9997Z" fill="#BADEFC"/>
<path fill-rule="evenodd" clip-rule="evenodd" d="M45 31.6667C45 30.7462 45.7498 30 46.678 30H66.6553C67.582 30 68.3333 30.7398 68.3333 31.6667C68.3333 32.5871 67.5835 33.3333 66.6553 33.3333H46.678C45.7513 33.3333 45 32.5936 45 31.6667Z" fill="#448BC4"/>
<path fill-rule="evenodd" clip-rule="evenodd" d="M45 41.6667C45 40.7462 45.7498 40 46.678 40H66.6553C67.582 40 68.3333 40.7398 68.3333 41.6667C68.3333 42.5871 67.5835 43.3333 66.6553 43.3333H46.678C45.7513 43.3333 45 42.5936 45 41.6667Z" fill="#448BC4"/>
<path fill-rule="evenodd" clip-rule="evenodd" d="M45 51.6667C45 50.7462 45.755 50 46.6617 50H56.6717C57.5893 50 58.3333 50.7398 58.3333 51.6667C58.3333 52.5871 57.5783 53.3333 56.6717 53.3333H46.6617C45.744 53.3333 45 52.5936 45 51.6667Z" fill="#448BC4"/>
<path d="M11.6682 28.333C10.7468 28.333 10 29.0741 10 30.0011V53.3316C10 54.2528 10.741 54.9997 11.6682 54.9997H34.9985C35.9198 54.9997 36.6667 54.2586 36.6667 53.3316V30.0011C36.6667 29.0799 35.9257 28.333 34.9985 28.333H11.6682Z" fill="#448BC4"/>
</svg>
