<svg width="22" height="32" viewBox="0 0 22 32" fill="none" xmlns="http://www.w3.org/2000/svg">
<path d="M5.46543 28.4785L1.95142 32H8.90468L5.46543 28.4785Z" fill="#EC9334"/>
<path d="M16.4263 28.4785L19.9403 32H12.9871L16.4263 28.4785Z" fill="#EC9334"/>
<path d="M8.55347 8.15625L10.946 10.5488L13.3385 8.15625H8.55347Z" fill="#EC9334"/>
<path d="M10.9461 0.0371094L6.20593 4.7773V9.42776L10.9461 4.69505L15.6863 9.42776V4.7773L10.9461 0.0371094Z" fill="#E5E5E5"/>
<path fill-rule="evenodd" clip-rule="evenodd" d="M10.9459 0C10.9558 0 10.9653 0.00393857 10.9723 0.0109493L15.7125 4.75114C15.7195 4.75815 15.7235 4.76766 15.7235 4.77757V9.42804C15.7235 9.44315 15.7144 9.45678 15.7004 9.46257C15.6864 9.46836 15.6704 9.46517 15.6597 9.45449L10.9459 4.74815L6.23213 9.45449C6.22144 9.46517 6.20536 9.46836 6.1914 9.46257C6.17744 9.45678 6.16833 9.44315 6.16833 9.42804V4.77757C6.16833 4.76766 6.17227 4.75815 6.17928 4.75114L10.9195 0.0109493C10.9265 0.00393858 10.936 2.22821e-09 10.9459 0ZM10.9459 0.090251L6.2431 4.79306V9.33788L10.9195 4.66887C10.9341 4.6543 10.9577 4.6543 10.9723 4.66887L15.6487 9.33788V4.79306L10.9459 0.090251Z" fill="#E5E5E5"/>
<path d="M16.4637 10.5488L21.8918 16.1114L19.9852 23.6778L16.4637 27.5656V10.5488Z" fill="#E5E5E5"/>
<path d="M5.42804 10.5488L0 16.1114L1.90654 23.6778L5.42804 27.5656V10.5488Z" fill="#E5E5E5"/>
<path fill-rule="evenodd" clip-rule="evenodd" d="M6.26776 28.2188C6.34075 28.1458 6.4591 28.1458 6.5321 28.2188L8.83249 30.5192H13.059L15.3593 28.2188C15.4323 28.1458 15.5507 28.1458 15.6237 28.2188C15.6967 28.2918 15.6967 28.4102 15.6237 28.4831L13.2685 30.8383C13.2335 30.8733 13.1859 30.893 13.1364 30.893H8.75507C8.7055 30.893 8.65795 30.8733 8.6229 30.8383L6.26776 28.4831C6.19476 28.4102 6.19476 28.2918 6.26776 28.2188Z" fill="#E5E5E5"/>
</svg>
