<svg width="400" height="300" viewBox="0 0 400 300" fill="none" xmlns="http://www.w3.org/2000/svg">
<g clip-path="url(#clip0_12234_79692)">
<path d="M288.298 104.545C302.892 104.545 314.723 92.7143 314.723 78.1199C314.723 63.5254 302.892 51.6943 288.298 51.6943C273.703 51.6943 261.872 63.5254 261.872 78.1199C261.872 92.7143 273.703 104.545 288.298 104.545Z" stroke="white" stroke-width="2.83465" stroke-miterlimit="10" stroke-linecap="round"/>
<path d="M74.413 201.978C82.578 201.978 89.197 195.359 89.197 187.194C89.197 179.029 82.578 172.41 74.413 172.41C66.248 172.41 59.6289 179.029 59.6289 187.194C59.6289 195.359 66.248 201.978 74.413 201.978Z" stroke="white" stroke-width="2.83465" stroke-miterlimit="10" stroke-linecap="round"/>
<path d="M362.144 168.8C370.309 168.8 376.928 162.181 376.928 154.016C376.928 145.851 370.309 139.231 362.144 139.231C353.979 139.231 347.36 145.851 347.36 154.016C347.36 162.181 353.979 168.8 362.144 168.8Z" stroke="white" stroke-width="2.83465" stroke-miterlimit="10" stroke-linecap="round"/>
<path d="M200 -99.4775V113.842" stroke="white" stroke-width="2.83465" stroke-miterlimit="10" stroke-linecap="round"/>
<path d="M166.916 -9.62695L199.999 113.842" stroke="white" stroke-width="2.83465" stroke-miterlimit="10" stroke-linecap="round"/>
<path d="M93.3398 -70.8984L199.999 113.841" stroke="white" stroke-width="2.83465" stroke-miterlimit="10" stroke-linecap="round"/>
<path d="M148.361 62.2031L200 113.841" stroke="white" stroke-width="2.83465" stroke-miterlimit="10" stroke-linecap="round"/>
<path d="M49.1602 -36.998L133.234 47.0754" stroke="white" stroke-width="2.83465" stroke-miterlimit="10" stroke-linecap="round"/>
<path d="M15.2598 7.18164L200 113.841" stroke="white" stroke-width="2.83465" stroke-miterlimit="10" stroke-linecap="round"/>
<path d="M81.9668 82.2148L200 113.842" stroke="white" stroke-width="2.83465" stroke-miterlimit="10" stroke-linecap="round"/>
<path d="M-6.05078 58.6309L65.5231 77.809" stroke="white" stroke-width="2.83465" stroke-miterlimit="10" stroke-linecap="round"/>
<path d="M-13.3193 113.842H200" stroke="white" stroke-width="2.83465" stroke-miterlimit="10" stroke-linecap="round"/>
<path d="M152.488 126.572L200 113.842" stroke="white" stroke-width="2.83465" stroke-miterlimit="10" stroke-linecap="round"/>
<path d="M-6.05078 169.053L139.216 130.129" stroke="white" stroke-width="2.83465" stroke-miterlimit="10" stroke-linecap="round"/>
<path d="M87.1543 178.993L200 113.842" stroke="white" stroke-width="2.83465" stroke-miterlimit="10" stroke-linecap="round"/>
<path d="M15.2598 220.502L48.5847 201.979" stroke="white" stroke-width="2.83465" stroke-miterlimit="10" stroke-linecap="round"/>
<path d="M49.1602 264.681L200 113.842" stroke="white" stroke-width="2.83465" stroke-miterlimit="10" stroke-linecap="round"/>
<path d="M182.307 144.486L199.999 113.842" stroke="white" stroke-width="2.83465" stroke-miterlimit="10" stroke-linecap="round"/>
<path d="M93.3398 298.581L174.09 158.718" stroke="white" stroke-width="2.83465" stroke-miterlimit="10" stroke-linecap="round"/>
<path d="M144.789 319.892L200 113.842" stroke="white" stroke-width="2.83465" stroke-miterlimit="10" stroke-linecap="round"/>
<path d="M200 206.212V113.842" stroke="white" stroke-width="2.83465" stroke-miterlimit="10" stroke-linecap="round"/>
<path d="M200 327.161V225.507" stroke="white" stroke-width="2.83465" stroke-miterlimit="10" stroke-linecap="round"/>
<path d="M255.211 319.892L200 113.842" stroke="white" stroke-width="2.83465" stroke-miterlimit="10" stroke-linecap="round"/>
<path d="M273.774 241.621L200 113.842" stroke="white" stroke-width="2.83465" stroke-miterlimit="10" stroke-linecap="round"/>
<path d="M306.66 298.581L285.27 261.532" stroke="white" stroke-width="2.83465" stroke-miterlimit="10" stroke-linecap="round"/>
<path d="M350.839 264.681L200 113.842" stroke="white" stroke-width="2.83465" stroke-miterlimit="10" stroke-linecap="round"/>
<path d="M257.042 146.775L200 113.842" stroke="white" stroke-width="2.83465" stroke-miterlimit="10" stroke-linecap="round"/>
<path d="M384.74 220.501L275.42 157.385" stroke="white" stroke-width="2.83465" stroke-miterlimit="10" stroke-linecap="round"/>
<path d="M406.05 169.053L200 113.842" stroke="white" stroke-width="2.83465" stroke-miterlimit="10" stroke-linecap="round"/>
<path d="M245.484 113.842H200" stroke="white" stroke-width="2.83465" stroke-miterlimit="10" stroke-linecap="round"/>
<path d="M413.319 113.842H265.781" stroke="white" stroke-width="2.83465" stroke-miterlimit="10" stroke-linecap="round"/>
<path d="M406.05 58.6309L200 113.842" stroke="white" stroke-width="2.83465" stroke-miterlimit="10" stroke-linecap="round"/>
<path d="M323.746 42.3965L200 113.841" stroke="white" stroke-width="2.83465" stroke-miterlimit="10" stroke-linecap="round"/>
<path d="M384.74 7.18164L339.551 33.2718" stroke="white" stroke-width="2.83465" stroke-miterlimit="10" stroke-linecap="round"/>
<path d="M350.839 -36.998L200 113.841" stroke="white" stroke-width="2.83465" stroke-miterlimit="10" stroke-linecap="round"/>
<path d="M224.609 71.2168L200 113.842" stroke="white" stroke-width="2.83465" stroke-miterlimit="10" stroke-linecap="round"/>
<path d="M306.659 -70.8984L237.482 48.9187" stroke="white" stroke-width="2.83465" stroke-miterlimit="10" stroke-linecap="round"/>
<path d="M234.495 -14.8965L200 113.842" stroke="white" stroke-width="2.83465" stroke-miterlimit="10" stroke-linecap="round"/>
<path d="M152.339 290.475C157.178 290.475 161.102 286.551 161.102 281.712C161.102 276.872 157.178 272.949 152.339 272.949C147.499 272.949 143.576 276.872 143.576 281.712C143.576 286.551 147.499 290.475 152.339 290.475Z" fill="white"/>
<path d="M92.3564 60.457C97.1959 60.457 101.119 56.5338 101.119 51.6943C101.119 46.8548 97.1959 42.9316 92.3564 42.9316C87.5169 42.9316 83.5938 46.8548 83.5938 51.6943C83.5938 56.5338 87.5169 60.457 92.3564 60.457Z" fill="white"/>
<path d="M344.35 229.737C349.189 229.737 353.112 225.814 353.112 220.975C353.112 216.135 349.189 212.212 344.35 212.212C339.51 212.212 335.587 216.135 335.587 220.975C335.587 225.814 339.51 229.737 344.35 229.737Z" fill="white"/>
<path d="M269.045 235.875V215.711H130.822V236.457C130.822 241.709 161.794 245.966 200 245.966C238.206 245.966 269.178 241.709 269.178 236.457C269.175 236.256 269.13 236.058 269.045 235.875Z" fill="#4C4C4C"/>
<path d="M200 225.803C238.206 225.803 269.178 221.545 269.178 216.294C269.178 211.042 238.206 206.785 200 206.785C161.794 206.785 130.822 211.042 130.822 216.294C130.822 221.545 161.794 225.803 200 225.803Z" fill="#161616"/>
<g clip-path="url(#clip1_12234_79692)">
<path d="M259.157 58.8438H140.844V177.157H259.157V58.8438Z" fill="#FF4F00"/>
<path d="M211.563 100.076L206.969 91.7767L199.164 88.7832L190.932 94.1296L188.434 100.076L186.525 102.812V144.359L189.046 145.84L191.597 147.217L194.534 148.262L197.613 148.932H200.792L203.488 148.666L205.866 148.153L208.661 147.237L213.472 144.359V102.812L211.563 100.076Z" fill="white"/>
<path d="M213.764 143.236C213.764 143.236 213.248 144.626 209.129 146.847C206.695 148.159 203.424 148.935 200 148.935C196.577 148.935 193.253 148.253 190.871 146.85C186.386 144.205 186.143 143.117 186.143 143.117" stroke="black" stroke-width="0.9131" stroke-linecap="round" stroke-linejoin="round"/>
<path d="M178.133 154.968L178.032 155.178H195.021C190.402 145.327 182.808 145.232 178.133 154.968Z" fill="black"/>
<path d="M205.08 154.968L204.979 155.178H221.965C217.349 145.327 209.754 145.232 205.08 154.968Z" fill="black"/>
<path d="M198.288 101.101C198.512 101.326 198.779 101.505 199.073 101.627C199.366 101.749 199.681 101.812 199.999 101.812C200.317 101.812 200.632 101.749 200.926 101.627C201.219 101.505 201.486 101.326 201.71 101.101C203.235 99.5758 202.156 96.9688 199.999 96.9688C197.843 96.9688 196.763 99.5758 198.288 101.101Z" fill="#FF4F00"/>
<path d="M191.72 85.4347C189.617 87.5369 188.73 90.4016 188.436 93.3605C188.196 95.7583 186.527 102.811 186.527 102.811L191.72 96.7921C193.916 94.5966 196.894 93.3632 200 93.3632C203.105 93.3632 206.083 94.5966 208.28 96.7921L213.472 102.811C213.472 102.811 211.803 95.7583 211.563 93.3605C211.27 90.3993 210.383 87.5369 208.28 85.4347C207.192 84.3473 205.901 83.4848 204.481 82.8963C203.06 82.3078 201.537 82.0049 200 82.0049C198.462 82.0049 196.939 82.3078 195.518 82.8963C194.098 83.4848 192.807 84.3473 191.72 85.4347Z" fill="black"/>
<path d="M213.474 102.812C217.522 106.96 220.439 112.077 221.947 117.674C223.455 123.271 223.504 129.161 222.088 134.782L222.069 134.856L213.474 144.358V102.812Z" fill="black"/>
<path d="M186.526 102.812C182.478 106.96 179.561 112.077 178.053 117.674C176.545 123.271 176.496 129.161 177.912 134.782L177.931 134.856L186.526 144.358V102.812Z" fill="black"/>
</g>
</g>
<defs>
<clipPath id="clip0_12234_79692">
<rect width="400" height="300" fill="white"/>
</clipPath>
<clipPath id="clip1_12234_79692">
<rect x="142.5" y="60.5" width="115" height="115" rx="57.5" fill="white"/>
</clipPath>
</defs>
</svg>
