<svg width="80" height="80" viewBox="0 0 80 80" fill="none" xmlns="http://www.w3.org/2000/svg">
<path d="M7.91508 33.1359C6.66338 30.7638 7.57166 27.8261 9.94378 26.5744L30.2079 15.8817C32.58 14.63 35.5177 15.5382 36.7694 17.9104L51.7603 46.32C53.012 48.6921 52.1037 51.6298 49.7316 52.8815L29.4675 63.5742C27.0953 64.8259 24.1577 63.9176 22.906 61.5455L7.91508 33.1359Z" fill="#C6C7F8" fill-opacity="0.4"/>
<path d="M42.6885 18.9488C43.7539 16.4365 46.6541 15.2636 49.1664 16.3289L70.6277 25.4301C73.14 26.4954 74.3129 29.3957 73.2476 31.9079L60.4881 61.996C59.4227 64.5083 56.5225 65.6812 54.0102 64.6158L32.5489 55.5147C30.0366 54.4493 28.8637 51.5491 29.9291 49.0368L42.6885 18.9488Z" fill="#C6C7F8" fill-opacity="0.4"/>
<path d="M48.9799 14.3999H26.7819C24.6961 14.3999 23.0052 16.0909 23.0052 18.1765V61.2367C23.0052 63.3224 24.6962 65.0133 26.7819 65.0133H56.7952C58.881 65.0133 60.5718 63.3223 60.5718 61.2367V25.9919L48.9799 14.3999Z" fill="#95A4FC"/>
<path d="M52.7565 25.9917H60.5719L48.9801 14.3999V22.2152C48.9799 24.3009 50.6707 25.9917 52.7565 25.9917Z" fill="#C6C7F8"/>
<path d="M48.9018 35.083L38.2919 45.7529L34.6753 42.1158" stroke="white" stroke-width="4" stroke-linecap="round" stroke-linejoin="round"/>
</svg>
