<svg width="34" height="34" viewBox="0 0 34 34" fill="none" xmlns="http://www.w3.org/2000/svg">
<path d="M23.126 11.5046C25.0996 14.4268 26.0742 17.7229 25.7098 21.5175C25.7083 21.5336 25.7 21.5483 25.6869 21.558C24.1924 22.6632 22.7444 23.3339 21.3168 23.7787C21.3056 23.7821 21.2937 23.7819 21.2827 23.7781C21.2717 23.7744 21.2622 23.7673 21.2554 23.7578C20.9255 23.2956 20.6259 22.8084 20.3633 22.2967C20.3482 22.2665 20.362 22.2302 20.393 22.2184C20.869 22.0378 21.3216 21.8213 21.7569 21.565C21.7912 21.5448 21.7934 21.4953 21.7617 21.4715C21.6693 21.4025 21.5778 21.3299 21.4902 21.2573C21.4738 21.2439 21.4517 21.2412 21.4332 21.2502C18.6069 22.5646 15.5109 22.5646 12.6511 21.2502C12.6326 21.2419 12.6105 21.2447 12.5946 21.2579C12.5072 21.3305 12.4155 21.4025 12.3239 21.4715C12.2923 21.4953 12.2949 21.5448 12.3294 21.565C12.7647 21.8165 13.2173 22.0378 13.6926 22.2193C13.7234 22.2311 13.7381 22.2665 13.7228 22.2967C13.4659 22.809 13.1662 23.2963 12.8303 23.7584C12.8156 23.7771 12.7916 23.7857 12.7689 23.7787C11.348 23.3339 9.90001 22.6632 8.4055 21.558C8.39305 21.5483 8.38409 21.5329 8.38278 21.5169C8.07829 18.2346 8.69885 14.9111 10.9642 11.5039C10.9697 11.4949 10.978 11.4878 10.9876 11.4837C12.1022 10.9685 13.2964 10.5895 14.5445 10.373C14.5672 10.3695 14.5899 10.38 14.6017 10.4003C14.756 10.6752 14.9322 11.0279 15.0515 11.316C16.3671 11.1137 17.7032 11.1137 19.0464 11.316C19.1656 11.034 19.3358 10.6752 19.4894 10.4003C19.4948 10.3902 19.5033 10.3822 19.5136 10.3773C19.5239 10.3724 19.5354 10.3709 19.5466 10.373C20.7954 10.5901 21.9895 10.9691 23.1033 11.4837C23.1131 11.4878 23.1212 11.4949 23.126 11.5046ZM15.7203 17.7453C15.7341 16.775 15.0316 15.9721 14.1498 15.9721C13.2752 15.9721 12.5795 16.768 12.5795 17.7453C12.5795 18.7225 13.289 19.5184 14.1498 19.5184C15.0246 19.5184 15.7203 18.7225 15.7203 17.7453ZM21.5267 17.7453C21.5404 16.775 20.838 15.9721 19.9564 15.9721C19.0815 15.9721 18.3858 16.768 18.3858 17.7453C18.3858 18.7225 19.0953 19.5184 19.9564 19.5184C20.838 19.5184 21.5267 18.7225 21.5267 17.7453Z" fill="#EFEFEF"/>
<rect x="0.5" y="0.5" width="33" height="33" rx="1.5" stroke="#5B5B5B"/>
</svg>
