<svg width="24" height="24" viewBox="0 0 24 24" fill="none" xmlns="http://www.w3.org/2000/svg">
<path d="M19.5336 5.17764C21.961 8.77192 23.1598 12.8262 22.7117 17.4936C22.7098 17.5133 22.6996 17.5315 22.6835 17.5434C20.8452 18.9027 19.0642 19.7277 17.3082 20.2748C17.2945 20.279 17.2799 20.2787 17.2663 20.2741C17.2528 20.2695 17.241 20.2608 17.2327 20.2491C16.827 19.6806 16.4584 19.0813 16.1354 18.4519C16.1169 18.4149 16.1338 18.3702 16.172 18.3556C16.7574 18.1335 17.3141 17.8672 17.8496 17.552C17.8917 17.5271 17.8944 17.4662 17.8555 17.437C17.7418 17.3521 17.6292 17.2628 17.5215 17.1735C17.5014 17.157 17.4742 17.1537 17.4514 17.1648C13.9751 18.7815 10.1669 18.7815 6.64949 17.1648C6.62665 17.1545 6.59951 17.1581 6.5799 17.1743C6.47243 17.2636 6.35959 17.3521 6.24702 17.437C6.20806 17.4662 6.21129 17.5271 6.25374 17.552C6.7892 17.8613 7.34588 18.1335 7.93051 18.3567C7.96839 18.3713 7.98639 18.4149 7.96758 18.4519C7.65163 19.0821 7.28301 19.6814 6.8698 20.2499C6.8518 20.2729 6.82224 20.2834 6.7943 20.2748C5.0466 19.7277 3.26558 18.9027 1.42734 17.5434C1.41202 17.5315 1.40101 17.5125 1.3994 17.4928C1.02487 13.4555 1.78816 9.36773 4.57454 5.17682C4.58126 5.16573 4.59147 5.15707 4.60329 5.15193C5.97432 4.51825 7.44314 4.05205 8.97832 3.78581C9.00627 3.78148 9.03421 3.79447 9.04872 3.81936C9.2384 4.15758 9.45521 4.5913 9.60191 4.94575C11.2201 4.69683 12.8636 4.69683 14.5156 4.94575C14.6623 4.59888 14.8716 4.15758 15.0605 3.81936C15.0672 3.80701 15.0776 3.79712 15.0903 3.79109C15.1029 3.78507 15.1171 3.78322 15.1309 3.78581C16.6669 4.05286 18.1357 4.51906 19.5056 5.15193C19.5177 5.15707 19.5277 5.16573 19.5336 5.17764ZM10.4246 12.8538C10.4415 11.6603 9.57746 10.6727 8.49284 10.6727C7.41708 10.6727 6.56136 11.6516 6.56136 12.8538C6.56136 14.0557 7.43401 15.0346 8.49284 15.0346C9.56886 15.0346 10.4246 14.0557 10.4246 12.8538ZM17.5664 12.8538C17.5833 11.6603 16.7193 10.6727 15.6349 10.6727C14.5589 10.6727 13.7032 11.6516 13.7032 12.8538C13.7032 14.0557 14.5758 15.0346 15.6349 15.0346C16.7193 15.0346 17.5664 14.0557 17.5664 12.8538Z" fill="white"/>
</svg>
