<svg width="34" height="34" viewBox="0 0 34 34" fill="none" xmlns="http://www.w3.org/2000/svg">
<path fill-rule="evenodd" clip-rule="evenodd" d="M16.9386 9.40234C12.5336 9.40234 8.96582 12.9101 8.96582 17.2408C8.96582 20.7094 11.248 23.639 14.4172 24.6776C14.8158 24.7462 14.9653 24.511 14.9653 24.3053C14.9653 24.1191 14.9554 23.5018 14.9554 22.8453C12.9522 23.2079 12.434 22.3652 12.2745 21.9243C12.1848 21.699 11.7961 21.0033 11.4573 20.8171C11.1783 20.6702 10.7796 20.3076 11.4473 20.2978C12.0752 20.288 12.5237 20.8661 12.6732 21.1013C13.3907 22.2868 14.5368 21.9537 14.9952 21.748C15.065 21.2385 15.2743 20.8955 15.5035 20.6996C13.7295 20.5036 11.8759 19.8275 11.8759 16.8293C11.8759 15.9769 12.1848 15.2714 12.6931 14.7227C12.6134 14.5268 12.3343 13.7233 12.7728 12.6455C12.7728 12.6455 13.4405 12.4398 14.9653 13.449C15.6031 13.2726 16.2808 13.1844 16.9585 13.1844C17.6362 13.1844 18.3139 13.2726 18.9517 13.449C20.4765 12.43 21.1442 12.6455 21.1442 12.6455C21.5827 13.7233 21.3037 14.5268 21.2239 14.7227C21.7322 15.2714 22.0411 15.9671 22.0411 16.8293C22.0411 19.8373 20.1775 20.5036 18.4036 20.6996C18.6926 20.9445 18.9417 21.4148 18.9417 22.1497C18.9417 23.1981 18.9318 24.0407 18.9318 24.3053C18.9318 24.511 19.0813 24.756 19.4799 24.6776C22.6291 23.639 24.9113 20.6996 24.9113 17.2408C24.9113 12.9101 21.3435 9.40234 16.9386 9.40234Z" fill="#EFEFEF"/>
<rect x="0.5" y="0.5" width="33" height="33" rx="1.5" stroke="#5B5B5B"/>
</svg>
