<svg width="18" height="18" viewBox="0 0 18 18" fill="none" xmlns="http://www.w3.org/2000/svg">
<path d="M16.0022 4.56236C15.5398 4.76156 15.0536 4.90027 14.5557 4.97506C14.7885 4.93512 15.131 4.51576 15.2673 4.34602C15.4745 4.08998 15.6323 3.79769 15.7329 3.484C15.7329 3.4607 15.7562 3.42742 15.7329 3.41078C15.7212 3.40437 15.708 3.40101 15.6946 3.40101C15.6813 3.40101 15.6681 3.40437 15.6564 3.41078C15.1158 3.70381 14.5404 3.92745 13.9439 4.07643C13.9231 4.08279 13.901 4.08336 13.8799 4.07808C13.8588 4.0728 13.8395 4.06188 13.8242 4.04648C13.7777 3.99114 13.7277 3.93888 13.6745 3.89005C13.4312 3.67186 13.1552 3.49329 12.8565 3.36086C12.4533 3.1953 12.0178 3.1236 11.5829 3.15117C11.1609 3.17785 10.7489 3.29114 10.3725 3.484C10.0018 3.68733 9.67609 3.96356 9.4148 4.2961C9.13996 4.63836 8.94153 5.03556 8.83287 5.46099C8.74327 5.86566 8.73311 6.2839 8.80295 6.69245C8.80295 6.76234 8.80295 6.77232 8.74309 6.76234C6.37215 6.41287 4.42684 5.57082 2.83735 3.76358C2.76751 3.6837 2.73094 3.6837 2.67441 3.76358C1.98274 4.81531 2.3186 6.47944 3.18318 7.30152C3.29956 7.41135 3.41927 7.51786 3.54564 7.6177C3.14923 7.58954 2.76251 7.48202 2.40838 7.30152C2.34187 7.25825 2.3053 7.28155 2.30197 7.36143C2.29254 7.47217 2.29254 7.58351 2.30197 7.69425C2.37136 8.22498 2.58032 8.72773 2.90751 9.15111C3.23469 9.57449 3.66835 9.9033 4.16414 10.1039C4.285 10.1557 4.41094 10.1948 4.5399 10.2204C4.17293 10.2927 3.79655 10.304 3.42592 10.2537C3.34612 10.237 3.31619 10.2803 3.34612 10.3569C3.83494 11.6882 4.89571 12.0942 5.67383 12.3205C5.78024 12.3372 5.88665 12.3372 6.00636 12.3638C6.00636 12.3638 6.00636 12.3638 5.98641 12.3838C5.75696 12.8031 4.8292 13.086 4.40356 13.2325C3.62666 13.5118 2.79834 13.6185 1.97609 13.5453C1.8464 13.5254 1.81648 13.5287 1.78322 13.5453C1.74997 13.562 1.78322 13.5986 1.8198 13.6319C1.98607 13.7417 2.15233 13.8382 2.32525 13.9314C2.84002 14.2124 3.38424 14.4357 3.948 14.5971C6.86762 15.4025 10.153 14.8101 12.3444 12.6301C14.0669 10.9193 14.6721 8.5596 14.6721 6.19654C14.6721 6.10667 14.7818 6.05342 14.845 6.00682C15.2808 5.66697 15.665 5.26562 15.9856 4.81531C16.0411 4.74818 16.0696 4.66272 16.0654 4.57567C16.0654 4.52575 16.0654 4.53573 16.0022 4.56236Z" fill="white"/>
</svg>
