<svg width="60" height="60" viewBox="0 0 60 60" fill="none" xmlns="http://www.w3.org/2000/svg">
<path d="M42.5 3.75C40.1124 3.74851 37.754 4.27433 35.5931 5.28992C33.4323 6.30551 31.5225 7.78579 30 9.625C27.8652 7.055 24.9901 5.20548 21.7663 4.32832C18.5425 3.45117 15.1267 3.58902 11.984 4.7231C8.8414 5.85718 6.12471 7.93237 4.20394 10.666C2.28317 13.3997 1.2517 16.659 1.25 20C1.25 35.415 28.0663 57.5338 29.2088 58.4675C29.432 58.6501 29.7116 58.7498 30 58.7498C30.2884 58.7498 30.568 58.6501 30.7912 58.4675C31.9337 57.5338 58.75 35.415 58.75 20C58.745 15.6918 57.0314 11.5614 53.985 8.515C50.9386 5.46861 46.8082 3.75497 42.5 3.75Z" fill="#E86C60"/>
<path d="M32.5 38.7504C32.2943 38.7505 32.0917 38.6997 31.9103 38.6027C31.7289 38.5057 31.5742 38.3653 31.46 38.1942L22.5 24.7504L18.54 30.6904C18.4262 30.8623 18.2718 31.0033 18.0903 31.101C17.9089 31.1987 17.7061 31.2501 17.5 31.2504H1.25C0.918479 31.2504 0.600537 31.1188 0.366117 30.8843C0.131696 30.6499 0 30.332 0 30.0004C0 29.6689 0.131696 29.351 0.366117 29.1166C0.600537 28.8821 0.918479 28.7504 1.25 28.7504H16.8313L21.4563 21.8067C21.5769 21.6446 21.7337 21.5129 21.9143 21.4222C22.0949 21.3314 22.2942 21.2842 22.4962 21.2842C22.6983 21.2842 22.8976 21.3314 23.0782 21.4222C23.2588 21.5129 23.4156 21.6446 23.5363 21.8067L32.5 35.2504L36.46 29.3104C36.5738 29.1386 36.7282 28.9976 36.9097 28.8999C37.0911 28.8022 37.2939 28.7508 37.5 28.7504H58.75C59.0815 28.7504 59.3995 28.8821 59.6339 29.1166C59.8683 29.351 60 29.6689 60 30.0004C60 30.332 59.8683 30.6499 59.6339 30.8843C59.3995 31.1188 59.0815 31.2504 58.75 31.2504H38.1687L33.5437 38.1942C33.4292 38.3659 33.274 38.5065 33.0918 38.6036C32.9097 38.7006 32.7064 38.7511 32.5 38.7504Z" fill="#E6E6E6"/>
</svg>
