<svg width="61" height="60" viewBox="0 0 61 60" fill="none" xmlns="http://www.w3.org/2000/svg">
<g clip-path="url(#clip0_12541_53920)">
<path d="M41.4257 13.0065C41.3215 12.8168 41.1694 12.6578 40.9845 12.5453L30.9845 6.43403C30.7883 6.31431 30.563 6.25098 30.3332 6.25098C30.1034 6.25098 29.8781 6.31431 29.682 6.43403L19.682 12.5453C19.4971 12.6578 19.3449 12.8168 19.2407 13.0065L30.3332 19.7853L41.4257 13.0065Z" fill="#A0E6EE"/>
<path d="M19.2405 13.0068C19.1376 13.1919 19.0834 13.4001 19.083 13.6118V24.7093C19.0831 24.9235 19.1383 25.134 19.2431 25.3207C19.3479 25.5074 19.499 25.664 19.6818 25.7756L29.6818 31.8868C29.8778 32.0068 30.1032 32.0704 30.333 32.0706V19.7856L19.2405 13.0068Z" fill="#6CC4F5"/>
<path d="M41.4255 13.0068C41.5284 13.1919 41.5826 13.4001 41.583 13.6118V24.7093C41.5829 24.9235 41.5278 25.134 41.4229 25.3207C41.3181 25.5074 41.167 25.664 40.9843 25.7756L30.9843 31.8868C30.7882 32.0068 30.5629 32.0704 30.333 32.0706V19.7856L41.4255 13.0068Z" fill="#2594D0"/>
<path d="M60.1757 24.487C60.0715 24.2973 59.9194 24.1383 59.7345 24.0257L49.7345 17.9145C49.5383 17.7948 49.313 17.7314 49.0832 17.7314C48.8534 17.7314 48.6281 17.7948 48.432 17.9145L38.432 24.0257C38.2471 24.1383 38.0949 24.2973 37.9907 24.487L49.0832 31.267L60.1757 24.487Z" fill="#A0E6EE"/>
<path d="M37.9905 24.4863C37.8874 24.6718 37.8332 24.8804 37.833 25.0926V36.1901C37.8331 36.4042 37.8883 36.6147 37.9931 36.8014C38.0979 36.9881 38.249 37.1448 38.4318 37.2563L48.4318 43.3676C48.6278 43.4875 48.8532 43.5511 49.083 43.5513V31.2663L37.9905 24.4863Z" fill="#6CC4F5"/>
<path d="M60.1755 24.4863C60.2786 24.6718 60.3328 24.8804 60.333 25.0926V36.1901C60.3329 36.4042 60.2778 36.6147 60.1729 36.8014C60.0681 36.9881 59.917 37.1448 59.7343 37.2563L49.7343 43.3676C49.5382 43.4875 49.3129 43.5511 49.083 43.5513V31.2663L60.1755 24.4863Z" fill="#2594D0"/>
<path d="M22.6757 24.487C22.5715 24.2973 22.4194 24.1383 22.2345 24.0257L12.2345 17.9145C12.0383 17.7948 11.813 17.7314 11.5832 17.7314C11.3534 17.7314 11.1281 17.7948 10.932 17.9145L0.931973 24.0257C0.747085 24.1383 0.59494 24.2973 0.490723 24.487L11.5832 31.267L22.6757 24.487Z" fill="#A0E6EE"/>
<path d="M0.490508 24.4863C0.387406 24.6718 0.333204 24.8804 0.333008 25.0926L0.333008 36.1901C0.333127 36.4042 0.388251 36.6147 0.493095 36.8014C0.597939 36.9881 0.748987 37.1448 0.931758 37.2563L10.9318 43.3676C11.1278 43.4875 11.3532 43.5511 11.583 43.5513V31.2663L0.490508 24.4863Z" fill="#6CC4F5"/>
<path d="M22.6755 24.4863C22.7786 24.6718 22.8328 24.8804 22.833 25.0926V36.1901C22.8329 36.4042 22.7778 36.6147 22.6729 36.8014C22.5681 36.9881 22.417 37.1448 22.2343 37.2563L12.2343 43.3676C12.0382 43.4875 11.8129 43.5511 11.583 43.5513V31.2663L22.6755 24.4863Z" fill="#2594D0"/>
<path d="M41.4257 36.9714C41.3215 36.7817 41.1694 36.6226 40.9845 36.5101L30.9845 30.3989C30.7883 30.2792 30.563 30.2158 30.3332 30.2158C30.1034 30.2158 29.8781 30.2792 29.682 30.3989L19.682 36.5101C19.4971 36.6226 19.3449 36.7817 19.2407 36.9714L30.3332 43.7501L41.4257 36.9714Z" fill="#A0E6EE"/>
<path d="M19.2405 36.9717C19.1376 37.1568 19.0834 37.3649 19.083 37.5767V48.6742C19.0831 48.8883 19.1383 49.0988 19.2431 49.2855C19.3479 49.4722 19.499 49.6289 19.6818 49.7404L29.6818 55.8517C29.8778 55.9716 30.1032 56.0352 30.333 56.0354V43.7504L19.2405 36.9717Z" fill="#6CC4F5"/>
<path d="M41.4255 36.9717C41.5284 37.1568 41.5826 37.3649 41.583 37.5767V48.6742C41.5829 48.8883 41.5278 49.0988 41.4229 49.2855C41.3181 49.4722 41.167 49.6289 40.9843 49.7404L30.9843 55.8517C30.7882 55.9716 30.5629 56.0352 30.333 56.0354V43.7504L41.4255 36.9717Z" fill="#2594D0"/>
</g>
<defs>
<clipPath id="clip0_12541_53920">
<rect width="60" height="60" fill="white" transform="translate(0.333008)"/>
</clipPath>
</defs>
</svg>
