<svg width="18" height="18" viewBox="0 0 18 18" fill="none" xmlns="http://www.w3.org/2000/svg">
<path d="M16.0022 4.56245C15.5398 4.76165 15.0536 4.90036 14.5557 4.97515C14.7885 4.93522 15.131 4.51585 15.2673 4.34611C15.4745 4.09007 15.6323 3.79778 15.7329 3.48409C15.7329 3.46079 15.7562 3.42751 15.7329 3.41087C15.7212 3.40446 15.708 3.4011 15.6946 3.4011C15.6813 3.4011 15.6681 3.40446 15.6564 3.41087C15.1158 3.7039 14.5404 3.92755 13.9439 4.07652C13.9231 4.08288 13.901 4.08345 13.8799 4.07817C13.8588 4.0729 13.8395 4.06197 13.8242 4.04657C13.7777 3.99123 13.7277 3.93898 13.6745 3.89014C13.4312 3.67196 13.1552 3.49338 12.8565 3.36095C12.4533 3.19539 12.0178 3.12369 11.5829 3.15127C11.1609 3.17794 10.7489 3.29123 10.3725 3.48409C10.0018 3.68742 9.67609 3.96366 9.4148 4.29619C9.13996 4.63845 8.94153 5.03565 8.83287 5.46108C8.74327 5.86575 8.73311 6.28399 8.80295 6.69254C8.80295 6.76243 8.80295 6.77242 8.74309 6.76243C6.37215 6.41296 4.42684 5.57091 2.83735 3.76367C2.76751 3.68379 2.73094 3.68379 2.67441 3.76367C1.98274 4.8154 2.3186 6.47953 3.18318 7.30161C3.29956 7.41144 3.41927 7.51795 3.54564 7.61779C3.14923 7.58963 2.76251 7.48211 2.40838 7.30161C2.34187 7.25834 2.3053 7.28164 2.30197 7.36152C2.29254 7.47226 2.29254 7.5836 2.30197 7.69434C2.37136 8.22507 2.58032 8.72783 2.90751 9.1512C3.23469 9.57458 3.66835 9.90339 4.16414 10.104C4.285 10.1558 4.41094 10.1949 4.5399 10.2205C4.17293 10.2928 3.79655 10.3041 3.42592 10.2538C3.34612 10.2371 3.31619 10.2804 3.34612 10.357C3.83494 11.6883 4.89571 12.0943 5.67383 12.3206C5.78024 12.3373 5.88665 12.3373 6.00636 12.3639C6.00636 12.3639 6.00636 12.3639 5.98641 12.3839C5.75696 12.8032 4.8292 13.0861 4.40356 13.2326C3.62666 13.5119 2.79834 13.6186 1.97609 13.5454C1.8464 13.5255 1.81648 13.5288 1.78322 13.5454C1.74997 13.5621 1.78322 13.5987 1.8198 13.632C1.98607 13.7418 2.15233 13.8383 2.32525 13.9315C2.84002 14.2125 3.38424 14.4358 3.948 14.5972C6.86762 15.4026 10.153 14.8102 12.3444 12.6302C14.0669 10.9194 14.6721 8.55969 14.6721 6.19663C14.6721 6.10676 14.7818 6.05351 14.845 6.00692C15.2808 5.66706 15.665 5.26571 15.9856 4.8154C16.0411 4.74827 16.0696 4.66281 16.0654 4.57576C16.0654 4.52584 16.0654 4.53582 16.0022 4.56245Z" fill="#1C1C1C"/>
</svg>
