<svg width="61" height="60" viewBox="0 0 61 60" fill="none" xmlns="http://www.w3.org/2000/svg">
<path d="M31.9165 28.75H21.9165C21.2262 28.75 20.6665 29.3097 20.6665 30V52.5C20.6665 53.1903 21.2262 53.75 21.9165 53.75H31.9165C32.6068 53.75 33.1665 53.1903 33.1665 52.5V30C33.1665 29.3097 32.6068 28.75 31.9165 28.75Z" fill="#72C472"/>
<path d="M14.4165 38.75H4.4165C3.72619 38.75 3.1665 39.3097 3.1665 40V52.5C3.1665 53.1903 3.72619 53.75 4.4165 53.75H14.4165C15.1068 53.75 15.6665 53.1903 15.6665 52.5V40C15.6665 39.3097 15.1068 38.75 14.4165 38.75Z" fill="#9EDB9E"/>
<path d="M56.5955 19.1641L45.3455 6.66407C44.8718 6.13672 43.9612 6.13672 43.4876 6.66407L32.2376 19.1641C31.9074 19.5309 31.8238 20.0576 32.0246 20.5087C32.2254 20.9597 32.6728 21.2503 33.1665 21.2503H38.1665V52.5003C38.1665 53.1906 38.7262 53.7503 39.4165 53.7503H49.4165C50.1068 53.7503 50.6665 53.1906 50.6665 52.5003V21.2503H55.6665C56.1603 21.2503 56.6077 20.9597 56.8085 20.5087C57.0093 20.0576 56.9257 19.5309 56.5955 19.1641Z" fill="#4DA34D"/>
</svg>
