<svg width="34" height="34" viewBox="0 0 34 34" fill="none" xmlns="http://www.w3.org/2000/svg">
<path d="M24.7799 12.0695C24.2661 12.2908 23.7259 12.445 23.1727 12.5281C23.4313 12.4837 23.8119 12.0177 23.9634 11.8291C24.1935 11.5446 24.3689 11.2199 24.4807 10.8713C24.4807 10.8454 24.5065 10.8085 24.4807 10.79C24.4676 10.7828 24.453 10.7791 24.4382 10.7791C24.4233 10.7791 24.4087 10.7828 24.3957 10.79C23.795 11.1156 23.1557 11.364 22.4929 11.5296C22.4698 11.5366 22.4452 11.5373 22.4217 11.5314C22.3983 11.5255 22.3769 11.5134 22.3598 11.4963C22.3083 11.4348 22.2527 11.3767 22.1936 11.3225C21.9232 11.0801 21.6165 10.8816 21.2847 10.7345C20.8367 10.5505 20.3528 10.4709 19.8696 10.5015C19.4007 10.5312 18.9429 10.657 18.5247 10.8713C18.1128 11.0972 17.7509 11.4042 17.4606 11.7737C17.1552 12.1539 16.9347 12.5953 16.814 13.068C16.7144 13.5176 16.7031 13.9823 16.7807 14.4363C16.7807 14.5139 16.7807 14.525 16.7142 14.5139C14.0798 14.1256 11.9184 13.19 10.1523 11.182C10.0747 11.0932 10.034 11.0932 9.97124 11.182C9.20272 12.3506 9.57589 14.1996 10.5365 15.113C10.6659 15.235 10.7989 15.3534 10.9393 15.4643C10.4988 15.433 10.0691 15.3136 9.67565 15.113C9.60176 15.0649 9.56111 15.0908 9.55742 15.1796C9.54695 15.3026 9.54695 15.4263 9.55742 15.5494C9.63451 16.1391 9.8667 16.6977 10.2302 17.1681C10.5938 17.6385 11.0756 18.0039 11.6265 18.2268C11.7608 18.2844 11.9007 18.3277 12.044 18.3562C11.6363 18.4366 11.2181 18.4491 10.8063 18.3932C10.7176 18.3747 10.6843 18.4228 10.7176 18.5078C11.2607 19.9871 12.4394 20.4382 13.3039 20.6897C13.4222 20.7082 13.5404 20.7082 13.6734 20.7378C13.6734 20.7378 13.6734 20.7378 13.6512 20.76C13.3963 21.2259 12.3655 21.5403 11.8925 21.703C11.0293 22.0133 10.1089 22.1319 9.19533 22.0506C9.05123 22.0284 9.01798 22.0321 8.98103 22.0506C8.94409 22.0691 8.98103 22.1098 9.02168 22.1467C9.20642 22.2688 9.39115 22.376 9.58328 22.4796C10.1553 22.7918 10.7599 23.0399 11.3863 23.2192C14.6304 24.1141 18.2808 23.4559 20.7157 21.0336C22.6296 19.1328 23.302 16.5109 23.302 13.8852C23.302 13.7854 23.4239 13.7262 23.4942 13.6745C23.9784 13.2968 24.4052 12.8509 24.7615 12.3506C24.8232 12.276 24.8548 12.181 24.8501 12.0843C24.8501 12.0288 24.8501 12.0399 24.7799 12.0695Z" fill="#EFEFEF"/>
<rect x="0.5" y="0.5" width="33" height="33" rx="1.5" stroke="#5B5B5B"/>
</svg>
