<svg width="18" height="18" viewBox="0 0 18 18" fill="none" xmlns="http://www.w3.org/2000/svg">
<path d="M2.16947 14.3195C1.87658 14.6124 1.87658 15.0872 2.16947 15.3801C2.46237 15.673 2.93724 15.673 3.23013 15.3801L2.16947 14.3195ZM6.2998 11.2498L6.83013 10.7195C6.53724 10.4266 6.06237 10.4266 5.76947 10.7195L6.2998 11.2498ZM8.0998 13.0498L7.56947 13.5801C7.86237 13.873 8.33724 13.873 8.63013 13.5801L8.0998 13.0498ZM12.1498 8.9998L12.6801 8.46947C12.3872 8.17658 11.9124 8.17658 11.6195 8.46947L12.1498 8.9998ZM15.2195 13.1301C15.5124 13.423 15.9872 13.423 16.2801 13.1301C16.573 12.8372 16.573 12.3624 16.2801 12.0695L15.2195 13.1301ZM3.23013 15.3801L6.83013 11.7801L5.76947 10.7195L2.16947 14.3195L3.23013 15.3801ZM5.76947 11.7801L7.56947 13.5801L8.63013 12.5195L6.83013 10.7195L5.76947 11.7801ZM8.63013 13.5801L12.6801 9.53013L11.6195 8.46947L7.56947 12.5195L8.63013 13.5801ZM11.6195 9.53013L15.2195 13.1301L16.2801 12.0695L12.6801 8.46947L11.6195 9.53013ZM4.4998 2.5498H13.4998V1.0498H4.4998V2.5498ZM15.4498 4.4998V13.4998H16.9498V4.4998H15.4498ZM13.4998 15.4498H4.4998V16.9498H13.4998V15.4498ZM2.5498 13.4998V4.4998H1.0498V13.4998H2.5498ZM4.4998 15.4498C3.42285 15.4498 2.5498 14.5768 2.5498 13.4998H1.0498C1.0498 15.4052 2.59442 16.9498 4.4998 16.9498V15.4498ZM15.4498 13.4998C15.4498 14.5768 14.5768 15.4498 13.4998 15.4498V16.9498C15.4052 16.9498 16.9498 15.4052 16.9498 13.4998H15.4498ZM13.4998 2.5498C14.5768 2.5498 15.4498 3.42285 15.4498 4.4998H16.9498C16.9498 2.59442 15.4052 1.0498 13.4998 1.0498V2.5498ZM4.4998 1.0498C2.59442 1.0498 1.0498 2.59442 1.0498 4.4998H2.5498C2.5498 3.42285 3.42285 2.5498 4.4998 2.5498V1.0498ZM6.4498 5.8498C6.4498 6.18117 6.18117 6.4498 5.8498 6.4498V7.9498C7.0096 7.9498 7.9498 7.0096 7.9498 5.8498H6.4498ZM5.8498 6.4498C5.51843 6.4498 5.2498 6.18117 5.2498 5.8498H3.7498C3.7498 7.0096 4.69001 7.9498 5.8498 7.9498V6.4498ZM5.2498 5.8498C5.2498 5.51843 5.51843 5.2498 5.8498 5.2498V3.7498C4.69001 3.7498 3.7498 4.69001 3.7498 5.8498H5.2498ZM5.8498 5.2498C6.18117 5.2498 6.4498 5.51843 6.4498 5.8498H7.9498C7.9498 4.69001 7.0096 3.7498 5.8498 3.7498V5.2498Z" fill="#95A4FC"/>
</svg>
