<svg width="24" height="24" viewBox="0 0 24 24" fill="none" xmlns="http://www.w3.org/2000/svg">
<path d="M3.5999 8.5999C3.04762 8.5999 2.5999 9.04762 2.5999 9.5999C2.5999 10.1522 3.04762 10.5999 3.5999 10.5999V8.5999ZM20.3999 10.5999C20.9522 10.5999 21.3999 10.1522 21.3999 9.5999C21.3999 9.04762 20.9522 8.5999 20.3999 8.5999V10.5999ZM3.70068 13.9998C3.1484 13.9998 2.70068 14.4475 2.70068 14.9998C2.70068 15.5521 3.1484 15.9998 3.70068 15.9998V13.9998ZM20.5007 15.9998C21.053 15.9998 21.5007 15.5521 21.5007 14.9998C21.5007 14.4475 21.053 13.9998 20.5007 13.9998V15.9998ZM20.5999 11.9999C20.5999 16.7495 16.7495 20.5999 11.9999 20.5999V22.5999C17.8541 22.5999 22.5999 17.8541 22.5999 11.9999H20.5999ZM11.9999 20.5999C7.25025 20.5999 3.3999 16.7495 3.3999 11.9999H1.3999C1.3999 17.8541 6.14568 22.5999 11.9999 22.5999V20.5999ZM3.3999 11.9999C3.3999 7.25025 7.25025 3.3999 11.9999 3.3999V1.3999C6.14568 1.3999 1.3999 6.14568 1.3999 11.9999H3.3999ZM11.9999 3.3999C16.7495 3.3999 20.5999 7.25025 20.5999 11.9999H22.5999C22.5999 6.14568 17.8541 1.3999 11.9999 1.3999V3.3999ZM11.9999 20.5999C11.7509 20.5999 11.4348 20.4887 11.0601 20.1265C10.6807 19.7597 10.2932 19.1805 9.94621 18.3873C9.25343 16.8038 8.7999 14.5463 8.7999 11.9999H6.7999C6.7999 14.7554 7.28657 17.2979 8.1139 19.1889C8.52691 20.133 9.04452 20.9597 9.67001 21.5644C10.3003 22.1738 11.0891 22.5999 11.9999 22.5999V20.5999ZM8.7999 11.9999C8.7999 9.4535 9.25343 7.19598 9.94621 5.6125C10.2932 4.81927 10.6807 4.24013 11.0601 3.87327C11.4348 3.51106 11.7509 3.3999 11.9999 3.3999V1.3999C11.0891 1.3999 10.3003 1.82601 9.67001 2.43537C9.04452 3.04008 8.52691 3.86683 8.1139 4.81086C7.28657 6.70188 6.7999 9.24437 6.7999 11.9999H8.7999ZM11.9999 22.5999C12.9107 22.5999 13.6995 22.1738 14.3298 21.5644C14.9553 20.9597 15.4729 20.133 15.8859 19.1889C16.7132 17.2979 17.1999 14.7554 17.1999 11.9999H15.1999C15.1999 14.5463 14.7464 16.8038 14.0536 18.3873C13.7066 19.1805 13.3191 19.7597 12.9397 20.1265C12.565 20.4887 12.2489 20.5999 11.9999 20.5999V22.5999ZM17.1999 11.9999C17.1999 9.24437 16.7132 6.70188 15.8859 4.81086C15.4729 3.86683 14.9553 3.04008 14.3298 2.43537C13.6995 1.82601 12.9107 1.3999 11.9999 1.3999V3.3999C12.2489 3.3999 12.565 3.51106 12.9397 3.87327C13.3191 4.24013 13.7066 4.81927 14.0536 5.6125C14.7464 7.19598 15.1999 9.4535 15.1999 11.9999H17.1999ZM3.5999 10.5999H20.3999V8.5999H3.5999V10.5999ZM3.70068 15.9998H20.5007V13.9998H3.70068V15.9998Z" fill="white"/>
</svg>
