<svg width="28" height="46" viewBox="0 0 28 46" fill="none" xmlns="http://www.w3.org/2000/svg">
    <g clip-path="url(#clip0_12310_8340)">
        <path d="M0.824776 44.9513L0.758789 45.0832H10.9976C8.21519 39.1445 3.64017 39.0895 0.824776 44.9513Z" fill="#EC9334"/>
        <path d="M17.0577 44.9513L16.9917 45.0832H27.2305C24.4481 39.1445 19.8731 39.0895 17.0577 44.9513Z" fill="#EC9334"/>
        <path d="M12.9665 12.4972C13.5384 13.0691 14.4622 13.0691 15.0341 12.4972C15.9579 11.5734 15.298 10.0117 14.0003 10.0117C12.7026 10.0117 12.0537 11.5844 12.9665 12.4972Z" fill="#EC9334"/>
        <path d="M9.00741 3.06152C7.74268 4.32625 7.02783 6.04188 7.02783 7.8345V11.8816L9.00741 9.90205C11.7678 7.14164 16.2329 7.14164 18.9823 9.90205L20.9618 11.8816V7.8345C20.9618 6.04188 20.247 4.32625 18.9823 3.06152C16.2329 0.301109 11.7678 0.301109 9.00741 3.06152Z" fill="white"/>
        <path d="M22.1162 13.5303C27.0761 18.6112 29.0447 25.9026 27.3071 32.7871L27.2961 32.8311L22.1162 38.5499V13.5303Z" fill="white"/>
        <path d="M5.88418 13.5303C0.924247 18.6112 -1.04433 25.9026 0.693295 32.7871L0.704294 32.8311L5.88418 38.5499V13.5303Z" fill="white"/>
        <path d="M20.6871 39.4082C20.6871 39.4082 19.7963 39.9031 19.4994 40.0681C18.0367 40.8709 16.0571 41.3218 14.0005 41.3218C11.933 41.3218 9.9644 40.8709 8.50171 40.0681C8.20477 39.9031 7.31396 39.4082 7.31396 39.4082" stroke="white" stroke-width="0.549882" stroke-miterlimit="10" stroke-linecap="round" stroke-linejoin="round"/>
    </g>
    <defs>
        <clipPath id="clip0_12310_8340">
            <rect width="27.934" height="44.2105" fill="white" transform="translate(0.0332031 0.894531)"/>
        </clipPath>
    </defs>
</svg>
