<svg width="124" height="50" viewBox="0 0 124 50" fill="none" xmlns="http://www.w3.org/2000/svg">
<g clip-path="url(#clip0_6961_4989)">
<path d="M0.894909 49.8155L0.820312 49.9647H12.3951C9.24965 43.2511 4.07767 43.1889 0.894909 49.8155Z" fill="#EC9334"/>
<path d="M19.246 49.8155L19.1714 49.9647H30.7462C27.6007 43.2511 22.4287 43.1889 19.246 49.8155Z" fill="#EC9334"/>
<path d="M14.6208 13.1267C15.2673 13.7732 16.3116 13.7732 16.9581 13.1267C18.0025 12.0823 17.2565 10.3169 15.7895 10.3169C14.3224 10.3169 13.5889 12.0948 14.6208 13.1267Z" fill="#EC9334"/>
<path d="M10.1451 2.45959C8.71535 3.88934 7.90723 5.82884 7.90723 7.85536V12.4306L10.1451 10.1927C13.2657 7.0721 18.3134 7.0721 21.4215 10.1927L23.6594 12.4306V7.85536C23.6594 5.82884 22.8513 3.88934 21.4215 2.45959C18.3134 -0.661009 13.2657 -0.661009 10.1451 2.45959Z" fill="white"/>
<path d="M24.9648 14.2954C30.572 20.0393 32.7974 28.2821 30.8331 36.065L30.8206 36.1147L24.9648 42.5797V14.2954Z" fill="white"/>
<path d="M6.61416 14.2954C1.00703 20.0393 -1.21841 28.2821 0.745945 36.065L0.758379 36.1147L6.61416 42.5797V14.2954Z" fill="white"/>
<path d="M23.3486 43.5493C23.3486 43.5493 22.3415 44.1088 22.0058 44.2953C20.3523 45.2029 18.1144 45.7126 15.7895 45.7126C13.4522 45.7126 11.2267 45.2029 9.57319 44.2953C9.23751 44.1088 8.23047 43.5493 8.23047 43.5493" stroke="white" stroke-width="0.621633" stroke-miterlimit="10" stroke-linecap="round" stroke-linejoin="round"/>
</g>
<path d="M46.6761 20.3684V10.8038H43.7203V9.28799H51.2689V10.8038H48.3132V20.3684H46.6761ZM53.4306 20.3684V12.0316H55.007V13.6231H55.4011L54.9009 14.6084C54.9009 13.709 55.098 13.032 55.4921 12.5773C55.8862 12.1124 56.4723 11.88 57.2504 11.88C58.1397 11.88 58.842 12.1579 59.3573 12.7137C59.8828 13.2594 60.1456 14.0122 60.1456 14.9722V15.533H58.463V15.1086C58.463 14.5124 58.3114 14.0577 58.0083 13.7444C57.7152 13.421 57.3009 13.2594 56.7653 13.2594C56.2298 13.2594 55.8104 13.421 55.5072 13.7444C55.2142 14.0678 55.0677 14.5225 55.0677 15.1086V20.3684H53.4306ZM65.3539 20.52C64.3535 20.52 63.5552 20.232 62.959 19.656C62.3628 19.0699 62.0647 18.2766 62.0647 17.2762V12.0316H63.7017V17.2762C63.7017 17.8522 63.8483 18.3019 64.1413 18.6253C64.4344 18.9385 64.8386 19.0951 65.3539 19.0951C65.8794 19.0951 66.2887 18.9385 66.5817 18.6253C66.8849 18.3019 67.0365 17.8522 67.0365 17.2762V12.0316H68.6735V17.2762C68.6735 18.2766 68.3704 19.0699 67.7641 19.656C67.1678 20.232 66.3645 20.52 65.3539 20.52ZM74.0183 20.5048C73.4221 20.5048 72.8967 20.4088 72.4419 20.2168C71.9973 20.0248 71.6436 19.7621 71.3809 19.4286C71.1282 19.085 70.9817 18.6808 70.9413 18.216H72.5783C72.6188 18.4888 72.7653 18.7111 73.0179 18.8829C73.2706 19.0446 73.604 19.1255 74.0183 19.1255H74.6701C75.1653 19.1255 75.5392 19.0244 75.7918 18.8223C76.0444 18.6202 76.1708 18.3524 76.1708 18.0189C76.1708 17.6956 76.0546 17.4429 75.8221 17.261C75.5998 17.069 75.2663 16.9427 74.8217 16.8821L73.7455 16.7154C72.8562 16.5739 72.1994 16.3213 71.775 15.9575C71.3607 15.5836 71.1535 15.0328 71.1535 14.3053C71.1535 13.5373 71.4011 12.9461 71.8962 12.5318C72.4015 12.1074 73.1442 11.8951 74.1244 11.8951H74.7004C75.5695 11.8951 76.2617 12.0973 76.7771 12.5015C77.3026 12.8956 77.6007 13.4261 77.6714 14.093H76.0343C75.9939 13.8505 75.8575 13.6535 75.6251 13.5019C75.4028 13.3503 75.0946 13.2745 74.7004 13.2745H74.1244C73.6495 13.2745 73.3009 13.3655 73.0786 13.5474C72.8663 13.7191 72.7602 13.9768 72.7602 14.3204C72.7602 14.6236 72.8562 14.8509 73.0482 15.0025C73.2402 15.1541 73.5383 15.2602 73.9426 15.3208L75.0491 15.5027C75.9889 15.6341 76.676 15.8968 77.1106 16.2909C77.5552 16.6749 77.7775 17.2358 77.7775 17.9735C77.7775 18.7718 77.5148 19.3933 76.9893 19.8379C76.4739 20.2825 75.7009 20.5048 74.6701 20.5048H74.0183ZM84.1531 20.3684C83.3952 20.3684 82.804 20.1613 82.3796 19.7469C81.9552 19.3326 81.7429 18.7566 81.7429 18.0189V13.517H79.4389V12.0316H81.7429V9.68209H83.38V12.0316H86.639V13.517H83.38V18.0189C83.38 18.5949 83.6579 18.8829 84.2137 18.8829H86.4874V20.3684H84.1531ZM93.3783 20.3684C92.8629 20.3684 92.4132 20.2674 92.0292 20.0653C91.6452 19.853 91.3421 19.5549 91.1198 19.1709C90.9076 18.7869 90.8014 18.3423 90.8014 17.837V10.7886H88.073V9.30315H92.4385V17.837C92.4385 18.1604 92.5294 18.4181 92.7113 18.6101C92.8932 18.792 93.1408 18.8829 93.4541 18.8829H96.0309V20.3684H93.3783ZM101.118 20.52C100.441 20.52 99.8448 20.3886 99.3294 20.1259C98.8242 19.853 98.4351 19.4741 98.1623 18.989C97.8894 18.504 97.753 17.9381 97.753 17.2914V15.1086C97.753 14.4518 97.8894 13.8859 98.1623 13.4109C98.4351 12.9259 98.8242 12.552 99.3294 12.2892C99.8448 12.0164 100.441 11.88 101.118 11.88C101.805 11.88 102.401 12.0164 102.907 12.2892C103.412 12.552 103.801 12.9259 104.074 13.4109C104.347 13.8859 104.483 14.4518 104.483 15.1086V16.5941H99.3294V17.2914C99.3294 17.9078 99.481 18.3777 99.7842 18.701C100.097 19.0244 100.547 19.1861 101.133 19.1861C101.608 19.1861 101.992 19.1053 102.285 18.9436C102.578 18.7718 102.76 18.5242 102.831 18.2008H104.453C104.332 18.9082 103.968 19.4741 103.361 19.8985C102.755 20.3128 102.007 20.52 101.118 20.52ZM102.907 15.6088V15.0935C102.907 14.4871 102.755 14.0173 102.452 13.6838C102.149 13.3503 101.704 13.1836 101.118 13.1836C100.542 13.1836 100.097 13.3503 99.7842 13.6838C99.481 14.0173 99.3294 14.4922 99.3294 15.1086V15.4876L103.028 15.4724L102.907 15.6088ZM109.767 20.5048C109.171 20.5048 108.646 20.4088 108.191 20.2168C107.746 20.0248 107.393 19.7621 107.13 19.4286C106.877 19.085 106.731 18.6808 106.69 18.216H108.327C108.368 18.4888 108.514 18.7111 108.767 18.8829C109.02 19.0446 109.353 19.1255 109.767 19.1255H110.419C110.914 19.1255 111.288 19.0244 111.541 18.8223C111.793 18.6202 111.92 18.3524 111.92 18.0189C111.92 17.6956 111.804 17.4429 111.571 17.261C111.349 17.069 111.015 16.9427 110.571 16.8821L109.494 16.7154C108.605 16.5739 107.948 16.3213 107.524 15.9575C107.11 15.5836 106.902 15.0328 106.902 14.3053C106.902 13.5373 107.15 12.9461 107.645 12.5318C108.15 12.1074 108.893 11.8951 109.873 11.8951H110.449C111.318 11.8951 112.011 12.0973 112.526 12.5015C113.052 12.8956 113.35 13.4261 113.42 14.093H111.783C111.743 13.8505 111.606 13.6535 111.374 13.5019C111.152 13.3503 110.844 13.2745 110.449 13.2745H109.873C109.398 13.2745 109.05 13.3655 108.828 13.5474C108.615 13.7191 108.509 13.9768 108.509 14.3204C108.509 14.6236 108.605 14.8509 108.797 15.0025C108.989 15.1541 109.287 15.2602 109.692 15.3208L110.798 15.5027C111.738 15.6341 112.425 15.8968 112.86 16.2909C113.304 16.6749 113.526 17.2358 113.526 17.9735C113.526 18.7718 113.264 19.3933 112.738 19.8379C112.223 20.2825 111.45 20.5048 110.419 20.5048H109.767ZM118.705 20.5048C118.108 20.5048 117.583 20.4088 117.128 20.2168C116.683 20.0248 116.33 19.7621 116.067 19.4286C115.814 19.085 115.668 18.6808 115.627 18.216H117.265C117.305 18.4888 117.451 18.7111 117.704 18.8829C117.957 19.0446 118.29 19.1255 118.705 19.1255H119.356C119.851 19.1255 120.225 19.0244 120.478 18.8223C120.731 18.6202 120.857 18.3524 120.857 18.0189C120.857 17.6956 120.741 17.4429 120.508 17.261C120.286 17.069 119.953 16.9427 119.508 16.8821L118.432 16.7154C117.542 16.5739 116.886 16.3213 116.461 15.9575C116.047 15.5836 115.84 15.0328 115.84 14.3053C115.84 13.5373 116.087 12.9461 116.582 12.5318C117.088 12.1074 117.83 11.8951 118.811 11.8951H119.387C120.256 11.8951 120.948 12.0973 121.463 12.5015C121.989 12.8956 122.287 13.4261 122.358 14.093H120.721C120.68 13.8505 120.544 13.6535 120.311 13.5019C120.089 13.3503 119.781 13.2745 119.387 13.2745H118.811C118.336 13.2745 117.987 13.3655 117.765 13.5474C117.553 13.7191 117.446 13.9768 117.446 14.3204C117.446 14.6236 117.542 14.8509 117.734 15.0025C117.926 15.1541 118.225 15.2602 118.629 15.3208L119.735 15.5027C120.675 15.6341 121.362 15.8968 121.797 16.2909C122.241 16.6749 122.464 17.2358 122.464 17.9735C122.464 18.7718 122.201 19.3933 121.675 19.8379C121.16 20.2825 120.387 20.5048 119.356 20.5048H118.705Z" fill="#E5E5E5"/>
<path d="M47.5553 40.7832C46.8681 40.7832 46.2668 40.6569 45.7515 40.4042C45.2462 40.1415 44.8521 39.7676 44.5692 39.2825C44.2963 38.7874 44.1599 38.2114 44.1599 37.5545V32.6434C44.1599 31.9764 44.2963 31.4004 44.5692 30.9154C44.8521 30.4303 45.2462 30.0615 45.7515 29.8089C46.2668 29.5461 46.8681 29.4147 47.5553 29.4147C48.2424 29.4147 48.8386 29.5461 49.3439 29.8089C49.8492 30.0716 50.2382 30.4455 50.5111 30.9305C50.794 31.4055 50.9355 31.9764 50.9355 32.6434H49.2984C49.2984 32.0674 49.1468 31.6278 48.8437 31.3246C48.5405 31.0215 48.1111 30.8699 47.5553 30.8699C46.9995 30.8699 46.5649 31.0215 46.2517 31.3246C45.9485 31.6278 45.7969 32.0623 45.7969 32.6282V37.5545C45.7969 38.1204 45.9485 38.56 46.2517 38.8733C46.5649 39.1764 46.9995 39.328 47.5553 39.328C48.1111 39.328 48.5405 39.1764 48.8437 38.8733C49.1468 38.56 49.2984 38.1204 49.2984 37.5545H50.9355C50.9355 38.2114 50.794 38.7823 50.5111 39.2674C50.2382 39.7524 49.8492 40.1263 49.3439 40.3891C48.8386 40.6518 48.2424 40.7832 47.5553 40.7832ZM56.5834 40.768C55.8963 40.768 55.3001 40.6366 54.7948 40.3739C54.2896 40.1112 53.9005 39.7373 53.6277 39.2522C53.3548 38.7672 53.2184 38.1962 53.2184 37.5394V35.387C53.2184 34.72 53.3548 34.1491 53.6277 33.6741C53.9005 33.1891 54.2896 32.8152 54.7948 32.5524C55.3001 32.2897 55.8963 32.1583 56.5834 32.1583C57.2706 32.1583 57.8668 32.2897 58.3721 32.5524C58.8773 32.8152 59.2664 33.1891 59.5392 33.6741C59.8121 34.1491 59.9485 34.72 59.9485 35.387V37.5394C59.9485 38.1962 59.8121 38.7672 59.5392 39.2522C59.2664 39.7373 58.8773 40.1112 58.3721 40.3739C57.8668 40.6366 57.2706 40.768 56.5834 40.768ZM56.5834 39.328C57.1392 39.328 57.5687 39.1764 57.8719 38.8733C58.175 38.56 58.3266 38.1154 58.3266 37.5394V35.387C58.3266 34.8009 58.175 34.3562 57.8719 34.0531C57.5687 33.7499 57.1392 33.5983 56.5834 33.5983C56.0378 33.5983 55.6083 33.7499 55.295 34.0531C54.9919 34.3562 54.8403 34.8009 54.8403 35.387V37.5394C54.8403 38.1154 54.9919 38.56 55.295 38.8733C55.6083 39.1764 56.0378 39.328 56.5834 39.328ZM62.0192 40.6316V32.2947H63.3834V33.3558H63.6866L63.4592 33.6741C63.4592 33.2093 63.5855 32.8404 63.8382 32.5676C64.0908 32.2846 64.4293 32.1432 64.8537 32.1432C65.3085 32.1432 65.6571 32.32 65.8996 32.6737C66.1523 33.0274 66.2786 33.5124 66.2786 34.1289L65.9148 33.3558H66.4908L66.2483 33.6741C66.2483 33.2093 66.3746 32.8404 66.6272 32.5676C66.8899 32.2846 67.2386 32.1432 67.6731 32.1432C68.1885 32.1432 68.5927 32.3402 68.8857 32.7343C69.1788 33.1183 69.3253 33.6337 69.3253 34.2804V40.6316H67.8702V34.3259C67.8702 34.0126 67.7994 33.7701 67.6579 33.5983C67.5266 33.4265 67.3346 33.3406 67.0819 33.3406C66.8293 33.3406 66.6323 33.4265 66.4908 33.5983C66.3594 33.76 66.2937 33.9975 66.2937 34.3107V40.6316H65.0659V34.3259C65.0659 34.0025 64.9952 33.76 64.8537 33.5983C64.7123 33.4265 64.5102 33.3406 64.2474 33.3406C63.9948 33.3406 63.8028 33.4265 63.6714 33.5983C63.5502 33.76 63.4895 33.9975 63.4895 34.3107V40.6316H62.0192ZM71.487 43.36V32.2947H73.1089V33.8863H73.4575L73.1089 34.2653C73.1089 33.6084 73.311 33.0931 73.7152 32.7192C74.1295 32.3352 74.6802 32.1432 75.3674 32.1432C76.2061 32.1432 76.8731 32.4261 77.3682 32.992C77.8735 33.5478 78.1261 34.3107 78.1261 35.2809V37.6303C78.1261 38.2771 78.0099 38.8379 77.7775 39.3129C77.5552 39.7777 77.2369 40.1415 76.8226 40.4042C76.4183 40.6569 75.9333 40.7832 75.3674 40.7832C74.6903 40.7832 74.1447 40.5962 73.7303 40.2223C73.316 39.8383 73.1089 39.3179 73.1089 38.6611L73.4575 39.04H73.0786L73.124 40.9802V43.36H71.487ZM74.8066 39.3583C75.3421 39.3583 75.7564 39.2067 76.0495 38.9036C76.3527 38.5903 76.5042 38.1406 76.5042 37.5545V35.3718C76.5042 34.7857 76.3527 34.3411 76.0495 34.0379C75.7564 33.7246 75.3421 33.568 74.8066 33.568C74.2912 33.568 73.8819 33.7297 73.5788 34.0531C73.2756 34.3663 73.124 34.8059 73.124 35.3718V37.5545C73.124 38.1204 73.2756 38.5651 73.5788 38.8884C73.8819 39.2017 74.2912 39.3583 74.8066 39.3583ZM83.8347 40.7832C82.8343 40.7832 82.036 40.4952 81.4398 39.9192C80.8436 39.3331 80.5455 38.5398 80.5455 37.5394V32.2947H82.1825V37.5394C82.1825 38.1154 82.3291 38.5651 82.6221 38.8884C82.9152 39.2017 83.3194 39.3583 83.8347 39.3583C84.3602 39.3583 84.7695 39.2017 85.0625 38.8884C85.3657 38.5651 85.5173 38.1154 85.5173 37.5394V32.2947H87.1543V37.5394C87.1543 38.5398 86.8512 39.3331 86.2448 39.9192C85.6486 40.4952 84.8453 40.7832 83.8347 40.7832ZM93.8482 40.6316C93.0903 40.6316 92.4991 40.4244 92.0747 40.0101C91.6503 39.5958 91.4381 39.0198 91.4381 38.2821V33.7802H89.1341V32.2947H91.4381V29.9453H93.0751V32.2947H96.3341V33.7802H93.0751V38.2821C93.0751 38.8581 93.353 39.1461 93.9088 39.1461H96.1825V40.6316H93.8482ZM102.028 40.7832C101.35 40.7832 100.754 40.6518 100.239 40.3891C99.7336 40.1162 99.3446 39.7373 99.0717 39.2522C98.7989 38.7672 98.6625 38.2013 98.6625 37.5545V35.3718C98.6625 34.715 98.7989 34.1491 99.0717 33.6741C99.3446 33.1891 99.7336 32.8152 100.239 32.5524C100.754 32.2796 101.35 32.1432 102.028 32.1432C102.715 32.1432 103.311 32.2796 103.816 32.5524C104.321 32.8152 104.71 33.1891 104.983 33.6741C105.256 34.1491 105.393 34.715 105.393 35.3718V36.8573H100.239V37.5545C100.239 38.171 100.39 38.6409 100.694 38.9642C101.007 39.2876 101.457 39.4493 102.043 39.4493C102.518 39.4493 102.902 39.3684 103.195 39.2067C103.488 39.035 103.67 38.7874 103.74 38.464H105.362C105.241 39.1714 104.877 39.7373 104.271 40.1617C103.665 40.576 102.917 40.7832 102.028 40.7832ZM103.816 35.872V35.3566C103.816 34.7503 103.665 34.2804 103.361 33.947C103.058 33.6135 102.614 33.4467 102.028 33.4467C101.452 33.4467 101.007 33.6135 100.694 33.947C100.39 34.2804 100.239 34.7554 100.239 35.3718V35.7507L103.937 35.7356L103.816 35.872ZM108.115 40.6316V32.2947H109.692V33.8863H110.086L109.585 34.8716C109.585 33.9722 109.782 33.2952 110.177 32.8404C110.571 32.3756 111.157 32.1432 111.935 32.1432C112.824 32.1432 113.526 32.4211 114.042 32.9769C114.567 33.5225 114.83 34.2754 114.83 35.2354V35.7962H113.148V35.3718C113.148 34.7756 112.996 34.3209 112.693 34.0076C112.4 33.6842 111.985 33.5225 111.45 33.5225C110.914 33.5225 110.495 33.6842 110.192 34.0076C109.899 34.331 109.752 34.7857 109.752 35.3718V40.6316H108.115Z" fill="#E5E5E5"/>
<defs>
<clipPath id="clip0_6961_4989">
<rect width="31.5789" height="49.9793" fill="white" transform="translate(0 0.0102539)"/>
</clipPath>
</defs>
</svg>
