<svg width="124" height="48" viewBox="0 0 124 48" fill="none" xmlns="http://www.w3.org/2000/svg">
<path d="M7.88394 42.0002L2.81494 47.08H12.8451L7.88394 42.0002Z" fill="#EC9334"/>
<path d="M23.695 42.0002L28.764 47.08H18.7339L23.695 42.0002Z" fill="#EC9334"/>
<path d="M12.3386 12.6865L15.7899 16.1378L19.2411 12.6865H12.3386Z" fill="#EC9334"/>
<path d="M15.7897 0.973877L8.9519 7.81163V14.52L15.7897 7.693L22.6274 14.52V7.81163L15.7897 0.973877Z" fill="#E5E5E5"/>
<path fill-rule="evenodd" clip-rule="evenodd" d="M15.7896 0.919922C15.8039 0.919922 15.8176 0.925603 15.8278 0.935716L22.6655 7.77347C22.6756 7.78358 22.6813 7.7973 22.6813 7.8116V14.5199C22.6813 14.5417 22.6682 14.5614 22.648 14.5697C22.6279 14.5781 22.6047 14.5735 22.5893 14.5581L15.7896 7.76917L8.98998 14.5581C8.97455 14.5735 8.95136 14.5781 8.93122 14.5697C8.91108 14.5614 8.89795 14.5417 8.89795 14.5199V7.8116C8.89795 7.7973 8.90363 7.78358 8.91374 7.77347L15.7515 0.935716C15.7616 0.925603 15.7753 0.919922 15.7896 0.919922ZM15.7896 1.05011L9.0058 7.83394V14.3899L15.7515 7.6548C15.7726 7.63379 15.8067 7.63379 15.8277 7.6548L22.5735 14.3899V7.83394L15.7896 1.05011Z" fill="#E5E5E5"/>
<path d="M23.749 16.1377L31.579 24.1618L28.8288 35.0763L23.749 40.6846V16.1377Z" fill="#E5E5E5"/>
<path d="M7.82998 16.1377L0 24.1618L2.7502 35.0763L7.82998 40.6846V16.1377Z" fill="#E5E5E5"/>
<path fill-rule="evenodd" clip-rule="evenodd" d="M9.04137 41.6263C9.14667 41.521 9.31739 41.521 9.42269 41.6263L12.741 44.9447H18.8377L22.1561 41.6263C22.2613 41.521 22.4321 41.521 22.5374 41.6263C22.6427 41.7316 22.6427 41.9024 22.5374 42.0076L19.1401 45.405C19.0895 45.4555 19.0209 45.4839 18.9494 45.4839H12.6293C12.5578 45.4839 12.4892 45.4555 12.4387 45.405L9.04137 42.0076C8.93608 41.9024 8.93608 41.7316 9.04137 41.6263Z" fill="#E5E5E5"/>
<path d="M48.3435 10.213V19.3684H46.6458V10.213H43.3262V8.7882H51.6631V10.213H48.3435ZM53.0365 18.0345H55.1131V12.8808H53.0365V11.5469H56.7653V13.6236H56.8563C56.927 13.3507 57.0281 13.088 57.1594 12.8354C57.2908 12.5827 57.4576 12.3655 57.6597 12.1836C57.8618 11.9916 58.1093 11.84 58.4024 11.7288C58.6954 11.6076 59.039 11.5469 59.4331 11.5469H60.3729V13.1234H58.8268C58.2205 13.1234 57.7253 13.3053 57.3413 13.669C56.9573 14.0227 56.7653 14.5027 56.7653 15.109V18.0345H59.5999V19.3684H53.0365V18.0345ZM66.991 18.0345H66.9152C66.8344 18.2366 66.7283 18.4337 66.5969 18.6257C66.4756 18.8076 66.3241 18.9693 66.1422 19.1107C65.9603 19.2421 65.7481 19.3482 65.5055 19.429C65.263 19.5099 64.9801 19.5503 64.6567 19.5503C63.8685 19.5503 63.2318 19.2926 62.7468 18.7773C62.2617 18.2619 62.0192 17.5293 62.0192 16.5794V11.5469H63.6714V16.3368C63.6714 17.5798 64.2121 18.2013 65.2933 18.2013C65.5055 18.2013 65.7127 18.176 65.9148 18.1255C66.1169 18.0648 66.2988 17.9789 66.4605 17.8678C66.6222 17.7566 66.7485 17.6202 66.8394 17.4585C66.9405 17.2867 66.991 17.0846 66.991 16.8522V11.5469H68.6432V19.3684H66.991V18.0345ZM74.3215 19.5503C73.4727 19.5503 72.74 19.4139 72.1236 19.141C71.5173 18.8682 71.0272 18.5044 70.6533 18.0497L71.6689 17.1402C72.0124 17.5141 72.3964 17.8021 72.8209 18.0042C73.2554 18.1962 73.7657 18.2922 74.3518 18.2922C74.8874 18.2922 75.3169 18.2013 75.6402 18.0194C75.9737 17.8375 76.1404 17.5545 76.1404 17.1705C76.1404 17.0088 76.1101 16.8724 76.0495 16.7613C75.9889 16.6501 75.903 16.5591 75.7918 16.4884C75.6807 16.4177 75.5493 16.3621 75.3977 16.3217C75.2562 16.2813 75.1047 16.2509 74.943 16.2307L73.7 16.0337C73.3969 15.9933 73.0887 15.9276 72.7754 15.8366C72.4621 15.7457 72.1792 15.6194 71.9266 15.4577C71.684 15.2859 71.4819 15.0686 71.3202 14.8059C71.1687 14.5431 71.0929 14.2097 71.0929 13.8055C71.0929 13.0071 71.396 12.4008 72.0023 11.9865C72.6188 11.5722 73.4272 11.365 74.4276 11.365C75.1552 11.365 75.7817 11.4762 76.3072 11.6985C76.8428 11.9107 77.2874 12.2088 77.6411 12.5928L76.7164 13.5629C76.5143 13.3305 76.2263 13.1183 75.8524 12.9263C75.4786 12.7242 74.9834 12.6231 74.367 12.6231C73.2655 12.6231 72.7148 12.9718 72.7148 13.669C72.7148 14.0025 72.831 14.2349 73.0634 14.3663C73.3059 14.4876 73.5889 14.5684 73.9122 14.6088L75.1552 14.8059C75.4684 14.8564 75.7767 14.9221 76.0798 15.0029C76.3931 15.0838 76.671 15.2101 76.9135 15.3819C77.1661 15.5436 77.3682 15.7558 77.5198 16.0185C77.6815 16.2813 77.7623 16.6147 77.7623 17.0189C77.7623 17.8071 77.4541 18.4286 76.8377 18.8834C76.2314 19.328 75.3927 19.5503 74.3215 19.5503ZM83.7135 19.3684C83.0263 19.3684 82.5211 19.1865 82.1977 18.8227C81.8743 18.4488 81.7126 17.9688 81.7126 17.3827V12.8808H79.3025V11.5469H81.0154C81.3084 11.5469 81.5156 11.4914 81.6368 11.3802C81.7581 11.2589 81.8187 11.0467 81.8187 10.7436V8.7882H83.3648V11.5469H86.6996V12.8808H83.3648V18.0345H86.6996V19.3684H83.7135ZM88.7703 18.0345H91.3623V9.48546H88.7703V8.15157H93.0145V18.0345H95.6065V19.3684H88.7703V18.0345ZM101.285 19.5503C100.689 19.5503 100.153 19.4543 99.6781 19.2623C99.2031 19.0703 98.8039 18.7975 98.4806 18.4438C98.1572 18.0901 97.9096 17.6657 97.7378 17.1705C97.5661 16.6653 97.4802 16.0994 97.4802 15.4728C97.4802 14.8463 97.5661 14.2804 97.7378 13.7751C97.9197 13.2699 98.1673 12.8404 98.4806 12.4867C98.8039 12.1229 99.193 11.845 99.6477 11.653C100.102 11.461 100.608 11.365 101.164 11.365C101.709 11.365 102.204 11.461 102.649 11.653C103.094 11.8349 103.473 12.0977 103.786 12.4413C104.099 12.7848 104.337 13.1941 104.498 13.669C104.67 14.144 104.756 14.6695 104.756 15.2455V15.8669H99.1475V16.1246C99.1475 16.741 99.3395 17.2463 99.7235 17.6404C100.108 18.0244 100.638 18.2164 101.315 18.2164C101.82 18.2164 102.25 18.1103 102.604 17.8981C102.967 17.6758 103.26 17.3827 103.483 17.0189L104.513 17.9284C104.251 18.3831 103.846 18.7671 103.301 19.0804C102.765 19.3937 102.093 19.5503 101.285 19.5503ZM101.164 12.6231C100.87 12.6231 100.598 12.6737 100.345 12.7747C100.102 12.8758 99.8903 13.0223 99.7084 13.2143C99.5366 13.3962 99.4002 13.6135 99.2991 13.8661C99.1981 14.1187 99.1475 14.3966 99.1475 14.6998V14.8059H103.073V14.6543C103.073 14.0379 102.897 13.5478 102.543 13.184C102.199 12.8101 101.74 12.6231 101.164 12.6231ZM110.07 19.5503C109.222 19.5503 108.489 19.4139 107.873 19.141C107.266 18.8682 106.776 18.5044 106.402 18.0497L107.418 17.1402C107.761 17.5141 108.145 17.8021 108.57 18.0042C109.004 18.1962 109.515 18.2922 110.101 18.2922C110.636 18.2922 111.066 18.2013 111.389 18.0194C111.723 17.8375 111.889 17.5545 111.889 17.1705C111.889 17.0088 111.859 16.8724 111.798 16.7613C111.738 16.6501 111.652 16.5591 111.541 16.4884C111.43 16.4177 111.298 16.3621 111.147 16.3217C111.005 16.2813 110.854 16.2509 110.692 16.2307L109.449 16.0337C109.146 15.9933 108.838 15.9276 108.524 15.8366C108.211 15.7457 107.928 15.6194 107.676 15.4577C107.433 15.2859 107.231 15.0686 107.069 14.8059C106.918 14.5431 106.842 14.2097 106.842 13.8055C106.842 13.0071 107.145 12.4008 107.751 11.9865C108.368 11.5722 109.176 11.365 110.177 11.365C110.904 11.365 111.531 11.4762 112.056 11.6985C112.592 11.9107 113.036 12.2088 113.39 12.5928L112.465 13.5629C112.263 13.3305 111.975 13.1183 111.601 12.9263C111.228 12.7242 110.732 12.6231 110.116 12.6231C109.014 12.6231 108.464 12.9718 108.464 13.669C108.464 14.0025 108.58 14.2349 108.812 14.3663C109.055 14.4876 109.338 14.5684 109.661 14.6088L110.904 14.8059C111.217 14.8564 111.526 14.9221 111.829 15.0029C112.142 15.0838 112.42 15.2101 112.662 15.3819C112.915 15.5436 113.117 15.7558 113.269 16.0185C113.43 16.2813 113.511 16.6147 113.511 17.0189C113.511 17.8071 113.203 18.4286 112.587 18.8834C111.98 19.328 111.142 19.5503 110.07 19.5503ZM119.008 19.5503C118.159 19.5503 117.426 19.4139 116.81 19.141C116.203 18.8682 115.713 18.5044 115.339 18.0497L116.355 17.1402C116.699 17.5141 117.083 17.8021 117.507 18.0042C117.942 18.1962 118.452 18.2922 119.038 18.2922C119.574 18.2922 120.003 18.2013 120.326 18.0194C120.66 17.8375 120.827 17.5545 120.827 17.1705C120.827 17.0088 120.796 16.8724 120.736 16.7613C120.675 16.6501 120.589 16.5591 120.478 16.4884C120.367 16.4177 120.235 16.3621 120.084 16.3217C119.942 16.2813 119.791 16.2509 119.629 16.2307L118.386 16.0337C118.083 15.9933 117.775 15.9276 117.462 15.8366C117.148 15.7457 116.865 15.6194 116.613 15.4577C116.37 15.2859 116.168 15.0686 116.006 14.8059C115.855 14.5431 115.779 14.2097 115.779 13.8055C115.779 13.0071 116.082 12.4008 116.689 11.9865C117.305 11.5722 118.113 11.365 119.114 11.365C119.841 11.365 120.468 11.4762 120.993 11.6985C121.529 11.9107 121.974 12.2088 122.327 12.5928L121.403 13.5629C121.201 13.3305 120.913 13.1183 120.539 12.9263C120.165 12.7242 119.67 12.6231 119.053 12.6231C117.952 12.6231 117.401 12.9718 117.401 13.669C117.401 14.0025 117.517 14.2349 117.75 14.3663C117.992 14.4876 118.275 14.5684 118.598 14.6088L119.841 14.8059C120.155 14.8564 120.463 14.9221 120.766 15.0029C121.079 15.0838 121.357 15.2101 121.6 15.3819C121.852 15.5436 122.054 15.7558 122.206 16.0185C122.368 16.2813 122.449 16.6147 122.449 17.0189C122.449 17.8071 122.14 18.4286 121.524 18.8834C120.918 19.328 120.079 19.5503 119.008 19.5503Z" fill="#E5E5E5"/>
<path d="M47.7978 39.8135C46.4538 39.8135 45.4534 39.3385 44.7965 38.3886C44.1498 37.4387 43.8264 36.0897 43.8264 34.3415C43.8264 32.5933 44.1498 31.2442 44.7965 30.2943C45.4534 29.3444 46.4538 28.8695 47.7978 28.8695C48.3132 28.8695 48.7578 28.9402 49.1317 29.0817C49.5157 29.2131 49.8441 29.4 50.1169 29.6425C50.3898 29.875 50.6172 30.1529 50.7991 30.4762C50.9911 30.7895 51.1477 31.128 51.2689 31.4918L49.738 32.0072C49.6572 31.7646 49.5662 31.5373 49.4652 31.3251C49.3641 31.1129 49.2378 30.931 49.0862 30.7794C48.9346 30.6278 48.7527 30.5065 48.5405 30.4156C48.3384 30.3246 48.0858 30.2792 47.7826 30.2792C47.0348 30.2792 46.4892 30.5672 46.1456 31.1432C45.802 31.7091 45.6302 32.4771 45.6302 33.4472V35.2358C45.6302 36.2059 45.802 36.979 46.1456 37.555C46.4892 38.1209 47.0348 38.4038 47.7826 38.4038C48.0858 38.4038 48.3384 38.3583 48.5405 38.2674C48.7527 38.1764 48.9346 38.0552 49.0862 37.9036C49.2378 37.752 49.3641 37.5701 49.4652 37.3579C49.5662 37.1457 49.6572 36.9183 49.738 36.6758L51.2689 37.1912C51.1477 37.555 50.9911 37.8985 50.7991 38.2219C50.6172 38.5352 50.3898 38.8131 50.1169 39.0556C49.8441 39.288 49.5157 39.475 49.1317 39.6164C48.7578 39.7478 48.3132 39.8135 47.7978 39.8135ZM56.5834 39.8135C56.0074 39.8135 55.487 39.7175 55.0222 39.5255C54.5674 39.3335 54.1784 39.0606 53.855 38.707C53.5418 38.3533 53.2992 37.9238 53.1274 37.4185C52.9557 36.9133 52.8698 36.3474 52.8698 35.7209C52.8698 35.0943 52.9557 34.5284 53.1274 34.0232C53.2992 33.5179 53.5418 33.0884 53.855 32.7347C54.1784 32.3811 54.5674 32.1082 55.0222 31.9162C55.487 31.7242 56.0074 31.6282 56.5834 31.6282C57.1594 31.6282 57.6748 31.7242 58.1296 31.9162C58.5944 32.1082 58.9834 32.3811 59.2967 32.7347C59.6201 33.0884 59.8677 33.5179 60.0394 34.0232C60.2112 34.5284 60.2971 35.0943 60.2971 35.7209C60.2971 36.3474 60.2112 36.9133 60.0394 37.4185C59.8677 37.9238 59.6201 38.3533 59.2967 38.707C58.9834 39.0606 58.5944 39.3335 58.1296 39.5255C57.6748 39.7175 57.1594 39.8135 56.5834 39.8135ZM56.5834 38.5099C57.1898 38.5099 57.6698 38.328 58.0234 37.9642C58.3872 37.5903 58.5691 37.0396 58.5691 36.312V35.1297C58.5691 34.4021 58.3872 33.8564 58.0234 33.4926C57.6698 33.1187 57.1898 32.9318 56.5834 32.9318C55.9771 32.9318 55.4921 33.1187 55.1283 33.4926C54.7746 33.8564 54.5978 34.4021 54.5978 35.1297V36.312C54.5978 37.0396 54.7746 37.5903 55.1283 37.9642C55.4921 38.328 55.9771 38.5099 56.5834 38.5099ZM61.7918 39.6316V31.8101H63.2015V32.8257H63.2773C63.3986 32.4922 63.5704 32.2093 63.7927 31.9769C64.0251 31.7444 64.3535 31.6282 64.7779 31.6282C65.1923 31.6282 65.5106 31.7444 65.7329 31.9769C65.9653 32.1992 66.1118 32.5074 66.1725 32.9015H66.2331C66.3746 32.5478 66.5716 32.2497 66.8243 32.0072C67.0769 31.7545 67.4407 31.6282 67.9156 31.6282C68.5219 31.6282 68.9413 31.8404 69.1737 32.2649C69.4163 32.6893 69.5375 33.3107 69.5375 34.1293V39.6316H68.1278V34.3415C68.1278 33.7958 68.0622 33.4219 67.9308 33.2198C67.7994 33.0076 67.5872 32.9015 67.2942 32.9015C67.0314 32.9015 66.8091 32.9924 66.6272 33.1743C66.4554 33.3461 66.3695 33.6089 66.3695 33.9625V39.6316H64.9598V34.3415C64.9598 33.7958 64.8942 33.4219 64.7628 33.2198C64.6415 33.0076 64.4344 32.9015 64.1413 32.9015C63.8685 32.9015 63.6411 32.9924 63.4592 33.1743C63.2874 33.3461 63.2015 33.6089 63.2015 33.9625V39.6316H61.7918ZM71.4112 31.8101H73.0634V33.144H73.1543C73.3868 32.6691 73.695 32.3002 74.079 32.0375C74.463 31.7646 74.943 31.6282 75.519 31.6282C76.4386 31.6282 77.1712 31.9718 77.7169 32.659C78.2626 33.3461 78.5354 34.3667 78.5354 35.7209C78.5354 37.075 78.2626 38.0956 77.7169 38.7827C77.1712 39.4699 76.4386 39.8135 75.519 39.8135C74.943 39.8135 74.463 39.6821 74.079 39.4194C73.695 39.1465 73.3868 38.7726 73.1543 38.2977H73.0634V42.6632H71.4112V31.8101ZM74.8369 38.4644C75.4634 38.4644 75.9434 38.2724 76.2769 37.8884C76.6204 37.5044 76.7922 36.9941 76.7922 36.3575V35.0842C76.7922 34.4476 76.6204 33.9373 76.2769 33.5533C75.9434 33.1693 75.4634 32.9773 74.8369 32.9773C74.5943 32.9773 74.367 33.0076 74.1548 33.0682C73.9426 33.1289 73.7556 33.2198 73.5939 33.3411C73.4322 33.4623 73.3009 33.6139 73.1998 33.7958C73.1089 33.9676 73.0634 34.1747 73.0634 34.4173V37.0244C73.0634 37.267 73.1089 37.4792 73.1998 37.6611C73.3009 37.8329 73.4322 37.9794 73.5939 38.1006C73.7556 38.2219 73.9426 38.3129 74.1548 38.3735C74.367 38.4341 74.5943 38.4644 74.8369 38.4644ZM85.4718 38.2977H85.396C85.3152 38.4998 85.2091 38.6969 85.0777 38.8889C84.9564 39.0707 84.8048 39.2324 84.6229 39.3739C84.4411 39.5053 84.2288 39.6114 83.9863 39.6922C83.7438 39.7731 83.4608 39.8135 83.1375 39.8135C82.3493 39.8135 81.7126 39.5558 81.2276 39.0404C80.7425 38.5251 80.5 37.7924 80.5 36.8425V31.8101H82.1522V36.6C82.1522 37.843 82.6928 38.4644 83.7741 38.4644C83.9863 38.4644 84.1935 38.4392 84.3956 38.3886C84.5977 38.328 84.7796 38.2421 84.9413 38.131C85.1029 38.0198 85.2293 37.8834 85.3202 37.7217C85.4213 37.5499 85.4718 37.3478 85.4718 37.1154V31.8101H87.124V39.6316H85.4718V38.2977ZM93.4086 39.6316C92.7214 39.6316 92.2162 39.4497 91.8928 39.0859C91.5694 38.712 91.4078 38.232 91.4078 37.6459V33.144H88.9977V31.8101H90.7105C91.0036 31.8101 91.2107 31.7545 91.332 31.6434C91.4532 31.5221 91.5139 31.3099 91.5139 31.0067V29.0514H93.06V31.8101H96.3947V33.144H93.06V38.2977H96.3947V39.6316H93.4086ZM102.194 39.8135C101.598 39.8135 101.062 39.7175 100.588 39.5255C100.113 39.3335 99.7134 39.0606 99.3901 38.707C99.0667 38.3533 98.8191 37.9289 98.6473 37.4337C98.4755 36.9284 98.3896 36.3625 98.3896 35.736C98.3896 35.1095 98.4755 34.5436 98.6473 34.0383C98.8292 33.5331 99.0768 33.1036 99.3901 32.7499C99.7134 32.3861 100.102 32.1082 100.557 31.9162C101.012 31.7242 101.517 31.6282 102.073 31.6282C102.619 31.6282 103.114 31.7242 103.558 31.9162C104.003 32.0981 104.382 32.3609 104.695 32.7044C105.009 33.048 105.246 33.4573 105.408 33.9322C105.58 34.4072 105.665 34.9326 105.665 35.5086V36.1301H100.057V36.3878C100.057 37.0042 100.249 37.5095 100.633 37.9036C101.017 38.2876 101.548 38.4796 102.225 38.4796C102.73 38.4796 103.159 38.3735 103.513 38.1613C103.877 37.939 104.17 37.6459 104.392 37.2821L105.423 38.1916C105.16 38.6463 104.756 39.0303 104.21 39.3436C103.675 39.6569 103.003 39.8135 102.194 39.8135ZM102.073 32.8863C101.78 32.8863 101.507 32.9369 101.254 33.0379C101.012 33.139 100.8 33.2855 100.618 33.4775C100.446 33.6594 100.31 33.8766 100.209 34.1293C100.108 34.3819 100.057 34.6598 100.057 34.963V35.0691H103.983V34.9175C103.983 34.3011 103.806 33.811 103.452 33.4472C103.109 33.0733 102.649 32.8863 102.073 32.8863ZM107.721 38.2977H109.798V33.144H107.721V31.8101H111.45V33.8867H111.541C111.612 33.6139 111.713 33.3512 111.844 33.0985C111.975 32.8459 112.142 32.6286 112.344 32.4467C112.546 32.2547 112.794 32.1032 113.087 31.992C113.38 31.8707 113.724 31.8101 114.118 31.8101H115.057V33.3865H113.511C112.905 33.3865 112.41 33.5684 112.026 33.9322C111.642 34.2859 111.45 34.7659 111.45 35.3722V38.2977H114.284V39.6316H107.721V38.2977Z" fill="#E5E5E5"/>
</svg>
