<svg width="30" height="32" viewBox="0 0 30 32" fill="none" xmlns="http://www.w3.org/2000/svg">
<path fill-rule="evenodd" clip-rule="evenodd" d="M12.9724 0.385481L2.01841 5.86247C0.781395 6.48098 0 7.7453 0 9.12832V22.8717C0 24.2547 0.781393 25.519 2.01841 26.1375L7.30265 28.7797L12.9724 31.6145C14.0003 32.1285 15.2103 32.1285 16.2382 31.6145L27.1922 26.1375C28.4292 25.519 29.2106 24.2547 29.2106 22.8717V9.12832C29.2106 7.7453 28.4292 6.48098 27.1922 5.86247L23.7336 4.13319L18.2566 10.523H23.7336L7.30265 28.7797L14.6053 14.1743H5.47699L16.431 0.48186L16.2382 0.385482C15.2103 -0.128493 14.0003 -0.128494 12.9724 0.385481Z" fill="#FF8E34"/>
</svg>
