<svg width="18" height="18" viewBox="0 0 18 18" fill="none" xmlns="http://www.w3.org/2000/svg">
<path d="M14.6502 3.88317C16.4708 6.57888 17.3699 9.61958 17.0338 13.1201C17.0324 13.1349 17.0247 13.1485 17.0126 13.1575C15.6339 14.177 14.2982 14.7957 12.9811 15.206C12.9709 15.2092 12.9599 15.209 12.9498 15.2055C12.9396 15.2021 12.9308 15.1955 12.9245 15.1868C12.6202 14.7604 12.3438 14.3109 12.1016 13.8389C12.0877 13.8111 12.1004 13.7776 12.129 13.7667C12.5681 13.6 12.9856 13.4004 13.3872 13.1639C13.4188 13.1453 13.4208 13.0996 13.3916 13.0777C13.3064 13.014 13.2219 12.947 13.1411 12.8801C13.126 12.8677 13.1057 12.8652 13.0885 12.8736C10.4813 14.0861 7.62519 14.0861 4.98712 12.8736C4.96999 12.8658 4.94964 12.8685 4.93493 12.8807C4.85433 12.9476 4.76969 13.014 4.68526 13.0777C4.65605 13.0996 4.65846 13.1453 4.6903 13.1639C5.0919 13.3959 5.50941 13.6 5.94788 13.7675C5.97629 13.7784 5.98979 13.8111 5.97569 13.8389C5.73872 14.3115 5.46226 14.761 5.15235 15.1874C5.13885 15.2046 5.11668 15.2125 5.09573 15.206C3.78495 14.7957 2.44919 14.177 1.0705 13.1575C1.05902 13.1485 1.05076 13.1343 1.04955 13.1195C0.768653 10.0916 1.34112 7.02573 3.43091 3.88256C3.43595 3.87424 3.4436 3.86774 3.45247 3.86389C4.48074 3.38863 5.58236 3.03898 6.73374 2.8393C6.7547 2.83605 6.77566 2.84579 6.78654 2.86446C6.9288 3.11812 7.09141 3.44342 7.20143 3.70925C8.41508 3.52256 9.64768 3.52256 10.8867 3.70925C10.9967 3.4491 11.1537 3.11812 11.2954 2.86446C11.3004 2.8552 11.3082 2.84778 11.3177 2.84326C11.3272 2.83874 11.3378 2.83735 11.3482 2.8393C12.5002 3.03959 13.6018 3.38923 14.6292 3.86389C14.6383 3.86774 14.6458 3.87424 14.6502 3.88317ZM7.81843 9.64028C7.83113 8.74516 7.18309 8.00446 6.36963 8.00446C5.56281 8.00446 4.92102 8.73866 4.92102 9.64028C4.92102 10.5417 5.5755 11.2759 6.36963 11.2759C7.17665 11.2759 7.81843 10.5417 7.81843 9.64028ZM13.1748 9.64028C13.1875 8.74516 12.5394 8.00446 11.7262 8.00446C10.9192 8.00446 10.2774 8.73866 10.2774 9.64028C10.2774 10.5417 10.9319 11.2759 11.7262 11.2759C12.5394 11.2759 13.1748 10.5417 13.1748 9.64028Z" fill="white"/>
</svg>
