<svg width="116" height="44" viewBox="0 0 116 44" fill="none" xmlns="http://www.w3.org/2000/svg">
<path d="M7.51488 39.158L2.68311 44H12.2439L7.51488 39.158Z" fill="#EC9334"/>
<path d="M22.5863 39.158L27.418 44H17.8573L22.5863 39.158Z" fill="#EC9334"/>
<path d="M11.761 11.2159L15.0507 14.5056L18.3404 11.2159H11.761Z" fill="#EC9334"/>
<path d="M15.0508 0.0513916L8.53308 6.56915V12.9635L15.0508 6.45606L21.5686 12.9635V6.56915L15.0508 0.0513916Z" fill="#E5E5E5"/>
<path fill-rule="evenodd" clip-rule="evenodd" d="M15.0507 0C15.0644 0 15.0774 0.00541554 15.0871 0.0150553L21.6048 6.53281C21.6145 6.54245 21.6199 6.55553 21.6199 6.56916V12.9635C21.6199 12.9843 21.6074 13.0031 21.5882 13.011C21.569 13.019 21.5469 13.0146 21.5322 12.9999L15.0507 6.52871L8.56929 12.9999C8.55458 13.0146 8.53248 13.019 8.51328 13.011C8.49408 13.0031 8.48157 12.9843 8.48157 12.9635V6.56916C8.48157 6.55553 8.48698 6.54245 8.49662 6.53281L15.0144 0.0150553C15.024 0.00541554 15.0371 3.06379e-09 15.0507 0ZM15.0507 0.124095L8.58437 6.59045V12.8396L15.0144 6.4197C15.0345 6.39966 15.067 6.39966 15.087 6.4197L21.5171 12.8396V6.59045L15.0507 0.124095Z" fill="#E5E5E5"/>
<path d="M22.6376 14.5056L30.1011 22.1542L27.4796 32.5579L22.6376 37.9037V14.5056Z" fill="#E5E5E5"/>
<path d="M7.46355 14.5056L0 22.1542L2.6215 32.5579L7.46355 37.9037V14.5056Z" fill="#E5E5E5"/>
<path fill-rule="evenodd" clip-rule="evenodd" d="M8.61825 38.8014C8.71861 38.701 8.88134 38.701 8.98171 38.8014L12.1448 41.9645H17.9561L21.1192 38.8014C21.2195 38.701 21.3823 38.701 21.4826 38.8014C21.583 38.9018 21.583 39.0645 21.4826 39.1649L18.2443 42.4032C18.1961 42.4514 18.1308 42.4785 18.0626 42.4785H12.0383C11.9701 42.4785 11.9048 42.4514 11.8566 42.4032L8.61825 39.1649C8.51788 39.0645 8.51788 38.9018 8.61825 38.8014Z" fill="#E5E5E5"/>
<path d="M46.6965 19.0019V8.76994H42.9375V7.20228H52.1918V8.76994H48.4328V19.0019H46.6965Z" fill="#E5E5E5"/>
<path d="M52.1612 19.0019V10.5736H56.3585V12.1413H53.83V19.0019H52.1612Z" fill="#E5E5E5"/>
<path d="M63.2024 19.0019L62.9833 18.1928H62.8316C62.663 18.4737 62.4046 18.7153 62.0562 18.9176C61.7191 19.1087 61.292 19.2042 60.7751 19.2042C59.7974 19.2042 59.022 18.8839 58.4489 18.2434C57.887 17.6028 57.606 16.7319 57.606 15.6306V10.5736H59.2749V14.9563C59.2749 15.8666 59.4153 16.5521 59.6963 17.0128C59.9884 17.4736 60.4267 17.7039 61.0111 17.7039C61.6404 17.7039 62.1124 17.5017 62.427 17.0971C62.7529 16.6926 62.9159 16.0913 62.9159 15.2935V10.5736H64.5847V19.0019H63.2024Z" fill="#E5E5E5"/>
<path d="M66.1581 19.0019V17.4342H70.524C70.524 17.1308 70.4453 16.8611 70.288 16.6251C70.1419 16.3779 69.9509 16.17 69.7149 16.0014C69.4789 15.8216 69.1586 15.5969 68.7541 15.3272C68.2147 14.99 67.7708 14.6866 67.4224 14.4169C67.0853 14.136 66.7987 13.782 66.5627 13.3549C66.3267 12.9279 66.2087 12.4334 66.2087 11.8716V10.5736H72.0748V12.1413H68.0461C68.0461 12.4559 68.1248 12.7369 68.2821 12.9841C68.4506 13.2201 68.6529 13.4336 68.8889 13.6246C69.1361 13.8157 69.462 14.0404 69.8666 14.2989C70.3948 14.636 70.8274 14.9451 71.1646 15.226C71.5017 15.4957 71.7883 15.8385 72.0242 16.2543C72.2602 16.6701 72.3782 17.1533 72.3782 17.7039V19.0019H66.1581Z" fill="#E5E5E5"/>
<path d="M74.7991 19.0019V12.1413H73.4506V10.5736C73.8664 10.5287 74.1923 10.3938 74.4283 10.169C74.6755 9.93305 74.7991 9.60716 74.7991 9.19136V7.92711H76.3837V10.5736H77.9513V12.1413H76.3837V17.5691H78.6762V19.0019H74.7991Z" fill="#E5E5E5"/>
<path d="M80.2486 7H81.9174V19.0019H80.2486V7Z" fill="#E5E5E5"/>
<path d="M85.3083 15.2597C85.3645 15.7317 85.4994 16.1475 85.7129 16.5071C85.9264 16.8555 86.1961 17.1252 86.522 17.3162C86.8591 17.5073 87.23 17.6028 87.6345 17.6028C88.129 17.6028 88.5616 17.4904 88.9325 17.2657C89.3146 17.0297 89.6011 16.6982 89.7922 16.2711L91.3093 16.7937C91.0058 17.5579 90.5282 18.1535 89.8765 18.5805C89.2247 18.9963 88.4774 19.2042 87.6345 19.2042C86.8816 19.2042 86.2017 19.0131 85.5949 18.6311C84.9993 18.2377 84.5273 17.7039 84.1789 17.0297C83.8418 16.3442 83.6732 15.58 83.6732 14.7372C83.6732 13.9168 83.8418 13.1751 84.1789 12.5121C84.5273 11.8491 84.9993 11.3265 85.5949 10.9444C86.2017 10.5624 86.8816 10.3713 87.6345 10.3713C88.3875 10.3713 89.0617 10.5567 89.6573 10.9276C90.2642 11.2984 90.7361 11.8154 91.0733 12.4784C91.4216 13.1302 91.6014 13.8663 91.6127 14.6866V15.2597H85.3083ZM87.6345 11.9727C87.0614 11.9727 86.5669 12.1581 86.1511 12.529C85.7466 12.8886 85.4825 13.3774 85.3589 13.9955H89.927C89.8034 13.3774 89.5337 12.8886 89.1179 12.529C88.7133 12.1581 88.2189 11.9727 87.6345 11.9727Z" fill="#E5E5E5"/>
<path d="M92.5954 19.0019V17.4342H96.9612C96.9612 17.1308 96.8826 16.8611 96.7252 16.6251C96.5792 16.3779 96.3881 16.17 96.1521 16.0014C95.9161 15.8216 95.5959 15.5969 95.1913 15.3272C94.6519 14.99 94.208 14.6866 93.8596 14.4169C93.5225 14.136 93.2359 13.782 92.9999 13.3549C92.7639 12.9279 92.6459 12.4334 92.6459 11.8716V10.5736H98.512V12.1413H94.4833C94.4833 12.4559 94.562 12.7369 94.7193 12.9841C94.8879 13.2201 95.0902 13.4336 95.3261 13.6246C95.5734 13.8157 95.8993 14.0404 96.3038 14.2989C96.832 14.636 97.2647 14.9451 97.6018 15.226C97.9389 15.4957 98.2255 15.8385 98.4615 16.2543C98.6975 16.6701 98.8155 17.1533 98.8155 17.7039V19.0019H92.5954Z" fill="#E5E5E5"/>
<path d="M99.8878 19.0019V17.4342H104.254C104.254 17.1308 104.175 16.8611 104.018 16.6251C103.872 16.3779 103.681 16.17 103.445 16.0014C103.209 15.8216 102.888 15.5969 102.484 15.3272C101.944 14.99 101.5 14.6866 101.152 14.4169C100.815 14.136 100.528 13.782 100.292 13.3549C100.056 12.9279 99.9384 12.4334 99.9384 11.8716V10.5736H105.805V12.1413H101.776C101.776 12.4559 101.854 12.7369 102.012 12.9841C102.18 13.2201 102.383 13.4336 102.619 13.6246C102.866 13.8157 103.192 14.0404 103.596 14.2989C104.124 14.636 104.557 14.9451 104.894 15.226C105.231 15.4957 105.518 15.8385 105.754 16.2543C105.99 16.6701 106.108 17.1533 106.108 17.7039V19.0019H99.8878Z" fill="#E5E5E5"/>
<path d="M48.6519 38.4689C47.5506 38.4689 46.5617 38.2048 45.6851 37.6766C44.8198 37.1485 44.1456 36.4236 43.6623 35.5021C43.1791 34.5694 42.9375 33.5243 42.9375 32.3668C42.9375 31.2093 43.1791 30.1698 43.6623 29.2483C44.1456 28.3156 44.8198 27.5851 45.6851 27.057C46.5617 26.5288 47.5506 26.2647 48.6519 26.2647C49.9105 26.2647 51.0062 26.5962 51.9389 27.2592C52.8829 27.9223 53.5572 28.8269 53.9617 29.9732L52.2255 30.5463C51.9446 29.7259 51.4894 29.0854 50.8601 28.6246C50.242 28.1639 49.506 27.9335 48.6519 27.9335C47.9102 27.9335 47.2416 28.1246 46.646 28.5066C46.0616 28.8887 45.6008 29.4169 45.2637 30.0912C44.9378 30.7654 44.7749 31.524 44.7749 32.3668C44.7749 33.2096 44.9378 33.9682 45.2637 34.6424C45.6008 35.3167 46.0616 35.8449 46.646 36.227C47.2416 36.6091 47.9102 36.8001 48.6519 36.8001C49.506 36.8001 50.242 36.5697 50.8601 36.109C51.4894 35.6482 51.9446 35.0077 52.2255 34.1873L53.9617 34.7436C53.5459 35.9011 52.8717 36.8113 51.9389 37.4744C51.0062 38.1374 49.9105 38.4689 48.6519 38.4689Z" fill="#E5E5E5"/>
<path d="M59.0466 29.6529C59.8557 29.6529 60.575 29.8439 61.2043 30.226C61.8448 30.6081 62.3393 31.1363 62.6877 31.8105C63.036 32.4736 63.2102 33.2209 63.2102 34.0525C63.2102 34.8841 63.036 35.637 62.6877 36.3113C62.3393 36.9855 61.8448 37.5137 61.2043 37.8958C60.575 38.2779 59.8557 38.4689 59.0466 38.4689H59.0129C58.2038 38.4689 57.4846 38.2779 56.8553 37.8958C56.226 37.5137 55.7371 36.9855 55.3887 36.3113C55.0404 35.637 54.8662 34.8841 54.8662 34.0525C54.8662 33.2209 55.0404 32.4736 55.3887 31.8105C55.7371 31.1363 56.226 30.6081 56.8553 30.226C57.4846 29.8439 58.2038 29.6529 59.0129 29.6529H59.0466ZM59.0466 36.8001C59.8108 36.8001 60.4176 36.5472 60.8671 36.0415C61.3167 35.5246 61.5414 34.8616 61.5414 34.0525C61.5414 33.2433 61.3167 32.5859 60.8671 32.0802C60.4176 31.5745 59.8108 31.3217 59.0466 31.3217H59.0129C58.26 31.3217 57.6588 31.5745 57.2093 32.0802C56.7597 32.5859 56.535 33.2433 56.535 34.0525C56.535 34.8616 56.7597 35.5246 57.2093 36.0415C57.6588 36.5472 58.26 36.8001 59.0129 36.8001H59.0466Z" fill="#E5E5E5"/>
<path d="M73.3005 29.636C74.2444 29.636 74.9693 29.9451 75.475 30.5631C75.9807 31.1812 76.2335 32.0634 76.2335 33.2096V38.2666H74.5647V33.8839C74.5647 32.9736 74.4467 32.2881 74.2107 31.8274C73.9747 31.3666 73.5646 31.1363 72.9802 31.1363C72.3509 31.1363 71.907 31.3442 71.6485 31.76C71.3901 32.1645 71.2608 32.7601 71.2608 33.5468V38.2666H69.592V33.8839C69.592 32.9736 69.474 32.2881 69.238 31.8274C69.002 31.3666 68.5919 31.1363 68.0075 31.1363C67.3782 31.1363 66.9343 31.3442 66.6758 31.76C66.4174 32.1645 66.2881 32.7601 66.2881 33.5468V38.2666H64.6193V29.8383H66.0016L66.2038 30.6474H66.3556C66.4904 30.3665 66.7208 30.1305 67.0467 29.9395C67.3838 29.7372 67.7884 29.636 68.2603 29.636C68.8335 29.636 69.2942 29.7596 69.6426 30.0069C70.0022 30.2429 70.2888 30.6081 70.5023 31.1026H70.654C70.89 30.6418 71.244 30.2822 71.716 30.0237C72.1879 29.7653 72.7161 29.636 73.3005 29.636Z" fill="#E5E5E5"/>
<path d="M78.1507 29.8383H79.5329L79.8027 30.7823H79.9544C80.1679 30.4451 80.4994 30.1698 80.9489 29.9563C81.3984 29.7428 81.8873 29.636 82.4154 29.636C83.1908 29.636 83.882 29.8271 84.4888 30.2092C85.0956 30.5912 85.5732 31.1194 85.9216 31.7937C86.27 32.4567 86.4442 33.2096 86.4442 34.0525C86.4442 34.8953 86.27 35.6538 85.9216 36.3281C85.5732 36.9911 85.0956 37.5137 84.4888 37.8958C83.882 38.2779 83.1908 38.4689 82.4154 38.4689C82.0671 38.4689 81.7075 38.4071 81.3366 38.2835C80.9658 38.1599 80.6399 37.9969 80.3589 37.7946C80.0892 37.5811 79.9094 37.3507 79.8195 37.1035V41.7054H78.1507V29.8383ZM82.2469 31.17C81.7749 31.17 81.3535 31.2936 80.9826 31.5408C80.6118 31.7768 80.3252 32.1083 80.1229 32.5354C79.9206 32.9624 79.8195 33.4569 79.8195 34.0188C79.8195 34.5806 79.9206 35.0807 80.1229 35.519C80.3252 35.946 80.6118 36.2832 80.9826 36.5304C81.3535 36.7664 81.7749 36.8844 82.2469 36.8844C82.7301 36.8844 83.1627 36.7608 83.5448 36.5135C83.9269 36.2663 84.2247 35.9292 84.4382 35.5021C84.663 35.0639 84.7754 34.5694 84.7754 34.0188C84.7754 33.4793 84.663 32.9961 84.4382 32.5691C84.2247 32.1308 83.9269 31.7881 83.5448 31.5408C83.1627 31.2936 82.7301 31.17 82.2469 31.17Z" fill="#E5E5E5"/>
<path d="M93.2829 38.2666L93.0638 37.4575H92.9121C92.7435 37.7384 92.4851 37.9801 92.1367 38.1823C91.7996 38.3734 91.3725 38.4689 90.8556 38.4689C89.8779 38.4689 89.1025 38.1486 88.5294 37.5081C87.9675 36.8675 87.6865 35.9966 87.6865 34.8953V29.8383H89.3553V34.221C89.3553 35.1313 89.4958 35.8168 89.7768 36.2775C90.0689 36.7383 90.5072 36.9687 91.0916 36.9687C91.7209 36.9687 92.1929 36.7664 92.5075 36.3618C92.8334 35.9573 92.9964 35.356 92.9964 34.5582V29.8383H94.6652V38.2666H93.2829Z" fill="#E5E5E5"/>
<path d="M97.4186 38.2666V31.406H96.0701V29.8383C96.4859 29.7934 96.8118 29.6585 97.0478 29.4338C97.295 29.1978 97.4186 28.8719 97.4186 28.4561V27.1918H99.0031V29.8383H100.571V31.406H99.0031V36.8338H101.296V38.2666H97.4186Z" fill="#E5E5E5"/>
<path d="M103.331 34.5245C103.387 34.9964 103.522 35.4122 103.736 35.7718C103.949 36.1202 104.219 36.3899 104.545 36.581C104.882 36.772 105.253 36.8675 105.657 36.8675C106.152 36.8675 106.584 36.7551 106.955 36.5304C107.337 36.2944 107.624 35.9629 107.815 35.5358L109.332 36.0584C109.029 36.8226 108.551 37.4182 107.899 37.8452C107.247 38.261 106.5 38.4689 105.657 38.4689C104.904 38.4689 104.224 38.2779 103.618 37.8958C103.022 37.5025 102.55 36.9687 102.202 36.2944C101.865 35.6089 101.696 34.8447 101.696 34.0019C101.696 33.1815 101.865 32.4398 102.202 31.7768C102.55 31.1138 103.022 30.5912 103.618 30.2092C104.224 29.8271 104.904 29.636 105.657 29.636C106.41 29.636 107.084 29.8215 107.68 30.1923C108.287 30.5631 108.759 31.0801 109.096 31.7431C109.444 32.3949 109.624 33.131 109.635 33.9513V34.5245H103.331ZM105.657 31.2374C105.084 31.2374 104.59 31.4228 104.174 31.7937C103.769 32.1533 103.505 32.6421 103.382 33.2602H107.95C107.826 32.6421 107.556 32.1533 107.141 31.7937C106.736 31.4228 106.242 31.2374 105.657 31.2374Z" fill="#E5E5E5"/>
<path d="M110.955 38.2666V29.8383H115.153V31.406H112.624V38.2666H110.955Z" fill="#E5E5E5"/>
</svg>
